
    <svg
      viewBox="0 0 110 100"
      xmlns="http://www.w3.org/2000/svg"
      fill="#313178"
      stroke="#FFFFFF"
      stroke-width="0.3"
    >
      <polygon points="0,0 0,100 110,100 110,0" fill="#eee"/>
      <path d="M82.53420109290782,45.37814799155048 81.91940262074569,45.998226545433575 81.39404767496121,46.722405304141326 80.97964983316899,46.95013600921337 80.03852017662498,46.95757417994934 79.9605351126629,46.466794804267536 79.48240412463292,46.14526359945762 78.68673935057484,46.86514416449677 78.18063409208364,46.91309319962721 77.916056804799,46.40484280309997 77.44719320404913,46.02886021045115 77.46643627178004,45.72504922919802 77.01340004459209,45.447860094170025 76.98375102485812,45.06876111643232 76.5798253306924,45.010458566716686 75.96630443406245,44.394679666901546 75.11018319712639,44.69636211272842 74.5832064585679,44.378802198574434 74.22097076803799,44.38690334409136 73.90258967802997,45.11274833034062 73.87868643840966,45.48789080872201 73.07247008197693,47.6939818551602 72.63267959903723,47.63397794245812 72.75574388255467,47.243831791818735 72.33407114174757,46.96668447310462 72.12932807848067,46.51460634890891 71.64707310311104,46.87568316590624 71.03960248646253,46.89103511969002 70.70353392587423,46.58696590779158 70.31823568014151,46.597078585443306 70.05774266282248,47.67512607923622 69.22063942849765,48.00887204427272 69.22752377333427,47.73108986657043 68.30774220534622,47.804833313057586 68.09102435380099,47.5890924814353 67.52859985889611,47.885501847933 67.12482641466428,47.54601600619668 66.51630990716556,47.427076262544716 66.68097152044601,46.59318468871083 67.21280039820185,46.37467152174667 67.16063824693953,45.56582257819954 67.3663014293721,45.10280218564827 67.01732472221506,44.62698243987529 66.30055851172239,44.60574277095592 65.42396296845962,44.13640903253926 65.28260221462631,43.24266868131531 64.88669281045792,42.77968881194305 64.56340000519145,42.15037067833574 64.01152047309887,42.365668611836526 63.54723098992797,42.92300993098555 63.250945999020665,42.9076398559517 63.157821995980306,42.38761110080006 62.267947610657615,42.62315061400854 61.92857588846019,42.35688218099022 61.46304192756882,42.725782510668786 60.934688320042994,42.26045475885716 60.31728174031775,41.92494561543053 60.193323815884,41.55705610544612 59.66637355557491,41.46865414002719 58.68608256821009,42.15667647845164 58.177633984649496,42.33472499879443 57.959022938274174,42.024254243535154 56.98392168778623,43.13129959940249 57.12196604088573,43.97655036784386 56.62275836635585,44.2600564007408 56.25003728907475,44.191847981669476 55.30216891806562,44.345437482386025 54.838415619444504,44.780118920052004 54.65950208843973,45.33678449830397 54.91285921755311,45.79548286342567 54.90724582868631,46.20189793295697 55.47574046225964,46.25407560723712 56.0397668912515,46.69362422612026 56.385387480300665,47.18182134773974 56.481827884074846,47.72557333018596 56.76513853278999,48.14122930050662 56.62217584486968,48.45765992077538 56.95954845923956,49.7107890182032 56.48587243666638,50.64199381252324 55.47301320257436,51.42674238310831 55.79432675870028,51.99136354018577 56.4417795319001,52.58953268823562 56.470263508661745,53.12856676332792 56.14791730081031,53.3122465311614 56.02630932100832,53.78340267018041 56.39211957520343,54.18336218858146 56.41897513962871,54.53582394140285 56.180756949593615,55.580595177351626 55.86881007418295,55.94120450473974 55.31131715322356,55.60105665361935 55.16149659871598,56.51404056775027 54.57351397360505,56.900528850007504 53.98629259816356,57.79698312504426 54.1671456609348,58.25032709632931 53.85964051185624,59.06345735457708 53.28969619412978,59.32625459357452 53.62878989470883,59.851573843408254 53.05153096059344,60.15094163952569 53.38513704399019,60.84359504461575 53.20696490396782,61.07919907357744 53.81757981272924,61.8667918921672 53.67251872354625,62.816774081243985 53.90912174036965,63.298369263778916 53.830110644244414,63.66259255830146 54.99639147475856,63.34590275467939 55.79866919159724,63.668404001373816 56.1956642039899,63.476130710293006 56.26677154267766,63.16652333302719 56.69887671373725,62.768024423016215 56.74641841048418,62.21728236033007 57.012921990410625,62.05507253122655 57.02927892896001,61.53919275225967 58.024139573041595,60.527246253397145 58.50657989615681,61.216918123485435 58.88876694758833,61.45366968601724 59.16580887076472,62.12876269011758 59.48605005779109,62.2301865758511 59.4695541084325,63.06329965715393 59.776092801409,63.609359545097206 60.30841814634055,62.347027637411045 60.31034443898234,61.94647387791094 60.72020788056966,61.084524091639615 61.00683493001862,60.91704966781043 61.292952273167174,61.315226082569595 61.62739242141912,60.8458980891213 62.69599499000097,60.321431630840436 62.9832045609361,60.76390600239997 63.483094050387294,61.8870856288166 64.2861462560201,61.615557226605766 64.34848267460347,61.188639148243865 64.78457282219348,61.216427790635294 64.86697975380065,61.69044778464623 65.45235427134847,61.62900643177583 65.63873466867605,61.95210647084959 66.39080962470594,62.60739707044204 66.36311999542545,63.25737391408785 66.76181623534023,64.37205069236954 66.98466380161506,64.41634981286565 67.31391421299013,65.54614009675596 67.83018049967774,66.11887617216803 67.70675214023142,67.04359319833438 68.26269608360258,66.82724506392692 68.3964112429298,67.08007790275266 69.23110495656181,67.59694300098728 69.72651962186917,66.81930180381218 70.29748335219642,66.8691513224584 70.27718777405299,67.34538612896115 70.5707918422114,67.39436009682079 70.64745299370489,66.8629618793874 71.05885879331812,66.81072439119028 71.45063097102219,67.200253790625 72.11165384702504,67.53383347637926 72.326551318926,67.00435092541093 72.94785682087124,66.95378426514192 73.25773177326857,67.29742697167777 73.32995119842997,67.9366308246419 73.75463584010309,67.66225781782678 74.20121799400667,67.61919572822062 75.14089134683523,67.13575877258084 75.25969925176616,67.39070233212549 75.78751005517985,67.43222488397758 75.98519666498919,68.05596581243562 76.58663024078093,67.95785794948776 77.52943464659771,68.26225415080681 77.51705606501643,68.70471906718745 77.90746461287787,68.77413022404015 78.04565459634891,69.12554373247453 78.69450409720311,68.96932035650022 78.9409702619175,68.39955927016858 79.7530912679601,68.30385230767436 79.6626150898569,67.6797035838083 79.19349332617567,67.08444122553324 79.2695587170583,66.87446340753696 78.32636375706329,66.83191528295688 77.96629928298185,66.38683321562195 77.88917476212436,65.82327354989555 78.42561747483322,65.20545763542205 79.14293310900035,65.48494559225627 79.31677605525044,64.76040811735075 79.09438523877729,64.66902270236174 79.46623915339147,63.942870102326914 79.42321861772477,63.53938929087482 80.05961010224956,63.66692107090265 80.51773677287922,63.51688842960572 80.78933079624734,63.17302557595292 80.65468227862978,62.90561460986133 80.93463018967472,62.49329700634641 81.4903954048626,62.467619756412056 81.69160362183837,61.9433985795475 82.28629848316503,61.59194460426266 82.49516553377157,61.79049006396069 83.01333825441392,61.34144208911667 83.90985868032891,61.44039406227897 84.31022304995412,61.23734715879181 84.67729102099439,61.4058218263121 84.70292196638623,60.51517488172487 84.44199867751486,60.391937143045574 84.32143658856306,59.8587108944138 83.5736378698067,59.77859703613027 83.74933429351282,58.78330282321922 84.73799902724141,58.82377267441138 84.75238995577494,59.1796798527588 85.65292183646976,59.32252778361551 85.60403636856721,58.96546374312419 86.31421611452866,58.63214001385077 86.70539915118422,58.77322729643809 87.73061048860815,58.25135057816047 88.28186116227816,58.50187502472731 89.09857614458677,58.027056213597305 89.18108236962905,57.749493969438475 90.44614030942446,57.24651127861813 90.24007995325132,56.61573527758654 90.79256186551709,55.69239324203745 90.26592272463814,55.414349088731754 90.14740608045027,55.05113590365232 89.43146069568813,54.687271638122326 89.44207847368618,53.301215104703296 88.91870939660463,53.2327199962824 88.29936990467522,52.77887165055062 88.02204995988042,52.42413256078959 87.99169264697572,51.49592511178856 88.12630144721926,51.27110539592672 88.78938962667308,51.22303455639369 89.40872249904015,50.918982101599816 89.7547865987663,50.39660255612405 89.60632967410135,49.82418632375712 88.8768141865362,48.94639306054529 88.68157019523142,48.365338142741926 87.94475333040201,48.22344546216383 87.98303425943118,47.540977254798115 88.4336675854886,46.76358390564604 87.9678489834165,46.35984521814857 87.64575431893412,45.51713776980727 87.17091987295092,45.46294545578979 86.07879137980228,45.59759532752708 84.90638083455858,46.14762260970938 84.58973406988441,45.8451401065881 84.10986213695826,46.04843557645175 83.81735691614878,46.79044908374992 84.23479313705643,47.31884358376987 83.44821702209519,47.76970864932749 83.06906173021672,48.1686763785373 81.80710836516018,48.119644797684835 82.02616954177482,47.74668478888094 81.87658067194926,47.422203947926185 82.31163154825141,47.18247800571043 82.98082958374779,47.0534111170415 82.81813398048321,46.711266940666505 83.31581253611186,45.88796189701568 82.53420109290782,45.37814799155048 M73.7313680784677,66.75022359311981 74.09212760659514,66.09082612613929 74.6126701305563,65.9279895775484 74.89559684465554,66.56105768648925 74.5999671904202,67.29845434892984 73.89097896568047,67.16433599376154 73.7313680784677,66.75022359311981Z" data-reg="84" data-libgeo="Auvergne-Rhône-Alpes"/>
<path d="M63.53109911649823,21.259378665416616 63.853319552665134,20.67542649178435 64.1755797062061,20.613832582966033 64.53366493114699,20.155566698760577 64.73185462769439,19.427088550117094 64.55854124643174,18.370621443688346 65.40684478024079,18.317386125913412 64.79507144806936,17.794571994260025 64.9137999182522,17.582979733434932 64.7291141288844,16.790353272494592 65.8686055905967,16.378785572489114 66.24152525474811,16.51232796861529 66.3711164267357,15.920957853839097 67.58973813669543,16.36940618994463 67.68488110625039,14.596655585287992 67.89180200552809,14.354977166397044 67.52544232765852,13.90520552385259 68.1729348182324,13.744083943979588 68.2619613121825,13.333663679074984 68.69056473476266,13.134256211443343 69.15597954353187,12.577371411945183 68.86388473558766,12.34935520438956 69.21114697609787,11.187639498214159 69.04403612475055,10.678651727935403 68.56475333287291,10.494603569162662 68.33012956519002,10.082310728970393 69.02752031670492,9.584927458318003 68.79914541587377,9.0355824418003 68.26223271423856,8.99942710751476 68.8321439341533,7.695819675225469 68.32450293719853,7.852467857392453 68.23156428190376,7.4802835855626055 67.59168428802424,7.042222688591334 67.09271491773873,6.982355790407632 66.65217642425425,7.185569024134044 66.24624500269863,6.973093129030176 65.38705890839778,7.036470941402906 65.0937527205448,7.332094057375896 64.80080398905835,6.788511506214425 64.8494577722789,6.014741618483214 64.43404713744822,5.603351863697259 63.8225385877705,5.622384357311476 63.78506524534716,5.362336374554853 62.73518941863347,5.6606360459923915 62.06765289328517,5.316549088337554 61.94844119505131,4.539280346231796 61.726162911138005,4.0959717213510425 61.764271731546266,3.588709316570225 61.371923651918344,3.484756152902373 61.05055713929369,2.8706983540866906 60.091283262367696,3.0361489022961843 59.494542956277066,3.313379191017109 59.228926397704576,3.7767847565984547 58.58474368830215,3.5497343489868025 57.938952425250406,2.850476583986691 57.2689004662118,2.659597216289508 57.00448866798572,2.2840522890796486 57.25213973435949,1.4228280414588679 56.85715706891908,0.9323218747689693 56.60795702495708,0.10144908333432243 55.30947691489222,0.4805346598140199 55.08400138236727,0.39902092978575865 54.1354445768745,0.6285882346527042 53.847626006203804,0.5143145733949006 53.418923290188516,0.8546338044489064 51.96677665989484,1.0717208376862806 50.58452598838018,1.502541259332238 49.97219661297196,2.041250934971444 49.50166488251167,2.129184729461863 49.69261939741821,2.870481870918944 49.594510863933635,3.4056062073794098 49.352016436625,3.71589487159381 49.503736805524994,5.2705684104300685 49.19390157050172,7.695835863965711 49.81015634637932,8.25669638100942 48.99199829947995,8.37539460134353 48.56185913843624,9.249000514593218 48.02658808826208,9.658176246423135 49.019045831213184,10.164786166140427 49.65674798908188,10.805951448247603 50.177151502233805,11.034333906017384 50.466810311235825,11.361545426593048 50.625362068473734,12.045774535457213 50.96062966201855,12.450185592116213 50.49014426849467,13.03994432259612 50.76310192170546,13.30378230299879 50.440093757619756,13.634056483872287 50.42100293982275,14.116955396568438 50.93681247670868,15.302678464044181 50.547674884817084,15.657877187129527 50.5244402209934,16.028666807789286 50.816230529069834,16.289685233062848 50.907540772028234,17.001124013274666 50.409590814343524,17.59153421018264 50.67304277602988,18.087423348684805 51.13708071583175,18.046116818605146 51.725692199365255,18.262699907628697 52.58172738199089,18.139365712330616 53.139432128945224,17.818077542698706 54.22632454828061,18.361920391963622 54.699219462497325,18.288685882992034 55.632438742041536,18.360372315874915 56.0629088812024,18.524003913211505 56.88405897028076,19.05085562759462 57.223112953485746,18.8398664127648 57.791971662987926,19.198748440493734 58.1539359514618,19.2369876194324 58.55117588766115,18.888438743851886 58.994984444943015,19.1495918960173 60.42762322501208,19.001140127150325 60.487331677345324,18.693789653771375 61.1746342158496,18.866011249750123 61.29806257529591,19.230092324572833 61.19098453483664,19.708120826279014 62.20021624876473,20.322564277699495 62.76310411303362,21.0322128261537 63.53109911649823,21.259378665416616Z" data-reg="32" data-libgeo="Hauts-de-France"/>
<path d="M86.70539915118422,58.77322729643809 86.31421611452866,58.63214001385077 85.60403636856721,58.96546374312419 85.65292183646976,59.32252778361551 84.75238995577494,59.1796798527588 84.73799902724141,58.82377267441138 83.74933429351282,58.78330282321922 83.5736378698067,59.77859703613027 84.32143658856306,59.8587108944138 84.44199867751486,60.391937143045574 84.70292196638623,60.51517488172487 84.67729102099439,61.4058218263121 84.31022304995412,61.23734715879181 83.90985868032891,61.44039406227897 83.01333825441392,61.34144208911667 82.49516553377157,61.79049006396069 82.28629848316503,61.59194460426266 81.69160362183837,61.9433985795475 81.4903954048626,62.467619756412056 80.93463018967472,62.49329700634641 80.65468227862978,62.90561460986133 80.78933079624734,63.17302557595292 80.51773677287922,63.51688842960572 80.05961010224956,63.66692107090265 79.42321861772477,63.53938929087482 79.46623915339147,63.942870102326914 79.09438523877729,64.66902270236174 79.31677605525044,64.76040811735075 79.14293310900035,65.48494559225627 78.42561747483322,65.20545763542205 77.88917476212436,65.82327354989555 77.96629928298185,66.38683321562195 78.32636375706329,66.83191528295688 79.2695587170583,66.87446340753696 79.19349332617567,67.08444122553324 79.6626150898569,67.6797035838083 79.7530912679601,68.30385230767436 78.9409702619175,68.39955927016858 78.69450409720311,68.96932035650022 78.04565459634891,69.12554373247453 77.90746461287787,68.77413022404015 77.51705606501643,68.70471906718745 77.52943464659771,68.26225415080681 76.58663024078093,67.95785794948776 75.98519666498919,68.05596581243562 75.78751005517985,67.43222488397758 75.25969925176616,67.39070233212549 75.14089134683523,67.13575877258084 74.20121799400667,67.61919572822062 73.75463584010309,67.66225781782678 73.32995119842997,67.9366308246419 73.25773177326857,67.29742697167777 72.94785682087124,66.95378426514192 72.326551318926,67.00435092541093 72.11165384702504,67.53383347637926 72.64970511338325,68.40745477579874 72.54123696483197,69.29241565544558 72.86895163774349,69.45152234247651 73.54304814937363,70.29191571939171 73.53593873941732,70.52106017897289 72.4273606338465,71.60730016929968 72.0572940010649,71.78399804523154 72.12722967721795,72.6808984931701 71.76539116042862,73.71068836395533 71.26959256050536,73.48173735831533 70.90738996778715,73.5721149936812 70.46732808279138,74.35664259949012 70.31733541966288,75.05245484939445 69.91023233557256,75.18710772033964 69.12533758944645,75.67121546228103 69.02233057982808,76.10762947529476 71.26033841234995,76.19848197941938 71.57918287172195,76.3823358977627 71.6099042605555,77.1585637536677 72.31220010776651,77.32506891944176 73.10811642519361,77.31840066414509 73.63280941474378,77.46800879537832 73.63764169525412,76.71069752398026 74.1728531693672,76.40076040062688 74.5238620821635,76.6680505126652 74.99092516195613,76.7224427935294 75.08817977189848,76.10840083610084 74.74132132469117,76.00810457094616 74.80557079679167,75.36706040683211 75.49940684332842,75.41606880891024 75.77219238791831,76.12655961609175 76.09945031102818,75.82991985953578 76.36455054373792,76.18788167348714 75.83787830504723,76.6647926946028 74.61828351942309,76.87138060265472 74.99164669425149,77.51830518958428 76.37778966842377,77.51263799628974 76.99951882235898,77.17215183095206 77.38187136284908,77.6912437130569 77.2446478354801,78.01888515616967 77.42238970395016,78.8073806533557 78.6105481880077,78.75109927890901 79.1340297976491,79.29664169007947 79.41743312023706,79.00321092442697 79.81742017480872,79.4935988076932 80.64312452277902,79.79176057641804 80.64679837987934,80.31786811109328 81.00996080913727,80.52342916795487 81.58058032222269,79.76046008259031 82.10817268007905,79.91654929789053 82.2353675704985,80.1899655902169 83.20370362827195,80.18731291378666 83.41092240785513,79.86816197787716 84.0983970549803,79.73851496313229 84.70183635816198,80.07464657508899 84.7870566037649,79.55883489059597 85.81804019955185,79.35512901725917 86.13399852974234,79.02520530535962 86.9197008624743,78.93270840696434 87.05663974866253,78.04741979202447 86.97171076380272,77.62854885911865 87.56497579966332,76.50960382111528 87.88048399961447,76.66255818440744 88.62173597121365,76.45176186772089 89.03725913860417,75.85552753738902 88.96852822279752,75.50314845997387 89.27414017704602,75.18421121989734 89.83637270464293,75.1806148834819 90.328596740901,74.7690540815876 90.67017939692097,74.01213036934654 92.47334817913564,73.18929134185913 93.22373514676808,72.67916585182658 93.12582520015378,71.70514049504013 93.58280006693573,71.40893643745491 93.7363805328541,70.88396815747858 94.24334633444988,70.65432810023636 94.31130938102476,70.09127202070484 94.5935542802027,69.9530473710923 94.70942309945337,69.52005068438919 94.38292642601294,69.1032106579499 94.47624239636126,68.54826431576807 93.96180310888029,68.80407371430823 93.14931802690884,68.8706129799288 92.53520136966802,69.18287597043545 92.06133999934923,69.1316490628391 91.94904574376372,68.84064954172054 91.51067846672775,68.89656413629059 90.81016328178697,68.28133369336818 90.48080033785203,68.26767142908099 89.41863198386753,67.75080958735956 89.38847987739548,67.42613916082134 88.88887502912502,66.86381232989386 88.64276632077716,65.95277434006282 88.95617611946561,65.75111526036052 88.44249146209174,65.17397305357862 88.35886653101349,64.82503243367422 88.93821724682924,64.35161070974804 89.15778151018193,63.262163647548775 89.6608550091201,63.123765374997056 89.4293887726748,62.0960188937679 89.44804269935716,61.55292379863325 88.92336956849404,61.3316646774524 88.43620949742831,61.46291389668282 87.99250685314391,61.18546554875238 87.57887688058346,60.7212678326098 87.70018698008003,60.32770120008788 87.53681618145647,59.73559093132459 87.01985484072287,59.68748179583044 86.70539915118422,58.77322729643809 M73.7313680784677,66.75022359311981 73.89097896568047,67.16433599376154 74.5999671904202,67.29845434892984 74.89559684465554,66.56105768648925 74.6126701305563,65.9279895775484 74.09212760659514,66.09082612613929 73.7313680784677,66.75022359311981Z" data-reg="93" data-libgeo="Provence-Alpes-Côte d'Azur"/>
<path d="M69.04403612475055,10.678651727935403 69.21114697609787,11.187639498214159 68.86388473558766,12.34935520438956 69.15597954353187,12.577371411945183 68.69056473476266,13.134256211443343 68.2619613121825,13.333663679074984 68.1729348182324,13.744083943979588 67.52544232765852,13.90520552385259 67.89180200552809,14.354977166397044 67.68488110625039,14.596655585287992 67.58973813669543,16.36940618994463 66.3711164267357,15.920957853839097 66.24152525474811,16.51232796861529 65.8686055905967,16.378785572489114 64.7291141288844,16.790353272494592 64.9137999182522,17.582979733434932 64.79507144806936,17.794571994260025 65.40684478024079,18.317386125913412 64.55854124643174,18.370621443688346 64.73185462769439,19.427088550117094 64.53366493114699,20.155566698760577 64.1755797062061,20.613832582966033 63.853319552665134,20.67542649178435 63.53109911649823,21.259378665416616 63.20059098827799,21.915286074592515 63.41832825242405,22.36305146410217 63.42242576151431,22.864940249033744 63.20450314962266,23.088912025120926 63.66351684160624,23.656608353267625 63.523532956740254,24.188245323614748 63.055112866667365,24.50483526516375 62.82008530568157,24.897208350380865 63.01318455878724,25.745607779456353 63.62399143485659,25.946857394397554 63.96497833026571,26.433263298094396 64.28945603719156,26.61759418878739 64.87878243345808,28.200744056994026 65.27416889220142,28.043957286235468 65.66747680836906,28.303414608706746 66.69732845899539,29.80791624735092 66.58842341932947,30.200043847800938 67.44691445958433,30.261745989473763 68.54767486202815,29.962395449034766 69.48350224913546,30.29832975120771 69.60290591467727,29.950873471345385 70.4002123401964,29.876981739147315 70.62077615746288,29.997988967248194 71.39748250497081,29.884185273260243 71.60136502513309,29.28365170177229 72.47547823251728,29.333768708555237 73.14355756197769,29.489060500672384 73.12164019106025,29.921040710853934 73.5539770468018,29.950103779100054 74.35654602438356,30.88088061355803 74.61830337811013,31.484486550539472 74.39214603066385,31.955334346850584 74.36047804441527,32.516474138724 75.49706351825903,33.02577427386141 75.98162210132398,33.0080154228146 76.45765468809125,33.35812535914096 77.30996305711781,33.60407762182145 77.69030987021799,32.789705849131046 78.25224451750948,32.67984490474677 79.09268401125516,32.80471388993872 79.78758580732912,32.67907300217782 79.70565548421065,31.835066736595287 80.08460556965647,31.365622740481136 80.55963198294762,31.07665057769437 80.97014414164455,30.49383397157391 81.45952176609518,30.086019956718122 82.08034403998938,30.000890670158316 82.30230458491023,29.577992312044742 83.03122431186452,29.331506557282253 83.30153414013814,30.037668164780484 83.81731057921237,30.22979060426398 84.10726726851983,30.023365177612526 84.7532438793172,29.937102250888003 85.26765668854878,30.130488211155356 85.58791111469982,30.696761209756293 86.07232406739324,30.522884962898722 86.51514630988602,30.111914399722156 86.81759411333458,30.512643163658453 88.33128943429283,31.472413666582813 88.42047479773916,31.682462344197557 88.99509914604204,31.82275081720064 89.52751054528406,32.11806501065215 89.7721033738554,32.810580850790174 89.50852564048454,33.47097998686187 90.06100755275034,33.58566083426204 90.39235636538812,34.48067746359272 90.83917682353602,34.62974687970365 90.72653173114635,35.07664230493176 92.27684647098573,35.18402942901704 93.18546083730125,34.50238109799755 93.10252434070665,34.1510478595142 93.74137168286067,33.707715045696766 93.7991207447404,33.49375845911295 93.29286985587765,32.917203009941694 93.20457151378528,32.53939643091243 93.4542216879866,32.2755269764564 93.35539824176898,31.653149061493803 93.58630181541514,31.0646205744324 93.74086197656027,30.224147997245925 93.97306960398795,29.66322923551862 93.62384135346191,29.220083548324183 93.68746196713984,28.38648956668894 94.3529596672865,27.37316912297882 94.54029328159147,26.615578241131452 94.89607489883704,26.402469989670283 94.83716741354728,25.665757528180865 95.08538776228255,24.80330040677198 95.36398528260949,24.547066221633997 95.33366768707889,23.843372727043093 95.61806394401827,23.303285384960994 96.00505679771078,23.08150350191143 96.53367518773028,22.51784920021021 96.56914942232606,22.221738323576695 97.39781271466366,21.785004184636 97.77761672365172,20.950625269611358 98.30585117905531,20.214425213591014 97.31911935753087,19.860641613127317 96.29678752972612,19.26942537275204 95.82502456067003,19.50932241271215 95.28609289252026,19.194207090997686 95.0997522125667,19.37040733800592 94.4045061992509,19.395219686911222 94.08306687144045,19.1280242369364 93.32937674219892,18.892991310782453 92.71785495339653,18.053965638881706 92.12404711342381,18.172140977086553 92.10735257719493,18.42951440006129 91.6332065656954,18.69864971506009 91.23992512777713,18.575797883578026 90.60632047899873,18.66827453213039 90.09003433362409,18.574740405741416 89.8527561214417,18.748896860644987 89.59173353913519,17.96830837849658 88.8347998243456,17.710844532024883 88.21052213890839,18.371491566241378 87.50665745542209,18.252534459966416 87.14718212238917,17.708444218029417 87.14433571058169,17.4265359485602 86.24961580562399,16.50926137165767 86.50207929382107,16.30055698348514 86.14813791490684,15.79442232058697 85.21525623304213,15.25301511617917 84.74921918541268,15.41643334702493 83.84096227546367,14.904256308870217 83.19762687004115,15.013980290287687 82.9733230000509,15.283029375550747 81.8720859891184,15.359281245460124 81.81130516768559,15.105102220096095 81.06311589475104,15.021188968792732 80.40153697551139,14.426415935832676 80.27769158363746,14.619133681852336 79.59763746589869,14.532719913674432 79.23136384233959,14.769812573267878 78.7970212592081,14.750658717260514 78.37606343113403,14.96683407918524 77.9920560000582,14.858306766712568 77.83142570024461,14.095629716794852 77.24703749748589,13.782539047904173 76.65769124253231,13.158583507393443 75.9054243191945,13.186340292971755 75.21471270608362,12.538740364001525 74.46410729289386,12.15833102263458 74.02176827845211,12.30917631765523 73.60046623313622,11.663237806184688 73.88567669624379,11.140540246028262 73.35615804574562,10.33890543359149 73.58557883742697,9.329457045472967 73.92450042938509,8.995600765560466 73.4040902966708,8.765840178372374 72.49959991769492,9.376804125876836 72.37273600539262,10.214675329266134 70.60952290147989,10.873376308372679 69.5887731490751,10.569664231040123 69.04403612475055,10.678651727935403Z" data-reg="44" data-libgeo="Grand-Est"/>
<path d="M35.54215308555348,82.65262349910634 36.26432085891799,83.22016704496596 36.712538044720255,83.26013140788075 37.38461558983579,84.30264182061975 37.85756346055125,84.41945792570127 39.146776183335994,83.87242562468843 39.767744087601756,84.09015960546759 40.03851728523939,84.54198869058261 40.49780237927904,84.03739094521407 41.003841442146815,84.36598937764172 41.72974264867273,84.23508277359227 42.780770279234105,84.37908496868108 42.880930877044996,84.16656173482511 42.62463466225136,83.38010987100157 42.710000538225806,82.76579724457655 43.07049528385954,82.5231264495686 43.59977563011335,82.79722581828187 44.17346662012589,82.9075328032124 44.70736742089508,83.30446844380401 44.9243897723081,83.12071705233053 45.98186485659148,83.47847132346236 46.44874920820081,84.16515186585337 47.852798098510746,84.05008940663467 48.27316678553629,84.75817937159137 49.2697882332011,84.74354266894728 49.62822429494618,85.03995943984425 50.64407557121721,85.17854849069475 50.72482099267628,85.74677064504196 50.60036660106682,86.50393557996316 51.14613627711689,86.52779756028328 52.15311733984838,87.18141650377825 52.346759397066165,87.73402129053373 52.76029007619146,87.98832350042404 53.21703325829144,87.88511287945349 53.538221042732836,87.36912260338681 54.0612194243232,87.32754258598314 54.48204486115041,87.08786420533207 55.635457262469906,87.5980360469142 56.12788650516062,88.13627081759422 56.56244091428707,88.22559150800257 56.848214040193774,87.96183929478602 57.524137551030556,88.15222103946947 57.401152702261236,87.6308223903241 57.86869901010486,87.27546148594817 58.29080202246426,87.37690728887185 58.7626378067061,86.8774938021541 59.39904914991793,86.8742710446508 60.25507109341886,86.7028627449489 60.5834808203764,87.22338112568961 61.236110091328406,87.11667277048247 60.969573413590254,86.26532879236188 60.33474414577838,85.98722617321117 60.22896353953835,85.1799197408879 60.2409383278167,83.22659311854281 60.40310436609385,81.9241680227718 60.25874495051919,81.79069658419291 60.44159050155566,80.79781241355639 60.70906053758416,80.15319590226834 61.26407774222729,79.25657537150353 62.04585467448991,78.45248521438573 62.821925544012906,77.9848803182109 63.76078469067329,78.06365950053497 64.66847893782315,76.95134081724457 65.88136148723154,76.2618755572095 66.64376296051638,75.5040779168627 67.37772017441365,75.13359594930486 68.07221155762235,75.1044221535829 68.16224422504858,75.61574314844812 68.43513568263594,75.93456442270228 69.02233057982808,76.10762947529476 69.12533758944645,75.67121546228103 69.91023233557256,75.18710772033964 70.31733541966288,75.05245484939445 70.46732808279138,74.35664259949012 70.90738996778715,73.5721149936812 71.26959256050536,73.48173735831533 71.76539116042862,73.71068836395533 72.12722967721795,72.6808984931701 72.0572940010649,71.78399804523154 72.4273606338465,71.60730016929968 73.53593873941732,70.52106017897289 73.54304814937363,70.29191571939171 72.86895163774349,69.45152234247651 72.54123696483197,69.29241565544558 72.64970511338325,68.40745477579874 72.11165384702504,67.53383347637926 71.45063097102219,67.200253790625 71.05885879331812,66.81072439119028 70.64745299370489,66.8629618793874 70.5707918422114,67.39436009682079 70.27718777405299,67.34538612896115 70.29748335219642,66.8691513224584 69.72651962186917,66.81930180381218 69.23110495656181,67.59694300098728 68.3964112429298,67.08007790275266 68.26269608360258,66.82724506392692 67.70675214023142,67.04359319833438 67.83018049967774,66.11887617216803 67.31391421299013,65.54614009675596 66.98466380161506,64.41634981286565 66.76181623534023,64.37205069236954 66.36311999542545,63.25737391408785 66.39080962470594,62.60739707044204 65.63873466867605,61.95210647084959 65.45235427134847,61.62900643177583 64.86697975380065,61.69044778464623 64.78457282219348,61.216427790635294 64.34848267460347,61.188639148243865 64.2861462560201,61.615557226605766 63.483094050387294,61.8870856288166 62.9832045609361,60.76390600239997 62.69599499000097,60.321431630840436 61.62739242141912,60.8458980891213 61.292952273167174,61.315226082569595 61.00683493001862,60.91704966781043 60.72020788056966,61.084524091639615 60.31034443898234,61.94647387791094 60.30841814634055,62.347027637411045 59.776092801409,63.609359545097206 59.4695541084325,63.06329965715393 59.48605005779109,62.2301865758511 59.16580887076472,62.12876269011758 58.88876694758833,61.45366968601724 58.50657989615681,61.216918123485435 58.024139573041595,60.527246253397145 57.02927892896001,61.53919275225967 57.012921990410625,62.05507253122655 56.74641841048418,62.21728236033007 56.69887671373725,62.768024423016215 56.26677154267766,63.16652333302719 56.1956642039899,63.476130710293006 55.79866919159724,63.668404001373816 54.99639147475856,63.34590275467939 53.830110644244414,63.66259255830146 53.90912174036965,63.298369263778916 53.67251872354625,62.816774081243985 53.81757981272924,61.8667918921672 53.20696490396782,61.07919907357744 53.38513704399019,60.84359504461575 53.05153096059344,60.15094163952569 51.907597772549025,60.13829117328973 51.286338607540166,60.66419705586865 50.7753348729152,60.52274422291945 50.02226036297155,59.64589937187461 49.2009447848346,59.44255969478183 48.23396573734144,59.83680556913742 48.48012078262572,60.779560259065164 48.45582036926481,61.21218710736624 47.879421978254015,61.57124609934271 47.90230580527353,61.867628583460174 47.427338968043465,62.02094814771064 47.59470798232217,62.37585415956521 47.334797486489286,62.87888976817263 46.820278764260216,63.21343596018416 46.315232635743875,63.34143199538699 46.33048410738199,63.72735966296719 45.315996460953606,64.74425919153161 45.37271287110786,65.69792211134857 45.6419768085313,65.87947561524582 45.579779400757104,66.56635100703478 44.38392236569473,66.5348284267326 44.27547407583048,67.11021039605315 44.85749247527042,67.48379602443471 44.40672013840379,68.77814380307673 44.23812650509166,69.04755145729423 43.71154694027377,68.84674253194524 43.300147760222885,69.73372930949101 42.85837140858029,70.07165928750838 42.28141697433268,69.55893634201837 42.023737271009374,69.75011921634245 41.237478895040596,69.79675269522312 41.11159467796505,70.07989021290085 40.485172254328724,70.2108160589477 40.05226611622567,70.45958505038197 39.42159393356516,70.154721709181 39.07090937932365,70.4569905620265 38.39576035728099,70.57038276884444 38.07836558206208,71.43515906817645 37.31029776341169,70.94914328858047 36.92287463816692,70.96924827278087 36.230759677839316,71.52947983986176 36.458187981255435,72.14599417261718 36.179855243422175,72.41361921172346 36.42115152994673,73.16781986811982 36.00462218908008,73.47544427403997 36.05567225386878,74.04189587381877 35.804512819453244,74.45278392041537 36.341743260080925,74.79686871872667 37.13529639375161,74.81171478588273 37.22574609360543,75.22950492606438 37.52141546521482,75.41724071929762 37.33761007763863,76.40102470838247 37.92158124796974,76.51582414849601 37.825332811503515,77.04923833523546 37.510162209231844,77.82357845851064 37.726251202354504,78.12320033357027 37.319472476819,78.62502139154752 36.79826137706122,79.60701534932035 36.457387014211946,79.80297016347131 36.38879510921448,80.5535903521199 35.9383868482767,80.6344375508686 35.69442287812794,81.12172002264263 35.792524792050195,81.6529815584751 35.441767422622924,81.92686289392003 35.54215308555348,82.65262349910634Z" data-reg="76" data-libgeo="Occitanie"/>
<path d="M48.02658808826208,9.658176246423135 46.71335297373483,10.547280605786314 45.71644026532693,10.97770148675201 44.94647263228411,11.03895578953716 43.515164384246006,11.493778686123665 43.03598750536583,11.488873299462982 42.0692732403664,11.704347907038336 40.56323013347658,12.48617875356993 40.227161572888264,12.726410459029166 39.381042494652355,12.991466229058906 39.05673689634743,13.267993857844202 38.97998307098113,13.648970822790533 38.335767263766996,14.915966444981729 38.738700023581266,15.379550436572563 39.854135995739355,15.53643482862728 38.66634158761068,16.044813957553636 38.18323930826115,16.484180676791052 37.189020761726844,16.99196716988111 36.20896807860639,17.084439402007906 35.603867265276634,16.951063420634682 34.802973036967636,16.600867131896507 34.033482012413515,16.50952486197725 33.4385025099061,16.56111854601286 31.58859961755033,16.347589636732973 31.065290116529845,16.074246458152274 29.970639570128558,16.077883808636326 29.6336376512499,16.34049716871206 28.631521966840456,15.223066017987538 28.231084782029473,14.664446777558197 28.790364984821455,13.844368638755649 28.47483030662092,13.272411818190816 27.76610686437489,13.064676080118847 27.373712447810576,13.090979594351271 26.886459702872042,13.426606398949174 25.905182400718164,13.679046083135338 25.1717348931213,13.314665913404026 24.415370460693197,13.217118716315653 23.556363094575605,12.87211750379485 23.50285055259534,13.360379318992441 24.137428277038183,13.595980235689503 24.279960693406185,14.335651664806825 23.949167924005184,14.769350680944067 24.196150414582323,14.928417805624846 24.41492695001623,15.963904660979948 25.264686787540743,16.766157633516432 25.76139226750498,17.701981520769927 26.006415367628616,17.935984026542126 26.120192405178923,18.53203803084756 25.98262466056812,19.02479832462305 26.339902298903183,20.02670179493882 26.339213864419513,20.671861273271475 26.06688506963129,21.41778165567562 26.24700336098248,21.547947834247687 26.25104129401167,22.215331808554584 26.6882898650117,22.72718625757669 27.46950413447514,23.281490838546826 26.947942197913203,23.524516790939114 26.27505044662949,23.44668157701476 26.52264193694216,23.712140002992335 26.637378811032214,24.269492335895546 26.936437398561193,24.803207589779223 27.661054409992577,25.096066707187358 28.425454991104974,24.584337185820495 28.59166558197366,24.261012185211076 29.96519828988268,24.588933417737728 30.459878183769977,24.781065926384702 30.79665503752899,24.517617367526917 31.511190455512093,24.660072840440094 32.118296996231756,25.01065303394075 33.03055212183588,25.21484325775694 33.62903337282272,24.980742823182926 34.09635461554668,24.588371200690517 34.57706723289041,24.537064113430503 35.1342093170456,24.728419964790657 35.755382427744,24.611423143831246 36.331132101645196,24.07275816160872 36.76924783531214,25.099441117168986 37.47474093113481,25.13392544655286 37.44578696544683,25.861810293110594 37.873788007853776,25.68733175449552 38.309891394568474,25.816857026114572 38.722078302538165,25.292985727116378 39.11986104284963,25.016389331538928 40.06824573972149,24.865832130585265 40.49116957781142,25.10281557289161 40.66932847870909,26.29444306225307 41.48371999463532,26.781857716737438 41.799962966006554,27.117434415684265 42.45680227860866,27.162539353573035 42.65333046500797,26.976714223789955 43.28903351504909,27.710526653573996 43.72978383452853,27.656803833137868 43.968505111301695,27.466820635016067 43.420445066680976,26.62849811665444 43.63795064614504,26.231289863345065 44.54982845669564,25.93964859486253 45.04553438274609,25.27160249851566 44.791204177968304,25.088522365644366 44.97924608544397,24.442510222896203 44.73324990965594,24.14498773545871 44.11083232123707,23.85415012466965 43.872077946652205,23.551440830633705 43.94640901220098,22.91760522780261 44.2802732585291,22.602100763062676 44.935265713237534,22.48019369236246 46.38183867203845,22.055384018840442 47.670654221082614,22.125663931186562 48.00157938173047,21.863638471039796 47.88513466055596,21.431039482601264 48.643935091926245,21.016046217340175 48.53547356293731,20.569952395069542 48.91405957245428,20.397354193286727 48.50805533571289,19.38160747370822 49.677685664772575,19.00746801372687 50.057880227938874,18.56156473593412 50.210540574691564,17.774258751049636 50.409590814343524,17.59153421018264 50.907540772028234,17.001124013274666 50.816230529069834,16.289685233062848 50.5244402209934,16.028666807789286 50.547674884817084,15.657877187129527 50.93681247670868,15.302678464044181 50.42100293982275,14.116955396568438 50.440093757619756,13.634056483872287 50.76310192170546,13.30378230299879 50.49014426849467,13.03994432259612 50.96062966201855,12.450185592116213 50.625362068473734,12.045774535457213 50.466810311235825,11.361545426593048 50.177151502233805,11.034333906017384 49.65674798908188,10.805951448247603 49.019045831213184,10.164786166140427 48.02658808826208,9.658176246423135Z" data-reg="28" data-libgeo="Normandie"/>
<path d="M29.711298356657178,46.40657435067903 29.65392660983098,46.89820049369264 28.781349140910386,47.92095749119845 29.273228959926627,48.16733310757109 30.014540507586883,49.11545716734394 29.871240221987104,49.65424107898288 29.94275797354013,50.470448829892185 29.70107775239969,50.972223487619274 29.247088308234385,51.18659448331857 29.336439160739275,51.631678893190816 28.687212344831543,51.862737985097965 28.72982908719534,52.588187746310204 29.62664739341575,53.220627477278704 30.51386071467659,53.727417103863175 30.565784561694546,53.96184022339287 31.604983034349093,54.74947798316472 31.942905072393422,55.1542659446719 32.43927295467818,56.08940198582702 32.91365727042206,58.15231225076958 32.92977590472709,58.593876885530655 33.16430699853717,59.13683880014894 33.50177228677984,59.46666277321221 33.36619703043425,59.7480793413694 32.81966610471476,59.0913721532036 32.34732723373485,57.761519469117275 32.19334959407592,56.90708597030517 31.926898970648214,56.30058226804675 30.968498875951497,55.31896773752095 29.744588135679777,54.30614899570044 29.35905158570274,54.9015815266992 29.294689581042405,56.7837855700447 28.825137545808865,61.479141685610344 28.626663208080746,62.926351133874206 29.187029019096958,62.565156944561835 29.281874108346496,62.22293328868408 30.05881214053642,62.93821929873089 30.347530971685742,63.56054962686341 29.771814395596255,63.635634253451116 29.047104710292075,63.4607703689095 28.96702124506728,63.94684154553896 28.594737058900783,64.76108519755714 28.64223241871132,65.23258798040476 28.17796279422744,68.86961437891159 27.717856874457272,71.29664674590202 27.249112425829583,73.47944205695842 27.19696351369195,74.13748726762753 26.642985580336667,75.37962382226269 26.06406513607321,76.39985619151095 25.569861850674595,76.87817206924163 24.64536053473603,77.04262450101568 25.048908913848187,77.50006164509777 25.891526243604684,77.7969214164739 25.930270541997864,78.27114838321937 26.243382460380893,78.35558016689251 26.554601183933844,77.88719809008623 27.662689441891278,78.32157535926152 27.62888995656827,79.01124567925582 27.411225507607977,79.67071425127502 27.00879583453177,80.05728748178919 27.230107662343016,80.53701615293058 27.873813763256752,80.7299000975191 28.208478976628356,80.29444306604547 28.65707347748417,80.57602636174273 29.633127944949496,80.78078897608322 30.360127998824332,81.09886609628266 30.66530968152053,81.42514375168004 31.877967165809256,81.55675902356342 32.314421389328146,81.40216303716623 32.45361754627532,82.11715741225423 33.40483541582995,82.83484896020738 33.78995493337939,83.4070064951576 34.08725271732515,82.91767730778292 34.60188397211405,83.23499335379026 34.946154170445254,83.17589793602545 35.54215308555348,82.65262349910634 35.441767422622924,81.92686289392003 35.792524792050195,81.6529815584751 35.69442287812794,81.12172002264263 35.9383868482767,80.6344375508686 36.38879510921448,80.5535903521199 36.457387014211946,79.80297016347131 36.79826137706122,79.60701534932035 37.319472476819,78.62502139154752 37.726251202354504,78.12320033357027 37.510162209231844,77.82357845851064 37.825332811503515,77.04923833523546 37.92158124796974,76.51582414849601 37.33761007763863,76.40102470838247 37.52141546521482,75.41724071929762 37.22574609360543,75.22950492606438 37.13529639375161,74.81171478588273 36.341743260080925,74.79686871872667 35.804512819453244,74.45278392041537 36.05567225386878,74.04189587381877 36.00462218908008,73.47544427403997 36.42115152994673,73.16781986811982 36.179855243422175,72.41361921172346 36.458187981255435,72.14599417261718 36.230759677839316,71.52947983986176 36.92287463816692,70.96924827278087 37.31029776341169,70.94914328858047 38.07836558206208,71.43515906817645 38.39576035728099,70.57038276884444 39.07090937932365,70.4569905620265 39.42159393356516,70.154721709181 40.05226611622567,70.45958505038197 40.485172254328724,70.2108160589477 41.11159467796505,70.07989021290085 41.237478895040596,69.79675269522312 42.023737271009374,69.75011921634245 42.28141697433268,69.55893634201837 42.85837140858029,70.07165928750838 43.300147760222885,69.73372930949101 43.71154694027377,68.84674253194524 44.23812650509166,69.04755145729423 44.40672013840379,68.77814380307673 44.85749247527042,67.48379602443471 44.27547407583048,67.11021039605315 44.38392236569473,66.5348284267326 45.579779400757104,66.56635100703478 45.6419768085313,65.87947561524582 45.37271287110786,65.69792211134857 45.315996460953606,64.74425919153161 46.33048410738199,63.72735966296719 46.315232635743875,63.34143199538699 46.820278764260216,63.21343596018416 47.334797486489286,62.87888976817263 47.59470798232217,62.37585415956521 47.427338968043465,62.02094814771064 47.90230580527353,61.867628583460174 47.879421978254015,61.57124609934271 48.45582036926481,61.21218710736624 48.48012078262572,60.779560259065164 48.23396573734144,59.83680556913742 49.2009447848346,59.44255969478183 50.02226036297155,59.64589937187461 50.7753348729152,60.52274422291945 51.286338607540166,60.66419705586865 51.907597772549025,60.13829117328973 53.05153096059344,60.15094163952569 53.62878989470883,59.851573843408254 53.28969619412978,59.32625459357452 53.85964051185624,59.06345735457708 54.1671456609348,58.25032709632931 53.98629259816356,57.79698312504426 54.57351397360505,56.900528850007504 55.16149659871598,56.51404056775027 55.31131715322356,55.60105665361935 55.86881007418295,55.94120450473974 56.180756949593615,55.580595177351626 56.41897513962871,54.53582394140285 56.39211957520343,54.18336218858146 56.02630932100832,53.78340267018041 56.14791730081031,53.3122465311614 56.470263508661745,53.12856676332792 56.4417795319001,52.58953268823562 55.79432675870028,51.99136354018577 55.47301320257436,51.42674238310831 56.48587243666638,50.64199381252324 56.95954845923956,49.7107890182032 56.62217584486968,48.45765992077538 56.76513853278999,48.14122930050662 56.481827884074846,47.72557333018596 56.385387480300665,47.18182134773974 56.0397668912515,46.69362422612026 55.47574046225964,46.25407560723712 54.90724582868631,46.20189793295697 54.91285921755311,45.79548286342567 54.65950208843973,45.33678449830397 54.43196787202612,45.27703973618014 53.1224661906603,45.34047271267877 52.53721082523465,45.22849952177884 51.258311380580196,45.240036538427816 51.10011046014648,44.98469781792366 50.58162000051164,45.65173852290706 50.25766523901089,45.3600311027939 49.96890669048752,45.68283653525044 49.09081512613525,45.272643741595026 48.46269809453912,45.98224455271073 47.844391254335214,45.54261525760422 47.53391392176468,45.79823473508087 46.9727537632673,45.884781772698425 46.52723735890097,45.70440999602342 46.790537070653414,45.20861183341801 46.33818265838682,45.05147897579141 46.29977595767313,44.47637552529495 46.01385720139486,44.21013853028591 45.38379401846992,44.16706272272985 44.60009741312786,43.555121231020614 44.43959288499879,43.26049167463687 44.674130598371214,42.531441253819374 44.446119773468915,42.14077894872124 43.83253930077786,41.55403693799513 43.662674711495896,40.976581706626725 43.04786961977141,40.477246462002434 42.943929251862684,39.75065213651231 42.097902847499576,39.44891039524358 42.26292853670887,39.934762106280445 41.547942988486454,39.92813868374416 41.08275986439925,40.20490482913365 40.551261964760556,40.00033475808216 40.14369551130623,40.11984080116195 40.04883718293202,38.95644538415169 38.846287770340936,38.28214174710127 38.41362655604456,38.2579076936989 38.24770060635664,37.85982409160819 37.989623729292745,37.736823551480995 37.58449327478063,38.24467004295917 37.634279003161815,38.54098697087475 36.532512427241876,38.796322237040116 36.52116649738608,38.41389969363583 36.02730080966696,38.445688797070986 34.894097932180436,38.78916336881885 33.73940795532875,38.86278818432973 33.462359412590025,39.51868175483639 32.60234587299631,39.63130937572673 32.1597354564985,39.45186935557862 31.341676703034285,39.86093581528899 31.740578149381708,40.166001026581924 31.818225615664307,40.68768463494613 32.08586776031372,41.07118486338478 32.63434483736205,41.30790183672751 32.498630570207254,41.85674492030257 33.01503586770405,42.509319602551514 33.31446515072423,43.28772953258601 33.41268621676866,44.19459023743285 33.14852596191162,44.30835224437867 33.35522841563203,45.4049992921602 33.88493241387578,45.682484842023385 33.73156377395238,45.936617295153475 32.71208497751743,46.30402856677057 32.532019642665006,46.53168973146825 31.895502386455693,46.15973250956805 30.96644019206286,46.44066598487513 30.382833097660598,45.99429697764698 29.711298356657178,46.40657435067903 M26.98572665976665,47.54428372764986 27.87596512101819,48.02517898294639 28.404113522111366,48.13545764409867 28.338467322356518,47.72001894524338 27.798555958979957,47.50343286569317 27.330109390657697,47.51999501899303 26.69096416819823,46.99138596131083 26.375568500806907,47.241015134512786 26.537734539084045,47.538062786117685 26.98572665976665,47.54428372764986 M28.879113457153142,50.57717070677727 28.753858098500178,49.7924998549029 28.163353420136602,49.67517849423722 27.761248105615202,49.31363093071739 27.63938858244415,50.09640059977222 28.49999788264874,50.8245783460108 28.779230880960636,51.638188941453926 29.04068373481942,51.353424211348035 29.093527701003048,50.77245150527873 28.879113457153142,50.57717070677727Z" data-reg="75" data-libgeo="Nouvelle Aquitaine"/>
<path d="M54.65950208843973,45.33678449830397 54.838415619444504,44.780118920052004 55.30216891806562,44.345437482386025 56.25003728907475,44.191847981669476 56.62275836635585,44.2600564007408 57.12196604088573,43.97655036784386 56.98392168778623,43.13129959940249 57.959022938274174,42.024254243535154 58.177633984649496,42.33472499879443 58.68608256821009,42.15667647845164 59.66637355557491,41.46865414002719 60.193323815884,41.55705610544612 60.46943900033238,40.97232808649305 60.327720790132545,40.43930164151616 60.540447045585005,39.95575272548926 60.5152066543714,39.305869327852434 60.150250323718524,38.89602120302487 60.165448838857905,38.21209818721227 59.82212523794174,37.277482684299734 59.83238555957328,36.89027142116086 59.00201442015121,36.06961129465811 59.44684239003391,35.08750043174234 59.128342147903716,34.40688529059848 58.81410490392239,34.0644266051786 59.540323849440774,33.585678848091725 59.39155580534574,32.71700664970476 58.86910022786748,32.3126965643053 58.99391207584346,31.888798444873313 59.4662708055104,31.905484508292698 60.163880002582644,31.52833368005292 60.04709106416629,31.20173526346544 60.08971442609243,30.48159390369143 60.8915155344424,29.879959017464316 60.60784742936074,29.038671522083057 60.32713164908402,28.859652563128794 60.17303485730291,28.259264172493854 59.49004827344621,27.96372041148151 58.97541701865732,28.035254327102923 58.471555791800355,27.92233692240379 57.79628761763553,28.336441292804537 57.33287853625624,28.218702666813368 55.97723850536018,28.224477447751458 56.4410381409177,27.645121879404602 56.31884102006718,27.227227480487777 55.68203250311477,26.95021909627541 55.55761120931703,26.42491942110271 55.22734800490346,26.540029858198782 54.34195506328694,26.46773947362414 53.79584116999505,26.642610816352036 52.38371641362676,26.741959779279167 52.287554031470975,26.541799852481702 52.42036231075721,25.6539873788202 52.11890082209776,25.312789663031403 51.44512866902244,25.198637837221604 51.12390778676931,25.005950297516918 50.93456844507443,24.53942842243892 51.02262848292244,24.150889208444404 50.44565418998783,23.91540240350458 49.66019678106254,23.0865788347355 49.489312779179755,22.698885479017605 49.83778639959872,22.26396466407751 49.46926212484301,21.926065283434152 49.59586125465159,21.375918663226102 49.186805399670114,20.575899563209703 48.91405957245428,20.397354193286727 48.53547356293731,20.569952395069542 48.643935091926245,21.016046217340175 47.88513466055596,21.431039482601264 48.00157938173047,21.863638471039796 47.670654221082614,22.125663931186562 46.38183867203845,22.055384018840442 44.935265713237534,22.48019369236246 44.2802732585291,22.602100763062676 43.94640901220098,22.91760522780261 43.872077946652205,23.551440830633705 44.11083232123707,23.85415012466965 44.73324990965594,24.14498773545871 44.97924608544397,24.442510222896203 44.791204177968304,25.088522365644366 45.04553438274609,25.27160249851566 44.54982845669564,25.93964859486253 43.63795064614504,26.231289863345065 43.420445066680976,26.62849811665444 43.968505111301695,27.466820635016067 43.72978383452853,27.656803833137868 44.36411663516468,27.98157408785049 43.766065655730145,28.86529455817078 43.72728825952526,29.202732894850165 44.10222027062892,30.138095864530687 43.44822075027192,30.55728639698753 43.55694706175458,31.144030178061676 42.839657905836816,31.839909767366546 42.12804171484695,32.404642647151945 42.295993250611815,32.73214215965985 40.97644969317176,33.3404638045974 40.63941467648137,33.831148590589656 40.23496603689058,33.59179161269444 39.55064892100296,33.42616712527437 39.32255866135256,34.09030107726569 39.471664303127106,34.49111932666424 39.185116688426255,34.973590925127944 39.21393164330503,35.26920801960663 38.86719234821992,36.14029962397955 38.47720745234843,36.60673947540077 38.24770060635664,37.85982409160819 38.41362655604456,38.2579076936989 38.846287770340936,38.28214174710127 40.04883718293202,38.95644538415169 40.14369551130623,40.11984080116195 40.551261964760556,40.00033475808216 41.08275986439925,40.20490482913365 41.547942988486454,39.92813868374416 42.26292853670887,39.934762106280445 42.097902847499576,39.44891039524358 42.943929251862684,39.75065213651231 43.04786961977141,40.477246462002434 43.662674711495896,40.976581706626725 43.83253930077786,41.55403693799513 44.446119773468915,42.14077894872124 44.674130598371214,42.531441253819374 44.43959288499879,43.26049167463687 44.60009741312786,43.555121231020614 45.38379401846992,44.16706272272985 46.01385720139486,44.21013853028591 46.29977595767313,44.47637552529495 46.33818265838682,45.05147897579141 46.790537070653414,45.20861183341801 46.52723735890097,45.70440999602342 46.9727537632673,45.884781772698425 47.53391392176468,45.79823473508087 47.844391254335214,45.54261525760422 48.46269809453912,45.98224455271073 49.09081512613525,45.272643741595026 49.96890669048752,45.68283653525044 50.25766523901089,45.3600311027939 50.58162000051164,45.65173852290706 51.10011046014648,44.98469781792366 51.258311380580196,45.240036538427816 52.53721082523465,45.22849952177884 53.1224661906603,45.34047271267877 54.43196787202612,45.27703973618014 54.65950208843973,45.33678449830397Z" data-reg="24" data-libgeo="Centre-Val de Loire"/>
<path d="M90.39235636538812,34.48067746359272 90.06100755275034,33.58566083426204 89.50852564048454,33.47097998686187 89.7721033738554,32.810580850790174 89.52751054528406,32.11806501065215 88.99509914604204,31.82275081720064 88.42047479773916,31.682462344197557 88.33128943429283,31.472413666582813 86.81759411333458,30.512643163658453 86.51514630988602,30.111914399722156 86.07232406739324,30.522884962898722 85.58791111469982,30.696761209756293 85.26765668854878,30.130488211155356 84.7532438793172,29.937102250888003 84.10726726851983,30.023365177612526 83.81731057921237,30.22979060426398 83.30153414013814,30.037668164780484 83.03122431186452,29.331506557282253 82.30230458491023,29.577992312044742 82.08034403998938,30.000890670158316 81.45952176609518,30.086019956718122 80.97014414164455,30.49383397157391 80.55963198294762,31.07665057769437 80.08460556965647,31.365622740481136 79.70565548421065,31.835066736595287 79.78758580732912,32.67907300217782 79.09268401125516,32.80471388993872 78.25224451750948,32.67984490474677 77.69030987021799,32.789705849131046 77.30996305711781,33.60407762182145 76.45765468809125,33.35812535914096 75.98162210132398,33.0080154228146 75.49706351825903,33.02577427386141 74.36047804441527,32.516474138724 74.39214603066385,31.955334346850584 74.61830337811013,31.484486550539472 74.35654602438356,30.88088061355803 73.5539770468018,29.950103779100054 73.12164019106025,29.921040710853934 73.14355756197769,29.489060500672384 72.47547823251728,29.333768708555237 71.60136502513309,29.28365170177229 71.39748250497081,29.884185273260243 70.62077615746288,29.997988967248194 70.4002123401964,29.876981739147315 69.60290591467727,29.950873471345385 69.48350224913546,30.29832975120771 68.54767486202815,29.962395449034766 67.44691445958433,30.261745989473763 66.58842341932947,30.200043847800938 66.69732845899539,29.80791624735092 65.66747680836906,28.303414608706746 65.27416889220142,28.043957286235468 64.87878243345808,28.200744056994026 64.28945603719156,26.61759418878739 63.96497833026571,26.433263298094396 63.62399143485659,25.946857394397554 63.01318455878724,25.745607779456353 62.64798330432768,25.920517436635862 62.04179026321135,25.829293074196848 61.83247970192784,25.990510909345055 61.22130213036727,25.87022864288224 60.28819538338289,26.08152004484679 60.07006094549626,26.55533517197201 60.28721568815614,26.906316354173086 59.99336007662871,27.530067968817043 59.49004827344621,27.96372041148151 60.17303485730291,28.259264172493854 60.32713164908402,28.859652563128794 60.60784742936074,29.038671522083057 60.8915155344424,29.879959017464316 60.08971442609243,30.48159390369143 60.04709106416629,31.20173526346544 60.163880002582644,31.52833368005292 59.4662708055104,31.905484508292698 58.99391207584346,31.888798444873313 58.86910022786748,32.3126965643053 59.39155580534574,32.71700664970476 59.540323849440774,33.585678848091725 58.81410490392239,34.0644266051786 59.128342147903716,34.40688529059848 59.44684239003391,35.08750043174234 59.00201442015121,36.06961129465811 59.83238555957328,36.89027142116086 59.82212523794174,37.277482684299734 60.165448838857905,38.21209818721227 60.150250323718524,38.89602120302487 60.5152066543714,39.305869327852434 60.540447045585005,39.95575272548926 60.327720790132545,40.43930164151616 60.46943900033238,40.97232808649305 60.193323815884,41.55705610544612 60.31728174031775,41.92494561543053 60.934688320042994,42.26045475885716 61.46304192756882,42.725782510668786 61.92857588846019,42.35688218099022 62.267947610657615,42.62315061400854 63.157821995980306,42.38761110080006 63.250945999020665,42.9076398559517 63.54723098992797,42.92300993098555 64.01152047309887,42.365668611836526 64.56340000519145,42.15037067833574 64.88669281045792,42.77968881194305 65.28260221462631,43.24266868131531 65.42396296845962,44.13640903253926 66.30055851172239,44.60574277095592 67.01732472221506,44.62698243987529 67.3663014293721,45.10280218564827 67.16063824693953,45.56582257819954 67.21280039820185,46.37467152174667 66.68097152044601,46.59318468871083 66.51630990716556,47.427076262544716 67.12482641466428,47.54601600619668 67.52859985889611,47.885501847933 68.09102435380099,47.5890924814353 68.30774220534622,47.804833313057586 69.22752377333427,47.73108986657043 69.22063942849765,48.00887204427272 70.05774266282248,47.67512607923622 70.31823568014151,46.597078585443306 70.70353392587423,46.58696590779158 71.03960248646253,46.89103511969002 71.64707310311104,46.87568316590624 72.12932807848067,46.51460634890891 72.33407114174757,46.96668447310462 72.75574388255467,47.243831791818735 72.63267959903723,47.63397794245812 73.07247008197693,47.6939818551602 73.87868643840966,45.48789080872201 73.90258967802997,45.11274833034062 74.22097076803799,44.38690334409136 74.5832064585679,44.378802198574434 75.11018319712639,44.69636211272842 75.96630443406245,44.394679666901546 76.5798253306924,45.010458566716686 76.98375102485812,45.06876111643232 77.01340004459209,45.447860094170025 77.46643627178004,45.72504922919802 77.44719320404913,46.02886021045115 77.916056804799,46.40484280309997 78.18063409208364,46.91309319962721 78.68673935057484,46.86514416449677 79.48240412463292,46.14526359945762 79.9605351126629,46.466794804267536 80.03852017662498,46.95757417994934 80.97964983316899,46.95013600921337 81.39404767496121,46.722405304141326 81.91940262074569,45.998226545433575 82.53420109290782,45.37814799155048 82.60234948722831,44.89455403458074 83.21806807855612,44.07388180834067 82.87770342200724,43.75926268561038 84.03301563771917,42.75245781418023 85.23461183333286,41.940626132199625 85.48735334314834,40.59770934612725 85.25207423879351,40.21295713797133 85.72216907813919,39.75692703414099 86.73238710685636,39.51627469811345 87.51644116856494,38.41394250058865 88.38811837700689,37.853263852639714 88.56223934487538,37.488116001405395 89.10499050049705,37.067612169359194 89.04759889498385,36.589411037195404 89.76885316874503,36.23547375743617 89.78758653017552,35.877908263654476 88.54355232038128,35.9239292731211 88.97884150092781,35.443282284109515 88.99261019060111,35.17238801851546 89.4260127958799,34.9820240679439 89.3061788587858,34.566544459004945 90.39235636538812,34.48067746359272Z" data-reg="27" data-libgeo="Bourgogne-Franche-Comté"/>
<path d="M26.27505044662949,23.44668157701476 24.820620067327493,23.67919834140993 24.29562257790957,23.565362836752332 24.056755670764865,23.25519580515206 24.228414161441773,22.75322355283285 23.57267369618858,22.78029928370797 22.897081163468957,23.264442850626377 22.138571992841747,23.357543726397818 21.608431103483362,23.894599894980647 20.999643193928577,23.043652079021296 20.669135065708346,23.01380016330412 19.437823654737226,23.630411867650103 19.061667024600105,23.724858138320673 18.398400116963025,24.44622333245204 17.974198703340917,24.633259835007696 17.736093045865662,24.107094373209836 17.060394600148523,23.75630974514044 17.016301695382257,23.247194277828942 16.132179709735585,22.504193238159814 16.258613350485582,22.194890635106102 15.618872367415278,22.07823468163305 15.662104729076932,21.7604562135207 14.123480136335205,21.11587362196749 13.595742148107307,21.45487334073643 12.49789435309439,21.77899875744803 11.962153313993868,21.419458155904977 11.435130238499005,22.064545828484032 11.683138761239276,22.40210797522826 11.20453778428297,22.89845249781977 9.961675237023439,22.71917887723404 9.454007761819298,22.855748491377057 9.40856446633507,23.391036581840698 8.72583604540975,23.130106559201952 8.435462323674692,22.498606927321667 7.944939514938737,22.86560216094176 7.551836805203734,22.77558699453441 6.970566416308534,22.896115356682078 6.749148675499802,23.22956646964511 6.3538548906293,23.220810679354678 5.800499196134227,22.957204931677083 4.946204958404806,23.445556553833658 4.573351489876813,23.366419726242267 4.238818667752078,23.718730017708474 2.8447719361423025,24.252422348953278 2.6401877423716495,24.68020913693462 2.755983746436568,24.94892072831237 2.5327125281717944,25.487599853162575 2.7712683158863998,25.90892174176663 2.68062002916229,26.335285508334202 3.1081246043935096,26.330983839721863 3.372284859250567,26.083065229705927 3.7451250886538547,26.25621547429213 5.177684433974791,25.689392638870157 5.080237856724481,26.375159711027084 5.949717370468604,26.22493049543908 6.102331380284909,26.654778177990867 5.669623829052114,26.84318449604795 5.236459528017701,26.713057610802093 4.6668197101589985,26.812124503994813 4.1815329752363395,27.073116130621354 4.5465753601996495,27.66986526105109 4.967950220701326,27.228703582709237 6.140824135309064,27.65681556816918 6.380313281313986,28.24585469175548 6.114789396614303,28.694798898708562 5.629370270444757,28.486197795776963 4.937149397119685,28.593400921170453 3.413339384901408,28.967591428675853 4.180314975765242,29.56651130254276 4.687962592282347,29.551755830422653 5.277255890737157,29.962454658893556 5.5686821228847405,30.381167903257463 5.823674283896847,31.147230389444854 5.669147220563435,31.577920114295818 6.961583670209168,31.567028512920768 7.169894677578917,31.063728604492443 7.547620143991281,30.89869009474092 8.059543997781931,31.077679368285462 8.512037420857743,31.00481786282385 8.764606822052297,30.584528340774494 9.346698036678026,31.426354879027354 9.831978152038364,31.655735744349744 10.36392618191638,31.505953498036973 10.729882066483027,31.76714265493267 11.823936852273459,31.846780823875374 12.452523872795924,32.568409519700474 13.145055865551129,32.42890009567185 13.653080797121778,32.667686209970235 14.56926794275763,33.45076013271375 14.75550932927601,34.088845156678566 15.357340078808358,33.73631192129097 15.713624782791989,33.85017775902951 16.120277736642993,33.44340239144896 16.441379466773938,33.612947206888 16.857207134032222,33.330715667098566 17.34212979302606,33.30843129486368 17.84362783612659,33.70025994636684 17.5676979994238,34.133988479262165 16.401278158100446,33.95113486138477 17.095663628311648,34.638084587316754 18.398909823263438,34.34733776291119 19.296740922522318,34.24217641511802 19.87654838813973,34.52286321546752 19.732096298692266,35.02589043135267 20.773499085607014,34.89590042109201 20.92729137752036,34.41293294915207 21.316468686786017,34.5706248803939 22.38445563606997,34.1779118677166 22.362538265152512,33.55507514563877 22.503237062751523,33.02846456992658 23.218381480470185,32.6923931311554 24.112499005254698,32.460830374323095 25.296712230155855,32.523231608907594 25.63103984584797,32.41650209200464 25.88576060480399,31.912667542888357 26.988996723564064,31.52209062328275 27.04051677727911,31.204317422103067 27.58177853137361,31.25047936288901 27.807081955277653,31.54345942199091 28.668373070403565,31.769438304678562 29.08977440915461,30.842550143326466 29.386694878046825,29.8830606325439 29.559114618393163,29.699076859621574 30.32785763240254,29.6143246556244 30.312533345578654,28.892150284273235 30.11801088656926,28.686910151622268 29.933371434137857,27.58964731124691 29.734936813783786,27.001643724576265 30.14936775338773,26.354886175725678 29.8886960078854,25.48454593264759 29.96519828988268,24.588933417737728 28.59166558197366,24.261012185211076 28.425454991104974,24.584337185820495 27.661054409992577,25.096066707187358 26.936437398561193,24.803207589779223 26.637378811032214,24.269492335895546 26.52264193694216,23.712140002992335 26.27505044662949,23.44668157701476 M14.57754239568628,36.57440976348462 15.08349540424361,36.70143724282229 15.312380011375183,36.380459615506894 14.662888412973727,36.1562889604374 14.59392581248503,35.88642490806641 13.819370822738595,35.781482175440466 13.905908361247718,36.334893093184945 14.57754239568628,36.57440976348462Z" data-reg="53" data-libgeo="Bretagne"/>
<path d="M102.68341409337265,92.8960741029309 102.46914547989428,93.93070407147884 101.85669033280153,94.61204553345209 102.11918245794817,94.87173835816732 103.2746005866576,95.17979560820586 103.26109005991566,95.67700072641111 102.66622308996806,95.8790251001808 102.61402784089405,96.68686661432497 103.00027930360413,96.82182006415798 103.30120460771377,97.22945529354884 103.89025298236194,97.42595345131191 104.66924969844052,97.88087575030374 105.08836066862094,98.45237919818837 105.78608901781533,98.78546244630355 106.08036166177035,98.2746563815779 105.95907142096085,97.91777738970904 106.28716340892592,97.50889346395384 106.40048369667454,96.8295150820427 106.87662881600166,96.25918876945215 106.29499435117759,96.13167071255577 107.02386774119549,95.6061864324888 107.17427081718924,94.40626638314417 107.0948691668858,93.2380275467852 107.21772162440824,92.35202319568327 108.20758449892094,90.73800786345309 108.2916595602385,88.75430257770329 108.09407224386435,87.67700768454654 108.1744337307075,87.21117414168621 108.09899057868513,85.91549394493461 107.47060876459527,84.62337732897767 107.71628720139086,82.79718326858097 107.58593477973383,81.19174509064825 107.28075309703762,80.90817930041203 106.68483361667751,81.09450575411947 106.82168644855534,81.85996438068494 106.5549909013209,82.10608175530665 106.45718024814175,82.84057258685633 106.69000349486738,83.20381484010552 106.7140457452969,83.86777286990745 106.55050283805245,84.29378037990158 106.21060155086755,84.34697388795918 105.88178803060708,84.03979678289582 105.08960514634138,83.92109131571985 104.59334979661645,84.35160476279123 104.32415205481645,84.86164582489685 103.56688736190972,84.94342547086441 102.76325263479076,85.35339191480105 102.56755189368431,85.81033169265993 102.15924404924759,85.75326643358942 101.70653218061447,86.27625528320749 101.77624279164787,86.6784863722743 101.62476734655456,87.33761188995294 100.88745401454942,87.81609751935274 101.43130401752003,88.24121438626175 101.878395877724,88.99022167603668 101.29695338020788,89.11110265660048 101.03044318071913,89.37400143102491 101.19482015281879,90.44177643977098 101.97102341358865,90.6445090618996 102.24588088119187,91.41670072585858 101.64152145884452,91.75782434108083 101.70765088665043,92.08802319422034 101.16521747002122,92.24833698769073 101.3017194650948,92.80463211777707 102.68341409337265,92.8960741029309Z" data-reg="94" data-libgeo="Corse"/>
<path d="M19.732096298692266,35.02589043135267 19.76174531842626,35.20710232907654 19.001594496338008,35.76456491073202 19.40397783247782,36.246100647467074 19.305081571074414,36.64574323161192 19.82786150710746,36.88085297163741 20.225213975866637,36.68587066204705 20.929853148147064,37.151457735214855 21.875424531023178,36.8087268682296 21.862125830276227,37.85810315751384 21.284681548415247,38.160797916964725 22.72052419665827,38.5501582789784 23.245965196753176,39.231908366004895 22.923572651965365,39.40383017377188 22.683918016901853,39.991858192559455 21.956646560970963,40.630564869739565 22.066683545797506,41.31579533438634 22.680277257613245,41.756426112211315 23.519022143399127,42.54698273611699 24.161563201340506,43.41488353002695 24.491449090700517,44.59202387460516 25.66382653813251,45.32034494081843 26.797088991680138,45.58935201914859 27.04646114426305,46.126549491358695 28.005351086573146,46.19289430641247 28.92196850376128,46.86241960385501 29.248491655451083,46.35591685171561 29.711298356657178,46.40657435067903 30.382833097660598,45.99429697764698 30.96644019206286,46.44066598487513 31.895502386455693,46.15973250956805 32.532019642665006,46.53168973146825 32.71208497751743,46.30402856677057 33.73156377395238,45.936617295153475 33.88493241387578,45.682484842023385 33.35522841563203,45.4049992921602 33.14852596191162,44.30835224437867 33.41268621676866,44.19459023743285 33.31446515072423,43.28772953258601 33.01503586770405,42.509319602551514 32.498630570207254,41.85674492030257 32.63434483736205,41.30790183672751 32.08586776031372,41.07118486338478 31.818225615664307,40.68768463494613 31.740578149381708,40.166001026581924 31.341676703034285,39.86093581528899 32.1597354564985,39.45186935557862 32.60234587299631,39.63130937572673 33.462359412590025,39.51868175483639 33.73940795532875,38.86278818432973 34.894097932180436,38.78916336881885 36.02730080966696,38.445688797070986 36.52116649738608,38.41389969363583 36.532512427241876,38.796322237040116 37.634279003161815,38.54098697087475 37.58449327478063,38.24467004295917 37.989623729292745,37.736823551480995 38.24770060635664,37.85982409160819 38.47720745234843,36.60673947540077 38.86719234821992,36.14029962397955 39.21393164330503,35.26920801960663 39.185116688426255,34.973590925127944 39.471664303127106,34.49111932666424 39.32255866135256,34.09030107726569 39.55064892100296,33.42616712527437 40.23496603689058,33.59179161269444 40.63941467648137,33.831148590589656 40.97644969317176,33.3404638045974 42.295993250611815,32.73214215965985 42.12804171484695,32.404642647151945 42.839657905836816,31.839909767366546 43.55694706175458,31.144030178061676 43.44822075027192,30.55728639698753 44.10222027062892,30.138095864530687 43.72728825952526,29.202732894850165 43.766065655730145,28.86529455817078 44.36411663516468,27.98157408785049 43.72978383452853,27.656803833137868 43.28903351504909,27.710526653573996 42.65333046500797,26.976714223789955 42.45680227860866,27.162539353573035 41.799962966006554,27.117434415684265 41.48371999463532,26.781857716737438 40.66932847870909,26.29444306225307 40.49116957781142,25.10281557289161 40.06824573972149,24.865832130585265 39.11986104284963,25.016389331538928 38.722078302538165,25.292985727116378 38.309891394568474,25.816857026114572 37.873788007853776,25.68733175449552 37.44578696544683,25.861810293110594 37.47474093113481,25.13392544655286 36.76924783531214,25.099441117168986 36.331132101645196,24.07275816160872 35.755382427744,24.611423143831246 35.1342093170456,24.728419964790657 34.57706723289041,24.537064113430503 34.09635461554668,24.588371200690517 33.62903337282272,24.980742823182926 33.03055212183588,25.21484325775694 32.118296996231756,25.01065303394075 31.511190455512093,24.660072840440094 30.79665503752899,24.517617367526917 30.459878183769977,24.781065926384702 29.96519828988268,24.588933417737728 29.8886960078854,25.48454593264759 30.14936775338773,26.354886175725678 29.734936813783786,27.001643724576265 29.933371434137857,27.58964731124691 30.11801088656926,28.686910151622268 30.312533345578654,28.892150284273235 30.32785763240254,29.6143246556244 29.559114618393163,29.699076859621574 29.386694878046825,29.8830606325439 29.08977440915461,30.842550143326466 28.668373070403565,31.769438304678562 27.807081955277653,31.54345942199091 27.58177853137361,31.25047936288901 27.04051677727911,31.204317422103067 26.988996723564064,31.52209062328275 25.88576060480399,31.912667542888357 25.63103984584797,32.41650209200464 25.296712230155855,32.523231608907594 24.112499005254698,32.460830374323095 23.218381480470185,32.6923931311554 22.503237062751523,33.02846456992658 22.362538265152512,33.55507514563877 22.38445563606997,34.1779118677166 21.316468686786017,34.5706248803939 20.92729137752036,34.41293294915207 20.773499085607014,34.89590042109201 19.732096298692266,35.02589043135267Z" data-reg="52" data-libgeo="Pays de la Loire"/>
<path d="M63.53109911649823,21.259378665416616 62.76310411303362,21.0322128261537 62.20021624876473,20.322564277699495 61.19098453483664,19.708120826279014 61.29806257529591,19.230092324572833 61.1746342158496,18.866011249750123 60.487331677345324,18.693789653771375 60.42762322501208,19.001140127150325 58.994984444943015,19.1495918960173 58.55117588766115,18.888438743851886 58.1539359514618,19.2369876194324 57.791971662987926,19.198748440493734 57.223112953485746,18.8398664127648 56.88405897028076,19.05085562759462 56.0629088812024,18.524003913211505 55.632438742041536,18.360372315874915 54.699219462497325,18.288685882992034 54.22632454828061,18.361920391963622 53.139432128945224,17.818077542698706 52.58172738199089,18.139365712330616 51.725692199365255,18.262699907628697 51.13708071583175,18.046116818605146 50.67304277602988,18.087423348684805 50.409590814343524,17.59153421018264 50.210540574691564,17.774258751049636 50.057880227938874,18.56156473593412 49.677685664772575,19.00746801372687 48.50805533571289,19.38160747370822 48.91405957245428,20.397354193286727 49.186805399670114,20.575899563209703 49.59586125465159,21.375918663226102 49.46926212484301,21.926065283434152 49.83778639959872,22.26396466407751 49.489312779179755,22.698885479017605 49.66019678106254,23.0865788347355 50.44565418998783,23.91540240350458 51.02262848292244,24.150889208444404 50.93456844507443,24.53942842243892 51.12390778676931,25.005950297516918 51.44512866902244,25.198637837221604 52.11890082209776,25.312789663031403 52.42036231075721,25.6539873788202 52.287554031470975,26.541799852481702 52.38371641362676,26.741959779279167 53.79584116999505,26.642610816352036 54.34195506328694,26.46773947362414 55.22734800490346,26.540029858198782 55.55761120931703,26.42491942110271 55.68203250311477,26.95021909627541 56.31884102006718,27.227227480487777 56.4410381409177,27.645121879404602 55.97723850536018,28.224477447751458 57.33287853625624,28.218702666813368 57.79628761763553,28.336441292804537 58.471555791800355,27.92233692240379 58.97541701865732,28.035254327102923 59.49004827344621,27.96372041148151 59.99336007662871,27.530067968817043 60.28721568815614,26.906316354173086 60.07006094549626,26.55533517197201 60.28819538338289,26.08152004484679 61.22130213036727,25.87022864288224 61.83247970192784,25.990510909345055 62.04179026321135,25.829293074196848 62.64798330432768,25.920517436635862 63.01318455878724,25.745607779456353 62.82008530568157,24.897208350380865 63.055112866667365,24.50483526516375 63.523532956740254,24.188245323614748 63.66351684160624,23.656608353267625 63.20450314962266,23.088912025120926 63.42242576151431,22.864940249033744 63.41832825242405,22.36305146410217 63.20059098827799,21.915286074592515 63.53109911649823,21.259378665416616Z" data-reg="11" data-libgeo="Île-de-France"/>
<path d="M8.207195994571917,93.68077631678754 8.490589288659976,94.18687205869905 9.11466559731932,94.39003484250613 10.536942225212828,93.83840318425837 11.454453468293911,93.66173985851685 11.395866449676028,93.05292484615764 11.109573913758842,92.83777516756346 10.07894098005078,92.54391225823802 9.79426040642465,92.01969166959888 9.878823716872606,91.47519090095152 9.723338628678075,90.94079778202035 9.054743969906655,90.44163295259708 8.372978811462918,91.12760987654023 8.464788713561873,91.87082849346136 8.799032398826599,92.10979519879706 8.44741098609532,92.57765330575145 8.192343557193249,93.25070982208824 8.207195994571917,93.68077631678754 M7.355186462382836,93.42521778070403 7.099810019926322,92.81841981237189 6.439010497465692,92.61106895900427 6.073166309299309,92.28871297183055 5.690561108518099,92.48245954344084 5.419639795265323,93.06956685078227 5.423423447234406,93.7785903628382 5.603281858474811,94.02433604551122 5.756163087408233,96.11122169622847 6.011096504477928,96.73461565011651 6.353806471647896,97.11947603842243 6.506158983084867,97.56747308927206 7.468697861077804,97.0565471250495 7.928021222026921,96.62140326075273 8.109485082125822,96.24829572355 7.860946730335693,94.68287761245854 7.811186773641558,93.93649850262364 8.094130961461836,93.90647563205857 8.185779282696917,93.35960082412558 7.355186462382836,93.42521778070403 M11.758106092802363,97.38314695244856 11.634302244790891,97.10698676906395 11.043602832290894,96.87377971151548 10.52068744153696,97.66087859583122 10.599603670123953,98.24444619931793 11.17330682730267,98.62301121932367 11.985992969328638,98.18129200526862 12.07238441578118,97.81156883139607 11.758106092802363,97.38314695244856Z" data-reg="01" data-libgeo="Guadeloupe"/>
<path d="M19.48930108478417,95.53956361946729 19.8700929255562,95.22243327366641 20.172334430556027,95.40668560529414 21.57038808922093,95.59527393806438 21.2524960353253,95.99798256686488 21.65884870714672,96.292873902512 22.122567883916876,95.47761906184509 21.99631777566756,94.51921659382016 21.741369102314213,93.91066618610138 21.49095315138509,93.76086910237784 21.24032133718704,93.20472568667641 21.302116374538222,92.89633221659992 20.72634577248758,92.86179394491957 20.702068277072257,91.76462396815106 20.394803617937207,91.6678628611771 19.628275187120284,90.73859547324749 18.51385882460247,90.22208986967723 17.817616096397817,90.42072203636683 17.5720683950123,91.0503521756746 18.145307537000264,91.93474793298832 18.124878961498897,92.55314056606937 18.58861820224312,93.28834088323394 19.077871240743868,93.73002769885159 19.943950906839763,93.86736343994502 20.306382083903667,94.27671807100988 20.21495941885274,94.61209850439175 19.4135770396535,94.3368832498566 19.040289084196885,94.67793718601725 19.1776336741416,95.35107129806138 19.48930108478417,95.53956361946729Z" data-reg="02" data-libgeo="Martinique"/>
<path d="M32.030323021487426,90.4570957010853 31.537449686675096,90.16761778350528 30.065591651469052,88.66690477542058 29.12475554709134,88.34170679215656 28.680189423130273,88.31596112495505 27.860795513139717,87.88229314045363 27.463427549676663,87.80141580981255 27.300782060202557,88.31099401594845 26.239032288375768,89.66592225027966 26.096530044400428,90.20857846905034 26.23582590489891,91.01980989326984 26.164944648193543,91.49808883705846 26.28118891771752,92.15804471774679 26.78119776515175,93.28344109576335 27.34748123387123,93.87553685924013 27.089277747385584,94.76101621211629 26.74282774110392,95.17194240999017 26.847066007000926,95.7771559721677 26.328309022849886,97.06252957635168 26.07052199111324,97.2265227233762 25.936752730599736,97.74603197604401 26.878776684239337,98.1285368725707 27.437710410740376,97.73413147879904 27.93837939019838,97.56062030754305 28.66401210123698,97.75885920126949 28.98282782661334,97.47397743725566 29.27778860174325,97.75186604295962 29.892518960483674,98.0044295841351 30.730682659686263,97.41593560280809 31.60248438195193,95.38867663346126 32.638916493419664,93.42850111746107 33.33798600191308,92.6143555179704 33.41569388267871,92.21289628080606 33.2081571510341,91.89971101848704 32.97397994375652,91.02278309597077 32.030323021487426,90.4570957010853Z" data-reg="03" data-libgeo="Guyane"/>
<path d="M37.21682990342427,94.03336788106814 37.410999219633624,94.40238178782792 38.04099317470005,94.59741890687138 38.73557800567204,95.2001912816962 39.72894442037649,95.59556570668678 40.778356779612274,95.8224099464745 42.27818050687776,95.4760250990991 42.590575330838966,95.07984014029466 42.51503863757566,94.16550223743995 42.59442930193537,93.70216101677035 42.90362615093041,93.13086279855145 42.793032507742154,92.62668807436546 42.27647828342719,92.32266508416673 41.425799825540764,90.9641686321224 41.402433473277696,90.46193833410643 41.01313294697001,89.77009182716137 40.2051873826304,89.38910276420876 39.752760291259264,89.38069373360426 38.652796671470874,89.07816759376334 38.0953227290562,89.17837239834122 37.32490213951055,89.79214033396532 36.85957008580078,89.73563657986871 36.67931316736564,90.78909594766456 36.05820736071487,91.21340080744648 36.21123845838341,91.91986951755908 36.82805797600722,92.83137742487114 36.780327699944465,93.35233406850381 37.21682990342427,94.03336788106814Z" data-reg="04" data-libgeo="La Réunion"/>
<path d="M45.923929088587215,91.1756079215935 46.50942661334179,91.6401430613558 46.62154147472115,92.05497667314354 46.50603512553333,92.49098135498292 46.972341631277146,92.96019298612819 46.615156099764455,93.36292868217218 46.45908251932346,93.90250444389122 47.13258434750695,94.29268630155102 47.31262514641822,93.68996352079411 47.81229154152745,92.74019155783013 47.52977231196837,92.30411054632296 48.06160549418713,91.58817004692636 48.05668501527196,91.23347429103113 47.66940602268467,90.95951289793545 47.146764614977236,91.0331178415961 46.440235425624934,90.17312268856556 45.90846174159739,90.84703876676829 45.923929088587215,91.1756079215935Z" data-reg="06" data-libgeo="Mayotte"/>
    </svg>
  