
    <svg
      viewBox="0 0 110 100"
      xmlns="http://www.w3.org/2000/svg"
      fill="#313178"
      stroke="#FFFFFF"
      stroke-width="0.3"
    >
      <polygon points="0,0 0,100 110,100 110,0" fill="#eee"/>
      <path d="M80.80,50.24 80.66,49.72 80.67,48.81 80.84,48.54 81.74,48.26 82.03,47.75 81.88,47.42 82.31,47.18 82.98,47.05 82.82,46.71 83.32,45.89 82.53,45.38 81.92,46.00 81.39,46.72 80.98,46.95 80.04,46.96 79.96,46.47 79.48,46.15 78.69,46.87 78.18,46.91 77.92,46.40 77.45,46.03 77.47,45.73 77.01,45.45 76.98,45.07 76.58,45.01 75.97,44.39 75.11,44.70 74.58,44.38 74.22,44.39 73.90,45.11 73.88,45.49 73.31,46.95 73.08,47.81 73.22,48.14 72.83,48.74 72.89,49.88 72.70,50.13 73.82,50.66 74.13,51.61 75.44,51.52 75.88,51.63 76.33,51.98 76.83,51.54 76.92,51.16 77.29,50.80 77.74,51.12 77.82,51.59 79.02,53.02 79.29,53.57 79.74,53.29 79.74,53.03 80.42,52.38 80.51,51.38 80.80,50.24Z" data-dep="01" data-reg="84" data-libgeo="Ain"/>
<path d="M63.53,21.26 63.85,20.68 64.18,20.61 64.53,20.16 64.73,19.43 64.56,18.37 65.41,18.32 64.80,17.79 64.91,17.58 64.73,16.79 65.87,16.38 66.24,16.51 66.37,15.92 67.59,16.37 67.68,15.93 67.60,15.62 67.68,14.60 67.89,14.35 67.53,13.91 68.17,13.74 68.26,13.33 68.69,13.13 69.16,12.58 68.86,12.35 69.21,11.19 69.04,10.68 68.37,10.48 67.96,10.57 66.58,10.12 66.13,9.83 65.19,9.65 64.38,9.90 63.95,9.77 63.57,10.10 62.56,9.94 62.01,10.14 61.66,9.98 61.23,10.17 61.17,10.78 60.59,11.54 60.59,12.25 60.83,13.07 60.65,13.86 60.86,14.04 60.93,14.61 60.51,16.47 59.70,16.74 60.15,17.18 60.43,17.97 60.80,17.99 60.99,18.35 60.49,18.69 61.17,18.87 61.30,19.23 61.19,19.71 62.20,20.32 62.76,21.03 63.53,21.26Z" data-dep="02" data-reg="32" data-libgeo="Aisne"/>
<path d="M60.19,41.56 59.67,41.47 58.69,42.16 58.18,42.33 57.96,42.02 56.98,43.13 57.12,43.98 56.62,44.26 56.25,44.19 55.30,44.35 54.84,44.78 54.66,45.34 54.91,45.80 54.91,46.20 55.48,46.25 56.04,46.69 56.39,47.18 56.48,47.73 56.76,48.15 57.31,48.41 57.98,47.62 58.53,47.60 58.76,47.05 59.49,47.14 59.30,47.79 59.61,47.87 59.67,48.27 60.07,48.57 60.47,48.54 60.90,48.88 61.54,48.85 62.64,49.07 63.05,48.85 63.34,48.98 63.51,49.47 64.29,49.36 64.61,50.01 65.07,50.32 65.43,49.96 66.04,49.60 65.90,49.15 66.01,48.71 65.78,48.07 65.89,47.00 66.59,46.80 67.21,46.37 67.16,45.57 67.37,45.10 67.02,44.63 66.30,44.61 65.42,44.14 65.28,43.24 64.89,42.78 64.60,42.01 64.01,42.37 63.55,42.92 63.25,42.91 63.16,42.39 62.27,42.62 61.93,42.36 61.46,42.73 60.93,42.26 60.32,41.92 60.19,41.56Z" data-dep="03" data-reg="84" data-libgeo="Allier"/>
<path d="M86.75,72.62 87.26,71.63 87.58,71.74 88.31,70.87 88.23,70.50 87.56,69.93 87.62,69.56 87.12,68.60 87.40,67.75 87.86,67.35 88.05,66.88 88.60,66.58 88.64,65.95 88.96,65.75 88.44,65.17 88.36,64.83 88.94,64.35 89.05,63.50 88.81,63.45 88.28,63.98 87.72,64.21 87.50,64.57 87.10,64.69 86.72,65.68 85.90,65.67 85.27,65.40 84.69,64.89 84.56,65.41 83.78,65.50 84.00,66.04 83.74,66.36 83.21,65.52 82.73,65.36 82.60,65.66 81.72,66.22 81.30,67.03 80.77,67.45 81.19,68.15 80.55,68.13 79.67,68.36 79.41,68.62 78.94,68.40 78.69,68.97 78.37,69.16 78.40,69.71 78.70,70.11 78.43,70.83 79.17,71.28 78.71,72.30 79.52,72.23 79.97,72.97 80.28,73.25 80.45,72.97 81.01,73.31 81.35,73.02 82.32,73.62 82.85,73.08 83.31,73.02 83.63,72.52 84.68,73.18 85.11,72.92 85.12,72.59 85.88,72.41 86.75,72.62Z" data-dep="04" data-reg="93" data-libgeo="Alpes-de-Haute-Provence"/>
<path d="M89.05,63.50 89.16,63.26 89.66,63.12 89.43,62.10 89.45,61.55 88.92,61.33 88.44,61.46 87.99,61.19 87.58,60.72 87.70,60.33 87.54,59.74 87.02,59.69 86.71,58.77 86.31,58.63 85.60,58.97 85.65,59.32 84.75,59.18 84.74,58.82 83.98,58.59 83.75,58.78 83.57,59.78 84.32,59.86 84.44,60.39 84.70,60.52 84.68,61.41 84.31,61.24 83.91,61.44 83.01,61.34 82.50,61.79 82.29,61.59 81.69,61.94 81.49,62.47 80.93,62.49 80.60,62.96 80.52,63.52 80.06,63.67 79.42,63.54 79.47,63.94 79.09,64.67 79.32,64.76 79.14,65.48 78.43,65.21 77.89,65.82 77.97,66.39 78.33,66.83 79.27,66.87 79.19,67.08 79.66,67.68 79.67,68.36 80.55,68.13 81.19,68.15 80.77,67.45 81.30,67.03 81.72,66.22 82.60,65.66 82.73,65.36 83.21,65.52 83.74,66.36 84.00,66.04 83.78,65.50 84.56,65.41 84.69,64.89 85.27,65.40 85.90,65.67 86.72,65.68 87.10,64.69 87.50,64.57 87.72,64.21 88.28,63.98 88.81,63.45 89.05,63.50Z" data-dep="05" data-reg="93" data-libgeo="Hautes-Alpes"/>
<path d="M88.60,66.58 88.05,66.88 87.86,67.35 87.40,67.75 87.12,68.60 87.62,69.56 87.56,69.93 88.23,70.50 88.31,70.87 87.58,71.74 87.26,71.63 86.75,72.62 86.91,73.04 87.64,73.19 87.67,73.83 87.98,74.34 88.64,74.50 88.76,74.97 88.58,75.66 88.94,75.90 88.97,75.50 89.27,75.18 89.84,75.18 90.33,74.77 90.67,74.01 92.47,73.19 93.22,72.68 93.13,71.71 93.58,71.41 93.74,70.88 94.24,70.65 94.31,70.09 94.59,69.95 94.71,69.52 94.38,69.10 94.48,68.55 93.96,68.80 93.15,68.87 92.54,69.18 92.06,69.13 91.95,68.84 91.51,68.90 90.81,68.28 90.48,68.27 89.42,67.75 89.39,67.43 88.60,66.58Z" data-dep="06" data-reg="93" data-libgeo="Alpes-Maritimes"/>
<path d="M72.12,66.91 72.23,65.89 72.46,65.67 72.43,64.61 73.07,63.50 72.93,62.29 73.39,61.81 73.86,60.57 73.49,59.85 73.66,59.36 73.25,58.64 73.31,58.21 73.22,56.82 72.94,56.55 72.89,56.12 72.34,56.32 71.87,56.68 71.76,57.30 70.89,57.46 70.81,58.05 70.27,58.82 69.88,59.18 69.47,59.95 68.48,61.23 67.62,61.22 67.53,61.65 66.87,62.02 66.31,62.57 66.36,63.26 66.76,64.37 66.98,64.42 67.31,65.55 67.83,66.12 67.71,67.04 68.26,66.83 68.40,67.08 69.23,67.60 69.73,66.82 71.06,66.81 71.45,67.20 72.11,67.53 72.12,66.91Z" data-dep="07" data-reg="84" data-libgeo="Ardèche"/>
<path d="M74.33,17.55 75.07,17.19 74.89,16.59 75.35,16.27 75.51,15.44 75.14,15.01 75.91,14.43 76.97,14.47 77.60,13.92 76.66,13.16 75.91,13.19 75.21,12.54 74.46,12.16 74.02,12.31 73.60,11.66 73.89,11.14 73.36,10.34 73.59,9.33 73.92,9.00 73.40,8.77 72.50,9.38 72.37,10.21 70.61,10.87 69.59,10.57 69.04,10.68 69.21,11.19 68.86,12.35 69.16,12.58 68.69,13.13 68.26,13.33 68.17,13.74 67.53,13.91 67.89,14.35 67.68,14.60 67.60,15.62 67.68,15.93 68.62,15.96 69.12,16.17 69.60,16.69 70.08,16.74 70.57,17.13 71.57,16.98 71.89,17.54 72.41,17.35 73.42,17.56 74.06,17.28 74.33,17.55Z" data-dep="08" data-reg="44" data-libgeo="Ardennes"/>
<path d="M50.29,78.10 49.92,78.30 49.03,78.13 48.66,78.79 48.37,78.32 47.77,77.65 47.47,77.84 47.57,78.34 47.98,78.74 47.61,78.98 46.95,79.01 46.84,79.40 47.37,79.70 47.15,80.05 46.15,79.36 45.29,79.82 45.08,80.24 45.30,80.88 45.07,81.31 44.54,81.48 43.94,81.95 44.17,82.91 44.71,83.30 44.92,83.12 45.98,83.48 46.45,84.17 47.85,84.05 48.27,84.76 49.27,84.74 49.63,85.04 50.64,85.18 51.01,85.63 51.57,85.55 51.90,85.25 52.33,85.17 52.57,84.71 53.81,84.65 53.82,84.30 53.00,83.66 52.65,83.90 52.23,83.87 51.78,83.07 51.67,82.62 52.49,82.42 52.48,80.78 52.22,79.77 51.31,79.47 50.45,79.00 50.55,78.63 50.29,78.10Z" data-dep="09" data-reg="76" data-libgeo="Ariège"/>
<path d="M63.01,25.75 63.62,25.95 63.96,26.43 64.29,26.62 64.88,28.20 65.27,28.04 65.67,28.30 66.70,29.81 66.59,30.20 67.45,30.26 68.55,29.96 69.48,30.30 69.60,29.95 70.40,29.88 70.62,30.00 71.40,29.88 71.60,29.28 72.52,29.37 72.40,28.85 72.72,28.40 73.36,28.55 73.66,26.97 73.53,26.24 72.49,25.69 72.14,24.96 72.26,24.36 71.97,24.14 71.24,24.39 70.32,24.09 69.65,23.55 69.78,23.02 69.51,22.60 68.55,22.66 68.29,22.86 67.23,23.16 66.95,23.67 66.37,23.89 66.34,24.31 65.80,24.39 64.63,24.27 64.54,23.89 64.05,23.51 63.66,23.66 63.52,24.19 63.06,24.50 62.82,24.90 63.01,25.75Z" data-dep="10" data-reg="44" data-libgeo="Aube"/>
<path d="M61.73,78.75 61.34,78.34 61.12,78.44 60.36,78.04 59.99,77.98 59.10,77.45 58.39,77.96 58.28,78.27 57.45,77.90 57.04,77.85 56.68,77.42 56.76,76.51 56.25,76.36 55.55,76.56 54.48,76.19 54.17,76.93 53.75,76.59 53.39,76.81 52.80,76.36 51.43,76.59 51.14,76.83 51.21,77.38 50.79,77.31 50.29,78.10 50.55,78.63 50.45,79.00 51.31,79.47 52.22,79.77 52.48,80.78 52.49,82.42 51.67,82.62 51.78,83.07 52.23,83.87 52.65,83.90 53.00,83.66 53.82,84.30 53.81,84.65 54.41,84.46 55.21,83.96 55.00,82.78 55.40,82.66 55.92,82.79 56.29,82.63 56.99,82.79 58.01,82.80 58.40,82.15 58.96,81.91 59.35,82.27 60.28,82.77 60.40,81.92 60.26,81.79 60.44,80.80 60.71,80.15 61.26,79.26 61.73,78.75Z" data-dep="11" data-reg="76" data-libgeo="Aude"/>
<path d="M54.12,63.91 53.71,64.37 53.20,64.21 52.50,64.59 52.28,64.92 51.41,65.38 51.61,66.19 51.92,66.56 51.72,66.80 51.55,67.01 51.86,67.44 52.28,67.43 51.88,68.33 52.26,68.43 52.52,68.81 53.27,68.40 53.77,68.50 54.31,68.97 54.58,68.83 55.43,69.39 55.61,69.79 55.98,69.84 56.46,70.62 56.29,70.96 56.68,71.21 56.86,71.65 56.73,72.01 57.43,72.94 58.02,73.25 58.65,72.90 59.38,73.18 59.48,73.62 59.85,73.46 60.41,73.64 60.32,72.48 60.43,72.12 61.49,72.37 61.98,71.46 62.60,71.30 63.28,70.14 62.12,69.65 62.42,68.71 62.71,68.58 62.59,68.30 61.91,68.27 61.66,67.96 60.87,67.40 61.09,67.13 60.84,66.55 60.99,66.25 60.94,65.58 60.46,65.10 60.58,64.50 59.82,63.61 59.47,63.06 59.49,62.23 59.17,62.13 58.89,61.45 58.51,61.22 58.02,60.53 57.03,61.54 57.01,62.06 56.75,62.22 56.70,62.77 56.27,63.17 56.20,63.48 55.80,63.67 55.00,63.35 54.31,63.50 54.12,63.91Z" data-dep="12" data-reg="76" data-libgeo="Aveyron"/>
<path d="M69.02,76.11 71.26,76.20 71.58,76.38 71.61,77.16 72.31,77.33 73.11,77.32 73.63,77.47 73.64,76.71 74.17,76.40 74.52,76.67 74.99,76.72 75.09,76.11 74.74,76.01 74.81,75.37 75.50,75.42 75.77,76.13 76.10,75.83 76.36,76.19 75.84,76.66 74.62,76.87 74.99,77.52 76.38,77.51 77.00,77.17 77.38,77.69 77.24,78.02 77.42,78.81 78.07,78.77 78.89,79.15 79.65,79.11 79.74,78.50 80.30,78.17 80.05,77.64 79.71,77.60 79.73,76.76 80.40,76.53 80.06,76.04 80.02,75.17 79.71,74.48 79.99,74.09 80.57,73.98 80.46,73.38 80.25,73.30 79.17,74.00 78.62,73.99 77.93,73.76 77.03,73.18 76.38,73.06 76.08,73.19 75.06,72.62 74.92,72.21 74.51,71.79 73.61,71.32 72.77,71.18 72.43,71.61 72.06,71.78 72.13,72.68 71.77,73.71 71.27,73.48 70.91,73.57 70.47,74.36 70.32,75.05 69.91,75.19 69.13,75.67 69.02,76.11Z" data-dep="13" data-reg="93" data-libgeo="Bouches-du-Rhône"/>
<path d="M40.04,15.70 39.48,15.72 38.67,16.04 38.18,16.48 37.19,16.99 36.21,17.08 35.60,16.95 34.80,16.60 34.03,16.51 33.44,16.56 31.59,16.35 31.07,16.07 29.97,16.08 29.63,16.34 29.64,16.71 29.45,16.86 29.48,17.23 29.93,17.59 30.67,17.98 31.37,18.70 31.49,19.57 30.90,20.14 30.38,20.40 30.31,20.75 29.50,21.29 29.82,21.93 30.40,22.03 30.84,21.87 31.65,22.22 32.10,21.89 33.28,21.49 34.21,21.29 34.43,21.07 36.54,21.42 37.37,21.34 37.78,20.95 38.27,20.77 38.79,20.29 38.98,20.56 39.90,20.16 40.31,20.38 40.89,20.31 40.99,19.52 40.86,19.08 40.76,17.82 40.21,17.44 40.23,16.97 40.04,15.70Z" data-dep="14" data-reg="28" data-libgeo="Calvados"/>
<path d="M59.82,63.61 60.31,61.95 60.72,61.08 61.01,60.92 61.29,61.32 61.63,60.85 62.06,60.67 62.62,60.21 62.52,59.76 62.15,59.50 62.27,59.03 61.69,57.62 61.63,57.14 61.10,56.86 60.83,56.96 60.72,56.24 60.28,56.81 59.59,56.71 59.37,56.12 58.59,55.75 57.85,55.96 57.57,55.37 56.91,55.26 56.33,54.96 56.18,55.58 55.87,55.94 55.31,55.60 55.16,56.51 54.57,56.90 53.99,57.80 54.17,58.25 53.86,59.06 53.29,59.33 53.63,59.85 53.05,60.15 53.39,60.84 53.21,61.08 53.82,61.87 53.67,62.82 53.91,63.30 53.83,63.66 54.12,63.91 54.31,63.50 55.00,63.35 55.80,63.67 56.20,63.48 56.27,63.17 56.70,62.77 56.75,62.22 57.01,62.06 57.03,61.54 58.02,60.53 58.51,61.22 58.89,61.45 59.17,62.13 59.49,62.23 59.47,63.06 59.82,63.61Z" data-dep="15" data-reg="84" data-libgeo="Cantal"/>
<path d="M43.92,48.30 43.44,48.20 42.91,48.37 42.91,48.62 41.83,48.74 41.47,48.23 41.12,48.58 41.31,48.98 39.88,48.93 39.31,48.64 38.39,48.65 37.99,49.07 37.56,49.07 37.56,49.67 37.09,49.92 37.08,50.36 36.73,50.49 36.95,51.15 36.70,51.76 36.22,51.91 36.05,51.60 34.54,52.00 34.79,52.25 34.84,53.13 35.08,53.62 35.66,54.07 35.97,54.52 35.88,55.19 35.97,55.77 35.82,56.20 36.15,56.65 37.05,56.91 37.04,57.35 37.56,57.35 37.89,57.60 37.88,57.92 38.21,57.59 38.81,57.75 39.12,57.30 39.69,56.92 39.84,56.64 39.70,56.03 40.12,55.14 40.46,55.10 41.52,54.27 41.75,53.26 42.09,53.27 42.49,52.53 42.98,52.04 43.15,51.59 43.58,51.67 43.87,51.06 44.00,50.39 44.37,50.39 44.77,50.06 44.68,49.52 43.88,49.12 43.92,48.30Z" data-dep="16" data-reg="75" data-libgeo="Charente"/>
<path d="M29.71,46.41 29.65,46.90 28.78,47.92 29.27,48.17 30.01,49.12 29.87,49.65 29.94,50.47 29.70,50.97 29.25,51.19 29.34,51.63 28.69,51.86 28.73,52.59 29.63,53.22 30.51,53.73 30.57,53.96 31.60,54.75 32.28,55.71 32.55,56.52 33.47,56.58 33.64,56.80 34.27,56.87 34.79,57.12 34.75,57.75 35.18,58.14 35.82,58.44 36.04,58.79 36.81,58.97 37.20,58.65 37.55,58.84 37.88,57.92 37.89,57.60 37.56,57.35 37.04,57.35 37.05,56.91 36.15,56.65 35.82,56.20 35.97,55.77 35.88,55.19 35.97,54.52 35.66,54.07 35.08,53.62 34.84,53.13 34.79,52.25 34.54,52.00 36.05,51.60 36.22,51.91 36.70,51.76 36.95,51.15 36.73,50.49 37.08,50.36 37.09,49.92 36.85,49.83 36.65,49.23 35.84,49.03 35.77,48.80 34.89,48.75 33.82,48.14 33.28,48.20 32.75,47.37 32.31,47.11 32.32,46.51 31.90,46.16 30.97,46.44 30.38,45.99 29.71,46.41 M26.99,47.54 27.88,48.03 28.40,48.14 28.34,47.72 27.80,47.50 27.33,47.52 26.69,46.99 26.38,47.24 26.54,47.54 26.99,47.54 M28.88,50.58 28.75,49.79 28.16,49.68 27.76,49.31 27.64,50.10 28.50,50.82 28.78,51.64 29.04,51.35 29.09,50.77 28.88,50.58Z" data-dep="17" data-reg="75" data-libgeo="Charente-Maritime"/>
<path d="M54.66,45.34 54.84,44.78 55.30,44.35 56.25,44.19 56.62,44.26 57.12,43.98 56.98,43.13 57.96,42.02 58.18,42.33 58.69,42.16 59.67,41.47 60.19,41.56 60.47,40.97 60.33,40.44 60.54,39.96 60.52,39.31 60.15,38.90 60.17,38.21 59.82,37.28 59.83,36.89 59.00,36.07 59.45,35.09 59.03,34.31 58.43,34.53 58.24,34.26 57.65,34.68 56.62,33.76 56.21,33.83 55.82,33.42 55.34,33.66 54.72,33.23 54.35,33.31 53.47,33.68 53.57,34.01 54.03,34.03 54.41,34.59 54.38,35.36 53.98,35.13 53.35,35.58 53.57,36.69 53.06,36.68 52.58,36.86 52.17,36.59 51.88,37.35 51.40,37.30 51.29,37.76 50.93,38.18 51.72,38.48 52.34,38.24 52.95,38.43 52.82,39.01 53.39,39.52 53.11,40.16 53.61,40.62 53.09,41.16 53.45,41.74 53.12,42.17 53.73,42.59 53.59,42.77 53.97,43.36 53.76,43.95 54.09,44.69 53.70,44.96 53.83,45.30 54.66,45.34Z" data-dep="18" data-reg="24" data-libgeo="Cher"/>
<path d="M48.52,59.71 49.20,59.44 50.02,59.65 50.78,60.52 51.29,60.66 51.91,60.14 53.05,60.15 53.63,59.85 53.29,59.33 53.86,59.06 54.17,58.25 53.99,57.80 54.57,56.90 55.16,56.51 55.31,55.60 55.87,55.94 56.18,55.58 56.33,54.96 56.39,54.18 56.03,53.78 56.15,53.31 56.47,53.13 56.44,52.59 56.21,52.29 55.80,52.69 55.27,52.55 55.10,52.86 54.02,52.69 53.80,52.31 53.43,52.43 52.86,52.12 51.84,52.70 51.69,53.02 50.94,53.10 50.27,53.43 49.92,53.91 49.33,54.23 48.55,54.19 47.80,55.08 47.37,54.87 47.09,55.31 47.11,55.75 47.60,55.94 47.00,56.79 46.94,57.60 47.34,58.06 47.09,58.26 48.26,58.61 48.16,59.27 48.52,59.71Z" data-dep="19" data-reg="75" data-libgeo="Corrèze"/>
<path d="M69.48,30.30 69.26,30.81 69.68,31.17 69.78,31.97 69.21,32.27 69.30,32.51 68.90,33.50 68.15,34.47 68.21,35.07 67.84,35.50 68.11,36.11 68.32,37.12 68.55,37.00 69.02,37.54 68.87,37.94 69.34,38.41 70.27,38.66 70.32,39.00 71.37,39.33 71.55,39.77 71.92,40.09 72.69,40.31 73.92,39.97 75.26,39.90 76.58,39.70 76.98,39.31 76.79,39.01 77.54,38.68 77.93,38.05 78.24,37.31 78.29,36.61 78.51,36.46 78.30,35.83 78.02,35.66 77.64,34.52 77.99,34.55 78.36,33.97 78.21,33.43 77.83,33.20 77.45,33.47 76.46,33.36 75.98,33.01 75.50,33.03 74.36,32.52 74.39,31.96 74.62,31.48 74.36,30.88 73.55,29.95 73.12,29.92 73.14,29.49 72.52,29.37 71.60,29.28 71.40,29.88 70.62,30.00 70.40,29.88 69.60,29.95 69.48,30.30Z" data-dep="21" data-reg="27" data-libgeo="Côte-d'Or"/>
<path d="M11.58,27.74 12.62,27.83 13.66,28.18 14.60,28.01 14.90,27.55 15.48,27.57 15.90,27.98 16.15,27.88 16.89,28.19 17.39,28.54 18.30,28.39 18.18,29.10 18.48,29.24 19.48,28.03 19.97,27.86 20.75,28.36 20.99,28.25 21.46,27.89 21.51,27.48 21.99,27.00 22.35,27.04 22.58,26.69 23.01,26.83 23.42,26.56 23.77,24.51 23.51,24.28 23.06,24.04 22.78,24.26 22.20,23.66 21.61,23.89 21.00,23.04 20.67,23.01 19.44,23.63 19.06,23.72 18.40,24.45 17.97,24.63 17.74,24.11 17.06,23.76 17.02,23.25 16.13,22.50 16.26,22.19 15.62,22.08 15.66,21.76 14.12,21.12 13.60,21.45 12.50,21.78 11.96,21.42 11.44,22.06 11.47,23.01 10.88,23.16 11.10,23.80 11.44,23.95 11.64,24.39 11.31,24.71 11.68,25.19 11.32,25.44 11.66,25.86 11.64,26.28 11.93,26.80 11.63,27.33 11.58,27.74Z" data-dep="22" data-reg="53" data-libgeo="Côtes-d'Armor"/>
<path d="M48.28,46.08 48.36,46.57 48.01,47.39 48.18,47.75 48.57,47.77 48.84,48.46 49.09,48.73 49.40,49.98 49.25,50.46 49.86,50.31 49.95,50.71 49.70,50.98 50.08,51.30 50.97,51.11 51.22,51.51 51.71,51.68 51.66,52.35 51.84,52.70 52.86,52.12 53.43,52.43 53.80,52.31 54.02,52.69 55.10,52.86 55.27,52.55 55.80,52.69 56.21,52.29 55.79,51.99 55.47,51.43 56.49,50.64 56.96,49.71 56.62,48.46 56.76,48.15 56.48,47.73 56.39,47.18 56.04,46.69 55.48,46.25 54.91,46.20 54.91,45.80 54.66,45.34 53.83,45.30 53.12,45.34 52.54,45.23 51.26,45.24 51.10,44.98 50.58,45.65 50.26,45.36 49.97,45.68 49.09,45.27 48.28,46.08Z" data-dep="23" data-reg="75" data-libgeo="Creuse"/>
<path d="M47.09,55.31 46.17,55.02 46.12,54.27 45.57,54.14 45.39,53.61 44.85,53.57 43.83,53.96 43.39,53.52 43.58,53.04 43.32,52.78 42.77,52.83 42.49,52.53 42.09,53.27 41.75,53.26 41.52,54.27 40.46,55.10 40.12,55.14 39.70,56.03 39.84,56.64 39.69,56.92 39.12,57.30 38.81,57.75 38.21,57.59 37.88,57.92 37.55,58.84 38.16,58.71 38.39,59.18 37.92,60.39 38.10,60.78 37.69,61.46 38.20,61.73 39.14,61.71 39.73,61.28 40.04,62.38 40.41,62.83 40.42,63.35 40.93,63.59 42.15,63.06 42.70,63.27 43.22,63.28 43.73,63.01 44.07,63.34 43.87,63.79 44.28,64.07 45.07,63.62 45.77,64.31 46.33,63.73 46.32,63.34 46.82,63.21 47.33,62.88 47.59,62.38 47.43,62.02 47.90,61.87 47.88,61.57 48.46,61.21 48.48,60.78 48.23,59.84 48.52,59.71 48.16,59.27 48.26,58.61 47.09,58.26 47.34,58.06 46.94,57.60 47.00,56.79 47.60,55.94 47.11,55.75 47.09,55.31Z" data-dep="24" data-reg="75" data-libgeo="Dordogne"/>
<path d="M88.01,33.88 87.83,34.14 87.00,33.93 86.37,34.41 85.61,34.53 85.10,34.29 84.53,34.45 83.95,35.26 83.49,35.35 82.65,35.96 81.82,36.13 81.54,36.05 80.91,36.50 79.84,36.85 80.00,37.30 80.74,38.11 80.48,38.55 80.51,39.29 81.41,39.48 81.83,39.70 81.81,40.02 82.11,40.77 82.41,41.02 83.18,41.31 83.59,41.86 82.59,42.61 82.84,43.01 82.42,43.44 83.08,43.95 82.88,43.76 84.03,42.75 85.23,41.94 85.49,40.60 85.25,40.21 85.72,39.76 86.73,39.52 87.52,38.41 88.39,37.85 88.56,37.49 89.10,37.07 89.05,36.59 89.77,36.24 89.79,35.88 88.54,35.92 88.98,35.44 88.99,35.17 88.76,34.60 88.71,34.01 88.01,33.88Z" data-dep="25" data-reg="27" data-libgeo="Doubs"/>
<path d="M73.22,56.82 73.31,58.21 73.25,58.64 73.66,59.36 73.49,59.85 73.86,60.57 73.39,61.81 72.93,62.29 73.07,63.50 72.43,64.61 72.46,65.67 72.23,65.89 72.12,66.91 72.95,66.95 73.26,67.30 73.33,67.94 73.75,67.66 74.20,67.62 75.14,67.14 75.26,67.39 75.79,67.43 75.99,68.06 76.59,67.96 77.53,68.26 77.52,68.70 77.91,68.77 78.37,69.16 78.69,68.97 78.94,68.40 79.41,68.62 79.67,68.36 79.66,67.68 79.19,67.08 79.27,66.87 78.33,66.83 77.97,66.39 77.89,65.82 78.43,65.21 79.14,65.48 79.32,64.76 79.09,64.67 79.47,63.94 79.42,63.54 80.06,63.67 80.52,63.52 80.60,62.96 80.27,63.07 79.96,62.83 79.46,62.78 79.32,62.48 78.12,62.07 78.33,59.95 78.13,59.35 77.56,59.54 77.22,59.28 76.53,59.27 75.90,58.88 76.09,58.15 76.00,57.33 75.59,57.33 75.10,56.60 74.61,56.35 73.81,56.83 73.22,56.82 M73.73,66.75 74.09,66.09 74.61,65.93 74.90,66.56 74.60,67.30 73.89,67.16 73.73,66.75Z" data-dep="26" data-reg="84" data-libgeo="Drôme"/>
<path d="M43.85,23.02 44.94,22.48 46.38,22.06 47.67,22.13 48.00,21.86 47.89,21.43 48.64,21.02 48.54,20.57 48.91,20.40 48.51,19.38 49.71,19.08 50.06,18.56 50.21,17.77 50.41,17.59 50.91,17.00 50.82,16.29 50.48,15.90 49.67,15.87 49.35,15.59 48.17,15.44 47.53,15.76 47.23,16.50 46.40,16.54 46.20,16.85 45.32,17.40 44.91,17.12 44.59,16.12 43.99,16.05 43.48,15.80 42.76,15.96 42.52,15.66 42.07,15.62 41.56,15.17 41.06,15.41 40.34,15.55 40.04,15.70 40.23,16.97 40.21,17.44 40.76,17.82 40.86,19.08 40.99,19.52 40.89,20.31 40.70,20.69 41.55,21.00 42.19,21.05 42.41,21.48 43.25,21.91 43.56,22.37 43.30,22.58 43.48,22.97 43.85,23.02Z" data-dep="27" data-reg="28" data-libgeo="Eure"/>
<path d="M48.91,20.40 48.54,20.57 48.64,21.02 47.89,21.43 48.00,21.86 47.67,22.13 46.38,22.06 44.94,22.48 43.85,23.02 44.11,23.85 44.73,24.14 44.98,24.44 44.79,25.09 45.05,25.27 44.55,25.94 43.64,26.23 43.42,26.63 43.97,27.47 43.73,27.66 44.36,27.98 44.05,28.56 44.56,28.55 45.33,28.26 45.29,28.75 45.98,28.77 46.12,29.22 46.79,29.86 47.94,30.02 48.44,29.80 49.05,29.74 48.99,29.29 49.60,29.27 49.84,28.89 50.78,28.93 51.60,28.75 52.23,27.71 52.33,27.06 52.54,26.76 52.29,26.54 52.42,25.65 52.17,25.59 52.01,25.09 51.88,25.27 51.12,25.01 50.93,24.54 51.02,24.15 50.45,23.92 49.66,23.09 49.49,22.70 49.84,22.26 49.47,21.93 49.60,21.38 49.19,20.58 48.91,20.40Z" data-dep="28" data-reg="24" data-libgeo="Eure-et-Loir"/>
<path d="M10.88,23.16 10.45,22.68 9.45,22.86 9.41,23.39 8.73,23.13 8.44,22.50 7.94,22.87 7.55,22.78 6.97,22.90 6.75,23.23 6.35,23.22 5.80,22.96 4.95,23.45 4.57,23.37 4.24,23.72 2.84,24.25 2.64,24.68 2.76,24.95 2.53,25.49 2.77,25.91 2.68,26.34 3.11,26.33 3.37,26.08 3.75,26.26 5.18,25.69 5.08,26.38 5.95,26.22 6.10,26.65 5.67,26.84 5.24,26.71 4.67,26.81 4.18,27.07 4.55,27.67 4.97,27.23 6.14,27.66 6.38,28.25 6.11,28.69 5.63,28.49 4.94,28.59 3.41,28.97 4.18,29.57 4.69,29.55 5.28,29.96 5.57,30.38 5.82,31.15 5.67,31.58 6.96,31.57 7.17,31.06 7.55,30.90 8.06,31.08 8.51,31.00 8.76,30.58 9.35,31.43 9.83,31.66 10.36,31.51 10.73,31.77 11.78,31.90 11.89,31.57 12.44,30.91 12.79,30.81 12.85,30.00 12.20,30.04 11.68,29.65 11.02,29.66 10.78,28.99 10.48,28.60 10.48,28.16 11.58,27.74 11.63,27.33 11.93,26.80 11.64,26.28 11.66,25.86 11.32,25.44 11.68,25.19 11.31,24.71 11.64,24.39 11.44,23.95 11.10,23.80 10.88,23.16Z" data-dep="29" data-reg="53" data-libgeo="Finistère"/>
<path d="M101.03,87.71 101.88,88.99 101.30,89.11 101.03,89.37 101.19,90.44 101.97,90.64 102.25,91.42 101.64,91.76 101.71,92.09 101.17,92.25 101.30,92.80 102.09,92.86 102.54,92.67 102.71,92.96 102.47,93.93 101.86,94.61 102.12,94.87 103.27,95.18 103.26,95.68 102.67,95.88 102.61,96.69 103.00,96.82 103.30,97.23 103.89,97.43 104.67,97.88 105.09,98.45 105.79,98.79 106.08,98.27 105.96,97.92 106.29,97.51 106.40,96.83 106.88,96.26 106.29,96.13 107.02,95.61 107.17,94.41 107.13,93.39 106.58,93.65 105.85,93.43 106.03,92.96 105.80,92.44 105.80,91.56 105.36,91.58 105.13,91.26 105.08,90.70 104.73,90.45 104.51,89.60 104.34,89.64 103.47,89.09 103.16,88.63 102.40,88.18 101.82,88.04 101.52,87.79 101.03,87.71Z" data-dep="2A" data-reg="94" data-libgeo="Corse-du-Sud"/>
<path d="M101.03,87.71 101.52,87.79 101.82,88.04 102.40,88.18 103.16,88.63 103.47,89.09 104.34,89.64 104.51,89.60 104.73,90.45 105.08,90.70 105.13,91.26 105.36,91.58 105.80,91.56 105.80,92.44 106.03,92.96 105.85,93.43 106.58,93.65 107.13,93.39 107.22,92.35 108.21,90.74 108.29,88.75 108.09,87.68 108.17,87.21 108.10,85.92 107.47,84.62 107.72,82.80 107.59,81.19 107.28,80.91 106.68,81.09 106.82,81.86 106.55,82.11 106.46,82.84 106.69,83.20 106.71,83.87 106.55,84.29 106.21,84.35 105.88,84.04 105.09,83.92 104.59,84.35 104.32,84.86 103.57,84.94 102.76,85.35 102.57,85.81 102.16,85.75 101.71,86.28 101.78,86.68 101.62,87.34 101.29,87.34 101.03,87.71Z" data-dep="2B" data-reg="94" data-libgeo="Haute-Corse"/>
<path d="M62.60,71.30 63.09,71.32 63.14,71.83 63.73,71.48 63.86,71.92 64.19,71.81 64.55,71.26 64.89,71.33 65.06,70.88 65.76,70.73 66.07,71.18 65.85,71.53 66.08,71.80 66.57,71.68 67.33,72.36 68.38,73.16 68.76,74.05 68.57,74.52 68.05,74.78 68.07,75.10 68.16,75.62 68.44,75.93 69.02,76.11 69.13,75.67 69.91,75.19 70.32,75.05 70.47,74.36 70.91,73.57 71.27,73.48 71.77,73.71 72.13,72.68 72.06,71.78 72.43,71.61 72.77,71.18 73.54,70.52 73.54,70.29 72.87,69.45 72.54,69.29 72.65,68.41 72.11,67.53 71.45,67.20 71.06,66.81 69.73,66.82 69.23,67.60 68.40,67.08 68.26,66.83 67.71,67.04 67.83,66.12 67.31,65.55 66.65,66.43 66.97,67.77 67.00,68.34 66.40,69.01 65.83,69.04 64.99,68.48 64.65,68.53 64.62,69.10 63.28,69.05 62.71,68.58 62.42,68.71 62.12,69.65 63.28,70.14 62.60,71.30Z" data-dep="30" data-reg="76" data-libgeo="Gard"/>
<path d="M41.37,84.26 42.78,84.38 42.88,84.17 42.62,83.38 42.71,82.77 43.07,82.52 43.60,82.80 44.17,82.91 43.94,81.95 44.54,81.48 45.07,81.31 45.30,80.88 45.08,80.24 45.29,79.82 46.15,79.36 47.15,80.05 47.37,79.70 46.84,79.40 46.95,79.01 47.61,78.98 47.98,78.74 47.57,78.34 47.47,77.84 47.77,77.65 48.37,78.32 48.66,78.79 49.03,78.13 49.92,78.30 50.29,78.10 50.79,77.31 51.21,77.38 51.14,76.83 51.43,76.59 52.80,76.36 52.51,75.93 51.81,75.56 51.28,74.82 50.31,74.35 50.61,73.99 50.38,73.29 50.01,73.01 49.87,72.51 49.56,72.32 49.37,71.87 49.31,71.25 48.52,71.74 47.85,71.61 47.63,72.10 47.87,72.32 46.83,72.81 46.38,72.30 45.83,72.33 44.88,72.63 45.19,73.18 45.68,73.56 45.87,74.14 46.18,74.17 46.39,74.57 46.70,74.67 45.94,75.33 45.18,76.65 45.24,77.00 44.20,76.59 43.53,76.57 42.78,77.56 42.32,77.70 42.02,78.34 42.08,78.66 41.11,79.63 42.01,80.24 42.00,80.65 42.47,81.03 42.09,82.42 41.37,82.34 41.23,82.86 41.20,83.96 41.37,84.26Z" data-dep="31" data-reg="76" data-libgeo="Haute-Garonne"/>
<path d="M42.32,77.70 42.78,77.56 43.53,76.57 44.20,76.59 45.24,77.00 45.18,76.65 45.94,75.33 46.70,74.67 46.39,74.57 46.18,74.17 45.87,74.14 45.68,73.56 45.19,73.18 44.88,72.63 44.52,72.67 44.40,71.34 44.04,71.27 43.64,70.85 44.19,69.95 43.89,69.79 43.48,70.07 43.32,69.69 42.86,70.07 42.28,69.56 42.02,69.75 41.24,69.80 41.11,70.08 40.49,70.21 40.05,70.46 39.42,70.15 39.07,70.46 38.41,70.56 38.08,71.44 37.31,70.95 36.92,70.97 36.23,71.53 36.46,72.15 36.18,72.41 36.42,73.17 36.00,73.48 36.06,74.78 36.55,74.66 37.14,74.81 37.49,74.52 38.23,75.48 38.68,75.50 38.99,76.76 39.19,77.06 39.91,76.90 40.40,77.31 41.12,77.52 41.88,77.50 42.32,77.70Z" data-dep="32" data-reg="76" data-libgeo="Gers"/>
<path d="M36.81,68.00 37.61,67.52 37.27,66.66 38.03,66.41 37.79,66.04 37.74,65.07 38.13,64.56 38.99,63.91 39.20,63.44 38.64,63.18 38.87,62.69 39.33,62.80 39.52,62.36 40.04,62.38 39.73,61.28 39.14,61.71 38.20,61.73 37.69,61.46 38.10,60.78 37.92,60.39 38.39,59.18 38.16,58.71 37.55,58.84 37.20,58.65 36.81,58.97 36.04,58.79 35.82,58.44 35.18,58.14 34.75,57.75 34.79,57.12 34.27,56.87 33.64,56.80 33.47,56.58 32.55,56.52 32.91,58.15 32.93,58.59 33.16,59.14 33.50,59.47 33.37,59.75 32.82,59.09 32.35,57.76 32.19,56.91 31.93,56.30 30.97,55.32 29.74,54.31 29.36,54.90 29.29,56.78 28.83,61.48 28.63,62.93 29.19,62.57 29.28,62.22 30.06,62.94 30.35,63.56 29.77,63.64 29.05,63.46 28.97,63.95 28.59,64.76 28.61,65.46 29.69,65.10 29.85,64.78 30.62,65.30 30.43,65.79 31.08,65.72 31.65,65.98 32.87,65.57 33.22,65.72 33.19,66.18 33.96,66.54 34.04,66.81 34.67,66.98 35.03,67.37 34.98,68.17 35.85,68.34 36.20,68.21 36.17,67.68 36.56,67.67 36.81,68.00Z" data-dep="33" data-reg="75" data-libgeo="Gironde"/>
<path d="M61.73,78.75 62.82,77.98 63.76,78.06 64.67,76.95 65.88,76.26 66.64,75.50 67.38,75.13 68.07,75.10 68.05,74.78 68.57,74.52 68.76,74.05 68.38,73.16 67.33,72.36 66.57,71.68 66.08,71.80 65.85,71.53 66.07,71.18 65.76,70.73 65.06,70.88 64.89,71.33 64.55,71.26 64.19,71.81 63.86,71.92 63.73,71.48 63.14,71.83 63.09,71.32 62.60,71.30 61.98,71.46 61.49,72.37 60.43,72.12 60.32,72.48 60.41,73.64 59.85,73.46 59.48,73.62 59.36,73.96 58.07,74.41 57.88,74.14 57.41,74.10 57.13,74.98 57.44,75.41 57.35,76.12 56.76,76.51 56.68,77.42 57.04,77.85 57.45,77.90 58.28,78.27 58.39,77.96 59.10,77.45 59.99,77.98 60.36,78.04 61.12,78.44 61.34,78.34 61.73,78.75Z" data-dep="34" data-reg="76" data-libgeo="Hérault"/>
<path d="M29.97,24.59 28.59,24.26 28.43,24.58 27.66,25.10 26.94,24.80 26.64,24.27 26.52,23.71 26.28,23.45 24.82,23.68 24.30,23.57 24.06,23.26 24.23,22.75 23.57,22.78 22.90,23.26 23.03,23.65 23.51,24.28 23.77,24.51 23.42,26.56 23.01,26.83 22.58,26.69 22.35,27.04 21.99,27.00 21.51,27.48 21.46,27.89 20.99,28.25 21.34,29.05 21.05,29.31 21.36,29.57 22.05,29.73 22.53,30.36 22.26,30.74 22.71,31.02 22.21,32.70 22.40,33.20 23.22,32.69 24.11,32.46 25.30,32.52 25.63,32.42 25.89,31.91 26.99,31.52 27.04,31.20 27.58,31.25 27.81,31.54 28.67,31.77 28.73,31.44 29.09,30.84 29.39,29.88 29.56,29.70 30.33,29.61 30.31,28.89 30.12,28.69 29.93,27.59 29.73,27.00 30.15,26.35 29.89,25.48 29.97,24.59 M23.06,24.04 22.85,23.45 22.14,23.36 22.20,23.66 22.78,24.26 23.06,24.04Z" data-dep="35" data-reg="53" data-libgeo="Ille-et-Vilaine"/>
<path d="M48.28,46.08 49.09,45.27 49.97,45.68 50.26,45.36 50.58,45.65 51.10,44.98 51.26,45.24 52.54,45.23 53.12,45.34 53.83,45.30 53.70,44.96 54.09,44.69 53.76,43.95 53.97,43.36 53.59,42.77 53.73,42.59 53.12,42.17 53.45,41.74 53.09,41.16 53.61,40.62 53.11,40.16 53.39,39.52 52.82,39.01 52.95,38.43 52.34,38.24 51.72,38.48 50.93,38.18 51.29,37.76 51.40,37.30 50.93,37.18 50.49,36.73 49.19,36.93 48.33,37.20 47.63,37.63 47.91,38.28 47.56,38.45 47.09,39.28 46.46,39.09 45.84,39.29 45.63,39.54 45.41,40.75 45.13,41.52 45.14,41.89 44.24,42.03 44.67,42.53 44.44,43.26 44.60,43.56 45.38,44.17 46.01,44.21 46.30,44.48 46.34,45.05 46.79,45.21 46.53,45.71 46.97,45.88 47.53,45.80 47.84,45.54 48.28,46.08Z" data-dep="36" data-reg="24" data-libgeo="Indre"/>
<path d="M38.25,37.86 38.41,38.26 38.85,38.28 40.05,38.96 40.14,40.12 40.55,40.00 41.08,40.20 41.55,39.93 42.26,39.93 42.10,39.45 42.94,39.75 43.05,40.48 43.66,40.98 43.83,41.55 44.24,42.03 45.14,41.89 45.13,41.52 45.41,40.75 45.63,39.54 45.84,39.29 46.46,39.09 47.09,39.28 47.56,38.45 47.91,38.28 47.63,37.63 47.39,37.12 46.87,36.56 46.41,36.78 46.01,36.51 46.07,35.22 45.57,34.14 45.79,33.90 45.46,33.45 44.62,33.19 44.21,33.52 44.18,32.86 43.29,32.57 43.05,32.69 42.38,32.59 42.16,32.84 41.28,33.07 40.64,33.83 40.23,33.59 39.54,33.43 39.32,34.09 39.47,34.49 39.19,34.97 39.21,35.27 38.87,36.14 38.48,36.61 38.25,37.86Z" data-dep="37" data-reg="24" data-libgeo="Indre-et-Loire"/>
<path d="M83.98,58.59 83.40,58.20 83.08,57.69 83.03,56.96 83.44,56.60 83.36,55.82 82.96,55.36 82.13,55.22 81.81,54.82 81.34,55.58 80.15,55.38 80.12,55.03 79.64,54.33 79.29,53.57 79.02,53.02 77.82,51.59 77.74,51.12 77.29,50.80 76.92,51.16 76.83,51.54 76.33,51.98 75.88,51.63 75.44,51.52 75.39,52.28 75.75,52.47 74.95,53.32 74.48,53.57 73.97,53.64 73.29,53.99 73.74,54.48 72.91,55.19 72.80,55.64 72.89,56.12 72.94,56.55 73.22,56.82 73.81,56.83 74.61,56.35 75.10,56.60 75.59,57.33 76.00,57.33 76.09,58.15 75.90,58.88 76.53,59.27 77.22,59.28 77.56,59.54 78.13,59.35 78.33,59.95 78.12,62.07 79.32,62.48 79.46,62.78 79.96,62.83 80.27,63.07 80.60,62.96 80.93,62.49 81.49,62.47 81.69,61.94 82.29,61.59 82.50,61.79 83.01,61.34 83.91,61.44 84.31,61.24 84.68,61.41 84.70,60.52 84.44,60.39 84.32,59.86 83.57,59.78 83.75,58.78 83.98,58.59Z" data-dep="38" data-reg="84" data-libgeo="Isère"/>
<path d="M78.51,36.46 78.29,36.61 78.24,37.31 77.93,38.05 77.54,38.68 76.79,39.01 76.98,39.31 76.58,39.70 76.94,40.13 77.17,40.66 77.58,40.56 78.06,41.19 77.46,41.23 77.30,41.58 77.94,43.14 77.68,43.71 77.36,43.75 77.34,44.33 77.80,44.53 77.76,44.80 76.98,45.07 77.01,45.45 77.47,45.73 77.45,46.03 77.92,46.40 78.18,46.91 78.69,46.87 79.48,46.15 79.96,46.47 80.04,46.96 80.98,46.95 81.39,46.72 81.92,46.00 82.53,45.38 82.60,44.89 83.22,44.07 83.08,43.95 82.42,43.44 82.84,43.01 82.59,42.61 83.59,41.86 83.18,41.31 82.41,41.02 82.11,40.77 81.81,40.02 81.83,39.70 81.41,39.48 80.51,39.29 80.48,38.55 80.74,38.11 80.00,37.30 79.84,36.85 78.98,36.97 78.51,36.46Z" data-dep="39" data-reg="27" data-libgeo="Jura"/>
<path d="M36.06,74.78 36.00,73.48 36.42,73.17 36.18,72.41 36.46,72.15 36.23,71.53 36.92,70.97 37.31,70.95 38.08,71.44 38.41,70.56 38.31,70.38 38.59,69.47 38.85,69.07 38.11,69.00 37.82,68.80 36.90,68.78 36.81,68.00 36.56,67.67 36.17,67.68 36.20,68.21 35.85,68.34 34.98,68.17 35.03,67.37 34.67,66.98 34.04,66.81 33.96,66.54 33.19,66.18 33.22,65.72 32.87,65.57 31.65,65.98 31.08,65.72 30.43,65.79 30.62,65.30 29.85,64.78 29.69,65.10 28.61,65.46 28.18,68.87 27.72,71.30 27.25,73.48 27.20,74.14 26.64,75.38 26.96,75.26 27.40,75.72 28.36,75.70 29.04,75.19 29.62,75.67 29.94,75.50 30.54,75.64 31.26,75.16 31.56,75.24 32.19,74.84 32.52,75.23 33.07,74.89 33.41,75.28 33.74,75.23 34.54,74.67 35.37,75.15 36.06,74.78Z" data-dep="40" data-reg="75" data-libgeo="Landes"/>
<path d="M42.38,32.59 43.05,32.69 43.29,32.57 44.18,32.86 44.21,33.52 44.62,33.19 45.46,33.45 45.79,33.90 45.57,34.14 46.07,35.22 46.01,36.51 46.41,36.78 46.87,36.56 47.39,37.12 47.63,37.63 48.33,37.20 49.19,36.93 50.49,36.73 50.93,37.18 51.40,37.30 51.88,37.35 52.17,36.59 52.58,36.86 53.06,36.68 53.57,36.69 53.35,35.58 53.98,35.13 54.38,35.36 54.41,34.59 54.03,34.03 53.57,34.01 53.47,33.68 54.35,33.31 54.09,32.74 53.68,32.82 52.65,32.74 51.63,32.78 51.19,32.99 50.73,32.96 50.47,32.31 49.84,31.92 49.15,31.34 49.55,30.77 49.07,30.24 49.05,29.74 48.44,29.80 47.94,30.02 46.79,29.86 46.12,29.22 45.98,28.77 45.29,28.75 45.33,28.26 44.56,28.55 44.05,28.56 43.73,29.20 44.10,30.14 43.45,30.56 43.56,31.14 42.84,31.84 42.13,32.40 42.38,32.59Z" data-dep="41" data-reg="24" data-libgeo="Loir-et-Cher"/>
<path d="M66.57,56.21 67.14,56.02 67.43,56.45 68.64,55.85 69.00,55.87 69.43,56.20 69.76,56.09 70.02,56.40 70.06,57.20 70.41,57.06 70.89,57.46 71.76,57.30 71.87,56.68 72.34,56.32 72.89,56.12 72.80,55.64 72.91,55.19 72.77,54.87 72.17,54.89 72.12,54.42 71.88,53.97 71.16,53.99 70.35,53.38 70.02,52.70 70.23,52.27 69.89,51.97 70.23,50.99 69.96,50.96 69.52,50.10 69.43,49.42 69.70,48.28 70.56,47.90 70.18,47.37 69.22,48.01 69.23,47.73 68.31,47.80 68.09,47.59 67.53,47.89 67.12,47.55 66.52,47.43 66.59,46.80 65.89,47.00 65.78,48.07 66.01,48.71 65.90,49.15 66.04,49.60 65.43,49.96 65.07,50.32 65.50,50.72 65.12,51.83 65.40,52.00 65.68,52.77 66.03,53.38 66.82,53.92 67.21,54.80 67.02,55.42 66.58,55.66 66.57,56.21Z" data-dep="42" data-reg="84" data-libgeo="Loire"/>
<path d="M60.72,56.24 60.83,56.96 61.10,56.86 61.63,57.14 61.69,57.62 62.27,59.03 62.15,59.50 62.52,59.76 62.62,60.21 62.98,60.76 63.48,61.89 64.29,61.62 64.35,61.19 64.78,61.22 64.87,61.69 65.45,61.63 65.64,61.95 66.31,62.57 66.87,62.02 67.53,61.65 67.62,61.22 68.48,61.23 69.47,59.95 69.88,59.18 70.27,58.82 70.81,58.05 70.89,57.46 70.41,57.06 70.06,57.20 70.02,56.40 69.76,56.09 69.43,56.20 69.00,55.87 68.64,55.85 67.43,56.45 67.14,56.02 66.57,56.21 65.79,55.93 65.69,56.29 65.11,56.19 64.52,56.41 64.16,55.75 63.49,55.56 63.05,55.80 62.42,55.68 61.69,55.86 61.19,56.26 60.72,56.24Z" data-dep="43" data-reg="84" data-libgeo="Haute-Loire"/>
<path d="M29.39,39.20 29.61,38.86 28.80,38.49 28.79,38.10 29.23,37.79 29.04,36.98 28.78,37.10 28.27,36.46 28.33,36.10 29.26,35.84 30.36,35.85 30.86,35.55 30.72,34.58 30.15,34.45 30.19,33.82 30.43,33.62 29.48,33.33 29.15,32.86 29.14,32.49 28.61,32.19 28.67,31.77 27.81,31.54 27.58,31.25 27.04,31.20 26.99,31.52 25.89,31.91 25.63,32.42 25.30,32.52 24.11,32.46 23.22,32.69 22.40,33.20 22.38,34.18 21.32,34.57 20.93,34.41 20.77,34.90 19.73,35.03 19.76,35.21 19.00,35.76 19.40,36.25 19.31,36.65 19.83,36.88 20.23,36.69 20.93,37.15 21.88,36.81 21.86,37.86 21.28,38.16 22.72,38.55 23.29,39.21 23.73,39.75 24.35,40.18 24.95,40.20 25.17,40.66 26.44,40.90 26.79,40.67 26.39,39.35 26.97,39.17 27.11,40.24 27.79,39.93 27.69,39.19 28.28,39.15 28.50,38.65 28.99,39.08 29.39,39.20Z" data-dep="44" data-reg="52" data-libgeo="Loire-Atlantique"/>
<path d="M59.78,33.82 59.54,33.59 59.39,32.72 58.87,32.31 58.99,31.89 59.47,31.91 60.16,31.53 60.05,31.20 60.09,30.48 60.89,29.88 60.61,29.04 60.33,28.86 60.17,28.26 59.49,27.96 58.98,28.04 58.47,27.92 57.80,28.34 57.33,28.22 55.98,28.22 56.44,27.65 56.32,27.23 55.68,26.95 55.56,26.42 55.23,26.54 54.34,26.47 53.80,26.64 52.54,26.76 52.33,27.06 52.23,27.71 51.60,28.75 50.78,28.93 49.84,28.89 49.60,29.27 48.99,29.29 49.05,29.74 49.07,30.24 49.55,30.77 49.15,31.34 49.84,31.92 50.47,32.31 50.73,32.96 51.19,32.99 51.63,32.78 52.65,32.74 53.68,32.82 54.09,32.74 54.35,33.31 54.72,33.23 55.34,33.66 55.82,33.42 56.21,33.83 56.62,33.76 57.65,34.68 58.24,34.26 58.43,34.53 59.03,34.31 58.81,34.06 59.78,33.82Z" data-dep="45" data-reg="24" data-libgeo="Loiret"/>
<path d="M45.69,66.40 46.03,66.98 46.68,67.43 47.06,67.51 47.32,67.90 47.99,68.04 48.55,67.71 48.70,67.39 49.53,67.72 49.95,67.53 50.40,67.07 51.72,66.80 51.92,66.56 51.61,66.19 51.41,65.38 52.28,64.92 52.50,64.59 53.20,64.21 53.71,64.37 54.12,63.91 53.83,63.66 53.91,63.30 53.67,62.82 53.82,61.87 53.21,61.08 53.39,60.84 53.05,60.15 51.91,60.14 51.29,60.66 50.78,60.52 50.02,59.65 49.20,59.44 48.52,59.71 48.23,59.84 48.48,60.78 48.46,61.21 47.88,61.57 47.90,61.87 47.43,62.02 47.59,62.38 47.33,62.88 46.82,63.21 46.32,63.34 46.33,63.73 45.77,64.31 45.32,64.74 45.37,65.70 45.64,65.88 45.69,66.40Z" data-dep="46" data-reg="76" data-libgeo="Lot"/>
<path d="M45.77,64.31 45.07,63.62 44.28,64.07 43.87,63.79 44.07,63.34 43.73,63.01 43.22,63.28 42.70,63.27 42.15,63.06 40.93,63.59 40.42,63.35 40.41,62.83 40.04,62.38 39.52,62.36 39.33,62.80 38.87,62.69 38.64,63.18 39.20,63.44 38.99,63.91 38.13,64.56 37.74,65.07 37.79,66.04 38.03,66.41 37.27,66.66 37.61,67.52 36.81,68.00 36.90,68.78 37.82,68.80 38.11,69.00 38.85,69.07 38.59,69.47 38.31,70.38 38.41,70.56 39.07,70.46 39.42,70.15 40.05,70.46 40.49,70.21 41.11,70.08 41.24,69.80 42.02,69.75 42.28,69.56 42.86,70.07 43.32,69.69 43.71,68.85 44.24,69.05 44.41,68.78 44.86,67.48 44.28,67.11 44.38,66.53 44.86,66.59 45.69,66.40 45.64,65.88 45.37,65.70 45.32,64.74 45.77,64.31Z" data-dep="47" data-reg="75" data-libgeo="Lot-et-Garonne"/>
<path d="M62.62,60.21 62.06,60.67 61.63,60.85 61.29,61.32 61.01,60.92 60.72,61.08 60.31,61.95 59.82,63.61 60.58,64.50 60.46,65.10 60.94,65.58 60.99,66.25 60.84,66.55 61.09,67.13 60.87,67.40 61.66,67.96 61.91,68.27 62.59,68.30 62.71,68.58 63.28,69.05 64.62,69.10 64.65,68.53 64.99,68.48 65.83,69.04 66.40,69.01 67.00,68.34 66.97,67.77 66.65,66.43 67.31,65.55 66.98,64.42 66.76,64.37 66.36,63.26 66.31,62.57 65.64,61.95 65.45,61.63 64.87,61.69 64.78,61.22 64.35,61.19 64.29,61.62 63.48,61.89 62.98,60.76 62.62,60.21Z" data-dep="48" data-reg="76" data-libgeo="Lozère"/>
<path d="M28.67,31.77 28.61,32.19 29.14,32.49 29.15,32.86 29.48,33.33 30.43,33.62 30.19,33.82 30.15,34.45 30.72,34.58 30.86,35.55 30.36,35.85 29.26,35.84 28.33,36.10 28.27,36.46 28.78,37.10 29.04,36.98 29.23,37.79 28.79,38.10 28.80,38.49 29.61,38.86 29.39,39.20 29.92,39.41 30.74,39.52 31.28,39.74 32.16,39.45 32.60,39.63 33.46,39.52 33.74,38.86 34.89,38.79 36.03,38.45 36.52,38.41 36.53,38.80 37.10,38.84 37.63,38.54 37.58,38.24 37.99,37.74 38.25,37.86 38.48,36.61 38.87,36.14 39.21,35.27 39.19,34.97 39.47,34.49 39.32,34.09 39.54,33.43 38.89,33.68 38.24,33.46 37.82,33.05 37.33,32.96 36.84,33.18 36.42,32.93 36.13,32.45 35.22,32.23 35.04,31.93 34.50,31.97 34.09,31.68 33.92,32.03 33.51,31.98 33.03,32.20 31.16,31.72 30.62,31.92 29.47,31.78 28.73,31.44 28.67,31.77Z" data-dep="49" data-reg="52" data-libgeo="Maine-et-Loire"/>
<path d="M29.45,16.86 29.61,16.51 29.16,16.19 29.17,15.79 28.23,14.66 28.79,13.84 28.47,13.27 27.77,13.06 27.37,13.09 26.89,13.43 25.91,13.68 25.17,13.31 24.42,13.22 23.56,12.87 23.50,13.36 24.14,13.60 24.28,14.34 23.95,14.77 24.20,14.93 24.41,15.96 25.26,16.77 25.76,17.70 26.01,17.94 26.12,18.53 25.98,19.02 26.34,20.03 26.34,20.67 26.07,21.42 26.25,21.55 26.25,22.22 26.69,22.73 27.47,23.28 26.95,23.52 26.28,23.45 26.52,23.71 26.64,24.27 26.94,24.80 27.66,25.10 28.43,24.58 28.59,24.26 29.97,24.59 30.46,24.78 30.80,24.52 31.51,24.66 32.14,24.06 32.30,23.48 32.15,23.15 32.43,22.87 31.95,22.61 31.65,22.22 30.84,21.87 30.40,22.03 29.82,21.93 29.50,21.29 30.31,20.75 30.38,20.40 30.90,20.14 31.49,19.57 31.37,18.70 30.67,17.98 29.93,17.59 29.48,17.23 29.45,16.86Z" data-dep="50" data-reg="28" data-libgeo="Manche"/>
<path d="M74.61,22.88 74.80,22.62 74.21,21.85 73.88,21.59 74.23,21.29 74.05,20.81 74.33,20.49 74.91,20.26 74.96,19.59 74.76,19.49 74.67,18.82 74.26,18.04 74.33,17.55 74.06,17.28 73.42,17.56 72.41,17.35 71.89,17.54 71.57,16.98 70.57,17.13 70.08,16.74 69.60,16.69 69.12,16.17 68.62,15.96 67.68,15.93 67.59,16.37 66.37,15.92 66.24,16.51 65.87,16.38 64.73,16.79 64.91,17.58 64.80,17.79 65.41,18.32 64.56,18.37 64.73,19.43 64.53,20.16 64.18,20.61 63.85,20.68 63.53,21.26 63.20,21.92 63.42,22.36 63.42,22.86 63.20,23.09 64.05,23.51 64.54,23.89 64.63,24.27 65.80,24.39 66.34,24.31 66.37,23.89 66.95,23.67 67.23,23.16 68.29,22.86 68.55,22.66 69.51,22.60 69.78,23.02 69.65,23.55 70.32,24.09 71.24,24.39 71.97,24.14 72.26,24.36 73.22,24.38 72.99,23.81 73.57,23.56 73.63,23.05 74.04,22.84 74.61,22.88Z" data-dep="51" data-reg="44" data-libgeo="Marne"/>
<path d="M81.21,30.30 80.96,29.97 80.49,30.03 80.55,29.59 80.33,29.23 79.80,28.83 79.34,28.72 79.74,28.14 80.00,27.48 79.42,27.19 78.24,26.08 77.95,26.28 77.71,25.81 78.16,25.45 77.71,25.21 76.95,24.52 76.71,24.54 75.97,24.13 75.53,23.76 74.80,23.60 74.61,22.88 74.04,22.84 73.63,23.05 73.57,23.56 72.99,23.81 73.22,24.38 72.26,24.36 72.14,24.96 72.49,25.69 73.53,26.24 73.66,26.97 73.36,28.55 72.72,28.40 72.40,28.85 72.52,29.37 73.14,29.49 73.12,29.92 73.55,29.95 74.36,30.88 74.62,31.48 74.39,31.96 74.36,32.52 75.50,33.03 75.98,33.01 76.46,33.36 77.45,33.47 77.69,32.79 78.25,32.68 79.09,32.80 79.79,32.68 79.71,31.84 80.08,31.37 80.56,31.08 81.21,30.30Z" data-dep="52" data-reg="44" data-libgeo="Haute-Marne"/>
<path d="M37.45,25.82 37.47,25.13 36.77,25.10 36.33,24.07 35.76,24.61 35.13,24.73 34.58,24.54 34.10,24.59 33.63,24.98 33.03,25.21 32.12,25.01 31.51,24.66 30.80,24.52 30.46,24.78 29.97,24.59 29.89,25.48 30.15,26.35 29.73,27.00 29.93,27.59 30.12,28.69 30.31,28.89 30.33,29.61 29.56,29.70 29.39,29.88 29.09,30.84 28.73,31.44 29.47,31.78 30.62,31.92 31.16,31.72 33.03,32.20 33.51,31.98 33.92,32.03 34.09,31.68 34.50,31.97 35.04,31.93 34.99,31.49 34.55,31.22 35.05,30.89 34.94,30.29 35.49,30.21 35.78,29.98 35.52,29.52 35.51,29.13 36.15,28.99 36.01,28.03 36.64,27.61 36.65,27.04 36.83,26.68 36.84,26.00 37.45,25.82Z" data-dep="53" data-reg="52" data-libgeo="Mayenne"/>
<path d="M80.33,24.71 81.05,24.61 81.32,24.74 81.03,25.49 81.69,25.68 82.07,26.03 83.04,26.01 83.38,25.67 85.78,25.49 86.24,25.31 86.66,24.94 86.85,25.38 87.95,25.62 88.65,25.46 89.18,24.95 90.34,24.54 90.02,24.32 89.14,23.62 87.83,23.29 86.54,22.57 86.22,22.23 84.97,22.00 84.28,21.25 84.47,20.73 84.06,20.47 83.05,20.46 82.90,20.13 82.38,20.05 82.39,19.70 81.75,19.37 81.56,18.78 82.03,18.79 81.94,18.03 82.27,17.58 81.96,16.89 81.65,16.61 81.52,15.94 81.63,15.26 81.28,15.06 81.06,15.02 80.40,14.43 80.28,14.62 79.60,14.53 79.23,14.77 78.80,14.75 78.16,15.06 78.17,15.73 78.56,15.92 79.36,15.62 79.80,15.84 80.14,16.44 80.00,17.74 80.34,17.92 80.19,18.32 80.30,18.78 80.72,18.76 80.81,19.51 80.63,19.94 80.95,20.20 80.20,20.64 80.46,21.45 80.35,21.86 79.96,22.30 80.33,22.72 80.17,23.18 80.38,23.50 79.96,24.07 80.42,24.28 80.33,24.71Z" data-dep="54" data-reg="44" data-libgeo="Meurthe-et-Moselle"/>
<path d="M77.60,13.92 76.97,14.47 75.91,14.43 75.14,15.01 75.51,15.44 75.35,16.27 74.89,16.59 75.07,17.19 74.33,17.55 74.26,18.04 74.67,18.82 74.76,19.49 74.96,19.59 74.91,20.26 74.33,20.49 74.05,20.81 74.23,21.29 73.88,21.59 74.21,21.85 74.80,22.62 74.61,22.88 74.80,23.60 75.53,23.76 75.97,24.13 76.71,24.54 76.95,24.52 77.71,25.21 78.16,25.45 79.23,25.25 79.65,24.94 80.15,25.01 80.33,24.71 80.42,24.28 79.96,24.07 80.38,23.50 80.17,23.18 80.33,22.72 79.96,22.30 80.35,21.86 80.46,21.45 80.20,20.64 80.95,20.20 80.63,19.94 80.81,19.51 80.72,18.76 80.30,18.78 80.19,18.32 80.34,17.92 80.00,17.74 80.14,16.44 79.80,15.84 79.36,15.62 78.56,15.92 78.17,15.73 78.16,15.06 77.99,14.86 77.83,14.10 77.60,13.92Z" data-dep="55" data-reg="44" data-libgeo="Meuse"/>
<path d="M11.89,31.57 11.86,31.89 12.45,32.57 13.15,32.43 13.65,32.67 14.57,33.45 14.76,34.09 15.36,33.74 15.71,33.85 16.12,33.44 16.44,33.61 16.86,33.33 17.34,33.31 17.84,33.70 17.57,34.13 16.40,33.95 17.10,34.64 18.40,34.35 19.30,34.24 19.88,34.52 19.73,35.03 20.77,34.90 20.93,34.41 21.32,34.57 22.38,34.18 22.40,33.20 22.21,32.70 22.71,31.02 22.26,30.74 22.53,30.36 22.05,29.73 21.36,29.57 21.05,29.31 21.34,29.05 20.99,28.25 20.75,28.36 19.97,27.86 19.48,28.03 18.48,29.24 18.18,29.10 18.30,28.39 17.39,28.54 16.89,28.19 16.15,27.88 15.90,27.98 15.48,27.57 14.90,27.55 14.60,28.01 13.66,28.18 12.62,27.83 11.58,27.74 10.48,28.16 10.48,28.60 10.78,28.99 11.02,29.66 11.68,29.65 12.20,30.04 12.85,30.00 12.79,30.81 12.44,30.91 11.89,31.57 M14.58,36.57 15.08,36.70 15.31,36.38 14.66,36.16 14.59,35.89 13.82,35.78 13.91,36.33 14.58,36.57Z" data-dep="56" data-reg="53" data-libgeo="Morbihan"/>
<path d="M81.28,15.06 81.63,15.26 81.52,15.94 81.65,16.61 81.96,16.89 82.27,17.58 81.94,18.03 82.03,18.79 81.56,18.78 81.75,19.37 82.39,19.70 82.38,20.05 82.90,20.13 83.05,20.46 84.06,20.47 84.47,20.73 84.28,21.25 84.97,22.00 86.22,22.23 86.54,22.57 87.83,23.29 89.14,23.62 90.02,24.32 90.67,24.41 91.32,23.81 91.52,23.33 91.27,22.92 91.72,22.11 91.11,21.49 90.53,21.33 90.37,21.75 89.82,21.62 89.76,21.05 89.17,20.75 89.35,20.22 90.18,19.21 90.39,19.78 90.72,19.77 91.59,20.08 91.84,20.37 92.76,20.14 93.37,20.47 93.69,20.24 94.11,19.31 94.08,19.13 93.33,18.89 92.72,18.05 92.12,18.17 92.11,18.43 91.63,18.70 91.24,18.58 90.61,18.67 90.09,18.57 89.85,18.75 89.59,17.97 88.83,17.71 88.21,18.37 87.51,18.25 87.15,17.71 87.14,17.43 86.25,16.51 86.50,16.30 86.15,15.79 85.22,15.25 84.75,15.42 83.84,14.90 83.20,15.01 82.97,15.28 81.87,15.36 81.81,15.11 81.28,15.06Z" data-dep="57" data-reg="44" data-libgeo="Moselle"/>
<path d="M68.87,37.94 69.02,37.54 68.55,37.00 68.32,37.12 68.11,36.11 67.13,36.19 67.06,35.81 66.01,35.49 65.41,35.54 64.87,35.04 64.23,34.86 64.24,34.53 63.76,34.26 63.58,34.52 62.87,34.42 62.52,34.73 62.06,34.47 61.70,34.63 61.17,34.34 60.71,33.64 60.09,33.94 59.78,33.82 58.81,34.06 59.03,34.31 59.45,35.09 59.00,36.07 59.83,36.89 59.82,37.28 60.17,38.21 60.15,38.90 60.52,39.31 60.54,39.96 60.33,40.44 60.47,40.97 60.19,41.56 60.32,41.92 60.93,42.26 61.46,42.73 61.93,42.36 62.27,42.62 63.16,42.39 63.25,42.91 63.55,42.92 64.01,42.37 64.60,42.01 65.39,41.98 65.81,42.49 66.79,42.11 67.08,41.82 67.79,41.62 67.75,41.07 68.07,40.91 67.59,40.24 67.56,39.65 67.87,38.94 67.61,38.65 67.78,38.29 68.18,38.26 68.67,37.99 68.87,37.94Z" data-dep="58" data-reg="27" data-libgeo="Nièvre"/>
<path d="M53.25,0.90 53.69,1.47 54.20,2.67 54.44,2.88 55.33,2.92 55.11,3.33 55.75,4.11 56.26,4.35 57.24,4.48 57.85,4.35 58.30,4.04 58.79,4.37 58.40,4.80 58.50,5.25 59.30,5.58 59.60,5.47 60.53,6.09 59.91,6.70 60.58,7.35 60.07,7.60 61.06,7.80 61.25,8.00 61.11,8.57 60.64,9.14 60.80,9.40 60.62,9.77 61.23,10.17 61.66,9.98 62.01,10.14 62.56,9.94 63.57,10.10 63.95,9.77 64.38,9.90 65.19,9.65 66.13,9.83 66.58,10.12 67.96,10.57 68.37,10.48 68.33,10.08 69.03,9.58 68.80,9.04 68.26,9.00 68.83,7.70 68.32,7.85 68.23,7.48 67.59,7.04 67.09,6.98 66.65,7.19 66.25,6.97 65.39,7.04 65.09,7.33 64.80,6.79 64.85,6.01 64.43,5.60 63.82,5.62 63.79,5.36 62.74,5.66 62.07,5.32 61.95,4.54 61.73,4.10 61.76,3.59 61.37,3.48 61.05,2.87 60.09,3.04 59.49,3.31 59.23,3.78 58.58,3.55 57.94,2.85 57.27,2.66 57.00,2.28 57.25,1.42 56.86,0.93 56.61,0.10 55.31,0.48 55.08,0.40 54.14,0.63 53.85,0.51 53.25,0.90Z" data-dep="59" data-reg="32" data-libgeo="Nord"/>
<path d="M50.99,12.57 50.47,12.84 50.76,13.30 50.44,13.63 50.42,14.12 50.74,15.01 50.73,15.42 50.48,15.90 50.82,16.29 50.91,17.00 50.41,17.59 50.67,18.09 51.14,18.05 51.73,18.26 52.58,18.14 53.14,17.82 54.23,18.36 54.70,18.29 55.63,18.36 56.94,19.06 57.22,18.84 57.79,19.20 58.15,19.24 58.55,18.89 58.99,19.15 60.43,19.00 60.49,18.69 60.99,18.35 60.80,17.99 60.43,17.97 60.15,17.18 59.70,16.74 60.51,16.47 60.93,14.61 60.86,14.04 60.65,13.86 60.83,13.07 60.37,13.00 59.62,13.19 59.35,13.10 58.54,13.50 58.38,13.96 57.65,13.84 57.53,14.25 56.79,14.10 56.32,13.74 55.34,13.54 54.92,13.24 54.26,13.10 53.48,13.24 52.80,13.02 51.80,13.13 50.99,12.57Z" data-dep="60" data-reg="32" data-libgeo="Oise"/>
<path d="M37.45,25.82 37.87,25.69 38.31,25.82 38.72,25.29 39.12,25.02 40.07,24.87 40.49,25.10 40.67,26.29 41.48,26.78 41.80,27.12 42.46,27.16 42.65,26.98 43.29,27.71 43.73,27.66 43.97,27.47 43.42,26.63 43.64,26.23 44.55,25.94 45.05,25.27 44.79,25.09 44.98,24.44 44.73,24.14 44.11,23.85 43.85,23.02 43.48,22.97 43.30,22.58 43.56,22.37 43.25,21.91 42.41,21.48 42.19,21.05 41.55,21.00 40.70,20.69 40.89,20.31 40.31,20.38 39.90,20.16 38.98,20.56 38.79,20.29 38.27,20.77 37.78,20.95 37.37,21.34 36.54,21.42 34.43,21.07 34.21,21.29 33.28,21.49 32.10,21.89 31.65,22.22 31.95,22.61 32.43,22.87 32.15,23.15 32.30,23.48 32.14,24.06 31.51,24.66 32.12,25.01 33.03,25.21 33.63,24.98 34.10,24.59 34.58,24.54 35.13,24.73 35.76,24.61 36.33,24.07 36.77,25.10 37.47,25.13 37.45,25.82Z" data-dep="61" data-reg="28" data-libgeo="Orne"/>
<path d="M49.98,7.00 50.13,7.17 50.83,6.87 51.15,6.89 52.08,7.46 53.16,7.94 53.21,8.27 55.30,8.32 55.56,8.08 56.17,8.32 55.65,8.64 55.35,9.25 55.64,9.33 56.10,8.99 56.69,8.93 56.96,9.27 57.69,9.41 57.97,9.09 58.35,9.26 58.06,9.82 58.40,9.85 58.82,9.55 59.06,9.88 60.07,9.72 60.62,9.77 60.80,9.40 60.64,9.14 61.11,8.57 61.25,8.00 61.06,7.80 60.07,7.60 60.58,7.35 59.91,6.70 60.53,6.09 59.60,5.47 59.30,5.58 58.50,5.25 58.40,4.80 58.79,4.37 58.30,4.04 57.85,4.35 57.24,4.48 56.26,4.35 55.75,4.11 55.11,3.33 55.33,2.92 54.44,2.88 54.20,2.67 53.69,1.47 53.25,0.90 51.97,1.07 50.58,1.50 49.97,2.04 49.50,2.13 49.69,2.87 49.59,3.41 49.35,3.72 49.50,5.27 49.32,6.54 49.98,7.00Z" data-dep="62" data-reg="32" data-libgeo="Pas-de-Calais"/>
<path d="M56.33,54.96 56.91,55.26 57.57,55.37 57.85,55.96 58.59,55.75 59.37,56.12 59.59,56.71 60.28,56.81 60.72,56.24 61.19,56.26 61.69,55.86 62.42,55.68 63.05,55.80 63.49,55.56 64.16,55.75 64.52,56.41 65.11,56.19 65.69,56.29 65.79,55.93 66.57,56.21 66.58,55.66 67.02,55.42 67.21,54.80 66.82,53.92 66.03,53.38 65.68,52.77 65.40,52.00 65.12,51.83 65.50,50.72 65.07,50.32 64.61,50.01 64.29,49.36 63.51,49.47 63.34,48.98 63.05,48.85 62.64,49.07 61.54,48.85 60.90,48.88 60.47,48.54 60.07,48.57 59.67,48.27 59.61,47.87 59.30,47.79 59.49,47.14 58.76,47.05 58.53,47.60 57.98,47.62 57.31,48.41 56.76,48.15 56.62,48.46 56.96,49.71 56.49,50.64 55.47,51.43 55.79,51.99 56.21,52.29 56.44,52.59 56.47,53.13 56.15,53.31 56.03,53.78 56.39,54.18 56.33,54.96Z" data-dep="63" data-reg="84" data-libgeo="Puy-de-Dôme"/>
<path d="M26.64,75.38 26.06,76.40 25.57,76.88 24.65,77.04 25.05,77.50 25.89,77.80 25.93,78.27 26.24,78.36 26.55,77.89 27.66,78.32 27.63,79.01 27.41,79.67 27.01,80.06 27.23,80.54 27.87,80.73 28.21,80.29 28.66,80.58 29.63,80.78 30.36,81.10 30.67,81.43 31.88,81.56 32.31,81.40 32.45,82.12 33.40,82.83 33.79,83.41 34.09,82.92 34.60,83.23 34.95,83.18 35.54,82.65 35.44,81.93 35.79,81.65 35.69,81.12 35.94,80.63 36.39,80.55 36.46,79.80 36.80,79.61 37.32,78.63 37.73,78.12 37.51,77.82 37.83,77.05 37.92,76.52 37.34,76.40 37.52,75.42 37.23,75.23 37.14,74.81 36.55,74.66 36.06,74.78 35.37,75.15 34.54,74.67 33.74,75.23 33.41,75.28 33.07,74.89 32.52,75.23 32.19,74.84 31.56,75.24 31.26,75.16 30.54,75.64 29.94,75.50 29.62,75.67 29.04,75.19 28.36,75.70 27.40,75.72 26.96,75.26 26.64,75.38Z" data-dep="64" data-reg="75" data-libgeo="Pyrénées-Atlantiques"/>
<path d="M35.54,82.65 36.26,83.22 36.71,83.26 37.38,84.30 37.86,84.42 39.15,83.87 39.77,84.09 40.04,84.54 40.50,84.04 41.00,84.37 41.37,84.26 41.20,83.96 41.23,82.86 41.37,82.34 42.09,82.42 42.47,81.03 42.00,80.65 42.01,80.24 41.11,79.63 42.08,78.66 42.02,78.34 42.32,77.70 41.88,77.50 41.12,77.52 40.40,77.31 39.91,76.90 39.19,77.06 38.99,76.76 38.68,75.50 38.23,75.48 37.49,74.52 37.14,74.81 37.23,75.23 37.52,75.42 37.34,76.40 37.92,76.52 37.83,77.05 37.51,77.82 37.73,78.12 37.32,78.63 36.80,79.61 36.46,79.80 36.39,80.55 35.94,80.63 35.69,81.12 35.79,81.65 35.44,81.93 35.54,82.65Z" data-dep="65" data-reg="76" data-libgeo="Hautes-Pyrénées"/>
<path d="M51.01,85.63 50.72,85.75 50.60,86.50 51.15,86.53 52.15,87.18 52.35,87.73 52.76,87.99 53.22,87.89 53.54,87.37 54.06,87.33 54.48,87.09 55.64,87.60 56.13,88.14 56.56,88.23 56.85,87.96 57.52,88.15 57.40,87.63 57.87,87.28 58.29,87.38 58.76,86.88 59.40,86.87 60.26,86.70 60.58,87.22 61.24,87.12 60.97,86.27 60.33,85.99 60.23,85.18 60.28,82.77 59.35,82.27 58.96,81.91 58.40,82.15 58.01,82.80 56.99,82.79 56.29,82.63 55.92,82.79 55.40,82.66 55.00,82.78 55.21,83.96 54.41,84.46 53.81,84.65 52.57,84.71 52.33,85.17 51.90,85.25 51.57,85.55 51.01,85.63Z" data-dep="66" data-reg="76" data-libgeo="Pyrénées-Orientales"/>
<path d="M94.11,19.31 93.69,20.24 93.37,20.47 92.76,20.14 91.84,20.37 91.59,20.08 90.72,19.77 90.39,19.78 90.18,19.21 89.35,20.22 89.17,20.75 89.76,21.05 89.82,21.62 90.37,21.75 90.53,21.33 91.11,21.49 91.72,22.11 91.27,22.92 91.52,23.33 91.32,23.81 90.67,24.41 90.02,24.32 90.34,24.54 90.14,25.60 90.32,26.30 90.89,26.53 91.44,26.58 91.85,27.16 92.04,27.13 92.94,27.57 92.90,27.99 93.26,28.33 93.69,28.39 94.35,27.37 94.54,26.62 94.90,26.40 94.84,25.67 95.09,24.80 95.36,24.55 95.33,23.84 95.62,23.30 96.01,23.08 96.53,22.52 96.57,22.22 97.40,21.79 97.78,20.95 98.31,20.21 97.32,19.86 96.30,19.27 95.83,19.51 95.29,19.19 95.10,19.37 94.11,19.31Z" data-dep="67" data-reg="44" data-libgeo="Bas-Rhin"/>
<path d="M88.30,31.31 88.42,31.68 89.00,31.82 89.53,32.12 89.77,32.81 89.51,33.47 90.06,33.59 90.39,34.48 90.84,34.63 90.73,35.08 92.28,35.18 93.19,34.50 93.10,34.15 93.74,33.71 93.80,33.49 93.29,32.92 93.20,32.54 93.45,32.28 93.36,31.65 93.59,31.06 93.74,30.22 93.97,29.66 93.62,29.22 93.69,28.39 93.26,28.33 92.90,27.99 92.94,27.57 92.04,27.13 91.85,27.16 91.44,26.58 90.89,26.53 90.70,26.65 90.34,27.45 89.86,28.22 90.05,28.30 89.31,29.47 89.02,29.59 88.68,30.64 88.84,31.04 88.30,31.31Z" data-dep="68" data-reg="44" data-libgeo="Haut-Rhin"/>
<path d="M70.18,47.37 70.56,47.90 69.70,48.28 69.43,49.42 69.52,50.10 69.96,50.96 70.23,50.99 69.89,51.97 70.23,52.27 70.02,52.70 70.35,53.38 71.16,53.99 71.88,53.97 72.12,54.42 72.17,54.89 72.77,54.87 72.91,55.19 73.74,54.48 73.29,53.99 73.97,53.64 74.48,53.57 74.95,53.32 75.75,52.47 75.39,52.28 75.44,51.52 74.13,51.61 73.82,50.66 72.70,50.13 72.89,49.88 72.83,48.74 73.22,48.14 73.08,47.81 72.63,47.63 72.76,47.24 72.33,46.97 72.13,46.51 71.65,46.88 71.04,46.89 70.70,46.59 70.32,46.60 70.18,47.37Z" data-dep="69" data-reg="84" data-libgeo="Rhône"/>
<path d="M88.13,31.41 87.83,31.03 86.82,30.51 86.52,30.11 86.07,30.52 85.59,30.70 85.27,30.13 84.75,29.94 84.11,30.02 83.82,30.23 83.30,30.04 83.03,29.33 82.30,29.58 82.08,30.00 81.48,29.85 81.21,30.30 80.56,31.08 80.08,31.37 79.71,31.84 79.79,32.68 79.09,32.80 78.25,32.68 77.69,32.79 77.45,33.47 77.83,33.20 78.21,33.43 78.36,33.97 77.99,34.55 77.64,34.52 78.02,35.66 78.30,35.83 78.51,36.46 78.98,36.97 79.84,36.85 80.91,36.50 81.54,36.05 81.82,36.13 82.65,35.96 83.49,35.35 83.95,35.26 84.53,34.45 85.10,34.29 85.61,34.53 86.37,34.41 87.00,33.93 87.83,34.14 88.01,33.88 87.97,33.16 87.65,32.05 88.13,31.41Z" data-dep="70" data-reg="27" data-libgeo="Haute-Saône"/>
<path d="M70.18,47.37 70.32,46.60 70.70,46.59 71.04,46.89 71.65,46.88 72.13,46.51 72.33,46.97 72.76,47.24 72.63,47.63 73.08,47.81 73.31,46.95 73.88,45.49 73.90,45.11 74.22,44.39 74.58,44.38 75.11,44.70 75.97,44.39 76.58,45.01 76.98,45.07 77.76,44.80 77.80,44.53 77.34,44.33 77.36,43.75 77.68,43.71 77.94,43.14 77.30,41.58 77.46,41.23 78.06,41.19 77.58,40.56 77.17,40.66 76.94,40.13 76.58,39.70 75.26,39.90 73.92,39.97 72.69,40.31 71.92,40.09 71.55,39.77 71.37,39.33 70.32,39.00 70.27,38.66 69.34,38.41 68.87,37.94 68.67,37.99 68.18,38.26 67.78,38.29 67.61,38.65 67.87,38.94 67.56,39.65 67.59,40.24 68.07,40.91 67.75,41.07 67.79,41.62 67.08,41.82 66.79,42.11 65.81,42.49 65.39,41.98 64.60,42.01 64.89,42.78 65.28,43.24 65.42,44.14 66.30,44.61 67.02,44.63 67.37,45.10 67.16,45.57 67.21,46.37 66.59,46.80 66.52,47.43 67.12,47.55 67.53,47.89 68.09,47.59 68.31,47.80 69.23,47.73 69.22,48.01 70.18,47.37Z" data-dep="71" data-reg="27" data-libgeo="Saône-et-Loire"/>
<path d="M43.73,27.66 43.29,27.71 42.65,26.98 42.46,27.16 41.80,27.12 41.48,26.78 40.67,26.29 40.49,25.10 40.07,24.87 39.12,25.02 38.72,25.29 38.31,25.82 37.87,25.69 37.45,25.82 36.84,26.00 36.83,26.68 36.65,27.04 36.64,27.61 36.01,28.03 36.15,28.99 35.51,29.13 35.52,29.52 35.78,29.98 35.49,30.21 34.94,30.29 35.05,30.89 34.55,31.22 34.99,31.49 35.04,31.93 35.22,32.23 36.13,32.45 36.42,32.93 36.84,33.18 37.33,32.96 37.82,33.05 38.24,33.46 38.89,33.68 39.54,33.43 40.23,33.59 40.64,33.83 41.28,33.07 42.16,32.84 42.38,32.59 42.13,32.40 42.84,31.84 43.56,31.14 43.45,30.56 44.10,30.14 43.73,29.20 44.05,28.56 44.36,27.98 43.73,27.66Z" data-dep="72" data-reg="52" data-libgeo="Sarthe"/>
<path d="M87.98,51.88 87.66,51.98 87.31,52.45 86.92,51.65 86.48,51.73 86.01,51.02 85.53,50.79 85.19,51.63 84.82,52.00 84.49,52.75 83.82,52.83 83.12,52.05 82.39,52.28 81.86,51.97 81.13,51.24 81.05,50.30 80.80,50.24 80.51,51.38 80.42,52.38 79.74,53.03 79.74,53.29 79.29,53.57 79.64,54.33 80.12,55.03 80.15,55.38 81.34,55.58 81.81,54.82 82.13,55.22 82.96,55.36 83.36,55.82 83.44,56.60 83.03,56.96 83.08,57.69 83.40,58.20 83.98,58.59 84.74,58.82 84.75,59.18 85.65,59.32 85.60,58.97 86.31,58.63 86.71,58.77 87.73,58.25 88.28,58.50 89.10,58.03 89.18,57.75 90.45,57.25 90.24,56.62 90.79,55.69 90.27,55.41 90.15,55.05 89.43,54.69 89.44,53.30 88.92,53.23 88.30,52.78 88.02,52.42 87.98,51.88Z" data-dep="73" data-reg="84" data-libgeo="Savoie"/>
<path d="M87.98,51.88 88.13,51.27 88.79,51.22 89.41,50.92 89.75,50.40 89.61,49.82 88.88,48.95 88.68,48.37 87.94,48.22 87.98,47.54 88.43,46.76 87.97,46.36 87.65,45.52 87.17,45.46 86.08,45.60 84.91,46.15 84.59,45.85 84.11,46.05 83.82,46.79 84.23,47.32 83.45,47.77 83.07,48.17 82.74,48.06 81.74,48.26 80.84,48.54 80.67,48.81 80.66,49.72 80.80,50.24 81.05,50.30 81.13,51.24 81.86,51.97 82.39,52.28 83.12,52.05 83.82,52.83 84.49,52.75 84.82,52.00 85.19,51.63 85.53,50.79 86.01,51.02 86.48,51.73 86.92,51.65 87.31,52.45 87.66,51.98 87.98,51.88Z" data-dep="74" data-reg="84" data-libgeo="Haute-Savoie"/>
<path d="M55.66,21.28 55.42,20.77 54.95,20.79 54.24,21.24 55.03,21.60 55.66,21.28Z" data-dep="75" data-reg="11" data-libgeo="Paris"/>
<path d="M50.99,12.57 50.63,12.05 50.47,11.36 50.18,11.03 49.66,10.81 49.02,10.16 48.03,9.66 46.71,10.55 45.72,10.98 44.95,11.04 43.52,11.49 43.04,11.49 42.07,11.70 40.56,12.49 40.23,12.73 39.38,12.99 39.06,13.27 38.98,13.65 38.34,14.92 38.74,15.38 40.34,15.55 41.06,15.41 41.56,15.17 42.07,15.62 42.52,15.66 42.76,15.96 43.48,15.80 43.99,16.05 44.59,16.12 44.91,17.12 45.32,17.40 46.20,16.85 46.40,16.54 47.23,16.50 47.53,15.76 48.17,15.44 49.35,15.59 49.67,15.87 50.48,15.90 50.73,15.42 50.74,15.01 50.42,14.12 50.44,13.63 50.76,13.30 50.47,12.84 50.99,12.57Z" data-dep="76" data-reg="28" data-libgeo="Seine-Maritime"/>
<path d="M56.80,22.81 56.60,23.01 56.42,24.07 56.25,24.51 56.29,25.25 56.47,25.61 55.75,26.02 55.56,26.42 55.68,26.95 56.32,27.23 56.44,27.65 55.98,28.22 57.33,28.22 57.80,28.34 58.47,27.92 58.98,28.04 59.49,27.96 59.99,27.53 60.29,26.91 60.07,26.56 60.29,26.08 61.22,25.87 61.83,25.99 62.04,25.83 62.65,25.92 63.01,25.75 62.82,24.90 63.06,24.50 63.52,24.19 63.66,23.66 64.05,23.51 63.20,23.09 63.42,22.86 63.42,22.36 63.20,21.92 63.53,21.26 62.76,21.03 62.20,20.32 61.19,19.71 61.30,19.23 61.17,18.87 60.49,18.69 60.43,19.00 58.99,19.15 58.55,18.89 58.15,19.24 57.79,19.20 57.22,18.84 56.94,19.06 56.67,19.73 57.03,20.51 56.73,20.90 56.95,21.69 57.06,22.01 56.80,22.81Z" data-dep="77" data-reg="11" data-libgeo="Seine-et-Marne"/>
<path d="M54.07,20.71 54.11,20.31 53.21,19.69 52.70,19.82 52.13,19.62 51.33,19.09 50.55,19.40 50.03,19.04 49.71,19.08 48.51,19.38 48.91,20.40 49.19,20.58 49.60,21.38 49.47,21.93 49.84,22.26 49.49,22.70 49.66,23.09 50.45,23.92 51.02,24.15 50.93,24.54 51.12,25.01 51.88,25.27 52.01,25.09 52.24,24.45 52.13,24.06 52.71,24.11 52.87,23.65 52.84,22.97 53.19,22.87 53.31,22.39 54.26,21.99 53.71,21.60 53.70,21.08 54.07,20.71Z" data-dep="78" data-reg="11" data-libgeo="Yvelines"/>
<path d="M39.31,48.64 39.45,48.16 38.71,47.72 38.90,47.24 38.80,46.89 39.16,46.27 38.77,46.06 38.43,46.51 38.01,46.20 38.10,45.81 37.79,45.66 37.75,44.79 37.62,44.28 38.08,43.68 37.84,43.18 37.95,42.27 37.50,41.29 37.79,41.03 37.78,40.42 37.20,39.56 37.10,38.84 36.53,38.80 36.52,38.41 36.03,38.45 34.89,38.79 33.74,38.86 33.46,39.52 32.60,39.63 32.16,39.45 31.28,39.74 31.74,40.17 31.82,40.69 32.09,41.07 32.63,41.31 32.50,41.86 33.02,42.51 33.31,43.29 33.41,44.19 33.15,44.31 33.36,45.40 33.88,45.68 33.73,45.94 32.32,46.51 32.31,47.11 32.75,47.37 33.28,48.20 33.82,48.14 34.89,48.75 35.77,48.80 35.84,49.03 36.65,49.23 36.85,49.83 37.09,49.92 37.56,49.67 37.56,49.07 37.99,49.07 38.39,48.65 39.31,48.64Z" data-dep="79" data-reg="75" data-libgeo="Deux-Sèvres"/>
<path d="M60.62,9.77 60.07,9.72 59.06,9.88 58.82,9.55 58.40,9.85 58.06,9.82 58.35,9.26 57.97,9.09 57.69,9.41 56.96,9.27 56.69,8.93 56.10,8.99 55.64,9.33 55.35,9.25 55.65,8.64 56.17,8.32 55.56,8.08 55.30,8.32 53.21,8.27 53.16,7.94 52.08,7.46 51.15,6.89 50.83,6.87 50.13,7.17 49.98,7.00 49.28,6.93 49.19,7.70 49.81,8.26 48.99,8.38 48.56,9.25 48.03,9.66 49.02,10.16 49.66,10.81 50.18,11.03 50.47,11.36 50.63,12.05 50.99,12.57 51.80,13.13 52.80,13.02 53.48,13.24 54.26,13.10 54.92,13.24 55.34,13.54 56.32,13.74 56.79,14.10 57.53,14.25 57.65,13.84 58.38,13.96 58.54,13.50 59.35,13.10 59.62,13.19 60.37,13.00 60.83,13.07 60.59,12.25 60.59,11.54 61.17,10.78 61.23,10.17 60.62,9.77Z" data-dep="80" data-reg="32" data-libgeo="Somme"/>
<path d="M52.80,76.36 53.39,76.81 53.75,76.59 54.17,76.93 54.48,76.19 55.55,76.56 56.25,76.36 56.76,76.51 57.35,76.12 57.44,75.41 57.13,74.98 57.41,74.10 57.88,74.14 58.07,74.41 59.36,73.96 59.48,73.62 59.38,73.18 58.65,72.90 58.02,73.25 57.43,72.94 56.73,72.01 56.86,71.65 56.68,71.21 56.29,70.96 56.46,70.62 55.98,69.84 55.61,69.79 55.43,69.39 54.58,68.83 54.31,68.97 53.77,68.50 53.27,68.40 52.52,68.81 51.34,68.97 50.89,69.35 50.72,69.15 50.07,69.15 50.12,69.65 50.41,69.91 49.79,70.81 49.29,70.77 49.31,71.25 49.37,71.87 49.56,72.32 49.87,72.51 50.01,73.01 50.38,73.29 50.61,73.99 50.31,74.35 51.28,74.82 51.81,75.56 52.51,75.93 52.80,76.36Z" data-dep="81" data-reg="76" data-libgeo="Tarn"/>
<path d="M44.88,72.63 45.83,72.33 46.38,72.30 46.83,72.81 47.87,72.32 47.63,72.10 47.85,71.61 48.52,71.74 49.31,71.25 49.29,70.77 49.79,70.81 50.41,69.91 50.12,69.65 50.07,69.15 50.72,69.15 50.89,69.35 51.34,68.97 52.52,68.81 52.26,68.43 51.88,68.33 52.28,67.43 51.86,67.44 51.55,67.01 51.72,66.80 50.40,67.07 49.95,67.53 49.53,67.72 48.70,67.39 48.55,67.71 47.99,68.04 47.32,67.90 47.06,67.51 46.68,67.43 46.03,66.98 45.69,66.40 44.86,66.59 44.38,66.53 44.28,67.11 44.86,67.48 44.41,68.78 44.24,69.05 43.71,68.85 43.32,69.69 43.48,70.07 43.89,69.79 44.19,69.95 43.64,70.85 44.04,71.27 44.40,71.34 44.52,72.67 44.88,72.63Z" data-dep="82" data-reg="76" data-libgeo="Tarn-et-Garonne"/>
<path d="M86.75,72.62 85.88,72.41 85.12,72.59 85.11,72.92 84.68,73.18 83.63,72.52 83.31,73.02 82.85,73.08 82.32,73.62 81.35,73.02 81.01,73.31 80.45,72.97 80.28,73.25 80.25,73.30 80.46,73.38 80.57,73.98 79.99,74.09 79.71,74.48 80.02,75.17 80.06,76.04 80.40,76.53 79.73,76.76 79.71,77.60 80.05,77.64 80.30,78.17 79.74,78.50 79.65,79.11 79.82,79.49 80.64,79.79 80.65,80.32 81.01,80.52 81.58,79.76 82.11,79.92 82.24,80.19 83.20,80.19 83.41,79.87 84.10,79.74 84.70,80.07 84.79,79.56 85.82,79.36 86.13,79.03 86.92,78.93 87.06,78.05 86.97,77.63 87.56,76.51 87.88,76.66 88.62,76.45 88.94,75.90 88.58,75.66 88.76,74.97 88.64,74.50 87.98,74.34 87.67,73.83 87.64,73.19 86.91,73.04 86.75,72.62Z" data-dep="83" data-reg="93" data-libgeo="Var"/>
<path d="M78.37,69.16 77.91,68.77 77.52,68.70 77.53,68.26 76.59,67.96 75.99,68.06 75.79,67.43 75.26,67.39 75.14,67.14 74.20,67.62 73.75,67.66 73.33,67.94 73.26,67.30 72.95,66.95 72.12,66.91 72.11,67.53 72.65,68.41 72.54,69.29 72.87,69.45 73.54,70.29 73.54,70.52 72.77,71.18 73.61,71.32 74.51,71.79 74.92,72.21 75.06,72.62 76.08,73.19 76.38,73.06 77.03,73.18 77.93,73.76 78.62,73.99 79.17,74.00 80.25,73.30 80.28,73.25 79.97,72.97 79.52,72.23 78.71,72.30 79.17,71.28 78.43,70.83 78.70,70.11 78.40,69.71 78.37,69.16 M73.73,66.75 73.89,67.16 74.60,67.30 74.90,66.56 74.61,65.93 74.09,66.09 73.73,66.75Z" data-dep="84" data-reg="93" data-libgeo="Vaucluse"/>
<path d="M23.29,39.21 22.92,39.40 22.68,39.99 21.96,40.63 22.07,41.32 22.68,41.76 23.52,42.55 24.16,43.41 24.49,44.59 25.66,45.32 26.80,45.59 27.05,46.13 28.01,46.19 28.92,46.86 29.25,46.36 29.71,46.41 30.38,45.99 30.97,46.44 31.90,46.16 32.32,46.51 33.73,45.94 33.88,45.68 33.36,45.40 33.15,44.31 33.41,44.19 33.31,43.29 33.02,42.51 32.50,41.86 32.63,41.31 32.09,41.07 31.82,40.69 31.74,40.17 31.28,39.74 30.74,39.52 29.92,39.41 29.39,39.20 28.99,39.08 28.50,38.65 28.28,39.15 27.69,39.19 27.79,39.93 27.11,40.24 26.97,39.17 26.39,39.35 26.79,40.67 26.44,40.90 25.17,40.66 24.95,40.20 24.35,40.18 23.73,39.75 23.29,39.21Z" data-dep="85" data-reg="52" data-libgeo="Vendée"/>
<path d="M43.92,48.30 44.07,48.18 43.82,47.29 44.49,46.72 45.17,46.72 45.59,45.97 46.17,45.92 46.53,45.71 46.79,45.21 46.34,45.05 46.30,44.48 46.01,44.21 45.38,44.17 44.60,43.56 44.44,43.26 44.67,42.53 44.24,42.03 43.83,41.55 43.66,40.98 43.05,40.48 42.94,39.75 42.10,39.45 42.26,39.93 41.55,39.93 41.08,40.20 40.55,40.00 40.14,40.12 40.05,38.96 38.85,38.28 38.41,38.26 38.25,37.86 37.99,37.74 37.58,38.24 37.63,38.54 37.10,38.84 37.20,39.56 37.78,40.42 37.79,41.03 37.50,41.29 37.95,42.27 37.84,43.18 38.08,43.68 37.62,44.28 37.75,44.79 37.79,45.66 38.10,45.81 38.01,46.20 38.43,46.51 38.77,46.06 39.16,46.27 38.80,46.89 38.90,47.24 38.71,47.72 39.45,48.16 39.31,48.64 39.88,48.93 41.31,48.98 41.12,48.58 41.47,48.23 41.83,48.74 42.91,48.62 42.91,48.37 43.44,48.20 43.92,48.30Z" data-dep="86" data-reg="75" data-libgeo="Vienne"/>
<path d="M51.84,52.70 51.66,52.35 51.71,51.68 51.22,51.51 50.97,51.11 50.08,51.30 49.70,50.98 49.95,50.71 49.86,50.31 49.25,50.46 49.40,49.98 49.09,48.73 48.84,48.46 48.57,47.77 48.18,47.75 48.01,47.39 48.36,46.57 48.28,46.08 47.84,45.54 47.53,45.80 46.97,45.88 46.53,45.71 46.17,45.92 45.59,45.97 45.17,46.72 44.49,46.72 43.82,47.29 44.07,48.18 43.92,48.30 43.88,49.12 44.68,49.52 44.77,50.06 44.37,50.39 44.00,50.39 43.87,51.06 43.58,51.67 43.15,51.59 42.98,52.04 42.49,52.53 42.77,52.83 43.32,52.78 43.58,53.04 43.39,53.52 43.83,53.96 44.85,53.57 45.39,53.61 45.57,54.14 46.12,54.27 46.17,55.02 47.09,55.31 47.37,54.87 47.80,55.08 48.55,54.19 49.33,54.23 49.92,53.91 50.27,53.43 50.94,53.10 51.69,53.02 51.84,52.70Z" data-dep="87" data-reg="75" data-libgeo="Haute-Vienne"/>
<path d="M78.16,25.45 77.71,25.81 77.95,26.28 78.24,26.08 79.42,27.19 80.00,27.48 79.74,28.14 79.34,28.72 79.80,28.83 80.33,29.23 80.55,29.59 80.49,30.03 80.96,29.97 81.21,30.30 81.48,29.85 82.08,30.00 82.30,29.58 83.03,29.33 83.30,30.04 83.82,30.23 84.11,30.02 84.75,29.94 85.27,30.13 85.59,30.70 86.07,30.52 86.52,30.11 86.82,30.51 87.83,31.03 88.13,31.41 88.30,31.31 88.84,31.04 88.68,30.64 89.02,29.59 89.31,29.47 90.05,28.30 89.86,28.22 90.34,27.45 90.70,26.65 90.89,26.53 90.32,26.30 90.14,25.60 90.34,24.54 89.18,24.95 88.65,25.46 87.95,25.62 86.85,25.38 86.66,24.94 86.24,25.31 85.78,25.49 83.38,25.67 83.04,26.01 82.07,26.03 81.69,25.68 81.03,25.49 81.32,24.74 81.05,24.61 80.33,24.71 80.15,25.01 79.65,24.94 79.23,25.25 78.16,25.45Z" data-dep="88" data-reg="44" data-libgeo="Vosges"/>
<path d="M68.11,36.11 67.84,35.50 68.21,35.07 68.15,34.47 68.90,33.50 69.30,32.51 69.21,32.27 69.78,31.97 69.68,31.17 69.26,30.81 69.48,30.30 68.55,29.96 67.45,30.26 66.59,30.20 66.70,29.81 65.67,28.30 65.27,28.04 64.88,28.20 64.29,26.62 63.96,26.43 63.62,25.95 63.01,25.75 62.65,25.92 62.04,25.83 61.83,25.99 61.22,25.87 60.29,26.08 60.07,26.56 60.29,26.91 59.99,27.53 59.49,27.96 60.17,28.26 60.33,28.86 60.61,29.04 60.89,29.88 60.09,30.48 60.05,31.20 60.16,31.53 59.47,31.91 58.99,31.89 58.87,32.31 59.39,32.72 59.54,33.59 59.78,33.82 60.09,33.94 60.71,33.64 61.17,34.34 61.70,34.63 62.06,34.47 62.52,34.73 62.87,34.42 63.58,34.52 63.76,34.26 64.24,34.53 64.23,34.86 64.87,35.04 65.41,35.54 66.01,35.49 67.06,35.81 67.13,36.19 68.11,36.11Z" data-dep="89" data-reg="27" data-libgeo="Yonne"/>
<path d="M90.39,34.48 90.06,33.59 89.51,33.47 89.77,32.81 89.53,32.12 89.00,31.82 88.42,31.68 88.30,31.31 88.13,31.41 87.65,32.05 87.97,33.16 88.01,33.88 88.71,34.01 88.76,34.60 88.99,35.17 89.43,34.98 89.31,34.57 90.39,34.48Z" data-dep="90" data-reg="27" data-libgeo="Territoire de Belfort"/>
<path d="M52.54,26.76 53.80,26.64 54.34,26.47 55.23,26.54 55.56,26.42 55.75,26.02 56.47,25.61 56.29,25.25 56.25,24.51 56.42,24.07 56.60,23.01 56.80,22.81 56.32,22.38 55.32,22.54 54.95,22.26 54.26,21.99 53.31,22.39 53.19,22.87 52.84,22.97 52.87,23.65 52.71,24.11 52.13,24.06 52.24,24.45 52.01,25.09 52.17,25.59 52.42,25.65 52.29,26.54 52.54,26.76Z" data-dep="91" data-reg="11" data-libgeo="Essonne"/>
<path d="M54.95,22.26 55.03,21.60 54.24,21.24 54.95,20.79 54.73,20.30 54.07,20.71 53.70,21.08 53.71,21.60 54.26,21.99 54.95,22.26Z" data-dep="92" data-reg="11" data-libgeo="Hauts-de-Seine"/>
<path d="M54.95,20.79 55.42,20.77 55.66,21.28 56.24,21.17 56.95,21.69 56.73,20.90 57.03,20.51 56.67,19.73 55.97,20.26 55.41,20.11 54.73,20.30 54.95,20.79Z" data-dep="93" data-reg="11" data-libgeo="Seine-Saint-Denis"/>
<path d="M54.95,22.26 55.32,22.54 56.32,22.38 56.80,22.81 57.06,22.01 56.95,21.69 56.24,21.17 55.66,21.28 55.03,21.60 54.95,22.26Z" data-dep="94" data-reg="11" data-libgeo="Val-de-Marne"/>
<path d="M49.71,19.08 50.03,19.04 50.55,19.40 51.33,19.09 52.13,19.62 52.70,19.82 53.21,19.69 54.11,20.31 54.07,20.71 54.73,20.30 55.41,20.11 55.97,20.26 56.67,19.73 56.94,19.06 55.63,18.36 54.70,18.29 54.23,18.36 53.14,17.82 52.58,18.14 51.73,18.26 51.14,18.05 50.67,18.09 50.41,17.59 50.21,17.77 50.06,18.56 49.71,19.08Z" data-dep="95" data-reg="11" data-libgeo="Val-d'Oise"/>
<path d="M8.21,93.68 8.49,94.19 9.11,94.39 10.54,93.84 11.45,93.66 11.40,93.05 11.11,92.84 10.08,92.54 9.79,92.02 9.88,91.48 9.72,90.94 9.05,90.44 8.37,91.13 8.46,91.87 8.80,92.11 8.45,92.58 8.19,93.25 8.21,93.68 M7.36,93.43 7.10,92.82 6.44,92.61 6.07,92.29 5.69,92.48 5.42,93.07 5.42,93.78 5.60,94.02 5.76,96.11 6.01,96.73 6.35,97.12 6.51,97.57 7.47,97.06 7.93,96.62 8.11,96.25 7.86,94.68 7.81,93.94 8.09,93.91 8.19,93.36 7.36,93.43 M11.76,97.38 11.63,97.11 11.04,96.87 10.52,97.66 10.60,98.24 11.17,98.62 11.99,98.18 12.07,97.81 11.76,97.38Z" data-dep="971" data-reg="01" data-libgeo="Guadeloupe"/>
<path d="M19.49,95.54 19.87,95.22 20.17,95.41 21.57,95.60 21.25,96.00 21.66,96.29 22.12,95.48 22.00,94.52 21.74,93.91 21.49,93.76 21.24,93.20 21.30,92.90 20.73,92.86 20.70,91.76 20.39,91.67 19.63,90.74 18.51,90.22 17.82,90.42 17.57,91.05 18.15,91.93 18.12,92.55 18.59,93.29 19.08,93.73 19.94,93.87 20.31,94.28 20.21,94.61 19.41,94.34 19.04,94.68 19.18,95.35 19.49,95.54Z" data-dep="972" data-reg="02" data-libgeo="Martinique"/>
<path d="M32.03,90.46 31.54,90.17 30.07,88.67 29.12,88.34 28.68,88.32 27.86,87.88 27.46,87.80 27.30,88.31 26.24,89.67 26.10,90.21 26.24,91.02 26.16,91.50 26.28,92.16 26.78,93.28 27.35,93.88 27.09,94.76 26.74,95.17 26.85,95.78 26.33,97.06 26.07,97.23 25.94,97.75 26.88,98.13 27.44,97.73 27.94,97.56 28.66,97.76 28.98,97.47 29.28,97.75 29.89,98.00 30.73,97.42 31.60,95.39 32.64,93.43 33.34,92.61 33.42,92.21 33.21,91.90 32.97,91.02 32.03,90.46Z" data-dep="973" data-reg="03" data-libgeo="Guyane"/>
<path d="M37.22,94.03 37.41,94.40 38.04,94.60 38.74,95.20 39.73,95.60 40.78,95.82 42.28,95.48 42.59,95.08 42.52,94.17 42.59,93.70 42.90,93.13 42.79,92.63 42.28,92.32 41.43,90.96 41.40,90.46 41.01,89.77 40.21,89.39 39.75,89.38 38.65,89.08 38.10,89.18 37.32,89.79 36.86,89.74 36.68,90.79 36.06,91.21 36.21,91.92 36.83,92.83 36.78,93.35 37.22,94.03Z" data-dep="974" data-reg="04" data-libgeo="La Réunion"/>
<path d="M45.92,91.18 46.51,91.64 46.62,92.05 46.51,92.49 46.97,92.96 46.62,93.36 46.46,93.90 47.13,94.29 47.31,93.69 47.81,92.74 47.53,92.30 48.06,91.59 48.06,91.23 47.67,90.96 47.15,91.03 46.44,90.17 45.91,90.85 45.92,91.18Z" data-dep="976" data-reg="06" data-libgeo="Mayotte"/>
    </svg>
  