
    <svg
      viewBox="0 0 110 100"
      xmlns="http://www.w3.org/2000/svg"
      fill="#313178"
      stroke="#FFFFFF"
      stroke-width="0.3"
    >
      <polygon points="0,0 0,100 110,100 110,0" fill="#eee"/>
      <path d="M82.5,45.4 81.9,46.0 81.4,46.7 81.0,47.0 80.0,47.0 80.0,46.5 79.5,46.1 78.7,46.9 78.2,46.9 77.9,46.4 77.4,46.0 77.5,45.7 77.0,45.4 77.0,45.1 76.6,45.0 76.0,44.4 75.1,44.7 74.6,44.4 74.2,44.4 73.9,45.1 73.9,45.5 73.1,47.7 72.6,47.6 72.8,47.2 72.3,47.0 72.1,46.5 71.6,46.9 71.0,46.9 70.7,46.6 70.3,46.6 70.1,47.7 69.2,48.0 69.2,47.7 68.3,47.8 68.1,47.6 67.5,47.9 67.1,47.5 66.5,47.4 66.7,46.6 67.2,46.4 67.2,45.6 67.4,45.1 67.0,44.6 66.3,44.6 65.4,44.1 65.3,43.2 64.9,42.8 64.6,42.2 64.0,42.4 63.5,42.9 63.3,42.9 63.2,42.4 62.3,42.6 61.9,42.4 61.5,42.7 60.9,42.3 60.3,41.9 60.2,41.6 59.7,41.5 58.7,42.2 58.2,42.3 58.0,42.0 57.0,43.1 57.1,44.0 56.6,44.3 56.3,44.2 55.3,44.3 54.8,44.8 54.7,45.3 54.9,45.8 54.9,46.2 55.5,46.3 56.0,46.7 56.4,47.2 56.5,47.7 56.8,48.1 56.6,48.5 57.0,49.7 56.5,50.6 55.5,51.4 55.8,52.0 56.4,52.6 56.5,53.1 56.1,53.3 56.0,53.8 56.4,54.2 56.4,54.5 56.2,55.6 55.9,55.9 55.3,55.6 55.2,56.5 54.6,56.9 54.0,57.8 54.2,58.3 53.9,59.1 53.3,59.3 53.6,59.9 53.1,60.2 53.4,60.8 53.2,61.1 53.8,61.9 53.7,62.8 53.9,63.3 53.8,63.7 55.0,63.3 55.8,63.7 56.2,63.5 56.3,63.2 56.7,62.8 56.7,62.2 57.0,62.1 57.0,61.5 58.0,60.5 58.5,61.2 58.9,61.5 59.2,62.1 59.5,62.2 59.5,63.1 59.8,63.6 60.3,62.3 60.3,61.9 60.7,61.1 61.0,60.9 61.3,61.3 61.6,60.8 62.7,60.3 63.0,60.8 63.5,61.9 64.3,61.6 64.3,61.2 64.8,61.2 64.9,61.7 65.5,61.6 65.6,62.0 66.4,62.6 66.4,63.3 66.8,64.4 67.0,64.4 67.3,65.5 67.8,66.1 67.7,67.0 68.3,66.8 68.4,67.1 69.2,67.6 69.7,66.8 70.3,66.9 70.3,67.3 70.6,67.4 70.6,66.9 71.1,66.8 71.5,67.2 72.1,67.5 72.3,67.0 72.9,67.0 73.3,67.3 73.3,67.9 73.8,67.7 74.2,67.6 75.1,67.1 75.3,67.4 75.8,67.4 76.0,68.1 76.6,68.0 77.5,68.3 77.5,68.7 77.9,68.8 78.0,69.1 78.7,69.0 78.9,68.4 79.8,68.3 79.7,67.7 79.2,67.1 79.3,66.9 78.3,66.8 78.0,66.4 77.9,65.8 78.4,65.2 79.1,65.5 79.3,64.8 79.1,64.7 79.5,63.9 79.4,63.5 80.1,63.7 80.5,63.5 80.8,63.2 80.7,62.9 80.9,62.5 81.5,62.5 81.7,61.9 82.3,61.6 82.5,61.8 83.0,61.3 83.9,61.4 84.3,61.2 84.7,61.4 84.7,60.5 84.4,60.4 84.3,59.9 83.6,59.8 83.7,58.8 84.7,58.8 84.8,59.2 85.7,59.3 85.6,59.0 86.3,58.6 86.7,58.8 87.7,58.3 88.3,58.5 89.1,58.0 89.2,57.7 90.4,57.2 90.2,56.6 90.8,55.7 90.3,55.4 90.1,55.1 89.4,54.7 89.4,53.3 88.9,53.2 88.3,52.8 88.0,52.4 88.0,51.5 88.1,51.3 88.8,51.2 89.4,50.9 89.8,50.4 89.6,49.8 88.9,48.9 88.7,48.4 87.9,48.2 88.0,47.5 88.4,46.8 88.0,46.4 87.6,45.5 87.2,45.5 86.1,45.6 84.9,46.1 84.6,45.8 84.1,46.0 83.8,46.8 84.2,47.3 83.4,47.8 83.1,48.2 81.8,48.1 82.0,47.7 81.9,47.4 82.3,47.2 83.0,47.1 82.8,46.7 83.3,45.9 82.5,45.4 M73.7,66.8 74.1,66.1 74.6,65.9 74.9,66.6 74.6,67.3 73.9,67.2 73.7,66.8Z" data-codeInsee="84" data-nom="Auvergne-Rhône-Alpes"/>
<path d="M63.5,21.3 63.9,20.7 64.2,20.6 64.5,20.2 64.7,19.4 64.6,18.4 65.4,18.3 64.8,17.8 64.9,17.6 64.7,16.8 65.9,16.4 66.2,16.5 66.4,15.9 67.6,16.4 67.7,14.6 67.9,14.4 67.5,13.9 68.2,13.7 68.3,13.3 68.7,13.1 69.2,12.6 68.9,12.3 69.2,11.2 69.0,10.7 68.6,10.5 68.3,10.1 69.0,9.6 68.8,9.0 68.3,9.0 68.8,7.7 68.3,7.9 68.2,7.5 67.6,7.0 67.1,7.0 66.7,7.2 66.2,7.0 65.4,7.0 65.1,7.3 64.8,6.8 64.8,6.0 64.4,5.6 63.8,5.6 63.8,5.4 62.7,5.7 62.1,5.3 61.9,4.5 61.7,4.1 61.8,3.6 61.4,3.5 61.1,2.9 60.1,3.0 59.5,3.3 59.2,3.8 58.6,3.5 57.9,2.9 57.3,2.7 57.0,2.3 57.3,1.4 56.9,0.9 56.6,0.1 55.3,0.5 55.1,0.4 54.1,0.6 53.8,0.5 53.4,0.9 52.0,1.1 50.6,1.5 50.0,2.0 49.5,2.1 49.7,2.9 49.6,3.4 49.4,3.7 49.5,5.3 49.2,7.7 49.8,8.3 49.0,8.4 48.6,9.2 48.0,9.7 49.0,10.2 49.7,10.8 50.2,11.0 50.5,11.4 50.6,12.0 51.0,12.5 50.5,13.0 50.8,13.3 50.4,13.6 50.4,14.1 50.9,15.3 50.5,15.7 50.5,16.0 50.8,16.3 50.9,17.0 50.4,17.6 50.7,18.1 51.1,18.0 51.7,18.3 52.6,18.1 53.1,17.8 54.2,18.4 54.7,18.3 55.6,18.4 56.1,18.5 56.9,19.1 57.2,18.8 57.8,19.2 58.2,19.2 58.6,18.9 59.0,19.1 60.4,19.0 60.5,18.7 61.2,18.9 61.3,19.2 61.2,19.7 62.2,20.3 62.8,21.0 63.5,21.3Z" data-codeInsee="32" data-nom="Hauts-de-France"/>
<path d="M86.7,58.8 86.3,58.6 85.6,59.0 85.7,59.3 84.8,59.2 84.7,58.8 83.7,58.8 83.6,59.8 84.3,59.9 84.4,60.4 84.7,60.5 84.7,61.4 84.3,61.2 83.9,61.4 83.0,61.3 82.5,61.8 82.3,61.6 81.7,61.9 81.5,62.5 80.9,62.5 80.7,62.9 80.8,63.2 80.5,63.5 80.1,63.7 79.4,63.5 79.5,63.9 79.1,64.7 79.3,64.8 79.1,65.5 78.4,65.2 77.9,65.8 78.0,66.4 78.3,66.8 79.3,66.9 79.2,67.1 79.7,67.7 79.8,68.3 78.9,68.4 78.7,69.0 78.0,69.1 77.9,68.8 77.5,68.7 77.5,68.3 76.6,68.0 76.0,68.1 75.8,67.4 75.3,67.4 75.1,67.1 74.2,67.6 73.8,67.7 73.3,67.9 73.3,67.3 72.9,67.0 72.3,67.0 72.1,67.5 72.6,68.4 72.5,69.3 72.9,69.5 73.5,70.3 73.5,70.5 72.4,71.6 72.1,71.8 72.1,72.7 71.8,73.7 71.3,73.5 70.9,73.6 70.5,74.4 70.3,75.1 69.9,75.2 69.1,75.7 69.0,76.1 71.3,76.2 71.6,76.4 71.6,77.2 72.3,77.3 73.1,77.3 73.6,77.5 73.6,76.7 74.2,76.4 74.5,76.7 75.0,76.7 75.1,76.1 74.7,76.0 74.8,75.4 75.5,75.4 75.8,76.1 76.1,75.8 76.4,76.2 75.8,76.7 74.6,76.9 75.0,77.5 76.4,77.5 77.0,77.2 77.4,77.7 77.2,78.0 77.4,78.8 78.6,78.8 79.1,79.3 79.4,79.0 79.8,79.5 80.6,79.8 80.6,80.3 81.0,80.5 81.6,79.8 82.1,79.9 82.2,80.2 83.2,80.2 83.4,79.9 84.1,79.7 84.7,80.1 84.8,79.6 85.8,79.4 86.1,79.0 86.9,78.9 87.1,78.0 87.0,77.6 87.6,76.5 87.9,76.7 88.6,76.5 89.0,75.9 89.0,75.5 89.3,75.2 89.8,75.2 90.3,74.8 90.7,74.0 92.5,73.2 93.2,72.7 93.1,71.7 93.6,71.4 93.7,70.9 94.2,70.7 94.3,70.1 94.6,70.0 94.7,69.5 94.4,69.1 94.5,68.5 94.0,68.8 93.1,68.9 92.5,69.2 92.1,69.1 91.9,68.8 91.5,68.9 90.8,68.3 90.5,68.3 89.4,67.8 89.4,67.4 88.9,66.9 88.6,66.0 89.0,65.8 88.4,65.2 88.4,64.8 88.9,64.4 89.2,63.3 89.7,63.1 89.4,62.1 89.4,61.6 88.9,61.3 88.4,61.5 88.0,61.2 87.6,60.7 87.7,60.3 87.5,59.7 87.0,59.7 86.7,58.8 M73.7,66.8 73.9,67.2 74.6,67.3 74.9,66.6 74.6,65.9 74.1,66.1 73.7,66.8Z" data-codeInsee="93" data-nom="Provence-Alpes-Côte d'Azur"/>
<path d="M69.0,10.7 69.2,11.2 68.9,12.3 69.2,12.6 68.7,13.1 68.3,13.3 68.2,13.7 67.5,13.9 67.9,14.4 67.7,14.6 67.6,16.4 66.4,15.9 66.2,16.5 65.9,16.4 64.7,16.8 64.9,17.6 64.8,17.8 65.4,18.3 64.6,18.4 64.7,19.4 64.5,20.2 64.2,20.6 63.9,20.7 63.5,21.3 63.2,21.9 63.4,22.4 63.4,22.9 63.2,23.1 63.7,23.7 63.5,24.2 63.1,24.5 62.8,24.9 63.0,25.7 63.6,25.9 64.0,26.4 64.3,26.6 64.9,28.2 65.3,28.0 65.7,28.3 66.7,29.8 66.6,30.2 67.4,30.3 68.5,30.0 69.5,30.3 69.6,30.0 70.4,29.9 70.6,30.0 71.4,29.9 71.6,29.3 72.5,29.3 73.1,29.5 73.1,29.9 73.6,30.0 74.4,30.9 74.6,31.5 74.4,32.0 74.4,32.5 75.5,33.0 76.0,33.0 76.5,33.4 77.3,33.6 77.7,32.8 78.3,32.7 79.1,32.8 79.8,32.7 79.7,31.8 80.1,31.4 80.6,31.1 81.0,30.5 81.5,30.1 82.1,30.0 82.3,29.6 83.0,29.3 83.3,30.0 83.8,30.2 84.1,30.0 84.8,29.9 85.3,30.1 85.6,30.7 86.1,30.5 86.5,30.1 86.8,30.5 88.3,31.5 88.4,31.7 89.0,31.8 89.5,32.1 89.8,32.8 89.5,33.5 90.1,33.6 90.4,34.5 90.8,34.6 90.7,35.1 92.3,35.2 93.2,34.5 93.1,34.2 93.7,33.7 93.8,33.5 93.3,32.9 93.2,32.5 93.5,32.3 93.4,31.7 93.6,31.1 93.7,30.2 94.0,29.7 93.6,29.2 93.7,28.4 94.4,27.4 94.5,26.6 94.9,26.4 94.8,25.7 95.1,24.8 95.4,24.5 95.3,23.8 95.6,23.3 96.0,23.1 96.5,22.5 96.6,22.2 97.4,21.8 97.8,21.0 98.3,20.2 97.3,19.9 96.3,19.3 95.8,19.5 95.3,19.2 95.1,19.4 94.4,19.4 94.1,19.1 93.3,18.9 92.7,18.1 92.1,18.2 92.1,18.4 91.6,18.7 91.2,18.6 90.6,18.7 90.1,18.6 89.9,18.7 89.6,18.0 88.8,17.7 88.2,18.4 87.5,18.3 87.1,17.7 87.1,17.4 86.2,16.5 86.5,16.3 86.1,15.8 85.2,15.3 84.7,15.4 83.8,14.9 83.2,15.0 83.0,15.3 81.9,15.4 81.8,15.1 81.1,15.0 80.4,14.4 80.3,14.6 79.6,14.5 79.2,14.8 78.8,14.8 78.4,15.0 78.0,14.9 77.8,14.1 77.2,13.8 76.7,13.2 75.9,13.2 75.2,12.5 74.5,12.2 74.0,12.3 73.6,11.7 73.9,11.1 73.4,10.3 73.6,9.3 73.9,9.0 73.4,8.8 72.5,9.4 72.4,10.2 70.6,10.9 69.6,10.6 69.0,10.7Z" data-codeInsee="44" data-nom="Grand-Est"/>
<path d="M35.5,82.7 36.3,83.2 36.7,83.3 37.4,84.3 37.9,84.4 39.1,83.9 39.8,84.1 40.0,84.5 40.5,84.0 41.0,84.4 41.7,84.2 42.8,84.4 42.9,84.2 42.6,83.4 42.7,82.8 43.1,82.5 43.6,82.8 44.2,82.9 44.7,83.3 44.9,83.1 46.0,83.5 46.4,84.2 47.9,84.1 48.3,84.8 49.3,84.7 49.6,85.0 50.6,85.2 50.7,85.7 50.6,86.5 51.1,86.5 52.2,87.2 52.3,87.7 52.8,88.0 53.2,87.9 53.5,87.4 54.1,87.3 54.5,87.1 55.6,87.6 56.1,88.1 56.6,88.2 56.8,88.0 57.5,88.2 57.4,87.6 57.9,87.3 58.3,87.4 58.8,86.9 59.4,86.9 60.3,86.7 60.6,87.2 61.2,87.1 61.0,86.3 60.3,86.0 60.2,85.2 60.2,83.2 60.4,81.9 60.3,81.8 60.4,80.8 60.7,80.2 61.3,79.3 62.0,78.5 62.8,78.0 63.8,78.1 64.7,77.0 65.9,76.3 66.6,75.5 67.4,75.1 68.1,75.1 68.2,75.6 68.4,75.9 69.0,76.1 69.1,75.7 69.9,75.2 70.3,75.1 70.5,74.4 70.9,73.6 71.3,73.5 71.8,73.7 72.1,72.7 72.1,71.8 72.4,71.6 73.5,70.5 73.5,70.3 72.9,69.5 72.5,69.3 72.6,68.4 72.1,67.5 71.5,67.2 71.1,66.8 70.6,66.9 70.6,67.4 70.3,67.3 70.3,66.9 69.7,66.8 69.2,67.6 68.4,67.1 68.3,66.8 67.7,67.0 67.8,66.1 67.3,65.5 67.0,64.4 66.8,64.4 66.4,63.3 66.4,62.6 65.6,62.0 65.5,61.6 64.9,61.7 64.8,61.2 64.3,61.2 64.3,61.6 63.5,61.9 63.0,60.8 62.7,60.3 61.6,60.8 61.3,61.3 61.0,60.9 60.7,61.1 60.3,61.9 60.3,62.3 59.8,63.6 59.5,63.1 59.5,62.2 59.2,62.1 58.9,61.5 58.5,61.2 58.0,60.5 57.0,61.5 57.0,62.1 56.7,62.2 56.7,62.8 56.3,63.2 56.2,63.5 55.8,63.7 55.0,63.3 53.8,63.7 53.9,63.3 53.7,62.8 53.8,61.9 53.2,61.1 53.4,60.8 53.1,60.2 51.9,60.1 51.3,60.7 50.8,60.5 50.0,59.6 49.2,59.4 48.2,59.8 48.5,60.8 48.5,61.2 47.9,61.6 47.9,61.9 47.4,62.0 47.6,62.4 47.3,62.9 46.8,63.2 46.3,63.3 46.3,63.7 45.3,64.7 45.4,65.7 45.6,65.9 45.6,66.6 44.4,66.5 44.3,67.1 44.9,67.5 44.4,68.8 44.2,69.0 43.7,68.8 43.3,69.7 42.9,70.1 42.3,69.6 42.0,69.8 41.2,69.8 41.1,70.1 40.5,70.2 40.1,70.5 39.4,70.2 39.1,70.5 38.4,70.6 38.1,71.4 37.3,70.9 36.9,71.0 36.2,71.5 36.5,72.1 36.2,72.4 36.4,73.2 36.0,73.5 36.1,74.0 35.8,74.5 36.3,74.8 37.1,74.8 37.2,75.2 37.5,75.4 37.3,76.4 37.9,76.5 37.8,77.0 37.5,77.8 37.7,78.1 37.3,78.6 36.8,79.6 36.5,79.8 36.4,80.6 35.9,80.6 35.7,81.1 35.8,81.7 35.4,81.9 35.5,82.7Z" data-codeInsee="76" data-nom="Occitanie"/>
<path d="M48.0,9.7 46.7,10.5 45.7,11.0 44.9,11.0 43.5,11.5 43.0,11.5 42.1,11.7 40.6,12.5 40.2,12.7 39.4,13.0 39.1,13.3 39.0,13.6 38.3,14.9 38.7,15.4 39.9,15.5 38.7,16.0 38.2,16.5 37.2,17.0 36.2,17.1 35.6,17.0 34.8,16.6 34.0,16.5 33.4,16.6 31.6,16.3 31.1,16.1 30.0,16.1 29.6,16.3 28.6,15.2 28.2,14.7 28.8,13.8 28.5,13.3 27.8,13.1 27.4,13.1 26.9,13.4 25.9,13.7 25.2,13.3 24.4,13.2 23.6,12.9 23.5,13.4 24.1,13.6 24.3,14.3 23.9,14.8 24.2,14.9 24.4,16.0 25.3,16.8 25.8,17.7 26.0,17.9 26.1,18.5 26.0,19.0 26.3,20.0 26.3,20.7 26.1,21.4 26.2,21.5 26.3,22.2 26.7,22.7 27.5,23.3 26.9,23.5 26.3,23.4 26.5,23.7 26.6,24.3 26.9,24.8 27.7,25.1 28.4,24.6 28.6,24.3 30.0,24.6 30.5,24.8 30.8,24.5 31.5,24.7 32.1,25.0 33.0,25.2 33.6,25.0 34.1,24.6 34.6,24.5 35.1,24.7 35.8,24.6 36.3,24.1 36.8,25.1 37.5,25.1 37.4,25.9 37.9,25.7 38.3,25.8 38.7,25.3 39.1,25.0 40.1,24.9 40.5,25.1 40.7,26.3 41.5,26.8 41.8,27.1 42.5,27.2 42.7,27.0 43.3,27.7 43.7,27.7 44.0,27.5 43.4,26.6 43.6,26.2 44.5,25.9 45.0,25.3 44.8,25.1 45.0,24.4 44.7,24.1 44.1,23.9 43.9,23.6 43.9,22.9 44.3,22.6 44.9,22.5 46.4,22.1 47.7,22.1 48.0,21.9 47.9,21.4 48.6,21.0 48.5,20.6 48.9,20.4 48.5,19.4 49.7,19.0 50.1,18.6 50.2,17.8 50.4,17.6 50.9,17.0 50.8,16.3 50.5,16.0 50.5,15.7 50.9,15.3 50.4,14.1 50.4,13.6 50.8,13.3 50.5,13.0 51.0,12.5 50.6,12.0 50.5,11.4 50.2,11.0 49.7,10.8 49.0,10.2 48.0,9.7Z" data-codeInsee="28" data-nom="Normandie"/>
<path d="M29.7,46.4 29.7,46.9 28.8,47.9 29.3,48.2 30.0,49.1 29.9,49.7 29.9,50.5 29.7,51.0 29.2,51.2 29.3,51.6 28.7,51.9 28.7,52.6 29.6,53.2 30.5,53.7 30.6,54.0 31.6,54.7 31.9,55.2 32.4,56.1 32.9,58.2 32.9,58.6 33.2,59.1 33.5,59.5 33.4,59.7 32.8,59.1 32.3,57.8 32.2,56.9 31.9,56.3 31.0,55.3 29.7,54.3 29.4,54.9 29.3,56.8 28.8,61.5 28.6,62.9 29.2,62.6 29.3,62.2 30.1,62.9 30.3,63.6 29.8,63.6 29.0,63.5 29.0,63.9 28.6,64.8 28.6,65.2 28.2,68.9 27.7,71.3 27.2,73.5 27.2,74.1 26.6,75.4 26.1,76.4 25.6,76.9 24.6,77.0 25.0,77.5 25.9,77.8 25.9,78.3 26.2,78.4 26.6,77.9 27.7,78.3 27.6,79.0 27.4,79.7 27.0,80.1 27.2,80.5 27.9,80.7 28.2,80.3 28.7,80.6 29.6,80.8 30.4,81.1 30.7,81.4 31.9,81.6 32.3,81.4 32.5,82.1 33.4,82.8 33.8,83.4 34.1,82.9 34.6,83.2 34.9,83.2 35.5,82.7 35.4,81.9 35.8,81.7 35.7,81.1 35.9,80.6 36.4,80.6 36.5,79.8 36.8,79.6 37.3,78.6 37.7,78.1 37.5,77.8 37.8,77.0 37.9,76.5 37.3,76.4 37.5,75.4 37.2,75.2 37.1,74.8 36.3,74.8 35.8,74.5 36.1,74.0 36.0,73.5 36.4,73.2 36.2,72.4 36.5,72.1 36.2,71.5 36.9,71.0 37.3,70.9 38.1,71.4 38.4,70.6 39.1,70.5 39.4,70.2 40.1,70.5 40.5,70.2 41.1,70.1 41.2,69.8 42.0,69.8 42.3,69.6 42.9,70.1 43.3,69.7 43.7,68.8 44.2,69.0 44.4,68.8 44.9,67.5 44.3,67.1 44.4,66.5 45.6,66.6 45.6,65.9 45.4,65.7 45.3,64.7 46.3,63.7 46.3,63.3 46.8,63.2 47.3,62.9 47.6,62.4 47.4,62.0 47.9,61.9 47.9,61.6 48.5,61.2 48.5,60.8 48.2,59.8 49.2,59.4 50.0,59.6 50.8,60.5 51.3,60.7 51.9,60.1 53.1,60.2 53.6,59.9 53.3,59.3 53.9,59.1 54.2,58.3 54.0,57.8 54.6,56.9 55.2,56.5 55.3,55.6 55.9,55.9 56.2,55.6 56.4,54.5 56.4,54.2 56.0,53.8 56.1,53.3 56.5,53.1 56.4,52.6 55.8,52.0 55.5,51.4 56.5,50.6 57.0,49.7 56.6,48.5 56.8,48.1 56.5,47.7 56.4,47.2 56.0,46.7 55.5,46.3 54.9,46.2 54.9,45.8 54.7,45.3 54.4,45.3 53.1,45.3 52.5,45.2 51.3,45.2 51.1,45.0 50.6,45.7 50.3,45.4 50.0,45.7 49.1,45.3 48.5,46.0 47.8,45.5 47.5,45.8 47.0,45.9 46.5,45.7 46.8,45.2 46.3,45.1 46.3,44.5 46.0,44.2 45.4,44.2 44.6,43.6 44.4,43.3 44.7,42.5 44.4,42.1 43.8,41.6 43.7,41.0 43.0,40.5 42.9,39.8 42.1,39.4 42.3,39.9 41.5,39.9 41.1,40.2 40.6,40.0 40.1,40.1 40.0,39.0 38.8,38.3 38.4,38.3 38.2,37.9 38.0,37.7 37.6,38.2 37.6,38.5 36.5,38.8 36.5,38.4 36.0,38.4 34.9,38.8 33.7,38.9 33.5,39.5 32.6,39.6 32.2,39.5 31.3,39.9 31.7,40.2 31.8,40.7 32.1,41.1 32.6,41.3 32.5,41.9 33.0,42.5 33.3,43.3 33.4,44.2 33.1,44.3 33.4,45.4 33.9,45.7 33.7,45.9 32.7,46.3 32.5,46.5 31.9,46.2 31.0,46.4 30.4,46.0 29.7,46.4 M27.0,47.5 27.9,48.0 28.4,48.1 28.3,47.7 27.8,47.5 27.3,47.5 26.7,47.0 26.4,47.2 26.5,47.5 27.0,47.5 M28.9,50.6 28.8,49.8 28.2,49.7 27.8,49.3 27.6,50.1 28.5,50.8 28.8,51.6 29.0,51.4 29.1,50.8 28.9,50.6Z" data-codeInsee="75" data-nom="Nouvelle Aquitaine"/>
<path d="M54.7,45.3 54.8,44.8 55.3,44.3 56.3,44.2 56.6,44.3 57.1,44.0 57.0,43.1 58.0,42.0 58.2,42.3 58.7,42.2 59.7,41.5 60.2,41.6 60.5,41.0 60.3,40.4 60.5,40.0 60.5,39.3 60.2,38.9 60.2,38.2 59.8,37.3 59.8,36.9 59.0,36.1 59.4,35.1 59.1,34.4 58.8,34.1 59.5,33.6 59.4,32.7 58.9,32.3 59.0,31.9 59.5,31.9 60.2,31.5 60.0,31.2 60.1,30.5 60.9,29.9 60.6,29.0 60.3,28.9 60.2,28.3 59.5,28.0 59.0,28.0 58.5,27.9 57.8,28.3 57.3,28.2 56.0,28.2 56.4,27.6 56.3,27.2 55.7,27.0 55.6,26.4 55.2,26.5 54.3,26.5 53.8,26.6 52.4,26.7 52.3,26.5 52.4,25.7 52.1,25.3 51.4,25.2 51.1,25.0 50.9,24.5 51.0,24.2 50.4,23.9 49.7,23.1 49.5,22.7 49.8,22.3 49.5,21.9 49.6,21.4 49.2,20.6 48.9,20.4 48.5,20.6 48.6,21.0 47.9,21.4 48.0,21.9 47.7,22.1 46.4,22.1 44.9,22.5 44.3,22.6 43.9,22.9 43.9,23.6 44.1,23.9 44.7,24.1 45.0,24.4 44.8,25.1 45.0,25.3 44.5,25.9 43.6,26.2 43.4,26.6 44.0,27.5 43.7,27.7 44.4,28.0 43.8,28.9 43.7,29.2 44.1,30.1 43.4,30.6 43.6,31.1 42.8,31.8 42.1,32.4 42.3,32.7 41.0,33.3 40.6,33.8 40.2,33.6 39.6,33.4 39.3,34.1 39.5,34.5 39.2,35.0 39.2,35.3 38.9,36.1 38.5,36.6 38.2,37.9 38.4,38.3 38.8,38.3 40.0,39.0 40.1,40.1 40.6,40.0 41.1,40.2 41.5,39.9 42.3,39.9 42.1,39.4 42.9,39.8 43.0,40.5 43.7,41.0 43.8,41.6 44.4,42.1 44.7,42.5 44.4,43.3 44.6,43.6 45.4,44.2 46.0,44.2 46.3,44.5 46.3,45.1 46.8,45.2 46.5,45.7 47.0,45.9 47.5,45.8 47.8,45.5 48.5,46.0 49.1,45.3 50.0,45.7 50.3,45.4 50.6,45.7 51.1,45.0 51.3,45.2 52.5,45.2 53.1,45.3 54.4,45.3 54.7,45.3Z" data-codeInsee="24" data-nom="Centre-Val de Loire"/>
<path d="M90.4,34.5 90.1,33.6 89.5,33.5 89.8,32.8 89.5,32.1 89.0,31.8 88.4,31.7 88.3,31.5 86.8,30.5 86.5,30.1 86.1,30.5 85.6,30.7 85.3,30.1 84.8,29.9 84.1,30.0 83.8,30.2 83.3,30.0 83.0,29.3 82.3,29.6 82.1,30.0 81.5,30.1 81.0,30.5 80.6,31.1 80.1,31.4 79.7,31.8 79.8,32.7 79.1,32.8 78.3,32.7 77.7,32.8 77.3,33.6 76.5,33.4 76.0,33.0 75.5,33.0 74.4,32.5 74.4,32.0 74.6,31.5 74.4,30.9 73.6,30.0 73.1,29.9 73.1,29.5 72.5,29.3 71.6,29.3 71.4,29.9 70.6,30.0 70.4,29.9 69.6,30.0 69.5,30.3 68.5,30.0 67.4,30.3 66.6,30.2 66.7,29.8 65.7,28.3 65.3,28.0 64.9,28.2 64.3,26.6 64.0,26.4 63.6,25.9 63.0,25.7 62.6,25.9 62.0,25.8 61.8,26.0 61.2,25.9 60.3,26.1 60.1,26.6 60.3,26.9 60.0,27.5 59.5,28.0 60.2,28.3 60.3,28.9 60.6,29.0 60.9,29.9 60.1,30.5 60.0,31.2 60.2,31.5 59.5,31.9 59.0,31.9 58.9,32.3 59.4,32.7 59.5,33.6 58.8,34.1 59.1,34.4 59.4,35.1 59.0,36.1 59.8,36.9 59.8,37.3 60.2,38.2 60.2,38.9 60.5,39.3 60.5,40.0 60.3,40.4 60.5,41.0 60.2,41.6 60.3,41.9 60.9,42.3 61.5,42.7 61.9,42.4 62.3,42.6 63.2,42.4 63.3,42.9 63.5,42.9 64.0,42.4 64.6,42.2 64.9,42.8 65.3,43.2 65.4,44.1 66.3,44.6 67.0,44.6 67.4,45.1 67.2,45.6 67.2,46.4 66.7,46.6 66.5,47.4 67.1,47.5 67.5,47.9 68.1,47.6 68.3,47.8 69.2,47.7 69.2,48.0 70.1,47.7 70.3,46.6 70.7,46.6 71.0,46.9 71.6,46.9 72.1,46.5 72.3,47.0 72.8,47.2 72.6,47.6 73.1,47.7 73.9,45.5 73.9,45.1 74.2,44.4 74.6,44.4 75.1,44.7 76.0,44.4 76.6,45.0 77.0,45.1 77.0,45.4 77.5,45.7 77.4,46.0 77.9,46.4 78.2,46.9 78.7,46.9 79.5,46.1 80.0,46.5 80.0,47.0 81.0,47.0 81.4,46.7 81.9,46.0 82.5,45.4 82.6,44.9 83.2,44.1 82.9,43.8 84.0,42.8 85.2,41.9 85.5,40.6 85.3,40.2 85.7,39.8 86.7,39.5 87.5,38.4 88.4,37.9 88.6,37.5 89.1,37.1 89.0,36.6 89.8,36.2 89.8,35.9 88.5,35.9 89.0,35.4 89.0,35.2 89.4,35.0 89.3,34.6 90.4,34.5Z" data-codeInsee="27" data-nom="Bourgogne-Franche-Comté"/>
<path d="M26.3,23.4 24.8,23.7 24.3,23.6 24.1,23.3 24.2,22.8 23.6,22.8 22.9,23.3 22.1,23.4 21.6,23.9 21.0,23.0 20.7,23.0 19.4,23.6 19.1,23.7 18.4,24.4 18.0,24.6 17.7,24.1 17.1,23.8 17.0,23.2 16.1,22.5 16.3,22.2 15.6,22.1 15.7,21.8 14.1,21.1 13.6,21.5 12.5,21.8 12.0,21.4 11.4,22.1 11.7,22.4 11.2,22.9 10.0,22.7 9.5,22.9 9.4,23.4 8.7,23.1 8.4,22.5 7.9,22.9 7.6,22.8 7.0,22.9 6.7,23.2 6.4,23.2 5.8,23.0 4.9,23.4 4.6,23.4 4.2,23.7 2.8,24.3 2.6,24.7 2.8,24.9 2.5,25.5 2.8,25.9 2.7,26.3 3.1,26.3 3.4,26.1 3.7,26.3 5.2,25.7 5.1,26.4 5.9,26.2 6.1,26.7 5.7,26.8 5.2,26.7 4.7,26.8 4.2,27.1 4.5,27.7 5.0,27.2 6.1,27.7 6.4,28.2 6.1,28.7 5.6,28.5 4.9,28.6 3.4,29.0 4.2,29.6 4.7,29.6 5.3,30.0 5.6,30.4 5.8,31.1 5.7,31.6 7.0,31.6 7.2,31.1 7.5,30.9 8.1,31.1 8.5,31.0 8.8,30.6 9.3,31.4 9.8,31.7 10.4,31.5 10.7,31.8 11.8,31.8 12.5,32.6 13.1,32.4 13.7,32.7 14.6,33.5 14.8,34.1 15.4,33.7 15.7,33.9 16.1,33.4 16.4,33.6 16.9,33.3 17.3,33.3 17.8,33.7 17.6,34.1 16.4,34.0 17.1,34.6 18.4,34.3 19.3,34.2 19.9,34.5 19.7,35.0 20.8,34.9 20.9,34.4 21.3,34.6 22.4,34.2 22.4,33.6 22.5,33.0 23.2,32.7 24.1,32.5 25.3,32.5 25.6,32.4 25.9,31.9 27.0,31.5 27.0,31.2 27.6,31.3 27.8,31.5 28.7,31.8 29.1,30.8 29.4,29.9 29.6,29.7 30.3,29.6 30.3,28.9 30.1,28.7 29.9,27.6 29.7,27.0 30.1,26.4 29.9,25.5 30.0,24.6 28.6,24.3 28.4,24.6 27.7,25.1 26.9,24.8 26.6,24.3 26.5,23.7 26.3,23.4 M14.6,36.6 15.1,36.7 15.3,36.4 14.7,36.2 14.6,35.9 13.8,35.8 13.9,36.3 14.6,36.6Z" data-codeInsee="53" data-nom="Bretagne"/>
<path d="M102.7,92.9 102.5,93.9 101.9,94.6 102.1,94.9 103.3,95.2 103.3,95.7 102.7,95.9 102.6,96.7 103.0,96.8 103.3,97.2 103.9,97.4 104.7,97.9 105.1,98.5 105.8,98.8 106.1,98.3 106.0,97.9 106.3,97.5 106.4,96.8 106.9,96.3 106.3,96.1 107.0,95.6 107.2,94.4 107.1,93.2 107.2,92.4 108.2,90.7 108.3,88.8 108.1,87.7 108.2,87.2 108.1,85.9 107.5,84.6 107.7,82.8 107.6,81.2 107.3,80.9 106.7,81.1 106.8,81.9 106.6,82.1 106.5,82.8 106.7,83.2 106.7,83.9 106.6,84.3 106.2,84.3 105.9,84.0 105.1,83.9 104.6,84.4 104.3,84.9 103.6,84.9 102.8,85.4 102.6,85.8 102.2,85.8 101.7,86.3 101.8,86.7 101.6,87.3 100.9,87.8 101.4,88.2 101.9,89.0 101.3,89.1 101.0,89.4 101.2,90.4 102.0,90.6 102.2,91.4 101.6,91.8 101.7,92.1 101.2,92.2 101.3,92.8 102.7,92.9Z" data-codeInsee="94" data-nom="Corse"/>
<path d="M19.7,35.0 19.8,35.2 19.0,35.8 19.4,36.2 19.3,36.6 19.8,36.9 20.2,36.7 20.9,37.2 21.9,36.8 21.9,37.9 21.3,38.2 22.7,38.6 23.2,39.2 22.9,39.4 22.7,40.0 22.0,40.6 22.1,41.3 22.7,41.8 23.5,42.5 24.2,43.4 24.5,44.6 25.7,45.3 26.8,45.6 27.0,46.1 28.0,46.2 28.9,46.9 29.2,46.4 29.7,46.4 30.4,46.0 31.0,46.4 31.9,46.2 32.5,46.5 32.7,46.3 33.7,45.9 33.9,45.7 33.4,45.4 33.1,44.3 33.4,44.2 33.3,43.3 33.0,42.5 32.5,41.9 32.6,41.3 32.1,41.1 31.8,40.7 31.7,40.2 31.3,39.9 32.2,39.5 32.6,39.6 33.5,39.5 33.7,38.9 34.9,38.8 36.0,38.4 36.5,38.4 36.5,38.8 37.6,38.5 37.6,38.2 38.0,37.7 38.2,37.9 38.5,36.6 38.9,36.1 39.2,35.3 39.2,35.0 39.5,34.5 39.3,34.1 39.6,33.4 40.2,33.6 40.6,33.8 41.0,33.3 42.3,32.7 42.1,32.4 42.8,31.8 43.6,31.1 43.4,30.6 44.1,30.1 43.7,29.2 43.8,28.9 44.4,28.0 43.7,27.7 43.3,27.7 42.7,27.0 42.5,27.2 41.8,27.1 41.5,26.8 40.7,26.3 40.5,25.1 40.1,24.9 39.1,25.0 38.7,25.3 38.3,25.8 37.9,25.7 37.4,25.9 37.5,25.1 36.8,25.1 36.3,24.1 35.8,24.6 35.1,24.7 34.6,24.5 34.1,24.6 33.6,25.0 33.0,25.2 32.1,25.0 31.5,24.7 30.8,24.5 30.5,24.8 30.0,24.6 29.9,25.5 30.1,26.4 29.7,27.0 29.9,27.6 30.1,28.7 30.3,28.9 30.3,29.6 29.6,29.7 29.4,29.9 29.1,30.8 28.7,31.8 27.8,31.5 27.6,31.3 27.0,31.2 27.0,31.5 25.9,31.9 25.6,32.4 25.3,32.5 24.1,32.5 23.2,32.7 22.5,33.0 22.4,33.6 22.4,34.2 21.3,34.6 20.9,34.4 20.8,34.9 19.7,35.0Z" data-codeInsee="52" data-nom="Pays de la Loire"/>
<path d="M63.5,21.3 62.8,21.0 62.2,20.3 61.2,19.7 61.3,19.2 61.2,18.9 60.5,18.7 60.4,19.0 59.0,19.1 58.6,18.9 58.2,19.2 57.8,19.2 57.2,18.8 56.9,19.1 56.1,18.5 55.6,18.4 54.7,18.3 54.2,18.4 53.1,17.8 52.6,18.1 51.7,18.3 51.1,18.0 50.7,18.1 50.4,17.6 50.2,17.8 50.1,18.6 49.7,19.0 48.5,19.4 48.9,20.4 49.2,20.6 49.6,21.4 49.5,21.9 49.8,22.3 49.5,22.7 49.7,23.1 50.4,23.9 51.0,24.2 50.9,24.5 51.1,25.0 51.4,25.2 52.1,25.3 52.4,25.7 52.3,26.5 52.4,26.7 53.8,26.6 54.3,26.5 55.2,26.5 55.6,26.4 55.7,27.0 56.3,27.2 56.4,27.6 56.0,28.2 57.3,28.2 57.8,28.3 58.5,27.9 59.0,28.0 59.5,28.0 60.0,27.5 60.3,26.9 60.1,26.6 60.3,26.1 61.2,25.9 61.8,26.0 62.0,25.8 62.6,25.9 63.0,25.7 62.8,24.9 63.1,24.5 63.5,24.2 63.7,23.7 63.2,23.1 63.4,22.9 63.4,22.4 63.2,21.9 63.5,21.3Z" data-codeInsee="11" data-nom="Île-de-France"/>
<path d="M8.2,93.7 8.5,94.2 9.1,94.4 10.5,93.8 11.5,93.7 11.4,93.1 11.1,92.8 10.1,92.5 9.8,92.0 9.9,91.5 9.7,90.9 9.1,90.4 8.4,91.1 8.5,91.9 8.8,92.1 8.4,92.6 8.2,93.3 8.2,93.7 M7.4,93.4 7.1,92.8 6.4,92.6 6.1,92.3 5.7,92.5 5.4,93.1 5.4,93.8 5.6,94.0 5.8,96.1 6.0,96.7 6.4,97.1 6.5,97.6 7.5,97.1 7.9,96.6 8.1,96.2 7.9,94.7 7.8,93.9 8.1,93.9 8.2,93.4 7.4,93.4 M11.8,97.4 11.6,97.1 11.0,96.9 10.5,97.7 10.6,98.2 11.2,98.6 12.0,98.2 12.1,97.8 11.8,97.4Z" data-codeInsee="01" data-nom="Guadeloupe"/>
<path d="M19.5,95.5 19.9,95.2 20.2,95.4 21.6,95.6 21.3,96.0 21.7,96.3 22.1,95.5 22.0,94.5 21.7,93.9 21.5,93.8 21.2,93.2 21.3,92.9 20.7,92.9 20.7,91.8 20.4,91.7 19.6,90.7 18.5,90.2 17.8,90.4 17.6,91.1 18.1,91.9 18.1,92.6 18.6,93.3 19.1,93.7 19.9,93.9 20.3,94.3 20.2,94.6 19.4,94.3 19.0,94.7 19.2,95.4 19.5,95.5Z" data-codeInsee="02" data-nom="Martinique"/>
<path d="M32.0,90.5 31.5,90.2 30.1,88.7 29.1,88.3 28.7,88.3 27.9,87.9 27.5,87.8 27.3,88.3 26.2,89.7 26.1,90.2 26.2,91.0 26.2,91.5 26.3,92.2 26.8,93.3 27.3,93.9 27.1,94.8 26.7,95.2 26.8,95.8 26.3,97.1 26.1,97.2 25.9,97.7 26.9,98.1 27.4,97.7 27.9,97.6 28.7,97.8 29.0,97.5 29.3,97.8 29.9,98.0 30.7,97.4 31.6,95.4 32.6,93.4 33.3,92.6 33.4,92.2 33.2,91.9 33.0,91.0 32.0,90.5Z" data-codeInsee="03" data-nom="Guyane"/>
<path d="M37.2,94.0 37.4,94.4 38.0,94.6 38.7,95.2 39.7,95.6 40.8,95.8 42.3,95.5 42.6,95.1 42.5,94.2 42.6,93.7 42.9,93.1 42.8,92.6 42.3,92.3 41.4,91.0 41.4,90.5 41.0,89.8 40.2,89.4 39.8,89.4 38.7,89.1 38.1,89.2 37.3,89.8 36.9,89.7 36.7,90.8 36.1,91.2 36.2,91.9 36.8,92.8 36.8,93.4 37.2,94.0Z" data-codeInsee="04" data-nom="La Réunion"/>
<path d="M45.9,91.2 46.5,91.6 46.6,92.1 46.5,92.5 47.0,93.0 46.6,93.4 46.5,93.9 47.1,94.3 47.3,93.7 47.8,92.7 47.5,92.3 48.1,91.6 48.1,91.2 47.7,91.0 47.1,91.0 46.4,90.2 45.9,90.8 45.9,91.2Z" data-codeInsee="06" data-nom="Mayotte"/>
    </svg>
  