
    <svg
      viewBox="0 0 110 100"
      xmlns="http://www.w3.org/2000/svg"
      fill="#313178"
      stroke="#FFFFFF"
      stroke-width="0.3"
    >
      <polygon points="0,0 0,100 110,100 110,0" fill="#eee"/>
      <path d="M82.53,45.38 81.92,46.00 81.39,46.72 80.98,46.95 80.04,46.96 79.96,46.47 79.48,46.15 78.69,46.87 78.18,46.91 77.92,46.40 77.45,46.03 77.47,45.73 77.01,45.45 76.98,45.07 76.58,45.01 75.97,44.39 75.11,44.70 74.58,44.38 74.22,44.39 73.90,45.11 73.88,45.49 73.07,47.69 72.63,47.63 72.76,47.24 72.33,46.97 72.13,46.51 71.65,46.88 71.04,46.89 70.70,46.59 70.32,46.60 70.06,47.68 69.22,48.01 69.23,47.73 68.31,47.80 68.09,47.59 67.53,47.89 67.12,47.55 66.52,47.43 66.68,46.59 67.21,46.37 67.16,45.57 67.37,45.10 67.02,44.63 66.30,44.61 65.42,44.14 65.28,43.24 64.89,42.78 64.56,42.15 64.01,42.37 63.55,42.92 63.25,42.91 63.16,42.39 62.27,42.62 61.93,42.36 61.46,42.73 60.93,42.26 60.32,41.92 60.19,41.56 59.67,41.47 58.69,42.16 58.18,42.33 57.96,42.02 56.98,43.13 57.12,43.98 56.62,44.26 56.25,44.19 55.30,44.35 54.84,44.78 54.66,45.34 54.91,45.80 54.91,46.20 55.48,46.25 56.04,46.69 56.39,47.18 56.48,47.73 56.77,48.14 56.62,48.46 56.96,49.71 56.49,50.64 55.47,51.43 55.79,51.99 56.44,52.59 56.47,53.13 56.15,53.31 56.03,53.78 56.39,54.18 56.42,54.54 56.18,55.58 55.87,55.94 55.31,55.60 55.16,56.51 54.57,56.90 53.99,57.80 54.17,58.25 53.86,59.06 53.29,59.33 53.63,59.85 53.05,60.15 53.39,60.84 53.21,61.08 53.82,61.87 53.67,62.82 53.91,63.30 53.83,63.66 55.00,63.35 55.80,63.67 56.20,63.48 56.27,63.17 56.70,62.77 56.75,62.22 57.01,62.06 57.03,61.54 58.02,60.53 58.51,61.22 58.89,61.45 59.17,62.13 59.49,62.23 59.47,63.06 59.78,63.61 60.31,62.35 60.31,61.95 60.72,61.08 61.01,60.92 61.29,61.32 61.63,60.85 62.70,60.32 62.98,60.76 63.48,61.89 64.29,61.62 64.35,61.19 64.78,61.22 64.87,61.69 65.45,61.63 65.64,61.95 66.39,62.61 66.36,63.26 66.76,64.37 66.98,64.42 67.31,65.55 67.83,66.12 67.71,67.04 68.26,66.83 68.40,67.08 69.23,67.60 69.73,66.82 70.30,66.87 70.28,67.35 70.57,67.39 70.65,66.86 71.06,66.81 71.45,67.20 72.11,67.53 72.33,67.00 72.95,66.95 73.26,67.30 73.33,67.94 73.75,67.66 74.20,67.62 75.14,67.14 75.26,67.39 75.79,67.43 75.99,68.06 76.59,67.96 77.53,68.26 77.52,68.70 77.91,68.77 78.05,69.13 78.69,68.97 78.94,68.40 79.75,68.30 79.66,67.68 79.19,67.08 79.27,66.87 78.33,66.83 77.97,66.39 77.89,65.82 78.43,65.21 79.14,65.48 79.32,64.76 79.09,64.67 79.47,63.94 79.42,63.54 80.06,63.67 80.52,63.52 80.79,63.17 80.65,62.91 80.93,62.49 81.49,62.47 81.69,61.94 82.29,61.59 82.50,61.79 83.01,61.34 83.91,61.44 84.31,61.24 84.68,61.41 84.70,60.52 84.44,60.39 84.32,59.86 83.57,59.78 83.75,58.78 84.74,58.82 84.75,59.18 85.65,59.32 85.60,58.97 86.31,58.63 86.71,58.77 87.73,58.25 88.28,58.50 89.10,58.03 89.18,57.75 90.45,57.25 90.24,56.62 90.79,55.69 90.27,55.41 90.15,55.05 89.43,54.69 89.44,53.30 88.92,53.23 88.30,52.78 88.02,52.42 87.99,51.50 88.13,51.27 88.79,51.22 89.41,50.92 89.75,50.40 89.61,49.82 88.88,48.95 88.68,48.37 87.94,48.22 87.98,47.54 88.43,46.76 87.97,46.36 87.65,45.52 87.17,45.46 86.08,45.60 84.91,46.15 84.59,45.85 84.11,46.05 83.82,46.79 84.23,47.32 83.45,47.77 83.07,48.17 81.81,48.12 82.03,47.75 81.88,47.42 82.31,47.18 82.98,47.05 82.82,46.71 83.32,45.89 82.53,45.38 M73.73,66.75 74.09,66.09 74.61,65.93 74.90,66.56 74.60,67.30 73.89,67.16 73.73,66.75Z" data-reg="84" data-libgeo="Auvergne-Rhône-Alpes"/>
<path d="M63.53,21.26 63.85,20.68 64.18,20.61 64.53,20.16 64.73,19.43 64.56,18.37 65.41,18.32 64.80,17.79 64.91,17.58 64.73,16.79 65.87,16.38 66.24,16.51 66.37,15.92 67.59,16.37 67.68,14.60 67.89,14.35 67.53,13.91 68.17,13.74 68.26,13.33 68.69,13.13 69.16,12.58 68.86,12.35 69.21,11.19 69.04,10.68 68.56,10.49 68.33,10.08 69.03,9.58 68.80,9.04 68.26,9.00 68.83,7.70 68.32,7.85 68.23,7.48 67.59,7.04 67.09,6.98 66.65,7.19 66.25,6.97 65.39,7.04 65.09,7.33 64.80,6.79 64.85,6.01 64.43,5.60 63.82,5.62 63.79,5.36 62.74,5.66 62.07,5.32 61.95,4.54 61.73,4.10 61.76,3.59 61.37,3.48 61.05,2.87 60.09,3.04 59.49,3.31 59.23,3.78 58.58,3.55 57.94,2.85 57.27,2.66 57.00,2.28 57.25,1.42 56.86,0.93 56.61,0.10 55.31,0.48 55.08,0.40 54.14,0.63 53.85,0.51 53.42,0.85 51.97,1.07 50.58,1.50 49.97,2.04 49.50,2.13 49.69,2.87 49.59,3.41 49.35,3.72 49.50,5.27 49.19,7.70 49.81,8.26 48.99,8.38 48.56,9.25 48.03,9.66 49.02,10.16 49.66,10.81 50.18,11.03 50.47,11.36 50.63,12.05 50.96,12.45 50.49,13.04 50.76,13.30 50.44,13.63 50.42,14.12 50.94,15.30 50.55,15.66 50.52,16.03 50.82,16.29 50.91,17.00 50.41,17.59 50.67,18.09 51.14,18.05 51.73,18.26 52.58,18.14 53.14,17.82 54.23,18.36 54.70,18.29 55.63,18.36 56.06,18.52 56.88,19.05 57.22,18.84 57.79,19.20 58.15,19.24 58.55,18.89 58.99,19.15 60.43,19.00 60.49,18.69 61.17,18.87 61.30,19.23 61.19,19.71 62.20,20.32 62.76,21.03 63.53,21.26Z" data-reg="32" data-libgeo="Hauts-de-France"/>
<path d="M86.71,58.77 86.31,58.63 85.60,58.97 85.65,59.32 84.75,59.18 84.74,58.82 83.75,58.78 83.57,59.78 84.32,59.86 84.44,60.39 84.70,60.52 84.68,61.41 84.31,61.24 83.91,61.44 83.01,61.34 82.50,61.79 82.29,61.59 81.69,61.94 81.49,62.47 80.93,62.49 80.65,62.91 80.79,63.17 80.52,63.52 80.06,63.67 79.42,63.54 79.47,63.94 79.09,64.67 79.32,64.76 79.14,65.48 78.43,65.21 77.89,65.82 77.97,66.39 78.33,66.83 79.27,66.87 79.19,67.08 79.66,67.68 79.75,68.30 78.94,68.40 78.69,68.97 78.05,69.13 77.91,68.77 77.52,68.70 77.53,68.26 76.59,67.96 75.99,68.06 75.79,67.43 75.26,67.39 75.14,67.14 74.20,67.62 73.75,67.66 73.33,67.94 73.26,67.30 72.95,66.95 72.33,67.00 72.11,67.53 72.65,68.41 72.54,69.29 72.87,69.45 73.54,70.29 73.54,70.52 72.43,71.61 72.06,71.78 72.13,72.68 71.77,73.71 71.27,73.48 70.91,73.57 70.47,74.36 70.32,75.05 69.91,75.19 69.13,75.67 69.02,76.11 71.26,76.20 71.58,76.38 71.61,77.16 72.31,77.33 73.11,77.32 73.63,77.47 73.64,76.71 74.17,76.40 74.52,76.67 74.99,76.72 75.09,76.11 74.74,76.01 74.81,75.37 75.50,75.42 75.77,76.13 76.10,75.83 76.36,76.19 75.84,76.66 74.62,76.87 74.99,77.52 76.38,77.51 77.00,77.17 77.38,77.69 77.24,78.02 77.42,78.81 78.61,78.75 79.13,79.30 79.42,79.00 79.82,79.49 80.64,79.79 80.65,80.32 81.01,80.52 81.58,79.76 82.11,79.92 82.24,80.19 83.20,80.19 83.41,79.87 84.10,79.74 84.70,80.07 84.79,79.56 85.82,79.36 86.13,79.03 86.92,78.93 87.06,78.05 86.97,77.63 87.56,76.51 87.88,76.66 88.62,76.45 89.04,75.86 88.97,75.50 89.27,75.18 89.84,75.18 90.33,74.77 90.67,74.01 92.47,73.19 93.22,72.68 93.13,71.71 93.58,71.41 93.74,70.88 94.24,70.65 94.31,70.09 94.59,69.95 94.71,69.52 94.38,69.10 94.48,68.55 93.96,68.80 93.15,68.87 92.54,69.18 92.06,69.13 91.95,68.84 91.51,68.90 90.81,68.28 90.48,68.27 89.42,67.75 89.39,67.43 88.89,66.86 88.64,65.95 88.96,65.75 88.44,65.17 88.36,64.83 88.94,64.35 89.16,63.26 89.66,63.12 89.43,62.10 89.45,61.55 88.92,61.33 88.44,61.46 87.99,61.19 87.58,60.72 87.70,60.33 87.54,59.74 87.02,59.69 86.71,58.77 M73.73,66.75 73.89,67.16 74.60,67.30 74.90,66.56 74.61,65.93 74.09,66.09 73.73,66.75Z" data-reg="93" data-libgeo="Provence-Alpes-Côte d'Azur"/>
<path d="M69.04,10.68 69.21,11.19 68.86,12.35 69.16,12.58 68.69,13.13 68.26,13.33 68.17,13.74 67.53,13.91 67.89,14.35 67.68,14.60 67.59,16.37 66.37,15.92 66.24,16.51 65.87,16.38 64.73,16.79 64.91,17.58 64.80,17.79 65.41,18.32 64.56,18.37 64.73,19.43 64.53,20.16 64.18,20.61 63.85,20.68 63.53,21.26 63.20,21.92 63.42,22.36 63.42,22.86 63.20,23.09 63.66,23.66 63.52,24.19 63.06,24.50 62.82,24.90 63.01,25.75 63.62,25.95 63.96,26.43 64.29,26.62 64.88,28.20 65.27,28.04 65.67,28.30 66.70,29.81 66.59,30.20 67.45,30.26 68.55,29.96 69.48,30.30 69.60,29.95 70.40,29.88 70.62,30.00 71.40,29.88 71.60,29.28 72.48,29.33 73.14,29.49 73.12,29.92 73.55,29.95 74.36,30.88 74.62,31.48 74.39,31.96 74.36,32.52 75.50,33.03 75.98,33.01 76.46,33.36 77.31,33.60 77.69,32.79 78.25,32.68 79.09,32.80 79.79,32.68 79.71,31.84 80.08,31.37 80.56,31.08 80.97,30.49 81.46,30.09 82.08,30.00 82.30,29.58 83.03,29.33 83.30,30.04 83.82,30.23 84.11,30.02 84.75,29.94 85.27,30.13 85.59,30.70 86.07,30.52 86.52,30.11 86.82,30.51 88.33,31.47 88.42,31.68 89.00,31.82 89.53,32.12 89.77,32.81 89.51,33.47 90.06,33.59 90.39,34.48 90.84,34.63 90.73,35.08 92.28,35.18 93.19,34.50 93.10,34.15 93.74,33.71 93.80,33.49 93.29,32.92 93.20,32.54 93.45,32.28 93.36,31.65 93.59,31.06 93.74,30.22 93.97,29.66 93.62,29.22 93.69,28.39 94.35,27.37 94.54,26.62 94.90,26.40 94.84,25.67 95.09,24.80 95.36,24.55 95.33,23.84 95.62,23.30 96.01,23.08 96.53,22.52 96.57,22.22 97.40,21.79 97.78,20.95 98.31,20.21 97.32,19.86 96.30,19.27 95.83,19.51 95.29,19.19 95.10,19.37 94.40,19.40 94.08,19.13 93.33,18.89 92.72,18.05 92.12,18.17 92.11,18.43 91.63,18.70 91.24,18.58 90.61,18.67 90.09,18.57 89.85,18.75 89.59,17.97 88.83,17.71 88.21,18.37 87.51,18.25 87.15,17.71 87.14,17.43 86.25,16.51 86.50,16.30 86.15,15.79 85.22,15.25 84.75,15.42 83.84,14.90 83.20,15.01 82.97,15.28 81.87,15.36 81.81,15.11 81.06,15.02 80.40,14.43 80.28,14.62 79.60,14.53 79.23,14.77 78.80,14.75 78.38,14.97 77.99,14.86 77.83,14.10 77.25,13.78 76.66,13.16 75.91,13.19 75.21,12.54 74.46,12.16 74.02,12.31 73.60,11.66 73.89,11.14 73.36,10.34 73.59,9.33 73.92,9.00 73.40,8.77 72.50,9.38 72.37,10.21 70.61,10.87 69.59,10.57 69.04,10.68Z" data-reg="44" data-libgeo="Grand-Est"/>
<path d="M35.54,82.65 36.26,83.22 36.71,83.26 37.38,84.30 37.86,84.42 39.15,83.87 39.77,84.09 40.04,84.54 40.50,84.04 41.00,84.37 41.73,84.24 42.78,84.38 42.88,84.17 42.62,83.38 42.71,82.77 43.07,82.52 43.60,82.80 44.17,82.91 44.71,83.30 44.92,83.12 45.98,83.48 46.45,84.17 47.85,84.05 48.27,84.76 49.27,84.74 49.63,85.04 50.64,85.18 50.72,85.75 50.60,86.50 51.15,86.53 52.15,87.18 52.35,87.73 52.76,87.99 53.22,87.89 53.54,87.37 54.06,87.33 54.48,87.09 55.64,87.60 56.13,88.14 56.56,88.23 56.85,87.96 57.52,88.15 57.40,87.63 57.87,87.28 58.29,87.38 58.76,86.88 59.40,86.87 60.26,86.70 60.58,87.22 61.24,87.12 60.97,86.27 60.33,85.99 60.23,85.18 60.24,83.23 60.40,81.92 60.26,81.79 60.44,80.80 60.71,80.15 61.26,79.26 62.05,78.45 62.82,77.98 63.76,78.06 64.67,76.95 65.88,76.26 66.64,75.50 67.38,75.13 68.07,75.10 68.16,75.62 68.44,75.93 69.02,76.11 69.13,75.67 69.91,75.19 70.32,75.05 70.47,74.36 70.91,73.57 71.27,73.48 71.77,73.71 72.13,72.68 72.06,71.78 72.43,71.61 73.54,70.52 73.54,70.29 72.87,69.45 72.54,69.29 72.65,68.41 72.11,67.53 71.45,67.20 71.06,66.81 70.65,66.86 70.57,67.39 70.28,67.35 70.30,66.87 69.73,66.82 69.23,67.60 68.40,67.08 68.26,66.83 67.71,67.04 67.83,66.12 67.31,65.55 66.98,64.42 66.76,64.37 66.36,63.26 66.39,62.61 65.64,61.95 65.45,61.63 64.87,61.69 64.78,61.22 64.35,61.19 64.29,61.62 63.48,61.89 62.98,60.76 62.70,60.32 61.63,60.85 61.29,61.32 61.01,60.92 60.72,61.08 60.31,61.95 60.31,62.35 59.78,63.61 59.47,63.06 59.49,62.23 59.17,62.13 58.89,61.45 58.51,61.22 58.02,60.53 57.03,61.54 57.01,62.06 56.75,62.22 56.70,62.77 56.27,63.17 56.20,63.48 55.80,63.67 55.00,63.35 53.83,63.66 53.91,63.30 53.67,62.82 53.82,61.87 53.21,61.08 53.39,60.84 53.05,60.15 51.91,60.14 51.29,60.66 50.78,60.52 50.02,59.65 49.20,59.44 48.23,59.84 48.48,60.78 48.46,61.21 47.88,61.57 47.90,61.87 47.43,62.02 47.59,62.38 47.33,62.88 46.82,63.21 46.32,63.34 46.33,63.73 45.32,64.74 45.37,65.70 45.64,65.88 45.58,66.57 44.38,66.53 44.28,67.11 44.86,67.48 44.41,68.78 44.24,69.05 43.71,68.85 43.30,69.73 42.86,70.07 42.28,69.56 42.02,69.75 41.24,69.80 41.11,70.08 40.49,70.21 40.05,70.46 39.42,70.15 39.07,70.46 38.40,70.57 38.08,71.44 37.31,70.95 36.92,70.97 36.23,71.53 36.46,72.15 36.18,72.41 36.42,73.17 36.00,73.48 36.06,74.04 35.80,74.45 36.34,74.80 37.14,74.81 37.23,75.23 37.52,75.42 37.34,76.40 37.92,76.52 37.83,77.05 37.51,77.82 37.73,78.12 37.32,78.63 36.80,79.61 36.46,79.80 36.39,80.55 35.94,80.63 35.69,81.12 35.79,81.65 35.44,81.93 35.54,82.65Z" data-reg="76" data-libgeo="Occitanie"/>
<path d="M48.03,9.66 46.71,10.55 45.72,10.98 44.95,11.04 43.52,11.49 43.04,11.49 42.07,11.70 40.56,12.49 40.23,12.73 39.38,12.99 39.06,13.27 38.98,13.65 38.34,14.92 38.74,15.38 39.85,15.54 38.67,16.04 38.18,16.48 37.19,16.99 36.21,17.08 35.60,16.95 34.80,16.60 34.03,16.51 33.44,16.56 31.59,16.35 31.07,16.07 29.97,16.08 29.63,16.34 28.63,15.22 28.23,14.66 28.79,13.84 28.47,13.27 27.77,13.06 27.37,13.09 26.89,13.43 25.91,13.68 25.17,13.31 24.42,13.22 23.56,12.87 23.50,13.36 24.14,13.60 24.28,14.34 23.95,14.77 24.20,14.93 24.41,15.96 25.26,16.77 25.76,17.70 26.01,17.94 26.12,18.53 25.98,19.02 26.34,20.03 26.34,20.67 26.07,21.42 26.25,21.55 26.25,22.22 26.69,22.73 27.47,23.28 26.95,23.52 26.28,23.45 26.52,23.71 26.64,24.27 26.94,24.80 27.66,25.10 28.43,24.58 28.59,24.26 29.97,24.59 30.46,24.78 30.80,24.52 31.51,24.66 32.12,25.01 33.03,25.21 33.63,24.98 34.10,24.59 34.58,24.54 35.13,24.73 35.76,24.61 36.33,24.07 36.77,25.10 37.47,25.13 37.45,25.86 37.87,25.69 38.31,25.82 38.72,25.29 39.12,25.02 40.07,24.87 40.49,25.10 40.67,26.29 41.48,26.78 41.80,27.12 42.46,27.16 42.65,26.98 43.29,27.71 43.73,27.66 43.97,27.47 43.42,26.63 43.64,26.23 44.55,25.94 45.05,25.27 44.79,25.09 44.98,24.44 44.73,24.14 44.11,23.85 43.87,23.55 43.95,22.92 44.28,22.60 44.94,22.48 46.38,22.06 47.67,22.13 48.00,21.86 47.89,21.43 48.64,21.02 48.54,20.57 48.91,20.40 48.51,19.38 49.68,19.01 50.06,18.56 50.21,17.77 50.41,17.59 50.91,17.00 50.82,16.29 50.52,16.03 50.55,15.66 50.94,15.30 50.42,14.12 50.44,13.63 50.76,13.30 50.49,13.04 50.96,12.45 50.63,12.05 50.47,11.36 50.18,11.03 49.66,10.81 49.02,10.16 48.03,9.66Z" data-reg="28" data-libgeo="Normandie"/>
<path d="M29.71,46.41 29.65,46.90 28.78,47.92 29.27,48.17 30.01,49.12 29.87,49.65 29.94,50.47 29.70,50.97 29.25,51.19 29.34,51.63 28.69,51.86 28.73,52.59 29.63,53.22 30.51,53.73 30.57,53.96 31.60,54.75 31.94,55.15 32.44,56.09 32.91,58.15 32.93,58.59 33.16,59.14 33.50,59.47 33.37,59.75 32.82,59.09 32.35,57.76 32.19,56.91 31.93,56.30 30.97,55.32 29.74,54.31 29.36,54.90 29.29,56.78 28.83,61.48 28.63,62.93 29.19,62.57 29.28,62.22 30.06,62.94 30.35,63.56 29.77,63.64 29.05,63.46 28.97,63.95 28.59,64.76 28.64,65.23 28.18,68.87 27.72,71.30 27.25,73.48 27.20,74.14 26.64,75.38 26.06,76.40 25.57,76.88 24.65,77.04 25.05,77.50 25.89,77.80 25.93,78.27 26.24,78.36 26.55,77.89 27.66,78.32 27.63,79.01 27.41,79.67 27.01,80.06 27.23,80.54 27.87,80.73 28.21,80.29 28.66,80.58 29.63,80.78 30.36,81.10 30.67,81.43 31.88,81.56 32.31,81.40 32.45,82.12 33.40,82.83 33.79,83.41 34.09,82.92 34.60,83.23 34.95,83.18 35.54,82.65 35.44,81.93 35.79,81.65 35.69,81.12 35.94,80.63 36.39,80.55 36.46,79.80 36.80,79.61 37.32,78.63 37.73,78.12 37.51,77.82 37.83,77.05 37.92,76.52 37.34,76.40 37.52,75.42 37.23,75.23 37.14,74.81 36.34,74.80 35.80,74.45 36.06,74.04 36.00,73.48 36.42,73.17 36.18,72.41 36.46,72.15 36.23,71.53 36.92,70.97 37.31,70.95 38.08,71.44 38.40,70.57 39.07,70.46 39.42,70.15 40.05,70.46 40.49,70.21 41.11,70.08 41.24,69.80 42.02,69.75 42.28,69.56 42.86,70.07 43.30,69.73 43.71,68.85 44.24,69.05 44.41,68.78 44.86,67.48 44.28,67.11 44.38,66.53 45.58,66.57 45.64,65.88 45.37,65.70 45.32,64.74 46.33,63.73 46.32,63.34 46.82,63.21 47.33,62.88 47.59,62.38 47.43,62.02 47.90,61.87 47.88,61.57 48.46,61.21 48.48,60.78 48.23,59.84 49.20,59.44 50.02,59.65 50.78,60.52 51.29,60.66 51.91,60.14 53.05,60.15 53.63,59.85 53.29,59.33 53.86,59.06 54.17,58.25 53.99,57.80 54.57,56.90 55.16,56.51 55.31,55.60 55.87,55.94 56.18,55.58 56.42,54.54 56.39,54.18 56.03,53.78 56.15,53.31 56.47,53.13 56.44,52.59 55.79,51.99 55.47,51.43 56.49,50.64 56.96,49.71 56.62,48.46 56.77,48.14 56.48,47.73 56.39,47.18 56.04,46.69 55.48,46.25 54.91,46.20 54.91,45.80 54.66,45.34 54.43,45.28 53.12,45.34 52.54,45.23 51.26,45.24 51.10,44.98 50.58,45.65 50.26,45.36 49.97,45.68 49.09,45.27 48.46,45.98 47.84,45.54 47.53,45.80 46.97,45.88 46.53,45.70 46.79,45.21 46.34,45.05 46.30,44.48 46.01,44.21 45.38,44.17 44.60,43.56 44.44,43.26 44.67,42.53 44.45,42.14 43.83,41.55 43.66,40.98 43.05,40.48 42.94,39.75 42.10,39.45 42.26,39.93 41.55,39.93 41.08,40.20 40.55,40.00 40.14,40.12 40.05,38.96 38.85,38.28 38.41,38.26 38.25,37.86 37.99,37.74 37.58,38.24 37.63,38.54 36.53,38.80 36.52,38.41 36.03,38.45 34.89,38.79 33.74,38.86 33.46,39.52 32.60,39.63 32.16,39.45 31.34,39.86 31.74,40.17 31.82,40.69 32.09,41.07 32.63,41.31 32.50,41.86 33.02,42.51 33.31,43.29 33.41,44.19 33.15,44.31 33.36,45.40 33.88,45.68 33.73,45.94 32.71,46.30 32.53,46.53 31.90,46.16 30.97,46.44 30.38,45.99 29.71,46.41 M26.99,47.54 27.88,48.03 28.40,48.14 28.34,47.72 27.80,47.50 27.33,47.52 26.69,46.99 26.38,47.24 26.54,47.54 26.99,47.54 M28.88,50.58 28.75,49.79 28.16,49.68 27.76,49.31 27.64,50.10 28.50,50.82 28.78,51.64 29.04,51.35 29.09,50.77 28.88,50.58Z" data-reg="75" data-libgeo="Nouvelle Aquitaine"/>
<path d="M54.66,45.34 54.84,44.78 55.30,44.35 56.25,44.19 56.62,44.26 57.12,43.98 56.98,43.13 57.96,42.02 58.18,42.33 58.69,42.16 59.67,41.47 60.19,41.56 60.47,40.97 60.33,40.44 60.54,39.96 60.52,39.31 60.15,38.90 60.17,38.21 59.82,37.28 59.83,36.89 59.00,36.07 59.45,35.09 59.13,34.41 58.81,34.06 59.54,33.59 59.39,32.72 58.87,32.31 58.99,31.89 59.47,31.91 60.16,31.53 60.05,31.20 60.09,30.48 60.89,29.88 60.61,29.04 60.33,28.86 60.17,28.26 59.49,27.96 58.98,28.04 58.47,27.92 57.80,28.34 57.33,28.22 55.98,28.22 56.44,27.65 56.32,27.23 55.68,26.95 55.56,26.42 55.23,26.54 54.34,26.47 53.80,26.64 52.38,26.74 52.29,26.54 52.42,25.65 52.12,25.31 51.45,25.20 51.12,25.01 50.93,24.54 51.02,24.15 50.45,23.92 49.66,23.09 49.49,22.70 49.84,22.26 49.47,21.93 49.60,21.38 49.19,20.58 48.91,20.40 48.54,20.57 48.64,21.02 47.89,21.43 48.00,21.86 47.67,22.13 46.38,22.06 44.94,22.48 44.28,22.60 43.95,22.92 43.87,23.55 44.11,23.85 44.73,24.14 44.98,24.44 44.79,25.09 45.05,25.27 44.55,25.94 43.64,26.23 43.42,26.63 43.97,27.47 43.73,27.66 44.36,27.98 43.77,28.87 43.73,29.20 44.10,30.14 43.45,30.56 43.56,31.14 42.84,31.84 42.13,32.40 42.30,32.73 40.98,33.34 40.64,33.83 40.23,33.59 39.55,33.43 39.32,34.09 39.47,34.49 39.19,34.97 39.21,35.27 38.87,36.14 38.48,36.61 38.25,37.86 38.41,38.26 38.85,38.28 40.05,38.96 40.14,40.12 40.55,40.00 41.08,40.20 41.55,39.93 42.26,39.93 42.10,39.45 42.94,39.75 43.05,40.48 43.66,40.98 43.83,41.55 44.45,42.14 44.67,42.53 44.44,43.26 44.60,43.56 45.38,44.17 46.01,44.21 46.30,44.48 46.34,45.05 46.79,45.21 46.53,45.70 46.97,45.88 47.53,45.80 47.84,45.54 48.46,45.98 49.09,45.27 49.97,45.68 50.26,45.36 50.58,45.65 51.10,44.98 51.26,45.24 52.54,45.23 53.12,45.34 54.43,45.28 54.66,45.34Z" data-reg="24" data-libgeo="Centre-Val de Loire"/>
<path d="M90.39,34.48 90.06,33.59 89.51,33.47 89.77,32.81 89.53,32.12 89.00,31.82 88.42,31.68 88.33,31.47 86.82,30.51 86.52,30.11 86.07,30.52 85.59,30.70 85.27,30.13 84.75,29.94 84.11,30.02 83.82,30.23 83.30,30.04 83.03,29.33 82.30,29.58 82.08,30.00 81.46,30.09 80.97,30.49 80.56,31.08 80.08,31.37 79.71,31.84 79.79,32.68 79.09,32.80 78.25,32.68 77.69,32.79 77.31,33.60 76.46,33.36 75.98,33.01 75.50,33.03 74.36,32.52 74.39,31.96 74.62,31.48 74.36,30.88 73.55,29.95 73.12,29.92 73.14,29.49 72.48,29.33 71.60,29.28 71.40,29.88 70.62,30.00 70.40,29.88 69.60,29.95 69.48,30.30 68.55,29.96 67.45,30.26 66.59,30.20 66.70,29.81 65.67,28.30 65.27,28.04 64.88,28.20 64.29,26.62 63.96,26.43 63.62,25.95 63.01,25.75 62.65,25.92 62.04,25.83 61.83,25.99 61.22,25.87 60.29,26.08 60.07,26.56 60.29,26.91 59.99,27.53 59.49,27.96 60.17,28.26 60.33,28.86 60.61,29.04 60.89,29.88 60.09,30.48 60.05,31.20 60.16,31.53 59.47,31.91 58.99,31.89 58.87,32.31 59.39,32.72 59.54,33.59 58.81,34.06 59.13,34.41 59.45,35.09 59.00,36.07 59.83,36.89 59.82,37.28 60.17,38.21 60.15,38.90 60.52,39.31 60.54,39.96 60.33,40.44 60.47,40.97 60.19,41.56 60.32,41.92 60.93,42.26 61.46,42.73 61.93,42.36 62.27,42.62 63.16,42.39 63.25,42.91 63.55,42.92 64.01,42.37 64.56,42.15 64.89,42.78 65.28,43.24 65.42,44.14 66.30,44.61 67.02,44.63 67.37,45.10 67.16,45.57 67.21,46.37 66.68,46.59 66.52,47.43 67.12,47.55 67.53,47.89 68.09,47.59 68.31,47.80 69.23,47.73 69.22,48.01 70.06,47.68 70.32,46.60 70.70,46.59 71.04,46.89 71.65,46.88 72.13,46.51 72.33,46.97 72.76,47.24 72.63,47.63 73.07,47.69 73.88,45.49 73.90,45.11 74.22,44.39 74.58,44.38 75.11,44.70 75.97,44.39 76.58,45.01 76.98,45.07 77.01,45.45 77.47,45.73 77.45,46.03 77.92,46.40 78.18,46.91 78.69,46.87 79.48,46.15 79.96,46.47 80.04,46.96 80.98,46.95 81.39,46.72 81.92,46.00 82.53,45.38 82.60,44.89 83.22,44.07 82.88,43.76 84.03,42.75 85.23,41.94 85.49,40.60 85.25,40.21 85.72,39.76 86.73,39.52 87.52,38.41 88.39,37.85 88.56,37.49 89.10,37.07 89.05,36.59 89.77,36.24 89.79,35.88 88.54,35.92 88.98,35.44 88.99,35.17 89.43,34.98 89.31,34.57 90.39,34.48Z" data-reg="27" data-libgeo="Bourgogne-Franche-Comté"/>
<path d="M26.28,23.45 24.82,23.68 24.30,23.57 24.06,23.26 24.23,22.75 23.57,22.78 22.90,23.26 22.14,23.36 21.61,23.89 21.00,23.04 20.67,23.01 19.44,23.63 19.06,23.72 18.40,24.45 17.97,24.63 17.74,24.11 17.06,23.76 17.02,23.25 16.13,22.50 16.26,22.19 15.62,22.08 15.66,21.76 14.12,21.12 13.60,21.45 12.50,21.78 11.96,21.42 11.44,22.06 11.68,22.40 11.20,22.90 9.96,22.72 9.45,22.86 9.41,23.39 8.73,23.13 8.44,22.50 7.94,22.87 7.55,22.78 6.97,22.90 6.75,23.23 6.35,23.22 5.80,22.96 4.95,23.45 4.57,23.37 4.24,23.72 2.84,24.25 2.64,24.68 2.76,24.95 2.53,25.49 2.77,25.91 2.68,26.34 3.11,26.33 3.37,26.08 3.75,26.26 5.18,25.69 5.08,26.38 5.95,26.22 6.10,26.65 5.67,26.84 5.24,26.71 4.67,26.81 4.18,27.07 4.55,27.67 4.97,27.23 6.14,27.66 6.38,28.25 6.11,28.69 5.63,28.49 4.94,28.59 3.41,28.97 4.18,29.57 4.69,29.55 5.28,29.96 5.57,30.38 5.82,31.15 5.67,31.58 6.96,31.57 7.17,31.06 7.55,30.90 8.06,31.08 8.51,31.00 8.76,30.58 9.35,31.43 9.83,31.66 10.36,31.51 10.73,31.77 11.82,31.85 12.45,32.57 13.15,32.43 13.65,32.67 14.57,33.45 14.76,34.09 15.36,33.74 15.71,33.85 16.12,33.44 16.44,33.61 16.86,33.33 17.34,33.31 17.84,33.70 17.57,34.13 16.40,33.95 17.10,34.64 18.40,34.35 19.30,34.24 19.88,34.52 19.73,35.03 20.77,34.90 20.93,34.41 21.32,34.57 22.38,34.18 22.36,33.56 22.50,33.03 23.22,32.69 24.11,32.46 25.30,32.52 25.63,32.42 25.89,31.91 26.99,31.52 27.04,31.20 27.58,31.25 27.81,31.54 28.67,31.77 29.09,30.84 29.39,29.88 29.56,29.70 30.33,29.61 30.31,28.89 30.12,28.69 29.93,27.59 29.73,27.00 30.15,26.35 29.89,25.48 29.97,24.59 28.59,24.26 28.43,24.58 27.66,25.10 26.94,24.80 26.64,24.27 26.52,23.71 26.28,23.45 M14.58,36.57 15.08,36.70 15.31,36.38 14.66,36.16 14.59,35.89 13.82,35.78 13.91,36.33 14.58,36.57Z" data-reg="53" data-libgeo="Bretagne"/>
<path d="M102.68,92.90 102.47,93.93 101.86,94.61 102.12,94.87 103.27,95.18 103.26,95.68 102.67,95.88 102.61,96.69 103.00,96.82 103.30,97.23 103.89,97.43 104.67,97.88 105.09,98.45 105.79,98.79 106.08,98.27 105.96,97.92 106.29,97.51 106.40,96.83 106.88,96.26 106.29,96.13 107.02,95.61 107.17,94.41 107.09,93.24 107.22,92.35 108.21,90.74 108.29,88.75 108.09,87.68 108.17,87.21 108.10,85.92 107.47,84.62 107.72,82.80 107.59,81.19 107.28,80.91 106.68,81.09 106.82,81.86 106.55,82.11 106.46,82.84 106.69,83.20 106.71,83.87 106.55,84.29 106.21,84.35 105.88,84.04 105.09,83.92 104.59,84.35 104.32,84.86 103.57,84.94 102.76,85.35 102.57,85.81 102.16,85.75 101.71,86.28 101.78,86.68 101.62,87.34 100.89,87.82 101.43,88.24 101.88,88.99 101.30,89.11 101.03,89.37 101.19,90.44 101.97,90.64 102.25,91.42 101.64,91.76 101.71,92.09 101.17,92.25 101.30,92.80 102.68,92.90Z" data-reg="94" data-libgeo="Corse"/>
<path d="M19.73,35.03 19.76,35.21 19.00,35.76 19.40,36.25 19.31,36.65 19.83,36.88 20.23,36.69 20.93,37.15 21.88,36.81 21.86,37.86 21.28,38.16 22.72,38.55 23.25,39.23 22.92,39.40 22.68,39.99 21.96,40.63 22.07,41.32 22.68,41.76 23.52,42.55 24.16,43.41 24.49,44.59 25.66,45.32 26.80,45.59 27.05,46.13 28.01,46.19 28.92,46.86 29.25,46.36 29.71,46.41 30.38,45.99 30.97,46.44 31.90,46.16 32.53,46.53 32.71,46.30 33.73,45.94 33.88,45.68 33.36,45.40 33.15,44.31 33.41,44.19 33.31,43.29 33.02,42.51 32.50,41.86 32.63,41.31 32.09,41.07 31.82,40.69 31.74,40.17 31.34,39.86 32.16,39.45 32.60,39.63 33.46,39.52 33.74,38.86 34.89,38.79 36.03,38.45 36.52,38.41 36.53,38.80 37.63,38.54 37.58,38.24 37.99,37.74 38.25,37.86 38.48,36.61 38.87,36.14 39.21,35.27 39.19,34.97 39.47,34.49 39.32,34.09 39.55,33.43 40.23,33.59 40.64,33.83 40.98,33.34 42.30,32.73 42.13,32.40 42.84,31.84 43.56,31.14 43.45,30.56 44.10,30.14 43.73,29.20 43.77,28.87 44.36,27.98 43.73,27.66 43.29,27.71 42.65,26.98 42.46,27.16 41.80,27.12 41.48,26.78 40.67,26.29 40.49,25.10 40.07,24.87 39.12,25.02 38.72,25.29 38.31,25.82 37.87,25.69 37.45,25.86 37.47,25.13 36.77,25.10 36.33,24.07 35.76,24.61 35.13,24.73 34.58,24.54 34.10,24.59 33.63,24.98 33.03,25.21 32.12,25.01 31.51,24.66 30.80,24.52 30.46,24.78 29.97,24.59 29.89,25.48 30.15,26.35 29.73,27.00 29.93,27.59 30.12,28.69 30.31,28.89 30.33,29.61 29.56,29.70 29.39,29.88 29.09,30.84 28.67,31.77 27.81,31.54 27.58,31.25 27.04,31.20 26.99,31.52 25.89,31.91 25.63,32.42 25.30,32.52 24.11,32.46 23.22,32.69 22.50,33.03 22.36,33.56 22.38,34.18 21.32,34.57 20.93,34.41 20.77,34.90 19.73,35.03Z" data-reg="52" data-libgeo="Pays de la Loire"/>
<path d="M63.53,21.26 62.76,21.03 62.20,20.32 61.19,19.71 61.30,19.23 61.17,18.87 60.49,18.69 60.43,19.00 58.99,19.15 58.55,18.89 58.15,19.24 57.79,19.20 57.22,18.84 56.88,19.05 56.06,18.52 55.63,18.36 54.70,18.29 54.23,18.36 53.14,17.82 52.58,18.14 51.73,18.26 51.14,18.05 50.67,18.09 50.41,17.59 50.21,17.77 50.06,18.56 49.68,19.01 48.51,19.38 48.91,20.40 49.19,20.58 49.60,21.38 49.47,21.93 49.84,22.26 49.49,22.70 49.66,23.09 50.45,23.92 51.02,24.15 50.93,24.54 51.12,25.01 51.45,25.20 52.12,25.31 52.42,25.65 52.29,26.54 52.38,26.74 53.80,26.64 54.34,26.47 55.23,26.54 55.56,26.42 55.68,26.95 56.32,27.23 56.44,27.65 55.98,28.22 57.33,28.22 57.80,28.34 58.47,27.92 58.98,28.04 59.49,27.96 59.99,27.53 60.29,26.91 60.07,26.56 60.29,26.08 61.22,25.87 61.83,25.99 62.04,25.83 62.65,25.92 63.01,25.75 62.82,24.90 63.06,24.50 63.52,24.19 63.66,23.66 63.20,23.09 63.42,22.86 63.42,22.36 63.20,21.92 63.53,21.26Z" data-reg="11" data-libgeo="Île-de-France"/>
<path d="M8.21,93.68 8.49,94.19 9.11,94.39 10.54,93.84 11.45,93.66 11.40,93.05 11.11,92.84 10.08,92.54 9.79,92.02 9.88,91.48 9.72,90.94 9.05,90.44 8.37,91.13 8.46,91.87 8.80,92.11 8.45,92.58 8.19,93.25 8.21,93.68 M7.36,93.43 7.10,92.82 6.44,92.61 6.07,92.29 5.69,92.48 5.42,93.07 5.42,93.78 5.60,94.02 5.76,96.11 6.01,96.73 6.35,97.12 6.51,97.57 7.47,97.06 7.93,96.62 8.11,96.25 7.86,94.68 7.81,93.94 8.09,93.91 8.19,93.36 7.36,93.43 M11.76,97.38 11.63,97.11 11.04,96.87 10.52,97.66 10.60,98.24 11.17,98.62 11.99,98.18 12.07,97.81 11.76,97.38Z" data-reg="01" data-libgeo="Guadeloupe"/>
<path d="M19.49,95.54 19.87,95.22 20.17,95.41 21.57,95.60 21.25,96.00 21.66,96.29 22.12,95.48 22.00,94.52 21.74,93.91 21.49,93.76 21.24,93.20 21.30,92.90 20.73,92.86 20.70,91.76 20.39,91.67 19.63,90.74 18.51,90.22 17.82,90.42 17.57,91.05 18.15,91.93 18.12,92.55 18.59,93.29 19.08,93.73 19.94,93.87 20.31,94.28 20.21,94.61 19.41,94.34 19.04,94.68 19.18,95.35 19.49,95.54Z" data-reg="02" data-libgeo="Martinique"/>
<path d="M32.03,90.46 31.54,90.17 30.07,88.67 29.12,88.34 28.68,88.32 27.86,87.88 27.46,87.80 27.30,88.31 26.24,89.67 26.10,90.21 26.24,91.02 26.16,91.50 26.28,92.16 26.78,93.28 27.35,93.88 27.09,94.76 26.74,95.17 26.85,95.78 26.33,97.06 26.07,97.23 25.94,97.75 26.88,98.13 27.44,97.73 27.94,97.56 28.66,97.76 28.98,97.47 29.28,97.75 29.89,98.00 30.73,97.42 31.60,95.39 32.64,93.43 33.34,92.61 33.42,92.21 33.21,91.90 32.97,91.02 32.03,90.46Z" data-reg="03" data-libgeo="Guyane"/>
<path d="M37.22,94.03 37.41,94.40 38.04,94.60 38.74,95.20 39.73,95.60 40.78,95.82 42.28,95.48 42.59,95.08 42.52,94.17 42.59,93.70 42.90,93.13 42.79,92.63 42.28,92.32 41.43,90.96 41.40,90.46 41.01,89.77 40.21,89.39 39.75,89.38 38.65,89.08 38.10,89.18 37.32,89.79 36.86,89.74 36.68,90.79 36.06,91.21 36.21,91.92 36.83,92.83 36.78,93.35 37.22,94.03Z" data-reg="04" data-libgeo="La Réunion"/>
<path d="M45.92,91.18 46.51,91.64 46.62,92.05 46.51,92.49 46.97,92.96 46.62,93.36 46.46,93.90 47.13,94.29 47.31,93.69 47.81,92.74 47.53,92.30 48.06,91.59 48.06,91.23 47.67,90.96 47.15,91.03 46.44,90.17 45.91,90.85 45.92,91.18Z" data-reg="06" data-libgeo="Mayotte"/>
    </svg>
  