<svg width="24" height="24" viewBox="0 0 24 24" fill="none" xmlns="http://www.w3.org/2000/svg">
<path fill-rule="evenodd" clip-rule="evenodd" d="M13 20V23H11V20H13ZM18.364 16.95L20.485 19.071L19.071 20.485L16.95 18.364L18.364 16.95ZM5.636 16.95L7.05 18.364L4.929 20.485L3.515 19.071L5.636 16.95ZM12 6C15.3137 6 18 8.68629 18 12C18 15.3137 15.3137 18 12 18C8.68629 18 6 15.3137 6 12C6 8.68629 8.68629 6 12 6ZM12 8C9.79086 8 8 9.79086 8 12C8 14.2091 9.79086 16 12 16C14.2091 16 16 14.2091 16 12C16 9.79086 14.2091 8 12 8ZM23 11V13H20V11H23ZM4 11V13H1V11H4ZM4.929 3.515L7.05 5.636L5.636 7.05L3.515 4.93V4.929L4.929 3.515ZM19.071 3.514L20.485 4.929L18.364 7.05L16.95 5.636L19.071 3.515V3.514ZM13 1V4H11V1H13Z" fill="#000091"/>
</svg>
