<svg width="44" height="36" viewBox="0 0 44 36" fill="none" xmlns="http://www.w3.org/2000/svg">
<g>
<path d="M32.9136 16.8812L29.3142 16.1381C29.3142 16.1381 28.5943 12.423 22.8063 10.2237C22.576 9.98589 22.3456 9.51036 22.8063 9.03483C24.4189 7.37047 26.7226 6.4194 29.0262 6.4194C33.6335 6.4194 37.3194 10.2237 37.3194 14.979C37.3194 16.1679 37.089 17.1189 36.6283 18.3078C36.3979 18.3078 35.7932 17.6242 32.9136 16.8812Z" fill="#FFCA00"/>
<path d="M23.0363 7.13293C22.8059 7.13293 22.5755 7.13292 22.3452 6.89516L20.0415 4.27974C19.8111 3.8042 19.8111 3.32867 20.0415 3.09091C20.2719 2.85314 20.963 2.85314 21.1933 3.09091L23.497 5.70633C23.7274 5.9441 23.7274 6.65739 23.497 6.89516C23.497 7.13292 23.2666 7.13293 23.0363 7.13293Z" fill="#FFCA00"/>
<path d="M30.869 4.75532C30.4083 4.75532 30.1779 4.27979 30.1779 4.04202V0.713302C30.1779 0.237766 30.6386 0 30.869 0C31.0994 0 31.5601 0.475531 31.5601 0.713302V3.80426C31.7905 4.51755 31.3297 4.75532 30.869 4.75532Z" fill="#FFCA00"/>
<path d="M37.5492 8.79743C37.3188 8.79743 37.0885 8.79743 37.0885 8.55966C36.8581 8.3219 36.8581 7.6086 37.0885 7.37084L39.6225 4.75541C39.8529 4.51765 40.5439 4.51765 40.7743 4.75541C41.0047 4.99318 41.0047 5.70648 40.7743 5.94424L38.0099 8.55966C38.0099 8.79743 37.7796 8.79743 37.5492 8.79743Z" fill="#FFCA00"/>
<path d="M43.0785 14.9792H38.9319C38.4712 14.9792 38.2408 14.5036 38.2408 14.2659C38.2408 13.7904 38.7016 13.3148 39.1623 13.3148H43.3089C43.7696 13.3148 44 13.7904 44 14.0281C44 14.5036 43.5393 14.9792 43.0785 14.9792Z" fill="#FFCA00"/>
<path d="M29.7172 34H8.29312C3.68586 34 0 30.1958 0 25.4404C0 20.6851 3.91622 17.1186 8.29312 17.1186C9.21458 17.1186 9.90568 17.3564 10.8271 17.5942C11.979 13.5522 15.4345 10.699 19.8114 10.699C23.7276 10.699 27.4135 13.5522 28.5653 17.3564C29.0261 17.3564 29.4868 17.3564 29.9475 17.3564C34.5549 17.3564 38.2407 21.1607 38.2407 25.916C38.2407 30.6713 34.3245 34 29.7172 34ZM8.29312 18.783C4.60732 18.783 1.61256 21.874 1.61256 25.6782C1.61256 29.4825 4.83769 32.3356 8.29312 32.3356H29.7172C33.403 32.3356 36.3978 29.2447 36.3978 25.4404C36.3978 21.6362 33.403 18.5452 29.7172 18.5452C29.2564 18.5452 28.5653 18.5452 28.1046 18.783C27.8742 18.783 27.6439 18.783 27.4135 18.783C27.1831 18.783 27.1831 18.5452 26.9528 18.3075C26.2617 14.741 23.0365 12.1256 19.5811 12.1256C15.8952 12.1256 12.6701 14.9787 11.979 18.783C11.979 19.0208 11.7486 19.2585 11.5182 19.2585C11.2879 19.4963 11.0575 19.4963 10.8271 19.2585C10.136 19.0208 9.21458 18.783 8.29312 18.783Z" fill="#6A6AF4"/>
</g>
</svg>
