<svg width="54" height="43" viewBox="0 0 54 43" fill="none" xmlns="http://www.w3.org/2000/svg">
<g filter="url(#filter0_d_1488_57975)">
<path d="M32.52 32H12.12C7.79995 32 4.19995 28.4444 4.19995 24.1778C4.19995 19.9111 7.79995 16.3556 12.12 16.3556C12.84 16.3556 13.8 16.3556 14.52 16.5926C15.48 12.8 19.08 10.1926 22.92 10.1926C26.76 10.1926 30.1199 12.8 31.32 16.3556C31.7999 16.3556 32.0399 16.3556 32.52 16.3556C34.6799 16.3556 36.5999 17.0667 38.04 18.7259C39.4799 20.1482 40.4399 22.0444 40.1999 24.1778C40.1999 28.4444 36.84 32 32.52 32ZM12.12 18.0148C8.51995 18.0148 5.87995 20.8593 5.87995 24.1778C5.87995 27.7333 8.75995 30.3407 12.12 30.3407H32.52C36.1199 30.3407 38.7599 27.4963 38.7599 24.1778C38.7599 22.5185 38.04 20.8593 36.84 19.6741C35.6399 18.4889 33.9599 17.7778 32.2799 17.7778C31.7999 17.7778 31.32 17.7778 30.5999 18.0148C30.3599 18.0148 30.1199 18.0148 30.1199 18.0148C29.8799 18.0148 29.8799 17.7778 29.8799 17.5407C29.1599 14.2222 26.28 11.8519 22.92 11.8519C19.32 11.8519 16.44 14.4593 15.72 17.7778C15.72 18.0148 15.4799 18.2519 15.24 18.2519C15 18.2519 14.76 18.2519 14.52 18.2519C13.8 18.0148 12.84 18.0148 12.12 18.0148Z" fill="#6A6AF4"/>
<path d="M41.88 22.5185C41.4 22.5185 41.16 22.2815 41.16 21.8074C41.16 21.3333 41.4 21.0963 41.88 21.0963C45.48 21.0963 48.12 18.2519 48.12 14.9333C48.12 11.6148 45.24 8.77037 41.88 8.77037C41.4 8.77037 40.92 8.77037 40.2 9.00741C39.96 9.00741 39.72 9.00741 39.72 9.00741C39.48 9.00741 39.48 8.77037 39.48 8.53334C38.76 5.21482 35.64 2.84445 32.28 2.84445C28.68 2.84445 25.8 5.45185 25.08 8.77037C25.08 9.00741 24.84 9.24445 24.6 9.24445C24.36 9.24445 24.12 9.24445 23.88 9.24445C23.16 8.77037 22.44 8.53334 21.48 8.53334C19.08 8.53334 16.92 9.71852 15.96 11.8519C15.72 12.3259 15.24 12.3259 15 12.0889C14.52 12.0889 14.52 11.6148 14.52 11.1407C15.96 8.77037 18.6 7.11111 21.48 7.11111C22.2 7.11111 23.16 7.11111 23.88 7.34815C24.84 3.55556 28.44 0.948151 32.28 0.948151C36.12 0.948151 39.48 3.55556 40.68 7.11111C41.16 7.11111 41.4 7.11111 41.88 7.11111C46.2 7.11111 49.8 10.6667 49.8 14.9333C49.8 19.2 46.2 22.5185 41.88 22.5185Z" fill="#6A6AF4"/>
</g>
<defs>
<filter id="filter0_d_1488_57975" x="-1" y="0" width="56" height="50.6667" filterUnits="userSpaceOnUse" color-interpolation-filters="sRGB">
<feFlood flood-opacity="0" result="BackgroundImageFix"/>
<feColorMatrix in="SourceAlpha" type="matrix" values="0 0 0 0 0 0 0 0 0 0 0 0 0 0 0 0 0 0 127 0" result="hardAlpha"/>
<feOffset dy="4"/>
<feGaussianBlur stdDeviation="2"/>
<feComposite in2="hardAlpha" operator="out"/>
<feColorMatrix type="matrix" values="0 0 0 0 0 0 0 0 0 0 0 0 0 0 0 0 0 0 0.25 0"/>
<feBlend mode="normal" in2="BackgroundImageFix" result="effect1_dropShadow_1488_57975"/>
<feBlend mode="normal" in="SourceGraphic" in2="effect1_dropShadow_1488_57975" result="shape"/>
</filter>
</defs>
</svg>
