<svg width="48" height="36" viewBox="0 0 48 36" fill="none" xmlns="http://www.w3.org/2000/svg">
<g>
<path d="M29.8101 34H8.33673C3.78942 34 0 30.2213 0 25.6869C0 21.1524 3.78942 17.3738 8.33673 17.3738C9.09462 17.3738 10.1051 17.3738 10.863 17.6257C11.8735 13.595 15.663 10.824 19.705 10.824C23.7471 10.824 27.2839 13.595 28.547 17.3738C29.0523 17.3738 29.3049 17.3738 29.8101 17.3738C32.0838 17.3738 34.1048 18.1294 35.6206 19.8929C37.1364 21.4044 38.1469 23.4197 37.8942 25.6869C37.8942 30.2213 34.3574 34 29.8101 34ZM8.33673 19.1371C4.54731 19.1371 1.7684 22.16 1.7684 25.6869C1.7684 29.4655 4.79994 32.2366 8.33673 32.2366H29.8101C33.5996 32.2366 36.3785 29.2136 36.3785 25.6869C36.3785 23.9235 35.6206 22.16 34.3574 20.9005C33.0943 19.641 31.3259 18.8852 29.5575 18.8852C29.0523 18.8852 28.547 18.8852 27.7891 19.1371C27.5365 19.1371 27.2839 19.1371 27.2839 19.1371C27.0312 19.1371 27.0312 18.8852 27.0312 18.6333C26.2733 15.1065 23.2418 12.5874 19.705 12.5874C15.9156 12.5874 12.884 15.3584 12.1262 18.8852C12.1262 19.1371 11.8735 19.3891 11.6209 19.3891C11.3683 19.3891 11.1156 19.3891 10.863 19.3891C10.1051 19.1371 9.09462 19.1371 8.33673 19.1371Z" fill="#6A6AF4"/>
<path d="M39.6633 23.9241C39.158 23.9241 38.9054 23.6721 38.9054 23.1683C38.9054 22.6644 39.158 22.4125 39.6633 22.4125C43.4527 22.4125 46.2316 19.3896 46.2316 15.8629C46.2316 12.3361 43.2001 9.31312 39.6633 9.31312C39.158 9.31312 38.6528 9.31312 37.8949 9.56503C37.6422 9.56503 37.3896 9.56503 37.3896 9.56503C37.137 9.56503 37.137 9.31312 37.137 9.0612C36.3791 5.53443 33.0949 3.0153 29.5581 3.0153C25.7687 3.0153 22.7372 5.78634 21.9793 9.31312C21.9793 9.56503 21.7267 9.81695 21.474 9.81695C21.2214 9.81695 20.9688 9.81695 20.7161 9.81695C19.9583 9.31312 19.2004 9.0612 18.1899 9.0612C15.6636 9.0612 13.3899 10.3208 12.3794 12.588C12.1268 13.0918 11.6215 13.0918 11.3689 12.8399C10.8636 12.8399 10.8636 12.3361 10.8636 11.8323C12.3794 9.31312 15.1583 7.54974 18.1899 7.54974C18.9477 7.54974 19.9583 7.54974 20.7161 7.80164C21.7267 3.77105 25.5161 1 29.5581 1C33.6002 1 37.137 3.77105 38.4001 7.54974C38.9054 7.54974 39.158 7.54974 39.6633 7.54974C44.2106 7.54974 48 11.3284 48 15.8629C48 20.3972 44.2106 23.9241 39.6633 23.9241Z" fill="#6A6AF4"/>
</g>
</svg>
