<svg width="48" height="44" viewBox="0 0 48 44" fill="none" xmlns="http://www.w3.org/2000/svg">
<path d="M14.226 42.8506C13.986 42.8506 13.746 42.8506 13.506 42.6115C13.026 42.1333 13.026 41.6552 13.506 41.177L18.786 35.9172H12.546C12.066 35.9172 11.826 35.6781 11.586 35.4391C11.346 35.2 11.586 34.7218 11.826 34.4827L18.786 27.3103C19.266 26.8322 19.746 26.8322 20.226 27.3103C20.706 27.7885 20.706 28.2666 20.226 28.7448L14.706 34.0046H21.186C21.666 34.0046 21.906 34.2437 22.146 34.4827C22.386 34.7218 22.146 35.2 21.906 35.4391L14.946 42.3724C14.706 42.6115 14.466 42.8506 14.226 42.8506Z" fill="#FFCA00"/>
<path d="M25.68 36.5793C25.44 36.5793 25.2 36.5793 24.96 36.3402C24.48 35.8621 24.48 35.3839 24.96 34.9057L28.08 31.7977H25.44C24.96 31.7977 24.72 31.5586 24.48 31.3195C24.24 31.0805 24.48 30.6023 24.72 30.3632L28.08 27.0161C28.56 26.5379 29.04 26.5379 29.52 27.0161C30 27.4943 30 27.9724 29.52 28.4506L27.84 30.1241H30.48C30.96 30.1241 31.2 30.3632 31.44 30.6023C31.68 30.8414 31.44 31.3195 31.2 31.5586L26.4 36.3402C26.16 36.5793 25.92 36.5793 25.68 36.5793Z" fill="#FFCA00"/>
<path d="M36.9602 28.4505H11.0402C5.5202 28.4505 1.2002 24.147 1.2002 18.6482C1.2002 13.1493 5.5202 8.84589 11.0402 8.84589C12.0002 8.84589 12.9602 9.08497 13.9202 9.32405C15.3602 4.54244 19.6802 1.19531 24.7202 1.19531C29.5202 1.19531 33.8402 4.30336 35.2802 8.84589C35.7602 8.84589 36.2402 8.60681 36.7202 8.60681C42.2402 8.60681 46.5602 12.9103 46.5602 18.4091C46.5602 23.908 42.4802 28.4505 36.9602 28.4505ZM11.0402 10.7585C6.72019 10.7585 3.1202 14.3447 3.1202 18.6482C3.1202 22.9516 6.72019 26.5378 11.0402 26.5378H36.9602C41.2802 26.5378 44.8802 22.9516 44.8802 18.6482C44.8802 14.3447 41.2802 10.7585 36.9602 10.7585C36.2402 10.7585 35.5202 10.7585 35.0402 10.9976C34.8002 10.9976 34.5602 10.9976 34.3202 10.9976C34.0802 10.7585 33.8402 10.7585 33.8402 10.2804C32.8802 6.216 29.0402 3.10796 24.9602 3.10796C20.4002 3.10796 16.5602 6.216 15.8402 10.7585C15.8402 10.9976 15.6002 11.2367 15.3602 11.4758C14.8802 11.4758 14.6402 11.4758 14.4002 11.2367C13.2002 10.9976 12.2402 10.7585 11.0402 10.7585Z" fill="#6A6AF4"/>
</svg>
