<svg width="40" height="36" viewBox="0 0 40 36" fill="none" xmlns="http://www.w3.org/2000/svg">
<g>
<path d="M12.2916 36C12.0908 36 11.89 36 11.6893 35.8045C11.2878 35.4136 11.2878 35.0226 11.6893 34.6316L16.1061 30.3308H10.8862C10.4847 30.3308 10.2839 30.1353 10.0832 29.9398C9.88239 29.7443 10.0832 29.3534 10.2839 29.1579L16.1061 23.2933C16.5077 22.9022 16.9092 22.9022 17.3107 23.2933C17.7122 23.6841 17.7122 24.0752 17.3107 24.4662L12.6931 28.7669H18.1138C18.5153 28.7669 18.7161 28.9624 18.9168 29.1579C19.1176 29.3534 18.9168 29.7443 18.7161 29.9398L12.8939 35.609C12.6931 35.8045 12.4923 36 12.2916 36Z" fill="#FFCA00"/>
<path d="M21.5878 31.4294C21.3762 31.4294 21.1645 31.4294 20.9529 31.2171C20.5296 30.7924 20.5296 30.3676 20.9529 29.9428L23.7042 27.1822H21.3762C20.9529 27.1822 20.7413 26.9698 20.5296 26.7574C20.318 26.545 20.5296 26.1204 20.7413 25.908L23.7042 22.935C24.1275 22.5102 24.5508 22.5102 24.9741 22.935C25.3973 23.3596 25.3973 23.7844 24.9741 24.2091L23.4926 25.6957H25.8206C26.2439 25.6957 26.4555 25.908 26.6672 26.1204C26.8788 26.3328 26.6672 26.7574 26.4555 26.9698L22.2227 31.2171C22.0111 31.4294 21.7995 31.4294 21.5878 31.4294Z" fill="#FFCA00"/>
<path d="M31.5344 24.2093H8.67724C3.80952 24.2093 2.38419e-07 20.3867 2.38419e-07 15.5024C2.38419e-07 10.6181 3.80952 6.79558 8.67724 6.79558C9.5238 6.79558 10.3704 7.00794 11.2169 7.2203C12.4868 2.97306 16.2963 0 20.7407 0C24.9735 0 28.7831 2.76071 30.0529 6.79558C30.4762 6.79558 30.8995 6.58322 31.3227 6.58322C36.1905 6.58322 40 10.4057 40 15.29C40 20.1743 36.4021 24.2093 31.5344 24.2093ZM8.67724 8.49447C4.86772 8.49447 1.69312 11.6799 1.69312 15.5024C1.69312 19.325 4.86772 22.5104 8.67724 22.5104H31.5344C35.3439 22.5104 38.5185 19.325 38.5185 15.5024C38.5185 11.6799 35.3439 8.49447 31.5344 8.49447C30.8995 8.49447 30.2645 8.49447 29.8413 8.70684C29.6296 8.70684 29.418 8.70684 29.2063 8.70684C28.9947 8.49447 28.7831 8.49447 28.7831 8.06975C27.9365 4.4596 24.5503 1.69889 20.9524 1.69889C16.9312 1.69889 13.545 4.4596 12.91 8.49447C12.91 8.70684 12.6984 8.9192 12.4868 9.13156C12.0635 9.13156 11.8518 9.13156 11.6402 8.9192C10.582 8.70684 9.73544 8.49447 8.67724 8.49447Z" fill="#6A6AF4"/>
</g>
</svg>
