<svg width="55" height="44" viewBox="0 0 55 44" fill="none" xmlns="http://www.w3.org/2000/svg">
<g filter="url(#filter0_d_1488_57978)">
<path d="M42.4 19.68H42.16C41.68 19.44 41.44 18.96 41.68 18.48C41.92 17.52 42.16 16.8 42.16 15.84C42.16 12 39.04 8.88 35.2 8.88C33.04 8.88 31.12 9.84 29.92 11.28C29.68 11.52 29.2 11.76 28.72 11.28C28.48 11.04 28.24 10.56 28.72 10.08C30.4 8.4 32.8 7.44 35.2 7.44C40 7.44 43.84 11.28 43.84 16.08C43.84 17.28 43.6 18.24 43.12 19.44C42.88 19.44 42.64 19.68 42.4 19.68Z" fill="#FFCA00"/>
<path d="M28.9599 8.15999C28.7199 8.15999 28.4799 8.15999 28.2399 7.91999L25.8399 5.27999C25.5999 4.79999 25.5999 4.31999 25.8399 4.07999C26.0799 3.83999 26.7999 3.83999 27.0399 4.07999L29.4399 6.71999C29.6799 6.95999 29.6799 7.67999 29.4399 7.91999C29.4399 8.15999 29.1999 8.15999 28.9599 8.15999Z" fill="#FFCA00"/>
<path d="M37.1199 5.75999C36.6399 5.75999 36.3999 5.27999 36.3999 5.03999V1.67999C36.3999 1.19999 36.8799 0.959991 37.1199 0.959991C37.3599 0.959991 37.8399 1.43999 37.8399 1.67999V4.79999C38.0799 5.51999 37.5999 5.75999 37.1199 5.75999Z" fill="#FFCA00"/>
<path d="M44.0799 9.84C43.8399 9.84 43.5999 9.84 43.5999 9.6C43.3599 9.36 43.3599 8.64 43.5999 8.4L46.2399 5.76C46.4799 5.52 47.1999 5.52 47.4399 5.76C47.6799 6 47.6799 6.72 47.4399 6.96L44.5599 9.6C44.5599 9.84 44.3199 9.84 44.0799 9.84Z" fill="#FFCA00"/>
<path d="M49.84 16.08H45.52C45.04 16.08 44.8 15.6 44.8 15.36C44.8 14.88 45.28 14.4 45.76 14.4H50.0801C50.5601 14.4 50.8 14.88 50.8 15.12C50.8 15.6 50.32 16.08 49.84 16.08Z" fill="#FFCA00"/>
<path d="M35.92 35.28H13.6C8.79996 35.28 4.95996 31.44 4.95996 26.64C4.95996 21.84 9.03996 18.24 13.6 18.24C14.56 18.24 15.28 18.48 16.24 18.72C17.44 14.64 21.04 11.76 25.6 11.76C29.68 11.76 33.52 14.64 34.72 18.48C35.2 18.48 35.68 18.48 36.16 18.48C40.96 18.48 44.8 22.32 44.8 27.12C44.8 31.92 40.72 35.28 35.92 35.28ZM13.6 19.92C9.75996 19.92 6.63996 23.04 6.63996 26.88C6.63996 30.72 9.99996 33.6 13.6 33.6H35.92C39.76 33.6 42.88 30.48 42.88 26.64C42.88 22.8 39.76 19.68 35.92 19.68C35.44 19.68 34.72 19.68 34.24 19.92C34 19.92 33.76 19.92 33.52 19.92C33.28 19.92 33.28 19.68 33.04 19.44C32.32 15.84 28.96 13.2 25.36 13.2C21.52 13.2 18.16 16.08 17.44 19.92C17.44 20.16 17.2 20.4 16.96 20.4C16.72 20.64 16.48 20.64 16.24 20.4C15.52 20.16 14.56 19.92 13.6 19.92Z" fill="#6A6AF4"/>
</g>
<defs>
<filter id="filter0_d_1488_57978" x="0" y="0" width="56" height="51.2" filterUnits="userSpaceOnUse" color-interpolation-filters="sRGB">
<feFlood flood-opacity="0" result="BackgroundImageFix"/>
<feColorMatrix in="SourceAlpha" type="matrix" values="0 0 0 0 0 0 0 0 0 0 0 0 0 0 0 0 0 0 127 0" result="hardAlpha"/>
<feOffset dy="4"/>
<feGaussianBlur stdDeviation="2"/>
<feComposite in2="hardAlpha" operator="out"/>
<feColorMatrix type="matrix" values="0 0 0 0 0 0 0 0 0 0 0 0 0 0 0 0 0 0 0.25 0"/>
<feBlend mode="normal" in2="BackgroundImageFix" result="effect1_dropShadow_1488_57978"/>
<feBlend mode="normal" in="SourceGraphic" in2="effect1_dropShadow_1488_57978" result="shape"/>
</filter>
</defs>
</svg>
