<?xml version="1.0" encoding="UTF-8"?>
<svg width="70px" height="70px" viewBox="0 0 70 70" version="1.1" xmlns="http://www.w3.org/2000/svg" xmlns:xlink="http://www.w3.org/1999/xlink">
    <title>B0E40DA3-EC54-482D-9D0D-A173B7610199@3x</title>
    <defs>
        <filter x="-50.0%" y="-42.3%" width="200.0%" height="184.7%" filterUnits="objectBoundingBox" id="filter-1">
            <feOffset dx="0" dy="8" in="SourceAlpha" result="shadowOffsetOuter1"/>
            <feGaussianBlur stdDeviation="8" in="shadowOffsetOuter1" result="shadowBlurOuter1"/>
            <feColorMatrix values="0 0 0 0 0   0 0 0 0 0   0 0 0 0 0  0 0 0 0.1 0" type="matrix" in="shadowBlurOuter1" result="shadowMatrixOuter1"/>
            <feMorphology radius="8" operator="erode" in="SourceAlpha" result="shadowSpreadOuter2"/>
            <feOffset dx="0" dy="8" in="shadowSpreadOuter2" result="shadowOffsetOuter2"/>
            <feGaussianBlur stdDeviation="8" in="shadowOffsetOuter2" result="shadowBlurOuter2"/>
            <feColorMatrix values="0 0 0 0 0   0 0 0 0 0   0 0 0 0 0  0 0 0 0.32 0" type="matrix" in="shadowBlurOuter2" result="shadowMatrixOuter2"/>
            <feMerge>
                <feMergeNode in="shadowMatrixOuter1"/>
                <feMergeNode in="shadowMatrixOuter2"/>
                <feMergeNode in="SourceGraphic"/>
            </feMerge>
        </filter>
    </defs>
    <g id="Home" stroke="none" stroke-width="1" fill="none" fill-rule="evenodd">
        <g id="DITP_Home-Nationale" transform="translate(-950.000000, -414.000000)">
            <rect x="0" y="0" width="1440" height="2034"/>
            <g id="007-cloudy-day" transform="translate(905.000000, 312.000000)">
                <g id="Icon/sunny" transform="translate(45.000000, 102.000000)" fill-rule="nonzero">
                    <g id="038-cloudy-3">
                        <path d="M59.2468641,28.4146309 C59.2468641,38.2226271 51.2957159,46.1737752 41.4877198,46.1737752 C31.6791455,46.1737752 23.7285755,38.2226271 23.7285755,28.4146309 C23.7285755,18.6066346 31.6791455,10.6554866 41.4877198,10.6554866 C51.2957159,10.6554866 59.2468641,18.6066346 59.2468641,28.4146309 Z" id="Path" fill="#FDD020"/>
                        <path d="M41.4877198,7.10365772 C40.8333137,7.10365772 40.3037768,6.57354267 40.3037768,5.91971476 L40.3037768,1.18394295 C40.3037768,0.530115045 40.8333137,0 41.4877198,0 C42.1415475,0 42.6716627,0.530115045 42.6716627,1.18394295 L42.6716627,5.91971476 C42.6716627,6.57354267 42.1415475,7.10365772 41.4877198,7.10365772 Z" id="Path" fill="#FDD020"/>
                        <path d="M68.7184077,29.5985738 L63.9826359,29.5985738 C63.3282298,29.5985738 62.7986929,29.0684588 62.7986929,28.4146309 C62.7986929,27.760803 63.3282298,27.2306879 63.9826359,27.2306879 L68.7184077,27.2306879 C69.3722355,27.2306879 69.9023506,27.760803 69.9023506,28.4146309 C69.9023506,29.0684588 69.3722355,29.5985738 68.7184077,29.5985738 Z" id="Path" fill="#FDD020"/>
                        <path d="M55.6950352,43.8058893 C54.8290456,43.8058893 53.9647903,43.8926039 53.1161437,44.0637207 C52.4761903,40.8697338 50.4071806,38.145162 47.5022423,36.6704362 C44.5978823,35.1957103 41.1772815,35.133854 38.2208928,36.50221 C35.5454592,29.1326274 27.4023827,25.3275921 20.0328003,28.0030257 C12.6632179,30.6790373 8.85818259,38.8221138 11.5336162,46.1916962 C5.07800532,46.3957645 -0.0213895574,51.7385382 0.0751525548,58.1970397 C0.172272875,64.6549628 5.43006645,69.8422285 11.889146,69.8526342 L55.6950352,69.8526342 C62.8871418,69.8526342 68.7184077,64.0219463 68.7184077,56.8292617 C68.7184077,49.6365771 62.8871418,43.8058893 55.6950352,43.8058893 L55.6950352,43.8058893 Z" id="Path" fill="#A3D4F7"/>
                        <g id="Group" transform="translate(18.943087, 5.771722)" fill="#FDD020">
                            <line x1="5.96943119" y1="6.06770763" x2="1.23365938" y2="1.33193582" id="Path"/>
                            <path d="M5.96943119,7.25165059 C5.65494635,7.25165059 5.35433583,7.1267816 5.13234653,6.9047923 L0.396574715,2.16902049 C0.0884488262,1.87187863 -0.0346858287,1.43136853 0.0734183744,1.01745098 C0.182100638,0.603533419 0.505256831,0.280377078 0.919174534,0.172272875 C1.33309194,0.0635907599 1.77302398,0.187303475 2.07074405,0.494851156 L6.80651586,5.23062297 C7.14470265,5.56938782 7.24586969,6.07869152 7.06261278,6.5209358 C6.87935602,6.96318007 6.44809548,7.25165059 5.96943119,7.25165059 Z" id="Path"/>
                            <line x1="39.1198339" y1="6.06770763" x2="43.8556057" y2="1.33193582" id="Path"/>
                            <path d="M39.1198339,7.25165059 C38.6405912,7.25165059 38.2093308,6.96318007 38.0260739,6.5209358 C37.8428172,6.07869152 37.9439842,5.56938782 38.2827492,5.23062297 L43.018521,0.494851156 C43.3156629,0.187303475 43.7555948,0.0635907599 44.1695123,0.172272875 C44.5834299,0.280377078 44.9071643,0.603533419 45.0152685,1.01745098 C45.1233727,1.43136853 45.0002379,1.87187863 44.6926904,2.16902049 L39.9569185,6.9047923 C39.7349292,7.1267816 39.4337405,7.25165059 39.1198339,7.25165059 Z" id="Path"/>
                        </g>
                    </g>
                </g>
            </g>
        </g>
    </g>
</svg>