<?xml version="1.0" encoding="UTF-8"?>
<svg width="70px" height="70px" viewBox="0 0 70 70" version="1.1" xmlns="http://www.w3.org/2000/svg" xmlns:xlink="http://www.w3.org/1999/xlink">
    <title>3078C20C-1C73-43C6-A194-2632E3CED62C@3x</title>
    <defs>
        <filter x="-50.0%" y="-43.7%" width="200.0%" height="187.4%" filterUnits="objectBoundingBox" id="filter-1">
            <feOffset dx="0" dy="8" in="SourceAlpha" result="shadowOffsetOuter1"/>
            <feGaussianBlur stdDeviation="8" in="shadowOffsetOuter1" result="shadowBlurOuter1"/>
            <feColorMatrix values="0 0 0 0 0   0 0 0 0 0   0 0 0 0 0  0 0 0 0.1 0" type="matrix" in="shadowBlurOuter1" result="shadowMatrixOuter1"/>
            <feMorphology radius="8" operator="erode" in="SourceAlpha" result="shadowSpreadOuter2"/>
            <feOffset dx="0" dy="8" in="shadowSpreadOuter2" result="shadowOffsetOuter2"/>
            <feGaussianBlur stdDeviation="8" in="shadowOffsetOuter2" result="shadowBlurOuter2"/>
            <feColorMatrix values="0 0 0 0 0   0 0 0 0 0   0 0 0 0 0  0 0 0 0.32 0" type="matrix" in="shadowBlurOuter2" result="shadowMatrixOuter2"/>
            <feMerge>
                <feMergeNode in="shadowMatrixOuter1"/>
                <feMergeNode in="shadowMatrixOuter2"/>
                <feMergeNode in="SourceGraphic"/>
            </feMerge>
        </filter>
    </defs>
    <g id="Home" stroke="none" stroke-width="1" fill="none" fill-rule="evenodd">
        <g id="DITP_Home-Région" transform="translate(-780.000000, -410.000000)">
            <rect x="0" y="0" width="1440" height="2034"/>
            <g id="036-sun" transform="translate(735.000000, 312.000000)">
                <g id="Icon/sun" transform="translate(45.000000, 98.000000)" fill="#FDD020" fill-rule="nonzero">
                    <g id="039-sun">
                        <path d="M54.8333333,35 C54.8333333,45.9534505 45.9534505,54.8333333 35,54.8333333 C24.0465495,54.8333333 15.1666667,45.9534505 15.1666667,35 C15.1666667,24.0465495 24.0465495,15.1666667 35,15.1666667 C45.9534505,15.1666667 54.8333333,24.0465495 54.8333333,35 Z" id="Path"/>
                        <path d="M35,70 C34.3557129,70 33.8333333,69.4776205 33.8333333,68.8333333 L33.8333333,59.5 C33.8333333,58.8557129 34.3557129,58.3333333 35,58.3333333 C35.6442871,58.3333333 36.1666667,58.8557129 36.1666667,59.5 L36.1666667,68.8333333 C36.1666667,69.4776205 35.6442871,70 35,70 Z" id="Path"/>
                        <path d="M35,11.6666667 C34.3557129,11.6666667 33.8333333,11.1442871 33.8333333,10.5 L33.8333333,1.16666667 C33.8333333,0.522379521 34.3557129,0 35,0 C35.6442871,0 36.1666667,0.522379521 36.1666667,1.16666667 L36.1666667,10.5 C36.1666667,11.1442871 35.6442871,11.6666667 35,11.6666667 Z" id="Path"/>
                        <line x1="17.5" y1="17.5" x2="10.5" y2="10.5" id="Path"/>
                        <path d="M17.5,18.6666667 C17.1906738,18.6666667 16.8938802,18.5436198 16.6751302,18.3248698 L9.67513021,11.3248698 C9.23307292,10.866862 9.23933923,10.1394043 9.68937171,9.68937171 C10.1394043,9.23933923 10.866862,9.23307292 11.3248698,9.67513021 L18.3248698,16.6751302 C18.6581217,17.0089518 18.7583821,17.5108236 18.5777995,17.9466146 C18.3972168,18.3824056 17.9716797,18.6666667 17.5,18.6666667 Z" id="Path"/>
                        <line x1="59.5" y1="59.5" x2="52.5" y2="52.5" id="Path"/>
                        <path d="M59.5,60.6666667 C59.1906738,60.6666667 58.8938802,60.5436198 58.6751302,60.3248698 L51.6751302,53.3248698 C51.2330729,52.866862 51.2393392,52.1394043 51.6893717,51.6893717 C52.1394043,51.2393392 52.866862,51.2330729 53.3248698,51.6751302 L60.3248698,58.6751302 C60.6581217,59.0089518 60.7583821,59.5108236 60.5777995,59.9466146 C60.3972168,60.3824056 59.9716797,60.6666667 59.5,60.6666667 L59.5,60.6666667 Z" id="Path"/>
                        <line x1="52.5" y1="17.5" x2="59.5" y2="10.5" id="Path"/>
                        <path d="M52.5,18.6666667 C52.0283203,18.6666667 51.6027832,18.3824056 51.4222005,17.9466146 C51.2416179,17.5108236 51.3418783,17.0089518 51.6751302,16.6751302 L58.6751302,9.67513021 C59.133138,9.23307292 59.8605957,9.23933923 60.3106283,9.68937171 C60.7606608,10.1394043 60.7669271,10.866862 60.3248698,11.3248698 L53.3248698,18.3248698 C53.1061198,18.5436198 52.8093262,18.6666667 52.5,18.6666667 L52.5,18.6666667 Z" id="Path"/>
                        <path d="M68.8333333,36.1666667 L59.5,36.1666667 C58.8557129,36.1666667 58.3333333,35.6442871 58.3333333,35 C58.3333333,34.3557129 58.8557129,33.8333333 59.5,33.8333333 L68.8333333,33.8333333 C69.4776205,33.8333333 70,34.3557129 70,35 C70,35.6442871 69.4776205,36.1666667 68.8333333,36.1666667 Z" id="Path"/>
                        <path d="M10.5,36.1666667 L1.16666667,36.1666667 C0.522379521,36.1666667 0,35.6442871 0,35 C0,34.3557129 0.522379521,33.8333333 1.16666667,33.8333333 L10.5,33.8333333 C11.1442871,33.8333333 11.6666667,34.3557129 11.6666667,35 C11.6666667,35.6442871 11.1442871,36.1666667 10.5,36.1666667 Z" id="Path"/>
                        <line x1="10.5" y1="59.5" x2="17.5" y2="52.5" id="Path"/>
                        <path d="M10.5,60.6666667 C10.0283203,60.6666667 9.60278317,60.3824056 9.42220052,59.9466146 C9.24161787,59.5108236 9.34187829,59.0089518 9.67513021,58.6751302 L16.6751302,51.6751302 C17.133138,51.2330729 17.8605957,51.2393392 18.3106283,51.6893717 C18.7606608,52.1394043 18.7669271,52.866862 18.3248698,53.3248698 L11.3248698,60.3248698 C11.1061198,60.5436198 10.8093262,60.6666667 10.5,60.6666667 Z" id="Path"/>
                    </g>
                </g>
            </g>
        </g>
    </g>
</svg>