<svg width="36" height="36" viewBox="0 0 36 36" fill="none" xmlns="http://www.w3.org/2000/svg">
<g>
<path d="M18.1043 27.7408C12.8412 27.7408 8.42015 23.2938 8.42015 17.9996C8.42015 12.7055 12.6306 8.25847 18.1043 8.25847C23.3674 8.25847 27.7884 12.7055 27.7884 17.9996C27.7884 23.2938 23.3674 27.7408 18.1043 27.7408Z" fill="#FFCA00"/>
<path d="M18.1053 6.56469C17.6843 6.56469 17.2632 6.14117 17.2632 5.71764V0.847061C17.2632 0.423528 17.6843 0 18.1053 0C18.5264 0 18.9474 0.423528 18.9474 0.847061V5.9294C18.7369 6.14117 18.5264 6.56469 18.1053 6.56469Z" fill="#FFCA00"/>
<path d="M18.1053 36C17.6843 36 17.2632 35.5765 17.2632 35.1529V30.0706C17.2632 29.6471 17.6843 29.2235 18.1053 29.2235C18.5264 29.2235 18.9474 29.6471 18.9474 30.0706V35.1529C18.7369 35.7882 18.5264 36 18.1053 36Z" fill="#FFCA00"/>
<path d="M35.1579 18.847H30.1053C29.6843 18.847 29.2632 18.4234 29.2632 17.9999C29.2632 17.5764 29.6843 17.1528 30.1053 17.1528H35.1579C35.579 17.1528 36 17.5764 36 17.9999C36 18.4234 35.579 18.847 35.1579 18.847Z" fill="#FFCA00"/>
<path d="M5.89468 18.847H0.842097C0.421048 18.847 0 18.4234 0 17.9999C0 17.5764 0.421048 17.1528 0.842097 17.1528H5.89468C6.31573 17.1528 6.73678 17.5764 6.73678 17.9999C6.73678 18.4234 6.31573 18.847 5.89468 18.847Z" fill="#FFCA00"/>
<path d="M9.47342 10.1645C9.2629 10.1645 9.05238 10.1645 8.84185 9.95275L5.26297 6.35276C5.05244 6.141 5.05244 5.5057 5.26297 5.29394C5.47349 5.08218 6.10506 5.08218 6.31559 5.29394L9.89447 8.89393C10.105 9.1057 10.105 9.74099 9.89447 9.95275C9.89447 10.1645 9.68395 10.1645 9.47342 10.1645Z" fill="#FFCA00"/>
<path d="M30.1044 31.129C29.8939 31.129 29.6833 31.129 29.4728 30.9173L25.8939 27.3173C25.6834 27.1055 25.6834 26.4702 25.8939 26.2584C26.1044 26.0467 26.736 26.0467 26.9465 26.2584L30.5254 29.8584C30.736 30.0702 30.736 30.7055 30.5254 30.9173C30.5254 30.9173 30.3149 31.129 30.1044 31.129Z" fill="#FFCA00"/>
<path d="M26.7363 10.1645C26.5257 10.1645 26.3152 10.1645 26.1047 9.95275C25.8942 9.74099 25.8942 9.1057 26.1047 8.89393L29.6836 5.29394C29.8941 5.08218 30.5257 5.08218 30.7362 5.29394C30.9468 5.5057 30.9468 6.141 30.7362 6.35276L27.1573 9.95275C27.1573 10.1645 26.9468 10.1645 26.7363 10.1645Z" fill="#FFCA00"/>
<path d="M5.89454 31.129C5.68401 31.129 5.47349 31.129 5.26297 30.9173C5.05244 30.7055 5.05244 30.0702 5.26297 29.8584L8.84185 26.2584C9.05238 26.0467 9.68395 26.0467 9.89447 26.2584C10.105 26.4702 10.105 27.1055 9.89447 27.3173L6.52611 30.9173C6.31559 30.9173 6.10506 31.129 5.89454 31.129Z" fill="#FFCA00"/>
</g>
</svg>
