<svg width="50" height="50" viewBox="0 0 50 50" fill="none" xmlns="http://www.w3.org/2000/svg">
<g filter="url(#filter0_d_1488_57982)">
<path d="M25 32.4C19 32.4 13.96 27.36 13.96 21.36C13.96 15.36 18.76 10.32 25 10.32C31 10.32 36.04 15.36 36.04 21.36C36.04 27.36 31 32.4 25 32.4ZM25 12.24C19.96 12.24 15.64 16.32 15.64 21.6C15.64 26.88 19.72 30.96 25 30.96C30.04 30.96 34.36 26.88 34.36 21.6C34.36 16.32 30.04 12.24 25 12.24Z" fill="#FFCA00"/>
<path d="M25 8.39999C24.52 8.39999 24.04 7.91999 24.04 7.43999V1.91999C24.04 1.43999 24.52 0.959991 25 0.959991C25.48 0.959991 25.96 1.43999 25.96 1.91999V7.67999C25.72 7.91999 25.48 8.39999 25 8.39999Z" fill="#FFCA00"/>
<path d="M25 41.76C24.52 41.76 24.04 41.28 24.04 40.8V35.04C24.04 34.56 24.52 34.08 25 34.08C25.48 34.08 25.96 34.56 25.96 35.04V40.8C25.72 41.52 25.48 41.76 25 41.76Z" fill="#FFCA00"/>
<path d="M44.44 22.32H38.68C38.2 22.32 37.72 21.84 37.72 21.36C37.72 20.88 38.2 20.4 38.68 20.4H44.44C44.92 20.4 45.4 20.88 45.4 21.36C45.4 21.84 44.92 22.32 44.44 22.32Z" fill="#FFCA00"/>
<path d="M11.0801 22.32H5.32011C4.84011 22.32 4.36011 21.84 4.36011 21.36C4.36011 20.88 4.84011 20.4 5.32011 20.4H11.0801C11.5601 20.4 12.0401 20.88 12.0401 21.36C12.0401 21.84 11.5601 22.32 11.0801 22.32Z" fill="#FFCA00"/>
<path d="M15.1599 12.48C14.9199 12.48 14.6799 12.48 14.4399 12.24L10.3599 8.16C10.1199 7.92 10.1199 7.2 10.3599 6.96C10.5999 6.72 11.3199 6.72 11.5599 6.96L15.6399 11.04C15.8799 11.28 15.8799 12 15.6399 12.24C15.6399 12.48 15.3999 12.48 15.1599 12.48Z" fill="#FFCA00"/>
<path d="M38.68 36.24C38.44 36.24 38.2 36.24 37.96 36L33.88 31.92C33.64 31.68 33.64 30.96 33.88 30.72C34.12 30.48 34.84 30.48 35.08 30.72L39.16 34.8C39.4 35.04 39.4 35.76 39.16 36C39.16 36 38.92 36.24 38.68 36.24Z" fill="#FFCA00"/>
<path d="M34.8399 12.48C34.5999 12.48 34.3599 12.48 34.1199 12.24C33.8799 12 33.8799 11.28 34.1199 11.04L38.1999 6.96C38.4399 6.72 39.1599 6.72 39.3999 6.96C39.6399 7.2 39.6399 7.92 39.3999 8.16L35.3199 12.24C35.3199 12.48 35.0799 12.48 34.8399 12.48Z" fill="#FFCA00"/>
<path d="M11.0799 36.24C10.8399 36.24 10.5999 36.24 10.3599 36C10.1199 35.76 10.1199 35.04 10.3599 34.8L14.4399 30.72C14.6799 30.48 15.3999 30.48 15.6399 30.72C15.8799 30.96 15.8799 31.68 15.6399 31.92L11.7999 36C11.5599 36 11.3199 36.24 11.0799 36.24Z" fill="#FFCA00"/>
</g>
<defs>
<filter id="filter0_d_1488_57982" x="-3" y="0" width="56" height="51.2" filterUnits="userSpaceOnUse" color-interpolation-filters="sRGB">
<feFlood flood-opacity="0" result="BackgroundImageFix"/>
<feColorMatrix in="SourceAlpha" type="matrix" values="0 0 0 0 0 0 0 0 0 0 0 0 0 0 0 0 0 0 127 0" result="hardAlpha"/>
<feOffset dy="4"/>
<feGaussianBlur stdDeviation="2"/>
<feComposite in2="hardAlpha" operator="out"/>
<feColorMatrix type="matrix" values="0 0 0 0 0 0 0 0 0 0 0 0 0 0 0 0 0 0 0.25 0"/>
<feBlend mode="normal" in2="BackgroundImageFix" result="effect1_dropShadow_1488_57982"/>
<feBlend mode="normal" in="SourceGraphic" in2="effect1_dropShadow_1488_57982" result="shape"/>
</filter>
</defs>
</svg>
