<?xml version="1.0"?>
<svg xmlns="http://www.w3.org/2000/svg" version="1.2" baseProfile="tiny" width="800" height="769" viewBox="0 0 800 769"
  stroke-linecap="round" stroke-linejoin="round">
  <g id="a-reg2021">
    <path
      d="M 608.95 386.73 614.72 390.7 611.04 397.09 612.24 399.73 607.31 400.73 604.1 402.59 605.2 405.09 603.58 407.97 612.9 408.35 615.69 405.27 621.5 401.79 618.42 397.7 620.58 391.94 624.12 390.36 626.45 392.71 635.1 388.44 643.16 387.39 646.66 387.81 649.04 394.36 652.48 397.49 649.15 403.51 648.87 408.77 654.31 409.86 655.75 414.34 661.13 421.07 662.23 425.46 659.67 429.45 655.1 431.77 650.21 432.13 649.22 433.85 649.44 440.91 651.49 443.6 656.06 447.04 659.92 447.56 659.84 458.03 665.12 460.77 666 463.5 669.88 465.59 665.81 472.51 667.33 477.23 657.99 480.98 657.38 483.05 651.36 486.59 647.29 484.72 639.73 488.61 636.84 487.56 631.6 490.03 631.96 492.68 625.32 491.62 625.21 488.98 617.91 488.68 616.62 496.07 622.14 496.66 623.03 500.6 624.95 501.51 624.76 508.08 622.05 506.84 619.1 508.34 612.48 507.61 608.66 510.92 607.12 509.46 602.73 512.04 601.25 515.89 597.15 516.08 595.08 519.11 596.07 521.07 594.07 523.58 590.69 524.68 585.99 523.75 586.31 526.7 583.57 532 585.21 532.66 583.93 537.93 578.63 535.9 574.68 540.39 575.24 544.48 577.9 547.7 584.86 548.01 584.3 549.53 587.76 553.83 588.43 558.33 582.44 559.02 580.62 563.12 575.83 564.24 574.81 561.72 571.93 561.22 572.02 558.03 565.06 555.84 560.63 556.55 559.17 552.04 555.27 551.74 554.4 549.9 547.46 553.39 544.17 553.71 541.04 555.68 540.5 551.07 538.22 548.59 533.63 548.95 532.05 552.78 527.17 550.37 524.28 547.55 521.24 547.93 520.68 551.77 518.51 551.42 518.66 547.97 514.45 547.61 510.79 553.23 504.63 549.5 503.65 547.67 499.54 549.24 500.46 542.54 496.65 538.38 494.22 530.15 492.57 529.83 489.63 521.68 489.84 516.92 484.29 512.11 482.91 509.73 478.59 510.18 477.98 506.69 474.77 506.48 474.31 509.63 468.38 511.63 464.69 503.35 462.57 500.08 454.69 503.96 452.22 507.42 450.11 504.48 447.99 505.72 444.97 512.06 444.96 515.01 441.03 524.26 438.77 520.26 438.89 514.15 436.53 513.4 434.48 508.44 431.66 506.69 428.1 501.6 420.76 509.07 420.64 512.86 418.67 514.05 418.32 518.1 415.14 521.02 414.61 523.28 411.68 524.69 405.76 522.33 397.16 524.65 397.74 521.98 395.99 518.45 397.06 511.48 392.56 505.68 393.87 503.94 391.41 498.82 395.67 496.61 393.17 492.71 397.37 490.76 399.64 484.72 398.31 481.34 402.64 474.64 406.98 471.75 408.09 464.9 412.2 467.46 414.5 464.75 416.26 456.89 416.06 454.23 413.36 451.21 414.26 447.64 416.64 446.25 416.43 442.16 411.65 437.62 409.28 433.32 416.75 427.33 420.25 420.2 417.76 410.58 418.81 408.14 416.72 404.93 416.01 400.73 413.46 396.95 409.3 393.54 405.1 393.13 405.15 389.98 403.28 386.41 404.6 382.07 408.02 378.68 415.01 377.47 417.76 378.01 421.45 375.79 420.43 369.17 427.62 360.46 429.23 362.9 432.99 361.5 440.22 356.08 444.11 356.77 445.02 359.68 449.58 362.32 453.48 365.98 456.91 363.08 459.41 365.17 465.98 363.32 466.67 367.41 468.85 367.53 472.28 363.15 476.35 361.45 478.74 366.4 481.66 370.04 482.7 377.04 489.17 380.71 494.46 380.87 497.03 384.59 495.52 388.19 495.9 394.48 491.98 396.17 490.76 402.62 495.25 403.54 498.23 406.17 502.38 403.88 503.98 405.54 510.77 404.97 510.72 407.12 516.89 404.54 518.81 396.2 521.66 396.12 524.14 398.48 528.62 398.36 532.18 395.56 533.69 399.06 536.8 401.21 535.89 404.22 539.14 404.69 545.08 387.58 545.26 384.66 547.61 379 550.28 378.94 554.17 381.42 560.49 379.06 565.01 383.87 568 384.32 568.21 387.27 571.56 389.43 571.41 391.79 574.87 394.71 576.83 398.65 580.56 398.28 586.43 392.7 589.96 395.19 590.53 398.99 597.48 398.94 600.54 397.17 604.41 391.55 608.95 386.73 Z M 544 547.11 545.18 550.11 550.41 551.08 552.59 545.74 550.5 541.15 546.66 542.33 544 547.11 Z"
      fill-rule="evenodd" data-reg="84" data-libgeo="Auvergne-Rhône-Alpes" />
    <path
      d="M 468.73 190.17 463.07 188.23 458.92 182.15 451.47 176.87 452.26 172.76 451.35 169.62 446.28 168.14 445.84 170.79 435.27 172.07 431.99 169.82 429.06 172.82 426.39 172.49 422.19 169.4 419.69 171.22 413.63 166.67 410.45 165.26 403.57 164.64 400.08 165.27 392.06 160.56 387.95 163.34 381.63 164.41 377.29 162.54 373.86 162.89 371.92 158.6 375.59 153.47 374.92 147.28 372.77 145 372.94 141.76 375.81 138.65 372 128.24 372.14 123.99 374.53 121.07 372.51 118.74 375.98 113.52 373.51 109.93 372.34 103.85 370.2 100.93 366.36 98.89 361.66 93.16 354.34 88.62 358.28 84.94 361.46 77.07 367.5 76 362.95 70.93 365.23 48.86 364.11 34.58 365.9 31.72 366.63 26.78 365.22 19.91 368.69 19.09 373.21 14.09 383.41 10.07 394.12 8.04 397.29 4.86 399.41 5.93 406.41 3.79 408.07 4.55 417.65 1 419.49 8.77 422.41 13.34 420.58 21.35 422.53 24.83 427.47 26.59 432.24 33.05 436.99 35.15 438.95 30.87 443.35 28.31 450.43 26.78 452.8 32.45 455.7 33.41 455.42 38.08 457.06 42.16 457.94 49.28 462.86 52.43 470.61 49.7 470.89 52.08 475.4 51.9 478.46 55.66 478.1 62.7 480.26 67.64 482.43 64.96 488.77 64.38 491.76 66.31 495.01 64.46 498.7 65.01 503.42 68.98 504.1 72.35 507.85 70.93 503.64 82.7 507.61 83.02 509.29 87.96 504.14 92.42 505.88 96.11 509.41 97.75 510.65 102.3 508.08 112.62 510.24 114.65 506.8 119.57 503.64 121.34 502.98 124.96 498.21 126.38 500.91 130.34 499.38 132.46 498.68 147.97 489.69 144.06 488.73 149.22 485.98 148.05 477.57 151.64 478.94 158.52 478.06 160.36 482.58 164.88 476.32 165.34 477.59 174.46 476.13 180.72 473.49 184.65 471.11 185.17 468.73 190.17 Z"
      data-reg="32" data-libgeo="Hauts-de-France" />
    <path
      d="M 639.73 488.61 642.05 495.39 645.86 495.75 647.07 500.13 646.17 503.04 649.22 506.46 652.5 508.51 656.09 507.54 659.96 509.17 659.83 513.16 661.53 520.7 657.82 521.72 656.2 529.68 651.93 533.13 652.54 535.67 656.33 539.87 654.02 541.33 655.84 547.93 659.52 552 659.75 554.34 667.58 558.07 670.01 558.17 675.18 562.6 678.42 562.19 679.24 564.29 682.74 564.65 687.27 562.41 693.27 561.93 697.06 560.09 696.37 564.08 698.78 567.07 697.93 570.18 695.85 571.17 695.34 575.2 691.6 576.84 690.47 580.59 687.1 582.7 687.82 589.63 682.28 593.25 668.98 599.08 666.46 604.43 662.83 607.33 658.68 607.36 656.42 609.6 656.93 612.08 653.87 616.27 648.4 617.75 646.07 616.68 641.69 624.52 642.32 627.45 641.31 633.63 635.51 634.27 633.18 636.57 625.57 637.99 624.94 641.57 620.49 639.23 615.42 640.14 613.89 642.35 606.74 642.37 605.81 640.47 601.91 639.39 597.7 644.68 595.02 643.26 595 639.6 588.9 637.53 585.95 634.12 583.86 636.16 580 632.36 571.23 632.75 569.92 627.25 570.93 624.96 568.11 621.33 563.52 623.71 553.3 623.75 550.54 619.22 559.54 617.77 563.43 614.42 561.47 611.9 559.06 613.99 557.04 608.99 551.92 608.64 551.45 613.16 554.01 613.86 553.29 618.17 549.84 617.79 547.25 615.91 543.31 618.09 543.27 623.4 539.4 622.35 533.53 622.4 528.34 621.23 528.12 615.79 525.76 614.49 509.25 613.86 510.01 610.79 515.8 607.38 518.81 606.43 519.91 601.52 523.16 595.96 525.83 595.32 529.49 596.95 532.16 589.64 531.65 583.26 534.38 582 542.56 574.25 542.61 572.61 537.63 566.58 535.22 565.44 536.02 559.08 532.05 552.78 533.63 548.95 538.22 548.59 540.5 551.07 541.04 555.68 544.17 553.71 547.46 553.39 554.4 549.9 555.27 551.74 559.17 552.04 560.63 556.55 565.06 555.84 572.02 558.03 571.93 561.22 574.81 561.72 575.83 564.24 580.62 563.12 582.44 559.02 588.43 558.33 587.76 553.83 584.3 549.53 584.86 548.01 577.9 547.7 575.24 544.48 574.68 540.39 578.63 535.9 583.93 537.93 585.21 532.66 583.57 532 586.31 526.7 585.99 523.75 590.69 524.68 594.07 523.58 596.07 521.07 595.08 519.11 597.15 516.08 601.25 515.89 602.73 512.04 607.12 509.46 608.66 510.92 612.48 507.61 619.1 508.34 622.05 506.84 624.76 508.08 624.95 501.51 623.03 500.6 622.14 496.66 616.62 496.07 617.91 488.68 625.21 488.98 625.32 491.62 631.96 492.68 631.6 490.03 636.84 487.56 639.73 488.61 Z M 544 547.11 546.66 542.33 550.5 541.15 552.59 545.74 550.41 551.08 545.18 550.11 544 547.11 Z"
      fill-rule="evenodd" data-reg="93" data-libgeo="Provence-Alpes-Côte d&apos;Azur" />
    <path
      d="M 509.41 97.75 513.43 96.78 520.96 99.49 533.97 93.6 534.91 86.09 541.58 80.59 545.42 82.66 542.92 85.67 541.23 94.72 545.14 101.88 543.03 106.53 546.14 112.27 549.4 110.93 554.94 114.3 560.04 120.03 565.59 119.79 569.94 125.3 574.25 128.05 575.43 134.76 578.27 135.71 581.37 133.81 584.58 133.98 587.28 131.9 592.3 132.66 593.21 130.96 598.09 136.18 603.62 136.92 604.06 139.15 612.19 138.48 613.84 136.12 618.59 135.16 625.29 139.65 628.73 138.22 635.61 142.95 638.23 147.37 636.36 149.19 642.96 157.17 642.99 159.61 645.64 164.32 650.83 165.35 655.44 159.63 661.02 161.86 662.95 168.61 664.7 167.11 668.51 167.92 673.18 167.12 676.09 168.18 679.58 165.85 679.71 163.63 684.09 162.6 688.6 169.86 694.16 171.88 696.53 174.18 701.66 173.97 703.04 172.45 707.02 175.16 710.5 173.1 718.04 178.19 725.32 181.22 721.42 187.53 718.62 194.65 712.51 198.37 712.24 200.89 708.34 205.67 705.49 207.55 703.39 212.12 703.61 218.06 701.56 220.22 699.73 227.47 700.16 233.64 697.54 235.43 696.15 241.75 691.24 250.18 690.77 257.08 693.35 260.75 691.64 265.38 690.5 272.29 688.79 277.12 689.52 282.21 687.68 284.37 688.33 287.45 692.07 292.15 691.64 293.89 686.93 297.49 687.54 300.34 680.83 305.86 669.4 304.99 670.23 301.37 666.93 300.17 664.49 292.9 660.41 291.96 662.35 286.58 660.55 280.93 656.62 278.51 652.38 277.36 651.72 275.64 640.55 267.75 638.32 264.45 635.05 267.84 631.48 269.27 629.12 264.6 625.32 263.01 620.56 263.72 618.42 265.42 614.61 263.84 612.62 258.01 607.24 260.04 605.6 263.53 601.02 264.24 597.41 267.6 594.38 272.39 590.87 274.76 588.08 278.61 588.68 285.51 583.56 286.54 577.35 285.52 573.21 286.41 570.4 293.05 564.11 291.05 560.6 288.19 557.03 288.34 548.64 284.18 548.87 279.59 550.54 275.74 548.61 270.78 542.69 263.12 539.5 262.88 539.66 259.31 534.73 258.02 528.28 257.61 526.78 262.57 521.05 263.51 519.42 262.51 513.54 263.12 512.65 265.99 505.75 263.22 497.63 265.69 491.29 265.18 492.1 261.94 484.5 249.49 481.6 247.33 478.68 248.63 474.33 235.44 471.94 233.9 469.42 229.83 464.91 228.14 463.49 221.01 465.22 217.71 468.68 215.04 469.71 210.54 466.33 205.74 467.93 203.84 467.9 199.57 466.3 195.76 468.73 190.17 471.11 185.17 473.49 184.65 476.13 180.72 477.59 174.46 476.32 165.34 482.58 164.88 478.06 160.36 478.94 158.52 477.57 151.64 485.98 148.05 488.73 149.22 489.69 144.06 498.68 147.97 499.38 132.46 500.91 130.34 498.21 126.38 502.98 124.96 503.64 121.34 506.8 119.57 510.24 114.65 508.08 112.62 510.65 102.3 509.41 97.75 Z"
      data-reg="44" data-libgeo="Grand-Est" />
    <path
      d="M 262.22 659.4 261.48 654.4 264.07 652.5 263.34 648.83 265.14 645.45 268.47 644.89 268.97 639.68 271.49 638.32 275.33 631.48 278.33 627.98 276.74 625.88 279.07 620.46 279.78 616.72 275.47 615.92 276.82 609 274.64 607.68 273.97 604.73 268.12 604.62 264.15 602.19 266.01 599.29 265.63 595.28 268.7 593.1 266.92 587.74 268.98 585.84 267.3 581.45 272.41 577.45 275.27 577.31 280.93 580.77 283.27 574.6 288.26 573.79 290.84 571.62 295.5 573.81 298.69 572.03 303.31 571.09 304.24 569.06 310.04 568.73 311.94 567.35 316.2 571.03 319.46 568.61 322.5 562.24 326.38 563.68 327.63 561.75 330.95 552.42 326.66 549.72 327.46 545.55 336.28 545.78 336.74 540.8 334.75 539.48 334.34 532.54 341.82 525.12 341.71 522.3 345.43 521.36 349.23 518.91 351.15 515.22 349.91 512.61 353.42 511.48 353.25 509.3 357.5 506.66 357.68 503.47 355.87 496.5 363 493.57 369.06 495.08 374.62 501.57 378.39 502.61 382.97 498.73 391.41 498.82 393.87 503.94 392.56 505.68 397.06 511.48 395.99 518.45 397.74 521.98 397.16 524.65 405.76 522.33 411.68 524.69 414.61 523.28 415.14 521.02 418.32 518.1 418.67 514.05 420.64 512.86 420.76 509.07 428.1 501.6 431.66 506.69 434.48 508.44 436.53 513.4 438.89 514.15 438.77 520.26 441.03 524.26 444.96 515.01 444.97 512.06 447.99 505.72 450.11 504.48 452.22 507.42 454.69 503.96 462.57 500.08 464.69 503.35 468.38 511.63 474.31 509.63 474.77 506.48 477.98 506.69 478.59 510.18 482.91 509.73 484.29 512.11 489.84 516.92 489.63 521.68 492.57 529.83 494.22 530.15 496.65 538.38 500.46 542.54 499.54 549.24 503.65 547.67 504.63 549.5 510.79 553.23 514.45 547.61 518.66 547.97 518.51 551.42 520.68 551.77 521.24 547.93 524.28 547.55 527.17 550.37 532.05 552.78 536.02 559.08 535.22 565.44 537.63 566.58 542.61 572.61 542.56 574.25 534.38 582 531.65 583.26 532.16 589.64 529.49 596.95 525.83 595.32 523.16 595.96 519.91 601.52 518.81 606.43 515.8 607.38 510.01 610.79 509.25 613.86 504.92 612.64 502.91 610.4 502.24 606.79 497.12 607 491.7 609.61 486.08 614.94 477.13 619.78 470.43 627.56 463.5 627.01 457.78 630.28 452.01 635.88 447.91 642.12 445.94 646.59 444.59 653.46 445.66 654.38 444.46 663.35 444.37 676.75 445.15 682.27 449.83 684.16 451.8 689.96 446.99 690.68 444.56 687.14 438.25 688.31 433.55 688.33 430.07 691.73 426.95 691.04 423.51 693.45 424.41 696.99 419.43 695.7 417.32 697.49 414.11 696.88 410.48 693.23 401.97 689.76 398.86 691.39 395 691.68 392.63 695.18 389.26 695.88 386.21 694.15 384.78 690.4 377.35 685.95 373.33 685.79 374.24 680.62 373.65 676.74 366.15 675.79 363.51 673.77 356.15 673.87 353.05 669.01 342.69 669.8 339.25 665.09 331.45 662.63 329.84 663.89 325.9 661.16 321.67 660.4 317.77 658.51 315.11 660.18 314.48 664.41 316.37 669.81 315.63 671.27 307.87 670.28 302.52 671.18 298.78 668.92 295.4 672.38 293.4 669.29 288.82 667.79 279.3 671.54 275.81 670.74 270.85 663.58 267.55 663.31 262.22 659.4 Z"
      data-reg="76" data-libgeo="Occitanie" />
    <path
      d="M 354.34 88.62 361.66 93.16 366.36 98.89 370.2 100.93 372.34 103.85 373.51 109.93 375.98 113.52 372.51 118.74 374.53 121.07 372.14 123.99 372 128.24 375.81 138.65 372.94 141.76 372.77 145 374.92 147.28 375.59 153.47 371.92 158.6 370.45 160.18 369.32 166.99 366.52 170.84 357.89 174.07 360.88 182.79 358.09 184.27 358.89 188.09 353.29 191.63 354.15 195.32 351.71 197.55 342.2 196.96 331.53 200.57 326.69 201.61 324.23 204.28 323.68 209.65 325.44 212.22 330.04 214.67 331.85 217.18 330.46 222.62 332.34 224.16 328.68 229.77 321.95 232.21 320.35 235.53 324.39 242.53 322.63 244.11 319.38 244.56 314.69 238.44 313.24 239.99 308.39 239.62 306.06 236.82 300.05 232.74 298.74 222.74 295.61 220.75 288.62 222.02 285.68 224.34 282.64 228.74 279.42 227.65 276.26 229.12 276.48 223 271.27 222.71 268.04 214.06 263.79 218.61 259.21 219.59 255.1 217.98 251.55 218.41 248.1 221.72 243.69 223.68 236.96 221.97 232.48 219.02 227.2 217.82 224.72 220.03 221.07 218.42 210.93 215.65 209.71 218.38 204.07 222.69 198.72 220.22 196.52 215.72 195.67 211.01 193.84 208.77 198.81 209.43 202.65 207.37 196.89 202.67 193.66 198.32 193.63 192.63 192.31 191.52 194.32 185.14 194.32 179.61 191.68 170.99 192.7 166.74 191.86 161.58 190.05 159.56 186.39 151.43 180.12 144.43 178.5 135.37 176.68 133.98 179.12 130.17 178.07 123.65 173.39 121.57 173.78 117.26 180.12 120.31 185.7 121.17 191.11 124.38 198.35 122.16 201.95 119.19 204.84 118.96 210.07 120.79 212.4 125.84 208.27 133.05 211.23 137.95 218.62 147.72 221.11 145.43 229.19 145.4 233.05 147.78 246.7 149.64 251.09 149.19 256.76 149.99 262.67 153.04 267.14 154.2 274.37 153.39 281.71 148.97 285.27 145.14 294.03 140.7 285.8 139.32 282.83 135.26 287.58 124.12 288.15 120.76 290.54 118.31 296.79 115.97 299.27 113.84 310.38 106.9 317.51 104.98 321.05 105.02 331.61 100.97 337.29 100.42 344.65 96.58 354.34 88.62 Z"
      data-reg="28" data-libgeo="Normandie" />
    <path
      d="M 219.2 394.72 224.15 391.52 228.46 394.99 235.31 392.81 240.01 395.69 241.34 393.93 248.86 391.07 249.99 389.1 246.08 386.94 244.56 378.39 246.51 377.5 245.78 370.39 243.57 364.28 239.76 359.14 240.76 354.81 236.72 352.93 234.74 349.9 234.17 345.76 231.23 343.34 237.26 340.09 240.53 341.52 246.87 340.62 248.92 335.4 257.44 334.81 265.8 332.07 269.44 331.81 269.53 334.87 277.66 332.83 277.29 330.46 280.28 326.4 282.18 327.38 283.41 330.57 286.6 330.76 295.47 336.14 296.17 345.4 299.18 344.45 303.1 346.07 306.53 343.87 311.81 343.93 310.59 340.06 316.83 342.46 317.6 348.23 322.14 352.19 323.39 356.75 327.92 361.38 329.6 364.45 327.87 370.18 329.05 372.49 334.84 377.28 339.48 377.62 341.59 379.7 341.88 384.19 345.21 385.41 343.27 389.27 346.56 390.67 350.7 390 352.99 388.01 357.55 391.43 362.19 385.91 368.67 389.1 370.8 386.59 373.19 388.86 377.01 383.67 378.18 385.66 387.62 385.57 391.93 386.44 401.6 385.94 403.28 386.41 405.15 389.98 405.1 393.13 409.3 393.54 413.46 396.95 416.01 400.73 416.72 404.93 418.81 408.14 417.76 410.58 420.25 420.2 416.75 427.33 409.28 433.32 411.65 437.62 416.43 442.16 416.64 446.25 414.26 447.64 413.36 451.21 416.06 454.23 416.26 456.89 414.5 464.75 412.2 467.46 408.09 464.9 406.98 471.75 402.64 474.64 398.31 481.34 399.64 484.72 397.37 490.76 393.17 492.71 395.67 496.61 391.41 498.82 382.97 498.73 378.39 502.61 374.62 501.57 369.06 495.08 363 493.57 355.87 496.5 357.68 503.47 357.5 506.66 353.25 509.3 353.42 511.48 349.91 512.61 351.15 515.22 349.23 518.91 345.43 521.36 341.71 522.3 341.82 525.12 334.34 532.54 334.75 539.48 336.74 540.8 336.28 545.78 327.46 545.55 326.66 549.72 330.95 552.42 327.63 561.75 326.38 563.68 322.5 562.24 319.46 568.61 316.2 571.03 311.94 567.35 310.04 568.73 304.24 569.06 303.31 571.09 298.69 572.03 295.5 573.81 290.84 571.62 288.26 573.79 283.27 574.6 280.93 580.77 275.27 577.31 272.41 577.45 267.3 581.45 268.98 585.84 266.92 587.74 268.7 593.1 265.63 595.28 266.01 599.29 264.15 602.19 268.12 604.62 273.97 604.73 274.64 607.68 276.82 609 275.47 615.92 279.78 616.72 279.07 620.46 276.74 625.88 278.33 627.98 275.33 631.48 271.49 638.32 268.97 639.68 268.47 644.89 265.14 645.45 263.34 648.83 264.07 652.5 261.48 654.4 262.22 659.4 257.82 663.01 255.28 663.41 251.48 661.23 249.29 664.59 246.45 660.66 239.43 655.71 238.4 650.77 235.18 651.84 226.24 650.93 223.98 648.67 218.62 646.47 211.42 645.05 208.11 643.1 205.64 646.12 200.89 644.78 199.26 641.45 202.22 638.76 203.83 634.17 204.08 629.36 195.9 626.33 193.61 629.6 191.3 629.01 191.01 625.7 184.79 623.62 181.82 620.42 188.64 619.27 192.28 615.91 196.56 608.73 200.64 599.97 201.03 595.31 204.49 579.79 207.88 562.4 211.31 536.1 210.96 532.67 213.7 526.73 214.3 523.17 219.64 524.45 223.89 523.9 221.76 519.35 216.03 514.1 215.33 516.61 211.19 519.26 212.66 508.63 216.12 473.77 216.6 459.64 219.44 455.16 228.47 462.78 235.54 470.15 237.51 474.69 238.65 481.07 242.13 490.97 246.16 495.84 247.16 493.75 244.67 491.31 242.94 487.27 242.82 483.99 239.32 468.57 235.66 461.55 233.17 458.5 225.5 452.56 225.12 450.78 218.57 446.95 211.95 442.15 211.64 436.64 216.43 434.88 215.77 431.49 219.12 429.85 220.9 426.02 220.38 419.77 221.43 415.64 215.96 408.34 212.33 406.44 218.77 398.53 219.2 394.72 Z M 199.09 403.53 195.78 403.48 194.58 401.19 196.91 399.25 201.63 403.34 205.08 403.22 209.07 404.89 209.55 408.09 205.65 407.24 199.09 403.53 Z M 213.06 426.84 214.64 428.33 214.25 432.76 212.32 434.93 210.26 428.73 203.91 423.16 204.81 417.16 207.77 419.93 212.13 420.83 213.06 426.84 Z"
      fill-rule="evenodd" data-reg="75" data-libgeo="Nouvelle Aquitaine" />
    <path
      d="M 403.28 386.41 401.6 385.94 391.93 386.44 387.62 385.57 378.18 385.66 377.01 383.67 373.19 388.86 370.8 386.59 368.67 389.1 362.19 385.91 357.55 391.43 352.99 388.01 350.7 390 346.56 390.67 343.27 389.27 345.21 385.41 341.88 384.19 341.59 379.7 339.48 377.62 334.84 377.28 329.05 372.49 327.87 370.18 329.6 364.45 327.92 361.38 323.39 356.75 322.14 352.19 317.6 348.23 316.83 342.46 310.59 340.06 311.81 343.93 306.53 343.87 303.1 346.07 299.18 344.45 296.17 345.4 295.47 336.14 286.6 330.76 283.41 330.57 282.18 327.38 283.88 317.33 286.75 313.58 289.31 306.55 289.1 304.16 291.21 300.25 290.11 297 291.8 291.6 296.84 292.95 299.83 294.89 302.32 290.9 312.05 285.94 310.81 283.27 316.06 278.65 321.36 272.94 320.55 268.12 325.38 264.67 322.61 256.94 322.9 254.15 327.31 246.81 322.63 244.11 324.39 242.53 320.35 235.53 321.95 232.21 328.68 229.77 332.34 224.16 330.46 222.62 331.85 217.18 330.04 214.67 325.44 212.22 323.68 209.65 324.23 204.28 326.69 201.61 331.53 200.57 342.2 196.96 351.71 197.55 354.15 195.32 353.29 191.63 358.89 188.09 358.09 184.27 360.88 182.79 362.9 184.32 365.91 191.16 364.98 195.85 367.7 198.73 365.13 202.43 366.39 205.72 372.18 212.73 376.44 214.72 375.79 218 377.19 221.93 379.56 223.55 384.53 224.51 386.75 227.37 385.77 234.81 386.48 236.48 396.9 235.65 400.93 234.19 407.47 234.79 409.9 233.83 410.82 238.22 415.52 240.53 416.42 244.01 413 248.83 423 248.78 426.42 249.76 431.4 246.32 435.12 247.26 438.92 246.66 443.96 249.12 445.09 254.1 447.17 255.58 449.26 262.54 443.34 267.5 443.03 273.42 443.89 276.1 438.74 279.19 435.26 279.05 434.34 282.52 438.19 285.82 439.29 292.9 433.93 296.79 436.25 299.57 438.6 305.08 435.32 313.01 441.44 319.61 441.37 322.72 443.9 330.2 443.79 335.66 446.48 338.93 446.67 344.09 445.1 347.93 446.14 352.15 444.11 356.77 440.22 356.08 432.99 361.5 429.23 362.9 427.62 360.46 420.43 369.17 421.45 375.79 417.76 378.01 415.01 377.47 408.02 378.68 404.6 382.07 403.28 386.41 Z"
      data-reg="24" data-libgeo="Centre-Val de Loire" />
    <path
      d="M 666.93 300.17 658.92 300.86 659.8 304.23 656.6 305.77 656.5 307.95 653.29 311.83 662.47 311.46 662.33 314.34 657.01 317.19 657.43 321.03 653.43 324.41 652.14 327.33 645.71 331.81 639.93 340.6 632.47 342.51 629 346.14 630.74 349.19 628.87 359.8 620.01 366.19 611.48 374.09 613.99 376.55 609.45 382.96 608.95 386.73 604.41 391.55 600.54 397.17 597.48 398.94 590.53 398.99 589.96 395.19 586.43 392.7 580.56 398.28 576.83 398.65 574.87 394.71 571.41 391.79 571.56 389.43 568.21 387.27 568 384.32 565.01 383.87 560.49 379.06 554.17 381.42 550.28 378.94 547.61 379 545.26 384.66 545.08 387.58 539.14 404.69 535.89 404.22 536.8 401.21 533.69 399.06 532.18 395.56 528.62 398.36 524.14 398.48 521.66 396.12 518.81 396.2 516.89 404.54 510.72 407.12 510.77 404.97 503.98 405.54 502.38 403.88 498.23 406.17 495.25 403.54 490.76 402.62 491.98 396.17 495.9 394.48 495.52 388.19 497.03 384.59 494.46 380.87 489.17 380.71 482.7 377.04 481.66 370.04 478.74 366.4 476.35 361.45 472.28 363.15 468.85 367.53 466.67 367.41 465.98 363.32 459.41 365.17 456.91 363.08 453.48 365.98 449.58 362.32 445.02 359.68 444.11 356.77 446.14 352.15 445.1 347.93 446.67 344.09 446.48 338.93 443.79 335.66 443.9 330.2 441.37 322.72 441.44 319.61 435.32 313.01 438.6 305.08 436.25 299.57 433.93 296.79 439.29 292.9 438.19 285.82 434.34 282.52 435.26 279.05 438.74 279.19 443.89 276.1 443.03 273.42 443.34 267.5 449.26 262.54 447.17 255.58 445.09 254.1 443.96 249.12 438.92 246.66 442.63 243.06 444.8 237.85 443.2 234.92 444.81 230.96 451.69 229.19 456.2 230.19 457.75 228.84 462.22 229.61 464.91 228.14 469.42 229.83 471.94 233.9 474.33 235.44 478.68 248.63 481.6 247.33 484.5 249.49 492.1 261.94 491.29 265.18 497.63 265.69 505.75 263.22 512.65 265.99 513.54 263.12 519.42 262.51 521.05 263.51 526.78 262.57 528.28 257.61 534.73 258.02 539.66 259.31 539.5 262.88 542.69 263.12 548.61 270.78 550.54 275.74 548.87 279.59 548.64 284.18 557.03 288.34 560.6 288.19 564.11 291.05 570.4 293.05 573.21 286.41 577.35 285.52 583.56 286.54 588.68 285.51 588.08 278.61 590.87 274.76 594.38 272.39 597.41 267.6 601.02 264.24 605.6 263.53 607.24 260.04 612.62 258.01 614.61 263.84 618.42 265.42 620.56 263.72 625.32 263.01 629.12 264.6 631.48 269.27 635.05 267.84 638.32 264.45 640.55 267.75 651.72 275.64 652.38 277.36 656.62 278.51 660.55 280.93 662.35 286.58 660.41 291.96 664.49 292.9 666.93 300.17 Z"
      data-reg="27" data-libgeo="Bourgogne-Franche-Comté" />
    <path
      d="M 193.84 208.77 195.67 211.01 196.52 215.72 198.72 220.22 204.07 222.69 209.71 218.38 210.93 215.65 221.07 218.42 220.5 225.95 222.43 233.25 219.37 238.65 220.83 243.55 222.2 252.67 223.63 254.37 223.75 260.34 218.07 261.04 216.8 262.56 214.61 270.47 211.5 278.07 205.15 276.22 203.48 273.82 199.49 273.44 199.11 276.04 190.97 279.24 189.09 283.37 186.62 284.24 177.89 283.73 171.29 285.62 166.01 288.36 164.97 292.65 165.13 297.71 157.25 300.89 154.38 299.62 153.25 303.53 145.56 304.58 146.63 300.51 142.35 298.23 135.73 299.08 126.11 301.44 120.99 295.87 129.59 297.35 131.63 293.83 127.93 290.64 124.35 290.82 121.28 293.12 118.91 291.74 115.91 295.05 113.29 294.12 108.84 296.99 107.47 291.8 100.71 285.42 96.96 283.47 91.85 284.61 87.21 278.71 79.14 278.05 76.44 275.91 72.52 277.14 68.94 275.26 64.64 268.34 62.78 271.8 59.44 272.4 55.66 270.93 52.87 272.28 51.34 276.41 41.8 276.5 42.94 272.97 41.06 266.67 38.91 263.22 34.56 259.83 30.82 259.95 25.16 254.99 36.4 251.89 41.51 251 45.09 252.73 47.05 249.01 45.28 244.11 36.63 240.54 33.52 244.22 30.82 239.25 34.41 237.07 38.61 236.24 41.8 237.33 45 235.75 43.87 232.16 37.46 233.42 38.17 227.67 27.6 232.42 24.85 230.97 22.9 233.05 19.75 233.08 20.42 229.51 18.66 225.98 20.31 221.45 19.45 219.19 20.96 215.58 31.25 211.07 33.72 208.09 36.47 208.76 42.77 204.62 46.85 206.86 49.77 206.93 51.4 204.1 55.69 203.08 58.59 203.84 62.21 200.73 64.36 206.09 69.39 208.3 69.73 203.76 73.47 202.6 82.64 204.12 86.18 199.91 84.35 197.03 88.23 191.53 92.19 194.6 100.29 191.84 104.18 188.94 115.53 194.44 115.22 197.15 119.94 198.14 119 200.77 125.53 207.08 125.85 211.39 130.84 214.35 132.59 218.79 135.72 217.21 140.62 211.12 143.39 210.32 152.48 205.1 154.92 205.35 159.41 212.56 163.32 208.01 168.92 207.22 173.9 203.12 178.74 202.89 177.47 207.15 179.24 209.77 183.11 210.74 193.84 208.77 Z M 107.53 317.07 102.58 315.14 101.94 310.68 107.65 311.53 108.16 313.71 112.95 315.51 111.26 318.09 107.53 317.07 Z"
      fill-rule="evenodd" data-reg="53" data-libgeo="Bretagne" />
    <path
      d="M 757.62 728.93 747.42 728.32 746.42 724.6 750.42 723.52 749.93 721.31 754.39 719.02 752.36 713.83 746.64 712.46 745.42 705.26 747.39 703.48 751.68 702.67 748.38 697.59 744.37 694.71 749.81 691.46 750.93 686.98 750.41 684.24 753.75 680.67 756.76 681.06 758.21 677.94 764.14 675.13 769.73 674.57 771.71 671.08 775.37 668.13 781.22 668.94 783.64 671.05 786.15 670.68 787.36 667.76 787.18 663.2 785.46 660.7 786.19 655.63 788.15 653.93 787.14 648.64 791.54 647.35 793.79 649.31 794.75 660.4 792.94 672.94 797.58 681.78 798.14 690.6 797.54 693.77 799 701.07 798.38 714.46 791.08 725.29 790.17 731.22 790.76 739.01 789.65 746.99 784.27 750.47 788.56 751.32 785.05 755.09 784.21 759.58 781.79 762.28 782.68 764.63 780.51 767.99 775.36 765.8 772.27 762.04 766.52 759.03 762.18 757.74 759.96 755.04 757.11 754.15 757.49 748.8 761.88 747.46 761.98 744.16 753.46 742.11 751.52 740.38 756.04 735.84 757.62 728.93 Z"
      data-reg="94" data-libgeo="Corse" />
    <path
      d="M 145.56 304.58 153.25 303.53 154.38 299.62 157.25 300.89 165.13 297.71 164.97 292.65 166.01 288.36 171.29 285.62 177.89 283.73 186.62 284.24 189.09 283.37 190.97 279.24 199.11 276.04 199.49 273.44 203.48 273.82 205.15 276.22 211.5 278.07 214.61 270.47 216.8 262.56 218.07 261.04 223.75 260.34 223.63 254.37 222.2 252.67 220.83 243.55 219.37 238.65 222.43 233.25 220.5 225.95 221.07 218.42 224.72 220.03 227.2 217.82 232.48 219.02 236.96 221.97 243.69 223.68 248.1 221.72 251.55 218.41 255.1 217.98 259.21 219.59 263.79 218.61 268.04 214.06 271.27 222.71 276.48 223 276.26 229.12 279.42 227.65 282.64 228.74 285.68 224.34 288.62 222.02 295.61 220.75 298.74 222.74 300.05 232.74 306.06 236.82 308.39 239.62 313.24 239.99 314.69 238.44 319.38 244.56 322.63 244.11 327.31 246.81 322.9 254.15 322.61 256.94 325.38 264.67 320.55 268.12 321.36 272.94 316.06 278.65 310.81 283.27 312.05 285.94 302.32 290.9 299.83 294.89 296.84 292.95 291.8 291.6 290.11 297 291.21 300.25 289.1 304.16 289.31 306.55 286.75 313.58 283.88 317.33 282.18 327.38 280.28 326.4 277.29 330.46 277.66 332.83 269.53 334.87 269.44 331.81 265.8 332.07 257.44 334.81 248.92 335.4 246.87 340.62 240.53 341.52 237.26 340.09 231.23 343.34 234.17 345.76 234.74 349.9 236.72 352.93 240.76 354.81 239.76 359.14 243.57 364.28 245.78 370.39 246.51 377.5 244.56 378.39 246.08 386.94 249.99 389.1 248.86 391.07 241.34 393.93 240.01 395.69 235.31 392.81 228.46 394.99 224.15 391.52 219.2 394.72 215.78 394.33 213.37 398.26 206.61 393.06 199.53 392.55 197.69 388.37 189.33 386.28 180.68 380.6 178.25 371.39 173.51 364.57 167.32 358.35 162.79 354.87 161.98 349.45 167.34 344.38 169.11 339.71 171.49 338.34 167.61 332.9 157.02 329.79 161.28 327.37 161.38 318.95 154.4 321.71 149.2 317.97 146.27 319.53 142.41 317.64 143.14 314.43 140.17 310.55 145.78 306.05 145.56 304.58 Z"
      data-reg="52" data-libgeo="Pays de la Loire" />
    <path
      d="M 468.73 190.17 466.3 195.76 467.9 199.57 467.93 203.84 466.33 205.74 469.71 210.54 468.68 215.04 465.22 217.71 463.49 221.01 464.91 228.14 462.22 229.61 457.75 228.84 456.2 230.19 451.69 229.19 444.81 230.96 443.2 234.92 444.8 237.85 442.63 243.06 438.92 246.66 435.12 247.26 431.4 246.32 426.42 249.76 423 248.78 413 248.83 416.42 244.01 415.52 240.53 410.82 238.22 409.9 233.83 407.47 234.79 400.93 234.19 396.9 235.65 386.48 236.48 385.77 234.81 386.75 227.37 384.53 224.51 379.56 223.55 377.19 221.93 375.79 218 376.44 214.72 372.18 212.73 366.39 205.72 365.13 202.43 367.7 198.73 364.98 195.85 365.91 191.16 362.9 184.32 360.88 182.79 357.89 174.07 366.52 170.84 369.32 166.99 370.45 160.18 371.92 158.6 373.86 162.89 377.29 162.54 381.63 164.41 387.95 163.34 392.06 160.56 400.08 165.27 403.57 164.64 410.45 165.26 413.63 166.67 419.69 171.22 422.19 169.4 426.39 172.49 429.06 172.82 431.99 169.82 435.27 172.07 445.84 170.79 446.28 168.14 451.35 169.62 452.26 172.76 451.47 176.87 458.92 182.15 463.07 188.23 468.73 190.17 Z"
      data-reg="11" data-libgeo="Île-de-France" />
    <path
      d="M 60.53 734.18 60.42 731.3 62.3 726.8 64.9 723.67 62.43 722.07 61.75 717.08 66.78 712.46 71.72 715.82 72.86 719.41 72.24 723.06 74.34 726.58 81.94 728.54 84.06 729.98 84.49 734.05 77.72 735.23 67.22 738.9 62.62 737.55 60.53 734.18 Z M 54.24 732.47 60.37 732.03 59.69 735.68 57.61 735.88 57.97 740.85 59.81 751.25 58.47 753.72 55.08 756.59 47.98 759.97 46.85 757.01 44.32 754.47 42.44 750.34 41.32 736.47 39.99 734.83 39.96 730.09 41.96 726.17 44.78 724.87 47.48 727.03 52.36 728.41 54.24 732.47 Z M 86.73 758.75 89.05 761.58 88.41 764.02 82.41 766.93 78.18 764.43 77.6 760.59 81.46 755.39 85.82 756.93 86.73 758.75 Z"
      fill-rule="evenodd" data-reg="01" data-libgeo="Guadeloupe" />
    <path
      d="M 143.77 746.55 141.47 745.29 140.46 740.82 143.21 738.55 149.13 740.38 149.8 738.15 147.13 735.42 140.74 734.5 137.13 731.56 133.71 726.64 133.86 722.5 129.63 716.56 131.44 712.32 136.58 710.98 144.8 714.46 150.45 720.7 152.72 721.35 152.9 728.7 157.15 728.93 156.69 731 158.54 734.71 160.39 735.71 162.27 739.76 163.2 746.14 159.78 751.54 156.78 749.59 159.13 746.92 148.81 745.66 146.58 744.44 143.77 746.55 Z"
      data-reg="02" data-libgeo="Martinique" />
    <path
      d="M 236.31 712.56 243.27 716.37 245 722.26 246.53 724.36 245.96 727.05 240.8 732.49 233.15 745.54 226.72 758.97 220.53 762.85 216 761.19 213.82 759.35 211.47 761.23 206.11 759.92 202.42 761.07 198.3 763.67 191.35 761.15 192.33 757.72 194.23 756.63 198.06 748.12 197.29 744.1 199.85 741.37 201.75 735.47 197.58 731.52 193.89 723.99 193.03 719.57 193.55 716.35 192.52 710.89 193.58 707.23 201.41 698.07 202.61 694.61 205.54 695.16 211.59 698.1 214.87 698.27 221.81 700.48 232.67 710.61 236.31 712.56 Z"
      data-reg="03" data-libgeo="Guyane" />
    <path
      d="M 274.58 736.53 271.35 731.98 271.71 728.5 267.16 722.4 266.03 717.65 270.61 714.8 271.94 707.7 275.37 708.08 281.06 703.94 285.17 703.26 293.29 705.3 296.63 705.36 302.59 707.93 305.46 712.6 305.63 715.98 311.91 725.1 315.72 727.13 316.54 730.5 314.25 734.32 313.67 737.41 314.23 743.49 311.92 746.12 300.85 748.42 293.11 746.92 285.78 744.29 280.66 740.28 276.01 738.99 274.58 736.53 Z"
      data-reg="04" data-libgeo="La Réunion" />
    <path
      d="M 338.82 717.4 338.71 715.19 342.63 710.65 347.84 716.44 351.7 715.95 354.56 717.79 354.59 720.17 350.67 724.97 352.75 727.89 349.07 734.24 347.74 738.25 342.77 735.65 343.92 732.05 346.56 729.36 343.12 726.22 343.97 723.3 343.14 720.52 338.82 717.4 Z"
      data-reg="06" data-libgeo="Mayotte" />
  </g>
</svg>