
    <svg
      viewBox="0 0 100 97"
      xmlns="http://www.w3.org/2000/svg"
      fill="#313178"
      stroke="#FFFFFF"
      stroke-width="0.3"
    >
      <polygon points="0,0 0,97 100,97 100,0" fill="#eee"/>
      <path d="M75.4,48.8 74.8,49.4 74.3,50.1 73.9,50.3 73.1,50.3 73.0,49.8 72.5,49.5 71.8,50.2 71.3,50.3 71.1,49.8 70.7,49.4 70.7,49.1 70.3,48.8 70.2,48.5 69.9,48.4 69.3,47.8 68.5,48.1 68.0,47.8 67.7,47.8 67.4,48.5 67.3,48.9 66.6,51.0 66.2,51.0 66.3,50.6 65.9,50.3 65.7,49.9 65.3,50.2 64.7,50.3 64.4,50.0 64.0,50.0 63.8,51.0 63.0,51.3 63.0,51.1 62.2,51.1 62.0,50.9 61.4,51.2 61.1,50.9 60.5,50.8 60.6,50.0 61.1,49.8 61.1,49.0 61.3,48.5 61.0,48.0 60.3,48.0 59.5,47.6 59.3,46.7 59.0,46.2 58.7,45.6 58.2,45.8 57.7,46.4 57.5,46.3 57.4,45.8 56.5,46.1 56.2,45.8 55.8,46.2 55.3,45.7 54.7,45.4 54.6,45.0 54.1,44.9 53.2,45.6 52.7,45.8 52.5,45.5 51.6,46.6 51.8,47.4 51.3,47.7 51.0,47.6 50.1,47.8 49.6,48.2 49.5,48.7 49.7,49.2 49.7,49.6 50.2,49.6 50.8,50.1 51.1,50.5 51.2,51.1 51.4,51.5 51.3,51.8 51.6,53.0 51.2,53.9 50.2,54.6 50.5,55.2 51.1,55.8 51.2,56.3 50.9,56.5 50.7,56.9 51.1,57.3 51.1,57.6 50.9,58.6 50.6,59.0 50.1,58.6 49.9,59.5 49.4,59.9 48.8,60.7 49.0,61.1 48.7,61.9 48.2,62.1 48.5,62.6 48.0,62.9 48.3,63.5 48.1,63.8 48.7,64.5 48.6,65.4 48.8,65.8 48.7,66.2 49.8,65.9 50.5,66.2 50.9,66.0 51.0,65.7 51.4,65.3 51.4,64.8 51.7,64.7 51.7,64.2 52.6,63.3 53.0,63.9 53.4,64.1 53.7,64.7 54.0,64.8 53.9,65.6 54.2,66.1 54.7,64.9 54.7,64.6 55.1,63.8 55.4,63.6 55.6,64.0 56.0,63.5 56.9,63.1 57.2,63.5 57.7,64.5 58.4,64.3 58.5,63.9 58.9,63.9 59.0,64.3 59.5,64.3 59.7,64.6 60.4,65.2 60.4,65.8 60.7,66.8 60.9,66.8 61.2,67.9 61.7,68.4 61.6,69.3 62.1,69.1 62.2,69.3 63.0,69.8 63.5,69.0 64.0,69.1 64.0,69.5 64.3,69.6 64.3,69.1 64.7,69.0 65.1,69.4 65.7,69.7 65.9,69.2 66.5,69.2 66.8,69.5 66.8,70.1 67.2,69.8 67.6,69.8 68.5,69.3 68.6,69.6 69.1,69.6 69.3,70.2 69.9,70.1 70.7,70.4 70.7,70.8 71.1,70.8 71.2,71.1 71.8,71.0 72.0,70.5 72.8,70.4 72.7,69.8 72.3,69.3 72.4,69.1 71.5,69.1 71.1,68.7 71.1,68.1 71.6,67.6 72.2,67.8 72.4,67.2 72.2,67.1 72.5,66.4 72.5,66.0 73.1,66.2 73.5,66.0 73.8,65.7 73.6,65.5 73.9,65.1 74.4,65.1 74.6,64.6 75.2,64.2 75.3,64.4 75.8,64.0 76.7,64.1 77.0,63.9 77.4,64.1 77.4,63.2 77.2,63.1 77.0,62.6 76.4,62.6 76.5,61.6 77.4,61.7 77.4,62.0 78.3,62.1 78.2,61.8 78.9,61.5 79.3,61.6 80.2,61.1 80.7,61.4 81.5,60.9 81.6,60.7 82.7,60.2 82.5,59.6 83.1,58.7 82.6,58.5 82.5,58.1 81.8,57.8 81.8,56.4 81.3,56.4 80.7,55.9 80.5,55.6 80.5,54.7 80.6,54.5 81.2,54.5 81.8,54.2 82.1,53.7 82.0,53.1 81.3,52.3 81.1,51.7 80.4,51.6 80.5,50.9 80.9,50.1 80.4,49.7 80.1,48.9 79.7,48.9 78.7,49.0 77.6,49.5 77.3,49.2 76.9,49.4 76.6,50.2 77.0,50.7 76.2,51.1 75.9,51.5 74.7,51.5 74.9,51.1 74.8,50.8 75.2,50.5 75.8,50.4 75.7,50.1 76.1,49.3 75.4,48.8 M67.2,69.0 67.5,68.4 68.0,68.2 68.3,68.8 68.0,69.5 67.4,69.4 67.2,69.0Z" data-codeInsee="84" data-nom="Auvergne-Rhône-Alpes"/>
<path d="M57.7,24.0 58.0,23.4 58.3,23.3 58.7,22.8 58.8,22.0 58.7,20.9 59.5,20.8 58.9,20.3 59.0,20.0 58.8,19.2 59.9,18.7 60.2,18.9 60.4,18.2 61.5,18.7 61.6,16.7 61.8,16.5 61.4,16.0 62.0,15.8 62.1,15.3 62.5,15.1 62.9,14.5 62.7,14.2 63.0,12.9 62.8,12.4 62.4,12.2 62.2,11.7 62.8,11.1 62.6,10.5 62.1,10.5 62.6,9.0 62.2,9.2 62.1,8.7 61.5,8.2 61.0,8.2 60.6,8.4 60.2,8.2 59.4,8.2 59.2,8.6 58.9,8.0 58.9,7.1 58.6,6.6 58.0,6.6 58.0,6.3 57.0,6.7 56.4,6.3 56.2,5.4 56.0,4.9 56.1,4.3 55.7,4.1 55.4,3.4 54.5,3.6 54.0,3.9 53.7,4.5 53.1,4.2 52.5,3.4 51.9,3.2 51.7,2.7 51.9,1.7 51.5,1.2 51.3,0.2 50.1,0.6 49.9,0.5 49.0,0.8 48.7,0.7 48.3,1.1 47.0,1.3 45.7,1.8 45.1,2.5 44.7,2.6 44.9,3.4 44.8,4.1 44.5,4.4 44.7,6.2 44.4,9.0 45.0,9.6 44.2,9.8 43.8,10.8 43.3,11.2 44.2,11.8 44.8,12.5 45.3,12.8 45.6,13.1 45.7,13.9 46.0,14.4 45.6,15.0 45.9,15.3 45.6,15.7 45.5,16.2 46.0,17.5 45.7,17.9 45.6,18.3 45.9,18.6 46.0,19.4 45.5,20.0 45.8,20.6 46.2,20.5 46.7,20.8 47.5,20.6 48.1,20.3 49.1,20.9 49.5,20.8 50.4,20.9 50.8,21.1 51.5,21.6 51.9,21.4 52.4,21.8 52.7,21.8 53.1,21.5 53.5,21.7 54.8,21.6 54.9,21.2 55.5,21.4 55.6,21.8 55.5,22.3 56.5,23.0 57.0,23.8 57.7,24.0Z" data-codeInsee="32" data-nom="Hauts-de-France"/>
<path d="M79.3,61.6 78.9,61.5 78.2,61.8 78.3,62.1 77.4,62.0 77.4,61.7 76.5,61.6 76.4,62.6 77.0,62.6 77.2,63.1 77.4,63.2 77.4,64.1 77.0,63.9 76.7,64.1 75.8,64.0 75.3,64.4 75.2,64.2 74.6,64.6 74.4,65.1 73.9,65.1 73.6,65.5 73.8,65.7 73.5,66.0 73.1,66.2 72.5,66.0 72.5,66.4 72.2,67.1 72.4,67.2 72.2,67.8 71.6,67.6 71.1,68.1 71.1,68.7 71.5,69.1 72.4,69.1 72.3,69.3 72.7,69.8 72.8,70.4 72.0,70.5 71.8,71.0 71.2,71.1 71.1,70.8 70.7,70.8 70.7,70.4 69.9,70.1 69.3,70.2 69.1,69.6 68.6,69.6 68.5,69.3 67.6,69.8 67.2,69.8 66.8,70.1 66.8,69.5 66.5,69.2 65.9,69.2 65.7,69.7 66.2,70.5 66.1,71.3 66.4,71.4 67.0,72.2 67.0,72.4 66.0,73.4 65.6,73.5 65.7,74.3 65.4,75.3 64.9,75.1 64.6,75.1 64.2,75.8 64.0,76.5 63.7,76.6 62.9,77.0 62.8,77.4 64.9,77.5 65.2,77.6 65.2,78.3 65.9,78.5 66.6,78.5 67.1,78.6 67.1,77.9 67.6,77.7 67.9,77.9 68.4,77.9 68.5,77.4 68.1,77.3 68.2,76.7 68.8,76.8 69.1,77.4 69.4,77.1 69.7,77.5 69.2,77.9 68.0,78.1 68.4,78.6 69.7,78.6 70.2,78.3 70.6,78.8 70.5,79.1 70.6,79.8 71.7,79.7 72.2,80.2 72.5,79.9 72.9,80.4 73.6,80.6 73.6,81.1 74.0,81.3 74.5,80.6 75.0,80.7 75.1,81.0 76.0,81.0 76.2,80.7 76.8,80.6 77.4,80.9 77.5,80.4 78.4,80.3 78.7,80.0 79.5,79.9 79.6,79.1 79.5,78.7 80.1,77.8 80.4,77.9 81.0,77.7 81.4,77.2 81.4,76.9 81.7,76.6 82.2,76.6 82.6,76.2 82.9,75.5 84.6,74.8 85.3,74.3 85.2,73.5 85.7,73.2 85.8,72.7 86.3,72.5 86.3,72.0 86.6,71.9 86.7,71.5 86.4,71.1 86.5,70.6 86.0,70.9 85.3,70.9 84.7,71.2 84.2,71.2 84.1,70.9 83.7,70.9 83.1,70.4 82.8,70.4 81.8,69.9 81.8,69.6 81.3,69.1 81.1,68.3 81.4,68.1 80.9,67.5 80.8,67.2 81.3,66.8 81.5,65.8 82.0,65.7 81.8,64.7 81.8,64.2 81.3,64.0 80.9,64.1 80.5,63.9 80.1,63.4 80.2,63.1 80.0,62.5 79.6,62.5 79.3,61.6 M67.2,69.0 67.4,69.4 68.0,69.5 68.3,68.8 68.0,68.2 67.5,68.4 67.2,69.0Z" data-codeInsee="93" data-nom="Provence-Alpes-Côte d'Azur"/>
<path d="M62.8,12.4 63.0,12.9 62.7,14.2 62.9,14.5 62.5,15.1 62.1,15.3 62.0,15.8 61.4,16.0 61.8,16.5 61.6,16.7 61.5,18.7 60.4,18.2 60.2,18.9 59.9,18.7 58.8,19.2 59.0,20.0 58.9,20.3 59.5,20.8 58.7,20.9 58.8,22.0 58.7,22.8 58.3,23.3 58.0,23.4 57.7,24.0 57.4,24.7 57.6,25.2 57.6,25.7 57.4,26.0 57.8,26.6 57.7,27.1 57.3,27.5 57.1,27.9 57.2,28.8 57.8,29.0 58.1,29.5 58.4,29.7 59.0,31.4 59.3,31.2 59.7,31.5 60.7,33.1 60.6,33.5 61.4,33.5 62.4,33.2 63.3,33.6 63.4,33.2 64.1,33.1 64.3,33.3 65.0,33.1 65.2,32.5 66.0,32.6 66.7,32.7 66.6,33.2 67.0,33.2 67.8,34.2 68.0,34.8 67.8,35.3 67.8,35.9 68.8,36.4 69.3,36.4 69.7,36.7 70.5,37.0 70.9,36.1 71.4,36.0 72.2,36.2 72.8,36.0 72.8,35.2 73.1,34.7 73.6,34.4 73.9,33.8 74.4,33.3 75.0,33.3 75.2,32.8 75.8,32.6 76.1,33.3 76.6,33.5 76.8,33.3 77.4,33.2 77.9,33.4 78.2,34.0 78.7,33.8 79.1,33.4 79.4,33.8 80.8,34.8 80.9,35.0 81.4,35.1 81.9,35.4 82.1,36.2 81.9,36.8 82.4,37.0 82.7,37.9 83.1,38.0 83.0,38.5 84.4,38.6 85.3,37.9 85.2,37.5 85.8,37.1 85.9,36.9 85.4,36.3 85.3,35.9 85.5,35.6 85.4,35.0 85.7,34.4 85.8,33.5 86.0,32.9 85.7,32.4 85.8,31.6 86.4,30.5 86.5,29.7 86.9,29.5 86.8,28.7 87.1,27.8 87.3,27.5 87.3,26.8 87.5,26.2 87.9,26.0 88.4,25.4 88.4,25.0 89.2,24.6 89.6,23.7 90.0,22.9 89.1,22.5 88.2,21.9 87.7,22.1 87.2,21.8 87.1,22.0 86.4,22.0 86.1,21.7 85.4,21.5 84.9,20.5 84.3,20.7 84.3,21.0 83.8,21.2 83.5,21.1 82.9,21.2 82.4,21.1 82.2,21.3 81.9,20.4 81.2,20.2 80.7,20.9 80.0,20.8 79.7,20.2 79.7,19.9 78.8,18.9 79.1,18.6 78.7,18.1 77.9,17.5 77.4,17.6 76.6,17.1 76.0,17.2 75.8,17.5 74.8,17.6 74.7,17.3 74.0,17.2 73.4,16.6 73.3,16.8 72.7,16.7 72.3,16.9 71.9,16.9 71.5,17.2 71.2,17.0 71.0,16.2 70.5,15.8 69.9,15.1 69.2,15.2 68.6,14.5 67.9,14.0 67.5,14.2 67.1,13.5 67.3,12.9 66.9,12.0 67.1,10.8 67.4,10.5 66.9,10.2 66.1,10.9 65.9,11.8 64.3,12.6 63.4,12.2 62.8,12.4Z" data-codeInsee="44" data-nom="Grand-Est"/>
<path d="M31.7,83.1 32.4,83.6 32.8,83.7 33.4,84.6 33.9,84.7 35.1,84.2 35.6,84.4 35.9,84.8 36.3,84.3 36.8,84.6 37.5,84.5 38.4,84.6 38.5,84.4 38.3,83.8 38.4,83.2 38.7,83.0 39.2,83.3 39.7,83.4 40.2,83.7 40.4,83.5 41.4,83.8 41.8,84.4 43.1,84.3 43.5,85.0 44.5,84.9 44.8,85.2 45.7,85.3 45.8,85.8 45.7,86.5 46.2,86.5 47.1,87.0 47.3,87.5 47.7,87.7 48.1,87.6 48.4,87.2 48.9,87.2 49.3,87.0 50.4,87.4 50.8,87.9 51.2,87.9 51.5,87.7 52.1,87.9 52.0,87.4 52.5,87.1 52.8,87.2 53.3,86.8 53.9,86.8 54.7,86.6 55.0,87.1 55.6,87.0 55.3,86.3 54.7,86.0 54.7,85.3 54.7,83.6 54.8,82.5 54.7,82.4 54.8,81.5 55.1,81.0 55.6,80.2 56.3,79.5 57.1,79.1 57.9,79.1 58.8,78.1 59.9,77.5 60.6,76.9 61.3,76.5 61.9,76.5 62.0,77.0 62.3,77.2 62.8,77.4 62.9,77.0 63.7,76.6 64.0,76.5 64.2,75.8 64.6,75.1 64.9,75.1 65.4,75.3 65.7,74.3 65.6,73.5 66.0,73.4 67.0,72.4 67.0,72.2 66.4,71.4 66.1,71.3 66.2,70.5 65.7,69.7 65.1,69.4 64.7,69.0 64.3,69.1 64.3,69.6 64.0,69.5 64.0,69.1 63.5,69.0 63.0,69.8 62.2,69.3 62.1,69.1 61.6,69.3 61.7,68.4 61.2,67.9 60.9,66.8 60.7,66.8 60.4,65.8 60.4,65.2 59.7,64.6 59.5,64.3 59.0,64.3 58.9,63.9 58.5,63.9 58.4,64.3 57.7,64.5 57.2,63.5 56.9,63.1 56.0,63.5 55.6,64.0 55.4,63.6 55.1,63.8 54.7,64.6 54.7,64.9 54.2,66.1 53.9,65.6 54.0,64.8 53.7,64.7 53.4,64.1 53.0,63.9 52.6,63.3 51.7,64.2 51.7,64.7 51.4,64.8 51.4,65.3 51.0,65.7 50.9,66.0 50.5,66.2 49.8,65.9 48.7,66.2 48.8,65.8 48.6,65.4 48.7,64.5 48.1,63.8 48.3,63.5 48.0,62.9 46.9,62.9 46.3,63.4 45.9,63.2 45.2,62.4 44.4,62.2 43.5,62.6 43.7,63.5 43.7,63.9 43.2,64.2 43.2,64.5 42.7,64.6 42.9,65.0 42.7,65.4 42.2,65.7 41.7,65.9 41.7,66.2 40.8,67.2 40.8,68.0 41.1,68.2 41.0,68.8 39.9,68.8 39.8,69.3 40.4,69.7 39.9,70.8 39.8,71.1 39.3,70.9 38.9,71.7 38.5,72.0 38.0,71.5 37.7,71.7 37.0,71.8 36.9,72.0 36.3,72.1 35.9,72.3 35.3,72.1 35.0,72.3 34.4,72.4 34.1,73.2 33.3,72.8 33.0,72.8 32.3,73.3 32.6,73.9 32.3,74.1 32.5,74.8 32.1,75.1 32.2,75.6 31.9,75.9 32.4,76.2 33.2,76.2 33.3,76.6 33.5,76.8 33.4,77.7 33.9,77.8 33.8,78.2 33.5,78.9 33.7,79.2 33.4,79.6 32.9,80.5 32.6,80.6 32.5,81.3 32.1,81.4 31.8,81.8 31.9,82.3 31.6,82.5 31.7,83.1Z" data-codeInsee="76" data-nom="Occitanie"/>
<path d="M43.3,11.2 42.1,12.2 41.2,12.7 40.4,12.8 39.1,13.3 38.7,13.3 37.8,13.5 36.4,14.4 36.1,14.7 35.3,15.0 35.0,15.3 34.9,15.7 34.3,17.1 34.7,17.6 35.7,17.8 34.6,18.3 34.2,18.8 33.2,19.4 32.3,19.5 31.8,19.3 31.0,19.0 30.3,18.9 29.7,18.9 28.0,18.7 27.5,18.4 26.5,18.4 26.2,18.7 25.3,17.4 24.9,16.8 25.4,15.9 25.1,15.3 24.5,15.0 24.1,15.1 23.7,15.4 22.7,15.7 22.1,15.3 21.4,15.2 20.6,14.8 20.5,15.4 21.1,15.6 21.2,16.5 20.9,16.9 21.2,17.1 21.4,18.3 22.1,19.1 22.6,20.2 22.8,20.4 22.9,21.1 22.8,21.6 23.1,22.7 23.1,23.4 22.9,24.2 23.1,24.3 23.1,25.0 23.5,25.6 24.2,26.2 23.7,26.4 23.1,26.4 23.3,26.6 23.4,27.2 23.7,27.8 24.4,28.1 25.1,27.6 25.2,27.2 26.5,27.6 27.0,27.8 27.3,27.5 28.0,27.6 28.5,28.0 29.4,28.2 29.9,28.0 30.4,27.6 30.8,27.5 31.3,27.7 31.9,27.6 32.4,27.0 32.8,28.1 33.5,28.2 33.5,28.9 33.9,28.7 34.3,28.9 34.7,28.3 35.0,28.0 35.9,27.9 36.3,28.1 36.5,29.4 37.2,29.9 37.5,30.2 38.1,30.3 38.3,30.1 38.9,30.9 39.3,30.8 39.5,30.6 39.0,29.7 39.2,29.3 40.1,29.0 40.5,28.3 40.3,28.1 40.5,27.4 40.2,27.1 39.7,26.8 39.4,26.5 39.5,25.8 39.8,25.5 40.4,25.3 41.8,24.9 43.0,24.9 43.3,24.7 43.2,24.2 43.9,23.8 43.8,23.3 44.1,23.1 43.8,22.0 44.8,21.6 45.2,21.1 45.3,20.2 45.5,20.0 46.0,19.4 45.9,18.6 45.6,18.3 45.7,17.9 46.0,17.5 45.5,16.2 45.6,15.7 45.9,15.3 45.6,15.0 46.0,14.4 45.7,13.9 45.6,13.1 45.3,12.8 44.8,12.5 44.2,11.8 43.3,11.2Z" data-codeInsee="28" data-nom="Normandie"/>
<path d="M26.3,49.8 26.2,50.3 25.4,51.3 25.9,51.5 26.6,52.4 26.4,52.9 26.5,53.7 26.3,54.2 25.8,54.4 25.9,54.8 25.3,55.1 25.4,55.8 26.2,56.4 27.0,56.8 27.1,57.1 28.0,57.8 28.4,58.2 28.8,59.1 29.3,61.0 29.3,61.4 29.5,62.0 29.8,62.3 29.7,62.5 29.2,61.9 28.7,60.7 28.6,59.9 28.3,59.3 27.4,58.4 26.3,57.4 26.0,58.0 25.9,59.7 25.5,64.1 25.3,65.5 25.8,65.1 25.9,64.8 26.6,65.5 26.9,66.1 26.3,66.1 25.7,66.0 25.6,66.4 25.2,67.2 25.3,67.6 24.9,70.9 24.4,73.1 24.0,75.1 23.9,75.6 23.4,76.7 22.9,77.7 22.4,78.1 21.6,78.2 21.9,78.6 22.7,78.9 22.8,79.3 23.1,79.4 23.3,79.0 24.4,79.3 24.3,80.0 24.1,80.5 23.8,80.9 24.0,81.3 24.6,81.5 24.9,81.1 25.3,81.3 26.2,81.5 26.9,81.8 27.2,82.1 28.3,82.2 28.7,82.0 28.8,82.7 29.7,83.3 30.1,83.8 30.3,83.4 30.8,83.6 31.1,83.6 31.7,83.1 31.6,82.5 31.9,82.3 31.8,81.8 32.1,81.4 32.5,81.3 32.6,80.6 32.9,80.5 33.4,79.6 33.7,79.2 33.5,78.9 33.8,78.2 33.9,77.8 33.4,77.7 33.5,76.8 33.3,76.6 33.2,76.2 32.4,76.2 31.9,75.9 32.2,75.6 32.1,75.1 32.5,74.8 32.3,74.1 32.6,73.9 32.3,73.3 33.0,72.8 33.3,72.8 34.1,73.2 34.4,72.4 35.0,72.3 35.3,72.1 35.9,72.3 36.3,72.1 36.9,72.0 37.0,71.8 37.7,71.7 38.0,71.5 38.5,72.0 38.9,71.7 39.3,70.9 39.8,71.1 39.9,70.8 40.4,69.7 39.8,69.3 39.9,68.8 41.0,68.8 41.1,68.2 40.8,68.0 40.8,67.2 41.7,66.2 41.7,65.9 42.2,65.7 42.7,65.4 42.9,65.0 42.7,64.6 43.2,64.5 43.2,64.2 43.7,63.9 43.7,63.5 43.5,62.6 44.4,62.2 45.2,62.4 45.9,63.2 46.3,63.4 46.9,62.9 48.0,62.9 48.5,62.6 48.2,62.1 48.7,61.9 49.0,61.1 48.8,60.7 49.4,59.9 49.9,59.5 50.1,58.6 50.6,59.0 50.9,58.6 51.1,57.6 51.1,57.3 50.7,56.9 50.9,56.5 51.2,56.3 51.1,55.8 50.5,55.2 50.2,54.6 51.2,53.9 51.6,53.0 51.3,51.8 51.4,51.5 51.2,51.1 51.1,50.5 50.8,50.1 50.2,49.6 49.7,49.6 49.7,49.2 49.5,48.7 49.3,48.7 48.0,48.7 47.5,48.6 46.3,48.6 46.2,48.4 45.7,49.0 45.4,48.8 45.1,49.1 44.3,48.7 43.7,49.4 43.1,48.9 42.8,49.2 42.3,49.3 41.9,49.1 42.2,48.6 41.7,48.5 41.7,47.9 41.4,47.6 40.8,47.6 40.1,47.0 40.0,46.7 40.2,46.0 40.0,45.6 39.4,45.0 39.2,44.4 38.7,43.9 38.6,43.2 37.8,42.9 37.9,43.4 37.3,43.4 36.9,43.7 36.4,43.5 36.0,43.6 35.9,42.4 34.8,41.7 34.4,41.7 34.2,41.3 34.0,41.2 33.6,41.7 33.6,42.0 32.6,42.2 32.6,41.9 32.2,41.9 31.1,42.2 30.0,42.3 29.8,43.0 29.0,43.1 28.6,42.9 27.8,43.3 28.2,43.6 28.2,44.1 28.5,44.5 29.0,44.8 28.9,45.3 29.4,46.0 29.6,46.7 29.7,47.6 29.5,47.7 29.7,48.8 30.2,49.1 30.0,49.3 29.1,49.7 28.9,49.9 28.3,49.5 27.4,49.8 26.9,49.4 26.3,49.8 M23.7,50.9 24.6,51.4 25.1,51.5 25.0,51.1 24.5,50.9 24.1,50.9 23.5,50.4 23.2,50.6 23.3,50.9 23.7,50.9 M25.5,53.8 25.4,53.1 24.8,53.0 24.5,52.6 24.4,53.4 25.2,54.1 25.4,54.9 25.7,54.6 25.7,54.0 25.5,53.8Z" data-codeInsee="75" data-nom="Nouvelle Aquitaine"/>
<path d="M49.5,48.7 49.6,48.2 50.1,47.8 51.0,47.6 51.3,47.7 51.8,47.4 51.6,46.6 52.5,45.5 52.7,45.8 53.2,45.6 54.1,44.9 54.6,45.0 54.9,44.4 54.7,43.9 54.9,43.4 54.9,42.8 54.6,42.3 54.6,41.7 54.3,40.7 54.3,40.3 53.5,39.5 53.9,38.5 53.6,37.8 53.3,37.4 54.0,37.0 53.9,36.1 53.4,35.6 53.5,35.2 53.9,35.2 54.6,34.8 54.5,34.5 54.5,33.8 55.3,33.1 55.0,32.3 54.7,32.1 54.6,31.4 54.0,31.1 53.5,31.2 53.0,31.1 52.4,31.5 52.0,31.4 50.7,31.4 51.1,30.8 51.0,30.4 50.4,30.1 50.3,29.5 50.0,29.6 49.2,29.6 48.7,29.7 47.4,29.8 47.3,29.6 47.4,28.7 47.1,28.3 46.5,28.2 46.2,28.0 46.0,27.5 46.1,27.1 45.6,26.9 44.8,26.0 44.7,25.6 45.0,25.1 44.6,24.7 44.8,24.1 44.4,23.3 44.1,23.1 43.8,23.3 43.9,23.8 43.2,24.2 43.3,24.7 43.0,24.9 41.8,24.9 40.4,25.3 39.8,25.5 39.5,25.8 39.4,26.5 39.7,26.8 40.2,27.1 40.5,27.4 40.3,28.1 40.5,28.3 40.1,29.0 39.2,29.3 39.0,29.7 39.5,30.6 39.3,30.8 39.9,31.2 39.3,32.1 39.3,32.4 39.7,33.4 39.1,33.8 39.2,34.4 38.5,35.2 37.8,35.7 38.0,36.1 36.8,36.7 36.4,37.2 36.1,37.0 35.4,36.8 35.2,37.5 35.4,37.9 35.1,38.4 35.1,38.7 34.8,39.6 34.4,40.0 34.2,41.3 34.4,41.7 34.8,41.7 35.9,42.4 36.0,43.6 36.4,43.5 36.9,43.7 37.3,43.4 37.9,43.4 37.8,42.9 38.6,43.2 38.7,43.9 39.2,44.4 39.4,45.0 40.0,45.6 40.2,46.0 40.0,46.7 40.1,47.0 40.8,47.6 41.4,47.6 41.7,47.9 41.7,48.5 42.2,48.6 41.9,49.1 42.3,49.3 42.8,49.2 43.1,48.9 43.7,49.4 44.3,48.7 45.1,49.1 45.4,48.8 45.7,49.0 46.2,48.4 46.3,48.6 47.5,48.6 48.0,48.7 49.3,48.7 49.5,48.7Z" data-codeInsee="24" data-nom="Centre-Val de Loire"/>
<path d="M82.7,37.9 82.4,37.0 81.9,36.8 82.1,36.2 81.9,35.4 81.4,35.1 80.9,35.0 80.8,34.8 79.4,33.8 79.1,33.4 78.7,33.8 78.2,34.0 77.9,33.4 77.4,33.2 76.8,33.3 76.6,33.5 76.1,33.3 75.8,32.6 75.2,32.8 75.0,33.3 74.4,33.3 73.9,33.8 73.6,34.4 73.1,34.7 72.8,35.2 72.8,36.0 72.2,36.2 71.4,36.0 70.9,36.1 70.5,37.0 69.7,36.7 69.3,36.4 68.8,36.4 67.8,35.9 67.8,35.3 68.0,34.8 67.8,34.2 67.0,33.2 66.6,33.2 66.7,32.7 66.0,32.6 65.2,32.5 65.0,33.1 64.3,33.3 64.1,33.1 63.4,33.2 63.3,33.6 62.4,33.2 61.4,33.5 60.6,33.5 60.7,33.1 59.7,31.5 59.3,31.2 59.0,31.4 58.4,29.7 58.1,29.5 57.8,29.0 57.2,28.8 56.9,29.0 56.3,28.9 56.1,29.1 55.6,28.9 54.7,29.2 54.5,29.7 54.7,30.0 54.4,30.7 54.0,31.1 54.6,31.4 54.7,32.1 55.0,32.3 55.3,33.1 54.5,33.8 54.5,34.5 54.6,34.8 53.9,35.2 53.5,35.2 53.4,35.6 53.9,36.1 54.0,37.0 53.3,37.4 53.6,37.8 53.9,38.5 53.5,39.5 54.3,40.3 54.3,40.7 54.6,41.7 54.6,42.3 54.9,42.8 54.9,43.4 54.7,43.9 54.9,44.4 54.6,45.0 54.7,45.4 55.3,45.7 55.8,46.2 56.2,45.8 56.5,46.1 57.4,45.8 57.5,46.3 57.7,46.4 58.2,45.8 58.7,45.6 59.0,46.2 59.3,46.7 59.5,47.6 60.3,48.0 61.0,48.0 61.3,48.5 61.1,49.0 61.1,49.8 60.6,50.0 60.5,50.8 61.1,50.9 61.4,51.2 62.0,50.9 62.2,51.1 63.0,51.1 63.0,51.3 63.8,51.0 64.0,50.0 64.4,50.0 64.7,50.3 65.3,50.2 65.7,49.9 65.9,50.3 66.3,50.6 66.2,51.0 66.6,51.0 67.3,48.9 67.4,48.5 67.7,47.8 68.0,47.8 68.5,48.1 69.3,47.8 69.9,48.4 70.2,48.5 70.3,48.8 70.7,49.1 70.7,49.4 71.1,49.8 71.3,50.3 71.8,50.2 72.5,49.5 73.0,49.8 73.1,50.3 73.9,50.3 74.3,50.1 74.8,49.4 75.4,48.8 75.4,48.3 76.0,47.5 75.7,47.2 76.8,46.2 77.9,45.4 78.1,44.0 77.9,43.7 78.3,43.2 79.3,43.0 80.0,41.9 80.8,41.3 81.0,40.9 81.5,40.5 81.4,40.0 82.1,39.7 82.1,39.3 81.0,39.3 81.4,38.9 81.4,38.6 81.8,38.4 81.7,38.0 82.7,37.9Z" data-codeInsee="27" data-nom="Bourgogne-Franche-Comté"/>
<path d="M23.1,26.4 21.7,26.6 21.2,26.5 21.0,26.2 21.2,25.6 20.6,25.6 19.9,26.2 19.2,26.3 18.7,26.8 18.2,25.9 17.9,25.9 16.7,26.6 16.4,26.7 15.8,27.4 15.4,27.6 15.1,27.1 14.5,26.7 14.5,26.1 13.7,25.4 13.8,25.0 13.2,24.9 13.2,24.6 11.8,23.9 11.3,24.2 10.3,24.6 9.8,24.2 9.3,24.9 9.5,25.2 9.1,25.8 7.9,25.6 7.4,25.7 7.4,26.3 6.8,26.0 6.5,25.3 6.0,25.7 5.7,25.6 5.1,25.8 4.9,26.1 4.6,26.1 4.1,25.8 3.3,26.4 2.9,26.3 2.6,26.6 1.3,27.2 1.1,27.7 1.2,28.0 1.0,28.5 1.2,29.0 1.2,29.4 1.5,29.4 1.8,29.2 2.1,29.3 3.5,28.7 3.4,29.5 4.2,29.3 4.3,29.8 3.9,30.0 3.5,29.8 3.0,29.9 2.5,30.2 2.9,30.8 3.3,30.4 4.4,30.8 4.6,31.4 4.3,31.9 3.9,31.7 3.2,31.8 1.8,32.2 2.5,32.8 3.0,32.8 3.6,33.2 3.8,33.7 4.1,34.4 3.9,34.9 5.1,34.9 5.3,34.4 5.7,34.2 6.2,34.4 6.6,34.3 6.8,33.9 7.3,34.7 7.8,35.0 8.3,34.8 8.6,35.1 9.7,35.2 10.2,35.9 10.9,35.8 11.4,36.0 12.2,36.8 12.4,37.5 12.9,37.1 13.3,37.2 13.6,36.8 13.9,37.0 14.3,36.7 14.8,36.7 15.2,37.1 15.0,37.5 13.9,37.3 14.6,38.0 15.8,37.7 16.6,37.6 17.1,37.9 17.0,38.4 18.0,38.3 18.1,37.8 18.5,38.0 19.5,37.6 19.4,36.9 19.6,36.4 20.2,36.0 21.1,35.8 22.2,35.9 22.5,35.8 22.7,35.2 23.7,34.8 23.8,34.5 24.3,34.6 24.5,34.9 25.3,35.1 25.7,34.1 26.0,33.1 26.1,32.9 26.9,32.9 26.8,32.1 26.7,31.9 26.5,30.7 26.3,30.1 26.7,29.4 26.4,28.5 26.5,27.6 25.2,27.2 25.1,27.6 24.4,28.1 23.7,27.8 23.4,27.2 23.3,26.6 23.1,26.4 M12.2,40.0 12.7,40.1 12.9,39.8 12.3,39.6 12.2,39.3 11.5,39.2 11.6,39.8 12.2,40.0Z" data-codeInsee="53" data-nom="Bretagne"/>
<path d="M94.1,91.9 93.9,92.8 93.3,93.3 93.6,93.6 94.7,93.8 94.7,94.2 94.1,94.4 94.1,95.1 94.4,95.2 94.7,95.5 95.2,95.7 96.0,96.1 96.4,96.5 97.0,96.8 97.3,96.4 97.2,96.1 97.5,95.8 97.6,95.2 98.0,94.7 97.5,94.6 98.2,94.2 98.3,93.2 98.2,92.2 98.3,91.4 99.3,90.1 99.3,88.4 99.1,87.5 99.2,87.1 99.2,86.0 98.6,84.8 98.8,83.3 98.7,81.9 98.4,81.6 97.8,81.8 98.0,82.4 97.7,82.7 97.6,83.3 97.8,83.6 97.9,84.2 97.7,84.6 97.4,84.6 97.1,84.3 96.4,84.2 95.9,84.6 95.6,85.0 94.9,85.1 94.2,85.5 94.0,85.9 93.6,85.8 93.2,86.3 93.3,86.6 93.1,87.2 92.4,87.6 93.0,87.9 93.4,88.6 92.8,88.7 92.6,88.9 92.7,89.8 93.5,90.0 93.7,90.6 93.1,90.9 93.2,91.2 92.7,91.3 92.8,91.8 94.1,91.9Z" data-codeInsee="94" data-nom="Corse"/>
<path d="M17.0,38.4 17.0,38.6 16.3,39.2 16.7,39.7 16.6,40.1 17.1,40.3 17.5,40.1 18.1,40.6 19.0,40.2 19.0,41.3 18.4,41.6 19.8,42.0 20.3,42.7 20.0,42.9 19.7,43.4 19.1,44.1 19.2,44.8 19.7,45.2 20.5,46.0 21.1,46.8 21.4,48.0 22.5,48.7 23.6,49.0 23.8,49.5 24.7,49.6 25.5,50.2 25.8,49.7 26.3,49.8 26.9,49.4 27.4,49.8 28.3,49.5 28.9,49.9 29.1,49.7 30.0,49.3 30.2,49.1 29.7,48.8 29.5,47.7 29.7,47.6 29.6,46.7 29.4,46.0 28.9,45.3 29.0,44.8 28.5,44.5 28.2,44.1 28.2,43.6 27.8,43.3 28.6,42.9 29.0,43.1 29.8,43.0 30.0,42.3 31.1,42.2 32.2,41.9 32.6,41.9 32.6,42.2 33.6,42.0 33.6,41.7 34.0,41.2 34.2,41.3 34.4,40.0 34.8,39.6 35.1,38.7 35.1,38.4 35.4,37.9 35.2,37.5 35.4,36.8 36.1,37.0 36.4,37.2 36.8,36.7 38.0,36.1 37.8,35.7 38.5,35.2 39.2,34.4 39.1,33.8 39.7,33.4 39.3,32.4 39.3,32.1 39.9,31.2 39.3,30.8 38.9,30.9 38.3,30.1 38.1,30.3 37.5,30.2 37.2,29.9 36.5,29.4 36.3,28.1 35.9,27.9 35.0,28.0 34.7,28.3 34.3,28.9 33.9,28.7 33.5,28.9 33.5,28.2 32.8,28.1 32.4,27.0 31.9,27.6 31.3,27.7 30.8,27.5 30.4,27.6 29.9,28.0 29.4,28.2 28.5,28.0 28.0,27.6 27.3,27.5 27.0,27.8 26.5,27.6 26.4,28.5 26.7,29.4 26.3,30.1 26.5,30.7 26.7,31.9 26.8,32.1 26.9,32.9 26.1,32.9 26.0,33.1 25.7,34.1 25.3,35.1 24.5,34.9 24.3,34.6 23.8,34.5 23.7,34.8 22.7,35.2 22.5,35.8 22.2,35.9 21.1,35.8 20.2,36.0 19.6,36.4 19.4,36.9 19.5,37.6 18.5,38.0 18.1,37.8 18.0,38.3 17.0,38.4Z" data-codeInsee="52" data-nom="Pays de la Loire"/>
<path d="M57.7,24.0 57.0,23.8 56.5,23.0 55.5,22.3 55.6,21.8 55.5,21.4 54.9,21.2 54.8,21.6 53.5,21.7 53.1,21.5 52.7,21.8 52.4,21.8 51.9,21.4 51.5,21.6 50.8,21.1 50.4,20.9 49.5,20.8 49.1,20.9 48.1,20.3 47.5,20.6 46.7,20.8 46.2,20.5 45.8,20.6 45.5,20.0 45.3,20.2 45.2,21.1 44.8,21.6 43.8,22.0 44.1,23.1 44.4,23.3 44.8,24.1 44.6,24.7 45.0,25.1 44.7,25.6 44.8,26.0 45.6,26.9 46.1,27.1 46.0,27.5 46.2,28.0 46.5,28.2 47.1,28.3 47.4,28.7 47.3,29.6 47.4,29.8 48.7,29.7 49.2,29.6 50.0,29.6 50.3,29.5 50.4,30.1 51.0,30.4 51.1,30.8 50.7,31.4 52.0,31.4 52.4,31.5 53.0,31.1 53.5,31.2 54.0,31.1 54.4,30.7 54.7,30.0 54.5,29.7 54.7,29.2 55.6,28.9 56.1,29.1 56.3,28.9 56.9,29.0 57.2,28.8 57.1,27.9 57.3,27.5 57.7,27.1 57.8,26.6 57.4,26.0 57.6,25.7 57.6,25.2 57.4,24.7 57.7,24.0Z" data-codeInsee="11" data-nom="Île-de-France"/>
<path d="M6.3,92.6 6.6,93.0 7.1,93.2 8.5,92.7 9.3,92.5 9.3,92.0 9.0,91.8 8.0,91.6 7.8,91.2 7.8,90.7 7.7,90.2 7.1,89.8 6.4,90.4 6.5,91.0 6.8,91.2 6.5,91.6 6.3,92.2 6.3,92.6 M5.5,92.3 5.3,91.8 4.6,91.7 4.3,91.4 3.9,91.5 3.7,92.0 3.7,92.6 3.9,92.8 4.0,94.6 4.2,95.1 4.6,95.4 4.7,95.8 5.6,95.4 6.0,95.0 6.2,94.7 6.0,93.4 5.9,92.8 6.2,92.7 6.3,92.3 5.5,92.3 M9.6,95.7 9.5,95.4 8.9,95.2 8.4,95.9 8.5,96.4 9.0,96.7 9.8,96.3 9.9,96.0 9.6,95.7Z" data-codeInsee="01" data-nom="Guadeloupe"/>
<path d="M16.8,94.1 17.1,93.8 17.4,94.0 18.7,94.2 18.4,94.5 18.8,94.7 19.2,94.1 19.1,93.3 18.9,92.7 18.6,92.6 18.4,92.2 18.5,91.9 17.9,91.9 17.9,90.9 17.6,90.9 16.9,90.1 15.9,89.6 15.2,89.8 15.0,90.3 15.5,91.1 15.5,91.6 15.9,92.2 16.4,92.6 17.2,92.7 17.5,93.1 17.5,93.3 16.7,93.1 16.4,93.4 16.5,94.0 16.8,94.1Z" data-codeInsee="02" data-nom="Martinique"/>
<path d="M28.4,89.8 28.0,89.6 26.6,88.3 25.7,88.0 25.3,88.0 24.6,87.6 24.2,87.6 24.0,88.0 23.1,89.2 22.9,89.6 23.0,90.3 23.0,90.7 23.1,91.3 23.6,92.2 24.1,92.7 23.8,93.5 23.5,93.8 23.6,94.3 23.1,95.4 22.9,95.5 22.8,96.0 23.6,96.3 24.2,95.9 24.6,95.8 25.3,96.0 25.6,95.7 25.9,96.0 26.4,96.2 27.2,95.7 28.0,94.0 29.0,92.3 29.7,91.7 29.7,91.3 29.5,91.1 29.3,90.3 28.4,89.8Z" data-codeInsee="03" data-nom="Guyane"/>
<path d="M33.3,92.9 33.4,93.2 34.0,93.3 34.7,93.8 35.6,94.2 36.6,94.3 38.0,94.1 38.3,93.7 38.2,93.0 38.3,92.6 38.5,92.1 38.4,91.7 38.0,91.4 37.2,90.3 37.1,89.8 36.8,89.2 36.0,88.9 35.6,88.9 34.6,88.7 34.1,88.7 33.4,89.3 32.9,89.2 32.8,90.1 32.2,90.5 32.3,91.1 32.9,91.8 32.9,92.3 33.3,92.9Z" data-codeInsee="04" data-nom="La Réunion"/>
<path d="M41.4,90.4 41.9,90.8 42.0,91.2 41.9,91.6 42.3,91.9 42.0,92.3 41.8,92.7 42.5,93.1 42.6,92.6 43.1,91.8 42.8,91.4 43.3,90.8 43.3,90.5 43.0,90.3 42.5,90.3 41.8,89.6 41.3,90.2 41.4,90.4Z" data-codeInsee="06" data-nom="Mayotte"/>
    </svg>
  